<svg
  height="16"
  strokeLinejoin="round"
  viewBox="0 0 16 16"
  width="16"
>
  <svg
    width="16"
    height="16"
    viewBox="0 0 16 16"
    fill="none"
    xmlns="http://www.w3.org/2000/svg"
  >
    <g clipPath="url(#clip0_11223_26136)">
      <rect
        x="0.75"
        y="0.75"
        width="14.5"
        height="14.5"
        rx="3.25"
        stroke="currentColor"
        strokeWidth="1.5"
      ></rect>
      <path
        opacity="0.33"
        d="M3 15L1.5 14.5L1 13H3V15ZM7 15H5V13H7V15ZM11 15H9V13H11V15ZM14.5 14.5L13 15V13H15L14.5 14.5ZM5 13H3V11H5V13ZM9 13H7V11H9V13ZM13 13H11V11H13V13ZM3 11H1V9H3V11ZM7 11H5V9H7V11ZM11 11H9V9H11V11ZM15 11H13V9H15V11ZM5 9H3V7H5V9ZM9 9H7V7H9V9ZM13 9H11V7H13V9ZM3 7H1V5H3V7ZM7 7H5V5H7V7ZM11 7H9V5H11V7ZM15 7H13V5H15V7ZM5 5H3V3H5V5ZM9 5H7V3H9V5ZM13 5H11V3H13V5ZM3 3H1L1.5 1.5L3 1V3ZM7 3H5V1H7V3ZM11 3H9V1H11V3ZM14.5 1.5L15 3H13V1L14.5 1.5Z"
        fill="currentColor"
      ></path>
    </g>
    <defs>
      <clipPath id="clip0_11223_26136">
        <rect width="16" height="16" fill="white"></rect>
      </clipPath>
    </defs>
  </svg>
</svg>