<svg
                      height="16"
                      strokeLinejoin="round"
                      viewBox="0 0 16 16"
                      width="16"
                    >
                      <path
                        d="M11.2002 9.25C11.2002 7.48269 9.76731 6.0498 8 6.0498C6.23269 6.0498 4.7998 7.48269 4.7998 9.25C4.7998 11.0173 6.23269 12.4502 8 12.4502V14.25C5.23858 14.25 3 12.0114 3 9.25C3 6.48858 5.23858 4.25 8 4.25C10.7614 4.25 13 6.48858 13 9.25C13 12.0114 10.7614 14.25 8 14.25V12.4502C9.76731 12.4502 11.2002 11.0173 11.2002 9.25Z"
                        fill="currentColor"
                      ></path>
                      <path
                        d="M3 1.25H13V2.75H3V1.25Z"
                        fill="currentColor"
                      ></path>
                    </svg>