<svg
                      height="16"
                      strokeLinejoin="round"
                      viewBox="0 0 16 16"
                      width="16"
                    >
                      <path
                        d="M8.00371 14.804C5.07771 14.804 3.23471 12.068 3.23471 7.774C3.23471 3.442 5.07771 0.706 8.00371 0.706C10.9297 0.706 12.7727 3.442 12.7727 7.774C12.7727 12.068 10.9297 14.804 8.00371 14.804ZM4.88771 7.774C4.88771 9.047 5.05871 10.149 5.40071 11.023L9.80871 3.1C9.31471 2.568 8.70671 2.264 8.00371 2.264C6.10371 2.264 4.88771 4.392 4.88771 7.774ZM6.17971 12.41C6.67371 12.942 7.30071 13.246 8.00371 13.246C9.90371 13.246 11.1197 11.118 11.1197 7.774C11.1197 6.463 10.9297 5.323 10.5877 4.43L6.17971 12.41Z"
                        fill="currentColor"
                      ></path>
                    </svg>