<svg preserveAspectRatio="none" width="100%" height="100%" overflow="visible" style="display: block;" viewBox="0 0 14.003 6.57618" fill="none" xmlns="http://www.w3.org/2000/svg">
<path id="icon" d="M12.4087 0.358682C12.5788 0.0322571 12.9813 -0.0944875 13.3078 0.0754789C13.6342 0.245571 13.761 0.648089 13.591 0.974567C13.3304 1.47516 12.9464 1.91987 12.4817 2.30074C12.4381 2.33642 12.392 2.36953 12.3469 2.40425L13.8078 3.86519C14.0681 4.12552 14.0681 4.54758 13.8078 4.8079C13.5475 5.06822 13.1255 5.06816 12.8651 4.8079L11.1744 3.11715C10.6498 3.36772 10.0704 3.57008 9.45172 3.71741L9.99273 5.73629C10.088 6.09193 9.87702 6.45805 9.52138 6.55334C9.16582 6.64846 8.80024 6.43689 8.70497 6.08134L8.1314 3.94071C7.76181 3.97892 7.38379 3.99995 6.99989 3.99996C6.61313 3.99996 6.23214 3.97883 5.85992 3.94006L5.28635 6.08199C5.19094 6.4374 4.82545 6.64853 4.46995 6.55334C4.1143 6.45805 3.9033 6.09193 3.99859 5.73629L4.53961 3.71545C3.92483 3.56849 3.34908 3.36681 2.82737 3.1178L1.13792 4.8079C0.877589 5.06823 0.455563 5.06818 0.195207 4.8079C-0.0650333 4.54754 -0.0651048 4.12551 0.195207 3.86519L1.65419 2.40556C1.60853 2.37045 1.56216 2.33683 1.51812 2.30074C1.05339 1.91987 0.669381 1.47514 0.408749 0.974567C0.238769 0.648035 0.365488 0.245539 0.691952 0.0754789C1.01846 -0.0944093 1.421 0.0322577 1.59104 0.358682C1.75353 0.670784 2.01057 0.980492 2.36318 1.26949C3.36239 2.08836 5.04029 2.66662 6.99989 2.66662C8.9595 2.66659 10.6375 2.08839 11.6366 1.26949C11.9892 0.980477 12.2463 0.670768 12.4087 0.358682Z" fill="var(--fill-0, #F93920)"/>
</svg>
