<svg preserveAspectRatio="none" width="100%" height="100%" overflow="visible" style="display: block;" viewBox="0 0 16 16" fill="none" xmlns="http://www.w3.org/2000/svg">
<g id="Frame" clip-path="url(#clip0_5164_2820)">
<path id="Vector" d="M14.6667 1.33333H1.33333V6.66667H14.6667V1.33333Z" stroke="var(--stroke-0, #F93920)" stroke-width="1.33333" stroke-linejoin="round"/>
<path id="Vector_2" d="M14.6667 9.33333H1.33333V14.6667H9.33333" stroke="var(--stroke-0, #F93920)" stroke-width="1.33333" stroke-linecap="round" stroke-linejoin="round"/>
<path id="Vector_3" d="M4.33333 3.33333H3.66667C3.48257 3.33333 3.33333 3.48257 3.33333 3.66667V4.33333C3.33333 4.51743 3.48257 4.66667 3.66667 4.66667H4.33333C4.51743 4.66667 4.66667 4.51743 4.66667 4.33333V3.66667C4.66667 3.48257 4.51743 3.33333 4.33333 3.33333Z" fill="var(--fill-0, #F93920)"/>
<path id="Vector_4" d="M4.33333 11.3333H3.66667C3.48257 11.3333 3.33333 11.4826 3.33333 11.6667V12.3333C3.33333 12.5174 3.48257 12.6667 3.66667 12.6667H4.33333C4.51743 12.6667 4.66667 12.5174 4.66667 12.3333V11.6667C4.66667 11.4826 4.51743 11.3333 4.33333 11.3333Z" fill="var(--fill-0, #F93920)"/>
<path id="Vector_5" d="M7 3.33333H6.33333C6.14923 3.33333 6 3.48257 6 3.66667V4.33333C6 4.51743 6.14923 4.66667 6.33333 4.66667H7C7.1841 4.66667 7.33333 4.51743 7.33333 4.33333V3.66667C7.33333 3.48257 7.1841 3.33333 7 3.33333Z" fill="var(--fill-0, #F93920)"/>
<path id="Vector_6" d="M7 11.3333H6.33333C6.14923 11.3333 6 11.4826 6 11.6667V12.3333C6 12.5174 6.14923 12.6667 6.33333 12.6667H7C7.1841 12.6667 7.33333 12.5174 7.33333 12.3333V11.6667C7.33333 11.4826 7.1841 11.3333 7 11.3333Z" fill="var(--fill-0, #F93920)"/>
<path id="Vector 8" d="M14.6667 11.3333L11.3333 14.6667M14.6667 14.6667L11.3333 11.3333" stroke="var(--stroke-0, #F93920)" stroke-width="1.33333" stroke-linecap="round" stroke-linejoin="round"/>
</g>
<defs>
<clipPath id="clip0_5164_2820">
<rect width="16" height="16" fill="white"/>
</clipPath>
</defs>
</svg>
