<svg width="48" height="48" viewBox="0 0 48 48" fill="none" xmlns="http://www.w3.org/2000/svg">
<path d="M13.7007 11.1979C13.8804 10.1217 14.8117 9.33301 15.9028 9.33301H22.6116C23.486 9.33301 24.2799 9.84347 24.6428 10.639L25.0495 11.5306C25.4124 12.3262 26.2063 12.8366 27.0807 12.8366H41.2968C42.6835 12.8366 43.7348 14.0876 43.496 15.4537L39.8002 36.5942C39.6134 37.6627 38.6857 38.4423 37.601 38.4423H11.7886C10.4088 38.4423 9.35933 37.2031 9.58654 35.8421L13.7007 11.1979Z" fill="#5147FF"/>
<path d="M32.5602 18.8086C33.5739 18.8086 34.4608 19.4915 34.7194 20.4717L39.2614 37.6982C38.8496 38.1573 38.2549 38.4423 37.6012 38.4424H10.8971C9.88341 38.4424 8.99649 37.7595 8.73793 36.7793L4.73891 21.6104C4.36559 20.1945 5.43296 18.8087 6.89711 18.8086H32.5602Z" fill="#c8c6ff"/>
</svg>
