<svg preserveAspectRatio="none" width="100%" height="100%" overflow="visible" style="display: block;" viewBox="0 0 13.334 13.334" fill="none" xmlns="http://www.w3.org/2000/svg">
<path id="icon" d="M12.667 6C13.0352 6 13.334 6.2988 13.334 6.66699V11.334C13.3338 12.4383 12.4383 13.3338 11.334 13.334H2C0.895689 13.3338 0.000175687 12.4383 0 11.334V6.66992C8.79468e-05 6.30181 0.298857 6.00293 0.666992 6.00293C1.03513 6.00293 1.3339 6.30181 1.33398 6.66992V11.334C1.33416 11.7019 1.63207 11.9998 2 12H11.334C11.7019 11.9998 11.9998 11.7019 12 11.334V6.66699C12 6.2988 12.2988 6 12.667 6ZM6.66406 0C7.03225 0 7.33105 0.298802 7.33105 0.666992V7.72656L9.19531 5.8623C9.45566 5.60196 9.87832 5.60196 10.1387 5.8623C10.3988 6.12256 10.3987 6.54436 10.1387 6.80469L7.13867 9.80469C7.00799 9.93537 6.83629 9.99953 6.66504 9.99902L6.66406 10C6.65454 10 6.64517 9.99747 6.63574 9.99707C6.602 9.99549 6.56839 9.99301 6.53516 9.98633C6.39545 9.95886 6.27232 9.88806 6.17871 9.78809L3.19531 6.80469C2.93536 6.54437 2.93526 6.12256 3.19531 5.8623C3.45566 5.60196 3.87832 5.60196 4.13867 5.8623L5.99805 7.72168V0.666992C5.99805 0.298857 6.29595 8.79155e-05 6.66406 0Z" fill="var(--fill-0, #3BB346)"/>
</svg>
