<svg preserveAspectRatio="none" width="100%" height="100%" overflow="visible" style="display: block;" viewBox="0 0 16 16" fill="none" xmlns="http://www.w3.org/2000/svg">
<g id="Frame" clip-path="url(#clip0_5164_2801)">
<path id="Vector (Stroke)" d="M1.33333 10V6.66667C1.33333 6.29848 1.63181 6 2 6C2.36819 6 2.66667 6.29848 2.66667 6.66667V10C2.66667 10.3682 2.36819 10.6667 2 10.6667C1.63181 10.6667 1.33333 10.3682 1.33333 10Z" fill="var(--fill-0, #F93920)"/>
<path id="Vector (Stroke)_2" d="M13.3333 10V6.66667C13.3333 6.29848 13.6318 6 14 6C14.3682 6 14.6667 6.29848 14.6667 6.66667V10C14.6667 10.3682 14.3682 10.6667 14 10.6667C13.6318 10.6667 13.3333 10.3682 13.3333 10Z" fill="var(--fill-0, #F93920)"/>
<path id="Subtract" d="M0.861979 0.861979C1.12232 0.601642 1.54401 0.601667 1.80436 0.861979L1.98014 1.03776C2.00384 1.07298 2.03103 1.1072 2.06217 1.13835L15.2233 14.2995C15.3942 14.5584 15.3662 14.9105 15.1383 15.1383C14.8781 15.3986 14.4554 15.3985 14.195 15.1383L13.6071 14.5505C13.4188 14.6242 13.2141 14.6667 12.9997 14.6667H2.99967C2.07945 14.6664 1.3337 13.92 1.33366 12.9997V2.99967C1.33369 2.78489 1.37487 2.57981 1.44889 2.39128L0.861979 1.80436C0.601667 1.54401 0.601642 1.12232 0.861979 0.861979ZM2.66667 9.62663V12.9997C2.66671 13.1836 2.81583 13.3334 2.99967 13.3337H12.3903L5.80534 6.7487L2.66667 9.62663ZM12.9997 1.33366C13.92 1.3337 14.6665 2.07934 14.6667 2.99967V11.8571L13.3337 10.5241V8.33268L11.3962 6.88053L10.5417 7.73307L9.59928 6.78971L10.4528 5.93717C10.922 5.46799 11.6651 5.41603 12.196 5.81413L13.3337 6.66667V2.99967C13.3335 2.81572 13.1837 2.66671 12.9997 2.66667H5.47624L4.14323 1.33366H12.9997ZM2.66667 7.81706L4.86198 5.80436L2.66667 3.60905V7.81706Z" fill="var(--fill-0, #F93920)"/>
</g>
<defs>
<clipPath id="clip0_5164_2801">
<rect width="16" height="16" fill="white"/>
</clipPath>
</defs>
</svg>
