<svg preserveAspectRatio="none" width="100%" height="100%" overflow="visible" style="display: block;" viewBox="0 0 14.6667 14.6667" fill="none" xmlns="http://www.w3.org/2000/svg">
<path id="icon" d="M13.3333 7.33333C13.3333 4.01962 10.647 1.33333 7.33333 1.33333C4.01962 1.33333 1.33333 4.01962 1.33333 7.33333C1.33333 10.647 4.01962 13.3333 7.33333 13.3333C10.647 13.3333 13.3333 10.647 13.3333 7.33333ZM8.86198 4.86198C9.12233 4.60163 9.54434 4.60163 9.80469 4.86198C10.065 5.12233 10.065 5.54434 9.80469 5.80469L8.27604 7.33333L9.80469 8.86198L9.85026 8.91276C10.0638 9.17461 10.0488 9.56061 9.80469 9.80469C9.56061 10.0488 9.17461 10.0638 8.91276 9.85026L8.86198 9.80469L7.33333 8.27604L5.80469 9.80469C5.54434 10.065 5.12233 10.065 4.86198 9.80469C4.60163 9.54434 4.60163 9.12233 4.86198 8.86198L6.39063 7.33333L4.86198 5.80469L4.81641 5.75391C4.60284 5.49206 4.6179 5.10606 4.86198 4.86198C5.10606 4.6179 5.49206 4.60284 5.75391 4.81641L5.80469 4.86198L7.33333 6.39063L8.86198 4.86198ZM14.6667 7.33333C14.6667 11.3834 11.3834 14.6667 7.33333 14.6667C3.28325 14.6667 0 11.3834 0 7.33333C0 3.28325 3.28325 0 7.33333 0C11.3834 0 14.6667 3.28325 14.6667 7.33333Z" fill="var(--fill-0, #F93920)"/>
</svg>
