<svg width="24" height="24" viewBox="0 0 24 24" fill="none" xmlns="http://www.w3.org/2000/svg">
<path d="M20 5C20 4.44772 19.5523 4 19 4H5C4.44772 4 4 4.44772 4 5V16L4.00488 16.1025C4.05621 16.6067 4.48232 17 5 17H7C7.55228 17 8 17.4477 8 18V19.918L10.8271 17.6572C11.359 17.2318 12.0201 17.0001 12.7012 17H19C19.5523 17 20 16.5523 20 16V5ZM22 16C22 17.6569 20.6569 19 19 19H12.7012C12.4744 19.0001 12.2543 19.0772 12.0771 19.2188L7.625 22.7812C7.32483 23.0214 6.91287 23.0679 6.56641 22.9014C6.22012 22.7348 6 22.3843 6 22V19H5C3.39489 19 2.08421 17.7394 2.00391 16.1543L2 16V5C2 3.34315 3.34315 2 5 2H19C20.6569 2 22 3.34315 22 5V16Z" fill="#828894"/>
</svg>
