<svg width="24" height="24" viewBox="0 0 24 24" fill="none" xmlns="http://www.w3.org/2000/svg">
<path d="M13 0.957031C14.6569 0.957031 16 2.30018 16 3.95703V4.95703H20.5C22.1568 4.95703 23.5 6.30019 23.5 7.95703V10.957C23.5 11.5093 23.0523 11.957 22.5 11.957H21V21C21 21.5523 20.5523 22 20 22H4C3.44772 22 3 21.5523 3 21V11.957H1.5C0.947715 11.957 0.5 11.5093 0.5 10.957V7.95703C0.500011 6.30019 1.84315 4.95703 3.5 4.95703H8V3.95703C8 2.30018 9.34315 0.957031 11 0.957031H13ZM5 20H7V17.957C7 17.4047 7.44772 16.957 8 16.957C8.55229 16.957 9 17.4047 9 17.957V20H11V17.9492C11 17.3969 11.4477 16.9492 12 16.9492C12.5523 16.9492 13 17.3969 13 17.9492V20H15V17.957C15 17.4047 15.4477 16.957 16 16.957C16.5523 16.957 17 17.4047 17 17.957V20H19V12H5V20ZM11 2.95703C10.4477 2.95703 10 3.40475 10 3.95703V5.95703C10 6.50932 9.55229 6.95703 9 6.95703H3.5C2.94772 6.95703 2.50001 7.40476 2.5 7.95703V9.95703H21.5V7.95703C21.5 7.40476 21.0523 6.95703 20.5 6.95703H15C14.4477 6.95703 14 6.50932 14 5.95703V3.95703C14 3.40475 13.5523 2.95703 13 2.95703H11Z" fill="#828894"/>
</svg>
