<svg width="20" height="20" viewBox="0 0 20 20" fill="none" xmlns="http://www.w3.org/2000/svg">
<g clip-path="url(#clip0_1447_8130)">
<path d="M17.4999 9.9987C17.4999 5.85656 14.1421 2.4987 9.99992 2.4987C5.85778 2.4987 2.49992 5.85656 2.49992 9.9987C2.49992 14.1408 5.85778 17.4987 9.99992 17.4987C14.1421 17.4987 17.4999 14.1408 17.4999 9.9987ZM9.16658 4.9987C9.16658 4.53846 9.53968 4.16536 9.99992 4.16536C10.4602 4.16536 10.8333 4.53846 10.8333 4.9987V9.48356L13.706 10.9199L13.78 10.9622C14.1368 11.1883 14.2717 11.6522 14.0787 12.0381C13.8857 12.424 13.4336 12.5948 13.0387 12.445L12.9605 12.4108L9.6272 10.7441C9.34488 10.603 9.16658 10.3143 9.16658 9.9987V4.9987ZM19.1666 9.9987C19.1666 15.0613 15.0625 19.1654 9.99992 19.1654C4.93731 19.1654 0.833252 15.0613 0.833252 9.9987C0.833252 4.93609 4.93731 0.832031 9.99992 0.832031C15.0625 0.832031 19.1666 4.93609 19.1666 9.9987Z" fill="#15171F"/>
</g>
<defs>
<clipPath id="clip0_1447_8130">
<rect width="20" height="20" fill="white"/>
</clipPath>
</defs>
</svg>
