<svg width="24" height="24" viewBox="0 0 24 24" fill="none" xmlns="http://www.w3.org/2000/svg">
<path fill-rule="evenodd" clip-rule="evenodd" d="M12 1C18.0751 1 23 5.92487 23 12C23 18.0751 18.0751 23 12 23C5.92487 23 1 18.0751 1 12C1 5.92487 5.92487 1 12 1ZM15.707 8.29297C15.3165 7.90244 14.6835 7.90244 14.293 8.29297L12 10.5859L9.70703 8.29297C9.31651 7.90244 8.68349 7.90244 8.29297 8.29297C7.90244 8.68349 7.90244 9.31651 8.29297 9.70703L10.5859 12L8.29297 14.293C7.90244 14.6835 7.90244 15.3165 8.29297 15.707C8.68349 16.0975 9.31651 16.0976 9.70703 15.707L12 13.4141L14.293 15.707C14.6835 16.0975 15.3165 16.0976 15.707 15.707C16.0976 15.3165 16.0975 14.6835 15.707 14.293L13.4141 12L15.707 9.70703C16.0976 9.31651 16.0975 8.68349 15.707 8.29297Z" fill="#828894"/>
</svg>
