<svg width="24" height="24" viewBox="0 0 24 24" fill="none" xmlns="http://www.w3.org/2000/svg">
<path d="M17.293 5.29295C17.6835 4.90243 18.3166 4.90243 18.7071 5.29295C19.0976 5.68348 19.0976 6.31649 18.7071 6.70702L13.4141 12L18.7071 17.293L18.7754 17.3691C19.0958 17.7619 19.0732 18.3409 18.7071 18.707C18.341 19.0731 17.762 19.0957 17.3692 18.7754L17.293 18.707L12 13.414L6.70708 18.707C6.31655 19.0975 5.68354 19.0975 5.29302 18.707C4.90249 18.3165 4.90249 17.6835 5.29302 17.293L10.586 12L5.29302 6.70702C4.90249 6.31649 4.90249 5.68348 5.29302 5.29295C5.68354 4.90243 6.31655 4.90243 6.70708 5.29295L12 10.5859L17.293 5.29295Z" fill="#828894"/>
</svg>
