<svg width="24" height="24" viewBox="0 0 24 24" fill="none" xmlns="http://www.w3.org/2000/svg">
<path d="M21 11C21 10.4477 20.5523 10 20 10H11C10.4477 10 10 10.4477 10 11V20C10 20.5523 10.4477 21 11 21H20C20.5523 21 21 20.5523 21 20V11ZM14 5V4C14 3.73478 13.8946 3.48051 13.707 3.29297C13.5195 3.10543 13.2652 3 13 3H4C3.73478 3 3.4805 3.10543 3.29297 3.29297C3.10543 3.4805 3 3.73478 3 4V13C3 13.2652 3.10543 13.5195 3.29297 13.707C3.48051 13.8946 3.73478 14 4 14H5C5.55228 14 6 14.4477 6 15C6 15.5523 5.55228 16 5 16H4C3.20435 16 2.44151 15.6837 1.87891 15.1211C1.3163 14.5585 1 13.7956 1 13V4C1 3.20435 1.3163 2.44152 1.87891 1.87891C2.44152 1.3163 3.20435 1 4 1H13C13.7956 1 14.5585 1.3163 15.1211 1.87891C15.6837 2.44151 16 3.20435 16 4V5C16 5.55228 15.5523 6 15 6C14.4477 6 14 5.55228 14 5ZM23 20C23 21.6569 21.6569 23 20 23H11C9.34315 23 8 21.6569 8 20V11C8 9.34315 9.34315 8 11 8H20C21.6569 8 23 9.34315 23 11V20Z" fill="#828894"/>
</svg>
