<svg width="24" height="24" viewBox="0 0 24 24" fill="none" xmlns="http://www.w3.org/2000/svg">
<path d="M12 5C16.0867 5.00021 19.3994 8.3136 19.3994 12.4004C19.3993 15.0313 18.0262 17.3385 15.96 18.6504C15.9592 18.6529 15.9597 18.6557 15.959 18.6582L15.0098 21.8477C14.8915 22.5081 14.3151 23 13.6318 23H10.3682C9.68498 23 9.10847 22.5081 8.99023 21.8477L8.04102 18.6582L8.03906 18.6494C5.97348 17.3374 4.59975 15.0307 4.59961 12.4004C4.59961 8.3136 7.91325 5.00021 12 5ZM10.8242 21H13.1758L13.6592 19.373H10.3408L10.8242 21ZM12 7C9.01782 7.00021 6.59961 9.41817 6.59961 12.4004C6.59977 14.6326 7.95503 16.5509 9.89062 17.373H14.1084C16.0443 16.5511 17.3993 14.6328 17.3994 12.4004C17.3994 9.41817 14.9822 7.00021 12 7ZM2.5 11.001C3.05228 11.001 3.5 11.4487 3.5 12.001C3.49947 12.5528 3.05196 13.001 2.5 13.001H1.5C0.948041 13.001 0.500527 12.5528 0.5 12.001C0.5 11.4487 0.947715 11.001 1.5 11.001H2.5ZM22.5 11.001C23.0523 11.001 23.5 11.4487 23.5 12.001C23.4995 12.5528 23.052 13.001 22.5 13.001H21.5C20.948 13.001 20.5005 12.5528 20.5 12.001C20.5 11.4487 20.9477 11.001 21.5 11.001H22.5ZM3.86523 3.87695C4.25579 3.4868 4.8889 3.48655 5.2793 3.87695L5.98633 4.58398C6.37661 4.97453 6.37677 5.60858 5.98633 5.99902C5.59599 6.38896 4.96272 6.38877 4.57227 5.99902L3.86523 5.29102C3.47479 4.90057 3.47495 4.2675 3.86523 3.87695ZM18.7139 3.87012C19.1043 3.47968 19.7374 3.47976 20.1279 3.87012C20.5182 4.26065 20.5183 4.89373 20.1279 5.28418L19.4209 5.99121C19.0304 6.38141 18.3973 6.38141 18.0068 5.99121C17.6165 5.60076 17.6166 4.96764 18.0068 4.57715L18.7139 3.87012ZM11.9951 0.504883C12.5474 0.504883 12.9951 0.953575 12.9951 1.50586V2.50586C12.9947 3.05775 12.5471 3.50586 11.9951 3.50586C11.4431 3.50586 10.9956 3.05775 10.9951 2.50586V1.50586C10.9951 0.953575 11.4428 0.504883 11.9951 0.504883Z" fill="#828894"/>
</svg>
