<svg
  xmlns="http://www.w3.org/2000/svg"
  width="1em"
  height="1em"
  viewBox="0 0 1025 1024"
  version="1.1"
  fill="currentColor">
  <path d="M661.15 72L860 261.81V952H164V72h497.15M666 0H152a60 60 0 0 0-60 60v904a60 60 0 0 0 60 60h720a60 60 0 0 0 60-60V256.67a60 60 0 0 0-18.57-43.4L707.39 16.6A60 60 0 0 0 666 0z" fill="#959CA7" p-id="35352"></path><path d="M530 284H288a36 36 0 0 1 0-72h242a36 36 0 0 1 0 72zM896 295H684a36 36 0 0 1-36-36V47a36 36 0 0 1 72 0v176h176a36 36 0 0 1 0 72zM530 416H288a36 36 0 0 1 0-72h242a36 36 0 0 1 0 72z" fill="#959CA7" p-id="35353"></path><path d="M92 555m20 0l582 0q20 0 20 20l0 276q0 20-20 20l-582 0q-20 0-20-20l0-276q0-20 20-20Z" fill="#959CA7" p-id="35354"></path><path d="M148.05 807.64V618.36h77.18q30.26 0 47.54 18t17.28 45.58q0 28-17.31 45.8T225 745.52h-36.59v62.13z m40.21-92.91h21.17q19.65 0 29.75-7.5t10.1-25.3q0-15.7-8.51-24.25T217 649.14h-28.73zM315.43 807.64V618.36h32.87l81 121.48h1.39V618.36h37.72v189.28h-32.75l-81.13-122.31h-1.39v122.31zM499.86 724.16v-23.57q0-39.38 21.78-62.61t60-23.23a92.77 92.77 0 0 1 32.74 5.48q14.63 5.48 23.75 14.63a67.21 67.21 0 0 1 14.14 20.59 64.73 64.73 0 0 1 5.43 24.06h-39.41q-1.81-14.76-11.88-23.12T581.06 648q-18.76 0-29.87 13.27t-11.11 39.54V724q0 24.88 10.07 39.4t31.32 14.6q17.23 0 27.64-9.37a29.89 29.89 0 0 0 10.42-23.15v-10.64h-36.74V705h75.16v37.44a74 74 0 0 1-2.44 18.86 64.82 64.82 0 0 1-8.29 18.44 66.36 66.36 0 0 1-14.49 16.09q-8.64 6.94-22 11.16a98.57 98.57 0 0 1-29.81 4.23q-20.61 0-36.31-6.52a63.45 63.45 0 0 1-25.38-18.37 80.64 80.64 0 0 1-14.52-27.53 117 117 0 0 1-4.85-34.64z" fill="#FFFFFF">
  </path>
</svg>