<svg width="38" height="36" viewBox="0 0 38 36" fill="none" xmlns="http://www.w3.org/2000/svg">
<path opacity="0.3" d="M32.333 19.1719C33.7137 19.1719 34.833 20.2912 34.833 21.6719V33.335C34.8327 34.7154 33.7135 35.8349 32.333 35.835C30.9527 35.8348 29.8333 34.7153 29.833 33.335V21.6719C29.833 20.2913 30.9524 19.172 32.333 19.1719ZM5.66699 24.1641C7.04759 24.1642 8.16699 25.2834 8.16699 26.6641V33.3311C8.16682 34.7115 7.04748 35.8309 5.66699 35.8311C4.28639 35.8311 3.16717 34.7116 3.16699 33.3311V26.6641C3.16699 25.2834 4.28628 24.1641 5.66699 24.1641ZM19 14.1641C20.3807 14.1641 21.5 15.2834 21.5 16.6641V33.3311C21.4998 34.7116 20.3806 35.8311 19 35.8311C17.6194 35.8311 16.5002 34.7116 16.5 33.3311V16.6641C16.5 15.2834 17.6193 14.1641 19 14.1641Z" fill="black"/>
<path opacity="0.5" d="M18.5 0C21.3697 0 23.7248 2.19782 23.9766 5.00195L28.4629 6.76465C29.4675 5.67936 30.9045 5 32.5 5C35.5376 5 38 7.46243 38 10.5C38 13.5376 35.5376 16 32.5 16C29.4624 16 27 13.5376 27 10.5C27 10.4958 27 10.4915 27 10.4873L22.8535 8.8584C21.8477 10.1604 20.2725 11 18.5 11C17.4525 11 16.4739 10.7065 15.6406 10.1982L10.6631 14.6025C10.8805 15.1941 11 15.833 11 16.5C11 19.5376 8.53757 22 5.5 22C2.46243 22 0 19.5376 0 16.5C0 13.4624 2.46243 11 5.5 11C6.40519 11 7.25862 11.22 8.01172 11.6074L13.21 7.00781C13.0736 6.52861 13 6.02292 13 5.5C13 2.46243 15.4624 0 18.5 0Z" fill="url(#paint0_linear_3429_56821)"/>
<defs>
<linearGradient id="paint0_linear_3429_56821" x1="38" y1="11" x2="0" y2="11" gradientUnits="userSpaceOnUse">
<stop/>
<stop offset="1" stop-color="#666666"/>
</linearGradient>
</defs>
</svg>
