<svg width="32" height="36" viewBox="0 0 32 36" fill="none" xmlns="http://www.w3.org/2000/svg">
<path opacity="0.4" d="M26.8332 7.33073C29.5946 7.33073 31.8332 9.56931 31.8332 12.3307V17.6204C31.8332 18.1616 31.5703 18.6688 31.1284 18.9811C30.6865 19.2935 30.12 19.3716 29.6099 19.1911C29.2551 19.0657 28.8831 18.9974 28.4998 18.9974C26.6589 18.9974 25.1665 20.4898 25.1665 22.3307C25.1665 24.1717 26.6589 25.6641 28.4998 25.6641C28.8804 25.6641 29.252 25.5953 29.6099 25.4687C30.12 25.2882 30.6865 25.3663 31.1284 25.6787C31.5703 25.9911 31.8332 26.4983 31.8332 27.0394V30.6641C31.8332 33.4255 29.5946 35.6641 26.8332 35.6641H5.1665C2.49133 35.6641 0.306861 33.5631 0.173014 30.9212L0.166504 30.6641V12.3307C0.166504 9.56931 2.40508 7.33073 5.1665 7.33073H8.49984C8.49984 3.64883 11.4846 0.664062 15.1665 0.664062C18.8484 0.664062 21.8332 3.64883 21.8332 7.33073H26.8332Z" fill="url(#paint0_linear_3424_56819)"/>
<defs>
<linearGradient id="paint0_linear_3424_56819" x1="15.9998" y1="0.664062" x2="15.9998" y2="35.6641" gradientUnits="userSpaceOnUse">
<stop/>
<stop offset="1" stop-color="#666666"/>
</linearGradient>
</defs>
</svg>
