<svg width="38" height="38" viewBox="0 0 38 38" fill="none" xmlns="http://www.w3.org/2000/svg">
<path opacity="0.5" d="M9 20.6641C13.6024 20.6641 17.333 24.3947 17.333 28.9971C17.333 33.5994 13.6024 37.3301 9 37.3301C4.39763 37.3301 0.666993 33.5994 0.666992 28.9971C0.666992 24.3947 4.39763 20.6641 9 20.6641ZM29 0.664062C33.6024 0.664063 37.333 4.3947 37.333 8.99707C37.333 13.5994 33.6024 17.3301 29 17.3301C24.3976 17.3301 20.667 13.5994 20.667 8.99707C20.667 4.3947 24.3976 0.664062 29 0.664062Z" fill="url(#paint0_linear_3424_56820)"/>
<path opacity="0.3" d="M2.3335 14.8359V6.5026C2.3335 4.20142 4.19898 2.33594 6.50016 2.33594H14.8335C16.2142 2.33594 17.3335 3.45523 17.3335 4.83594C17.3335 6.21665 16.2142 7.33594 14.8335 7.33594H7.3335V14.8359C7.3335 16.2166 6.21421 17.3359 4.8335 17.3359C3.45278 17.3359 2.3335 16.2166 2.3335 14.8359Z" fill="black"/>
<path opacity="0.3" d="M35.6665 23.1641L35.6665 31.4974C35.6665 33.7986 33.801 35.6641 31.4998 35.6641L23.1665 35.6641C21.7858 35.6641 20.6665 34.5448 20.6665 33.1641C20.6665 31.7833 21.7858 30.6641 23.1665 30.6641L30.6665 30.6641L30.6665 23.1641C30.6665 21.7834 31.7858 20.6641 33.1665 20.6641C34.5472 20.6641 35.6665 21.7834 35.6665 23.1641Z" fill="black"/>
<defs>
<linearGradient id="paint0_linear_3424_56820" x1="19" y1="0.664062" x2="19" y2="37.3301" gradientUnits="userSpaceOnUse">
<stop/>
<stop offset="1" stop-color="#666666"/>
</linearGradient>
</defs>
</svg>
