<svg xmlns="http://www.w3.org/2000/svg" xmlns:xlink="http://www.w3.org/1999/xlink" fill="none" version="1.1" width="20" height="20" viewBox="0 0 20 20"><defs><clipPath id="master_svg0_1_083300"><rect x="0" y="0" width="20" height="20" rx="5"/></clipPath></defs><g clip-path="url(#master_svg0_1_083300)"><rect x="0" y="0" width="20" height="20" rx="5" fill="#FF9A2E" fill-opacity="1"/><g></g><g><path d="M13.60151,8.42437Q14.20968,7.82095,14.20968,6.66667Q14.20968,5.23729,12.904620000000001,4.338246Q11.687809999999999,3.5,9.838709999999999,3.5Q7.98961,3.5,6.7728,4.338246Q5.467742,5.23729,5.467742,6.66667Q5.467742,8.04049,6.32925,8.633980000000001Q6.48948,8.74435,6.51551,8.78706Q6.51244,8.81608,6.49229,8.90583Q6.43548,9.15879,6.43548,9.33333Q6.43548,9.7545,5.804909,9.9717Q4.5,10.42117,4.5,11.55556Q4.5,12.30326,5.306394,12.78933Q5.797713,13.08549,6.32262,13.1492Q6.70412,13.67057,7.53947,14.0405Q8.57704,14.5,9.838709999999999,14.5Q11.100380000000001,14.5,12.13795,14.0405Q12.95927,13.67678,13.34187,13.16667L13.3871,13.16667Q14.06761,13.16667,14.69361,12.78933Q15.5,12.30326,15.5,11.55556Q15.5,10.86256,14.74688,10.392579999999999Q14.50112,10.23921,14.43691,10.15075Q13.8871,9.393229999999999,13.8871,9.33333Q13.8871,9.13941,13.72705,8.76297Q13.64206,8.56307,13.60151,8.42437ZM12.33732,5.16175Q13.20968,5.76271,13.20968,6.66667Q13.20968,7.51506,12.78086,7.8104700000000005L12.56452,7.95951L12.56452,8.22222Q12.56452,8.58445,12.80677,9.15424Q12.862639999999999,9.28564,12.87905,9.332830000000001L12.8871,9.33333Q12.8871,9.717880000000001,13.6276,10.73813Q13.80632,10.98437,14.21747,11.24094Q14.5,11.41725,14.5,11.55556Q14.5,11.73841,14.17736,11.93289Q13.78953,12.16667,13.3871,12.16667L12.75099,12.16667L12.61444,12.44889Q12.43773,12.81407,11.73302,13.12616Q10.888860000000001,13.5,9.838709999999999,13.5Q8.78856,13.5,7.9444,13.12616Q7.2396899999999995,12.81407,7.06298,12.44889L6.92643,12.16667L6.6129,12.16667Q6.21047,12.16667,5.8226379999999995,11.93289Q5.5,11.73841,5.5,11.55556Q5.5,11.28566,5.601237,11.18104Q5.719586,11.05875,6.1305700000000005,10.91719Q7.43548,10.46772,7.43548,9.33333Q7.43548,9.2697,7.46799,9.124939999999999Q7.647069999999999,8.327490000000001,6.89656,7.8104700000000005Q6.46774,7.51506,6.46774,6.66667Q6.46774,5.76271,7.3401,5.16175Q8.30071,4.5,9.838709999999999,4.5Q11.37671,4.5,12.33732,5.16175Z" fill-rule="evenodd" fill="#FFFFFF" fill-opacity="1"/></g></g></svg>