<svg xmlns="http://www.w3.org/2000/svg" xmlns:xlink="http://www.w3.org/1999/xlink" fill="none" version="1.1" width="20" height="20" viewBox="0 0 20 20"><defs><clipPath id="master_svg0_1_082743"><rect x="0" y="0" width="20" height="20" rx="5"/></clipPath></defs><g clip-path="url(#master_svg0_1_082743)"><rect x="0" y="0" width="20" height="20" rx="5" fill="#00B42A" fill-opacity="1"/><g><g><g><g><g><path d="M6.875,8.5C6.875,8.292893,6.707107,8.125,6.5,8.125C6.292893,8.125,6.125,8.292893,6.125,8.5C6.125,8.5,6.875,8.5,6.875,8.5C6.875,8.5,6.875,8.5,6.875,8.5ZM6.125,12C6.125,12.20711,6.292893,12.375,6.5,12.375C6.707107,12.375,6.875,12.20711,6.875,12C6.875,12,6.125,12,6.125,12C6.125,12,6.125,12,6.125,12ZM6.125,8.5C6.125,8.5,6.125,12,6.125,12C6.125,12,6.875,12,6.875,12C6.875,12,6.875,8.5,6.875,8.5C6.875,8.5,6.125,8.5,6.125,8.5C6.125,8.5,6.125,8.5,6.125,8.5Z" fill="#FFFFFF" fill-opacity="1"/></g><g><path d="M7.875,6.625C7.875,7.31536,7.31536,7.875,6.625,7.875C6.625,7.875,6.625,8.625,6.625,8.625C7.72957,8.625,8.625,7.72957,8.625,6.625C8.625,6.625,7.875,6.625,7.875,6.625C7.875,6.625,7.875,6.625,7.875,6.625ZM6.625,7.875C5.9346499999999995,7.875,5.375,7.31536,5.375,6.625C5.375,6.625,4.625,6.625,4.625,6.625C4.625,7.72957,5.52043,8.625,6.625,8.625C6.625,8.625,6.625,7.875,6.625,7.875C6.625,7.875,6.625,7.875,6.625,7.875ZM5.375,6.625C5.375,5.9346499999999995,5.9346499999999995,5.375,6.625,5.375C6.625,5.375,6.625,4.625,6.625,4.625C5.52043,4.625,4.625,5.52043,4.625,6.625C4.625,6.625,5.375,6.625,5.375,6.625C5.375,6.625,5.375,6.625,5.375,6.625ZM6.625,5.375C7.31536,5.375,7.875,5.9346499999999995,7.875,6.625C7.875,6.625,8.625,6.625,8.625,6.625C8.625,5.52043,7.72957,4.625,6.625,4.625C6.625,4.625,6.625,5.375,6.625,5.375C6.625,5.375,6.625,5.375,6.625,5.375Z" fill="#FFFFFF" fill-opacity="1"/></g><g><path d="M7.625,13.5C7.625,14.12132,7.12132,14.625,6.5,14.625C6.5,14.625,6.5,15.375,6.5,15.375C7.53554,15.375,8.375,14.535540000000001,8.375,13.5C8.375,13.5,7.625,13.5,7.625,13.5C7.625,13.5,7.625,13.5,7.625,13.5ZM6.5,14.625C5.87868,14.625,5.375,14.12132,5.375,13.5C5.375,13.5,4.625,13.5,4.625,13.5C4.625,14.535540000000001,5.464466,15.375,6.5,15.375C6.5,15.375,6.5,14.625,6.5,14.625C6.5,14.625,6.5,14.625,6.5,14.625ZM5.375,13.5C5.375,12.87868,5.87868,12.375,6.5,12.375C6.5,12.375,6.5,11.625,6.5,11.625C5.464466,11.625,4.625,12.464466,4.625,13.5C4.625,13.5,5.375,13.5,5.375,13.5C5.375,13.5,5.375,13.5,5.375,13.5ZM6.5,12.375C7.12132,12.375,7.625,12.87868,7.625,13.5C7.625,13.5,8.375,13.5,8.375,13.5C8.375,12.464466,7.53554,11.625,6.5,11.625C6.5,11.625,6.5,12.375,6.5,12.375C6.5,12.375,6.5,12.375,6.5,12.375Z" fill="#FFFFFF" fill-opacity="1"/></g><g><path d="M14.625,13.5C14.625,14.12132,14.12132,14.625,13.5,14.625C13.5,14.625,13.5,15.375,13.5,15.375C14.535540000000001,15.375,15.375,14.535540000000001,15.375,13.5C15.375,13.5,14.625,13.5,14.625,13.5C14.625,13.5,14.625,13.5,14.625,13.5ZM13.5,14.625C12.87868,14.625,12.375,14.12132,12.375,13.5C12.375,13.5,11.625,13.5,11.625,13.5C11.625,14.535540000000001,12.464466,15.375,13.5,15.375C13.5,15.375,13.5,14.625,13.5,14.625C13.5,14.625,13.5,14.625,13.5,14.625ZM12.375,13.5C12.375,12.87868,12.87868,12.375,13.5,12.375C13.5,12.375,13.5,11.625,13.5,11.625C12.464466,11.625,11.625,12.464466,11.625,13.5C11.625,13.5,12.375,13.5,12.375,13.5C12.375,13.5,12.375,13.5,12.375,13.5ZM13.5,12.375C14.12132,12.375,14.625,12.87868,14.625,13.5C14.625,13.5,15.375,13.5,15.375,13.5C15.375,12.464466,14.535540000000001,11.625,13.5,11.625C13.5,11.625,13.5,12.375,13.5,12.375C13.5,12.375,13.5,12.375,13.5,12.375Z" fill="#FFFFFF" fill-opacity="1"/></g><g><path d="M6.92821740625,8.4067C6.87663940625,8.2061187,6.67222340625,8.0853277,6.47164140625,8.1369057C6.27106010625,8.1884837,6.15026910625,8.392900000000001,6.20184710625,8.593481C6.20184710625,8.593481,6.92821740625,8.4067,6.92821740625,8.4067C6.92821740625,8.4067,6.92821740625,8.4067,6.92821740625,8.4067ZM8.535031406249999,10.0201C8.535031406249999,10.0201,8.53394140625,9.6451,8.53394140625,9.6451C8.53394140625,9.6451,8.53305140625,9.6451,8.53305140625,9.6451C8.53305140625,9.6451,8.535031406249999,10.0201,8.535031406249999,10.0201C8.535031406249999,10.0201,8.535031406249999,10.0201,8.535031406249999,10.0201ZM10.250031406249999,10.01509C10.250031406249999,10.01509,10.25113140625,10.39009,10.25113140625,10.39009C10.25113140625,10.39009,10.25146140625,10.39009,10.25146140625,10.39009C10.25146140625,10.39009,10.250031406249999,10.01509,10.250031406249999,10.01509C10.250031406249999,10.01509,10.250031406249999,10.01509,10.250031406249999,10.01509ZM12.73113140625,12.144110000000001C12.79963140625,12.33957,13.013581406250001,12.44249,13.20903140625,12.373999999999999C13.40448140625,12.3055,13.50743140625,12.09153,13.43893140625,11.89608C13.43893140625,11.89608,12.73113140625,12.144110000000001,12.73113140625,12.144110000000001C12.73113140625,12.144110000000001,12.73113140625,12.144110000000001,12.73113140625,12.144110000000001ZM6.20184710625,8.593481C6.46844140625,9.63024,7.41533140625,10.40103,8.53702140625,10.39509C8.53702140625,10.39509,8.53305140625,9.6451,8.53305140625,9.6451C7.76473140625,9.64917,7.1116224062499995,9.119946,6.92821740625,8.4067C6.92821740625,8.4067,6.20184710625,8.593481,6.20184710625,8.593481C6.20184710625,8.593481,6.20184710625,8.593481,6.20184710625,8.593481ZM8.53613140625,10.3951C8.53613140625,10.3951,10.25113140625,10.39009,10.25113140625,10.39009C10.25113140625,10.39009,10.248941406250001,9.64009,10.248941406250001,9.64009C10.248941406250001,9.64009,8.53394140625,9.6451,8.53394140625,9.6451C8.53394140625,9.6451,8.53613140625,10.3951,8.53613140625,10.3951C8.53613140625,10.3951,8.53613140625,10.3951,8.53613140625,10.3951ZM10.25146140625,10.39009C11.39601140625,10.38572,12.37208140625,11.11957,12.73113140625,12.144110000000001C12.73113140625,12.144110000000001,13.43893140625,11.89608,13.43893140625,11.89608C12.977981406249999,10.58063,11.724031406249999,9.63446,10.24860140625,9.64009C10.24860140625,9.64009,10.25146140625,10.39009,10.25146140625,10.39009C10.25146140625,10.39009,10.25146140625,10.39009,10.25146140625,10.39009Z" fill="#FFFFFF" fill-opacity="1"/></g><g style="opacity:0;"></g></g></g></g></g></g></svg>