<svg xmlns="http://www.w3.org/2000/svg" xmlns:xlink="http://www.w3.org/1999/xlink" fill="none" version="1.1" width="20" height="20" viewBox="0 0 20 20"><defs><clipPath id="master_svg0_1_083272"><rect x="0" y="0" width="20" height="20" rx="5"/></clipPath></defs><g clip-path="url(#master_svg0_1_083272)"><rect x="0" y="0" width="20" height="20" rx="5" fill="#FF9A2E" fill-opacity="1"/><g><g><path d="M4.612321,6.8675C4.612321,5.835851,5.44818,5,6.47983,5C6.83486,5,7.12268,5.28782,7.12268,5.642857C7.12268,5.997894,6.83486,6.28571,6.47983,6.28571C6.15825,6.28571,5.89804,6.54593,5.89804,6.8675L5.89804,9.31625C5.89804,9.48675,5.83031,9.65026,5.70974,9.77082L5.55199,9.92857L5.70974,10.08632C5.83031,10.20689,5.89804,10.37039,5.89804,10.540890000000001L5.89804,12.98969C5.89804,13.3112,6.15825,13.57143,6.47983,13.57143C6.83486,13.57143,7.12268,13.85926,7.12268,14.21429C7.12268,14.56931,6.83486,14.85714,6.47983,14.85714C5.44818,14.85714,4.612321,14.02126,4.612321,12.98969L4.612321,10.80717L4.188289,10.383140000000001C4.0677294,10.26258,4,10.099070000000001,4,9.92857C4,9.75808,4.0677294,9.594560000000001,4.188289,9.474L4.612321,9.04997L4.612321,6.8675ZM12.87726,5.642857C12.87726,5.28782,13.165,5,13.52011,5C14.5517,5,15.3876,5.835851,15.3876,6.8675L15.3876,9.04997L15.8116,9.474C15.9322,9.594560000000001,15.9999,9.75808,15.9999,9.92857C15.9999,10.099070000000001,15.9322,10.26258,15.8116,10.383140000000001L15.3876,10.80717L15.3876,12.98969C15.3876,14.02151,14.551,14.85714,13.52011,14.85714C13.165,14.85714,12.87726,14.56931,12.87726,14.21429C12.87726,13.85926,13.165,13.57143,13.52011,13.57143C13.84129,13.57143,14.1019,13.31103,14.1019,12.98969L14.1019,10.540890000000001C14.1019,10.37039,14.1696,10.20689,14.2902,10.08632L14.4479,9.92857L14.2902,9.77082C14.1696,9.65026,14.1019,9.48675,14.1019,9.31625L14.1019,6.8675C14.1019,6.54593,13.84163,6.28571,13.52011,6.28571C13.165,6.28571,12.87726,5.997894,12.87726,5.642857ZM7.93829,7.86686C8.18934,7.61581,8.59638,7.61581,8.84743,7.86686L10,9.01943L11.15257,7.86686C11.40362,7.61581,11.81066,7.61581,12.06171,7.86686C12.31276,8.11791,12.31276,8.52495,12.06171,8.776L10.90914,9.92857L12.06171,11.081150000000001C12.31276,11.33219,12.31276,11.73923,12.06171,11.99028C11.81066,12.24133,11.40362,12.24133,11.15257,11.99028L10,10.837710000000001L8.84743,11.99028C8.59638,12.24133,8.18934,12.24133,7.93829,11.99028C7.68724,11.73923,7.68724,11.33219,7.93829,11.081150000000001L9.09086,9.92857L7.93829,8.776C7.68724,8.52495,7.68724,8.11791,7.93829,7.86686Z" fill-rule="evenodd" fill="#FFFFFF" fill-opacity="1" style="mix-blend-mode:passthrough"/></g></g></g></svg>