<svg xmlns="http://www.w3.org/2000/svg" xmlns:xlink="http://www.w3.org/1999/xlink" fill="none" version="1.1" width="20" height="20" viewBox="0 0 20 20"><defs><clipPath id="master_svg0_119_51450"><rect x="0" y="0" width="20" height="20" rx="5"/></clipPath></defs><g clip-path="url(#master_svg0_119_51450)"><g><path d="M1.66667,0L18.3333,0Q20,0,20,1.66667L20,18.3333Q20,20,18.3333,20L1.66667,20Q-4.47035e-7,20,-4.47035e-7,18.3333L-4.47035e-7,1.66667Q-4.47035e-7,-4.47035e-7,1.66667,0Z" fill="#6581F1" fill-opacity="1" style="mix-blend-mode:passthrough"/></g><g><path d="M14.490828828125,11.9582655859375L15.158298828125,12.3582655859375C15.338798828125,12.4659055859375,15.338798828125,12.7272955859375,15.158298828125,12.8349355859375L10.285828828125,15.7590755859375C10.109928828125,15.8647755859375,9.890058828125,15.8647755859375,9.714158828125,15.7590755859375L4.841660828125,12.8349355859375C4.662107628125,12.7271355859375,4.662107628125,12.4668955859375,4.841660828125,12.3591055859375L5.509160828125,11.9582655859375L9.999988828125,14.6524755859375L14.490828828125,11.9582655859375ZM14.490828828125,9.3474355859375L15.158298828125,9.747435585937499C15.338798828125,9.855075585937499,15.338798828125,10.116465585937501,15.158298828125,10.224105585937501L9.999988828125,13.3191055859375L4.841660828125,10.2249355859375C4.661178428125,10.1172955859375,4.661178428125,9.8559055859375,4.841660828125,9.7482655859375L5.509160828125,9.3482655859375L9.999988828125,12.0416055859375L14.490828828125,9.3474355859375ZM10.285828828125,4.2407677859375L15.158298828125,7.1641055859375005C15.338798828125,7.2717355859375,15.338798828125,7.5331355859375,15.158298828125,7.640765585937499L9.999988828125,10.7357655859375L4.841660828125,7.6416055859375C4.661179028125,7.5339655859375,4.661179028125,7.2725755859375,4.841660828125,7.1649355859375L9.714158828125,4.2416013859375C9.890108828125001,4.1361001859375,10.109878828125,4.1361001859375,10.285828828125,4.2416013859375L10.285828828125,4.2407677859375Z" fill="#FFFFFF" fill-opacity="1" style="mix-blend-mode:passthrough"/></g></g></svg>