<svg xmlns="http://www.w3.org/2000/svg" xmlns:xlink="http://www.w3.org/1999/xlink" fill="none" version="1.1" width="20" height="20" viewBox="0 0 20 20"><defs><clipPath id="master_svg0_1_083299"><rect x="0" y="0" width="20" height="20" rx="5"/></clipPath></defs><g clip-path="url(#master_svg0_1_083299)"><rect x="0" y="0" width="20" height="20" rx="5" fill="#FF9A2E" fill-opacity="1"/><g><g><g><g><g><path d="M14.125,7.5C14.125,7.5,14.125,12.5,14.125,12.5C14.125,12.5,14.875,12.5,14.875,12.5C14.875,12.5,14.875,7.5,14.875,7.5C14.875,7.5,14.125,7.5,14.125,7.5C14.125,7.5,14.125,7.5,14.125,7.5ZM14.125,12.5C14.125,13.1925,13.9518,13.7123,13.63145,14.05735C13.31575,14.3973,12.8035,14.625,12,14.625C12,14.625,12,15.375,12,15.375C12.9465,15.375,13.68425,15.1027,14.18105,14.56765C14.6732,14.0377,14.875,13.3075,14.875,12.5C14.875,12.5,14.125,12.5,14.125,12.5C14.125,12.5,14.125,12.5,14.125,12.5ZM12,14.625C12,14.625,8,14.625,8,14.625C8,14.625,8,15.375,8,15.375C8,15.375,12,15.375,12,15.375C12,15.375,12,14.625,12,14.625C12,14.625,12,14.625,12,14.625ZM8,14.625C7.19648,14.625,6.68424,14.3973,6.36855,14.05735C6.048185,13.7123,5.875,13.1925,5.875,12.5C5.875,12.5,5.125,12.5,5.125,12.5C5.125,13.3075,5.326817,14.0377,5.8189530000000005,14.56765C6.31576,15.1027,7.05352,15.375,8,15.375C8,15.375,8,14.625,8,14.625C8,14.625,8,14.625,8,14.625ZM5.875,12.5C5.875,12.5,5.875,7.5,5.875,7.5C5.875,7.5,5.125,7.5,5.125,7.5C5.125,7.5,5.125,12.5,5.125,12.5C5.125,12.5,5.875,12.5,5.875,12.5C5.875,12.5,5.875,12.5,5.875,12.5ZM5.875,7.5C5.875,6.80749,6.048185,6.28768,6.36855,5.94267C6.68424,5.60269,7.19648,5.375,8,5.375C8,5.375,8,4.625,8,4.625C7.05352,4.625,6.31576,4.897307,5.8189530000000005,5.432331C5.326817,5.96232,5.125,6.69251,5.125,7.5C5.125,7.5,5.875,7.5,5.875,7.5C5.875,7.5,5.875,7.5,5.875,7.5ZM8,5.375C8,5.375,12,5.375,12,5.375C12,5.375,12,4.625,12,4.625C12,4.625,8,4.625,8,4.625C8,4.625,8,5.375,8,5.375C8,5.375,8,5.375,8,5.375ZM12,5.375C12.8035,5.375,13.31575,5.60269,13.63145,5.94267C13.9518,6.28768,14.125,6.80749,14.125,7.5C14.125,7.5,14.875,7.5,14.875,7.5C14.875,6.69251,14.6732,5.96232,14.18105,5.432331C13.68425,4.897307,12.9465,4.625,12,4.625C12,4.625,12,5.375,12,5.375C12,5.375,12,5.375,12,5.375Z" fill="#FFFFFF" fill-opacity="1"/></g><g><path d="M11.625,6.25C11.625,6.042893,11.457107,5.875,11.25,5.875C11.042893,5.875,10.875,6.042893,10.875,6.25C10.875,6.25,11.625,6.25,11.625,6.25C11.625,6.25,11.625,6.25,11.625,6.25ZM13.25,8.625C13.4571,8.625,13.625,8.4571,13.625,8.25C13.625,8.0429,13.4571,7.875,13.25,7.875C13.25,7.875,13.25,8.625,13.25,8.625C13.25,8.625,13.25,8.625,13.25,8.625ZM10.875,6.25C10.875,6.25,10.875,7.25,10.875,7.25C10.875,7.25,11.625,7.25,11.625,7.25C11.625,7.25,11.625,6.25,11.625,6.25C11.625,6.25,10.875,6.25,10.875,6.25C10.875,6.25,10.875,6.25,10.875,6.25ZM10.875,7.25C10.875,8.00711,11.492893,8.625,12.25,8.625C12.25,8.625,12.25,7.875,12.25,7.875C11.9071,7.875,11.625,7.5929,11.625,7.25C11.625,7.25,10.875,7.25,10.875,7.25C10.875,7.25,10.875,7.25,10.875,7.25ZM12.25,8.625C12.25,8.625,13.25,8.625,13.25,8.625C13.25,8.625,13.25,7.875,13.25,7.875C13.25,7.875,12.25,7.875,12.25,7.875C12.25,7.875,12.25,8.625,12.25,8.625C12.25,8.625,12.25,8.625,12.25,8.625Z" fill="#FFFFFF" fill-opacity="1"/></g><g><path d="M8,10.125C7.792893,10.125,7.625,10.292893,7.625,10.5C7.625,10.707107,7.792893,10.875,8,10.875C8,10.875,8,10.125,8,10.125C8,10.125,8,10.125,8,10.125ZM10,10.875C10.2071,10.875,10.375,10.707107,10.375,10.5C10.375,10.292893,10.2071,10.125,10,10.125C10,10.125,10,10.875,10,10.875C10,10.875,10,10.875,10,10.875ZM8,10.875C8,10.875,10,10.875,10,10.875C10,10.875,10,10.125,10,10.125C10,10.125,8,10.125,8,10.125C8,10.125,8,10.875,8,10.875C8,10.875,8,10.875,8,10.875Z" fill="#FFFFFF" fill-opacity="1"/></g><g><path d="M8,12.125C7.792893,12.125,7.625,12.292893,7.625,12.5C7.625,12.707107,7.792893,12.875,8,12.875C8,12.875,8,12.125,8,12.125C8,12.125,8,12.125,8,12.125ZM12,12.875C12.20711,12.875,12.375,12.707107,12.375,12.5C12.375,12.292893,12.20711,12.125,12,12.125C12,12.125,12,12.875,12,12.875C12,12.875,12,12.875,12,12.875ZM8,12.875C8,12.875,12,12.875,12,12.875C12,12.875,12,12.125,12,12.125C12,12.125,8,12.125,8,12.125C8,12.125,8,12.875,8,12.875C8,12.875,8,12.875,8,12.875Z" fill="#FFFFFF" fill-opacity="1"/></g><g style="opacity:0;"></g></g></g></g></g></g></svg>