<svg xmlns="http://www.w3.org/2000/svg" xmlns:xlink="http://www.w3.org/1999/xlink" fill="none" version="1.1" width="20" height="20" viewBox="0 0 20 20"><defs><clipPath id="master_svg0_2_01022"><rect x="0" y="0" width="20" height="20" rx="5"/></clipPath></defs><g clip-path="url(#master_svg0_2_01022)"><rect x="0" y="0" width="20" height="20" rx="5" fill="#4080FF" fill-opacity="1"/><g transform="matrix(1,5.551115123125783e-17,-5.551115123125783e-17,1,0,0)"><path d="M11.56237,9.855170000000001Q11.45454,9.94214,11.28082,10.07678L11.893419999999999,10.867180000000001L11.28074,10.07685Q11.160910000000001,10.169740000000001,10.943950000000001,10.34679L10.91976,10.366530000000001L10.89822,10.38913Q10.4002,10.9114,10.32628,11.31427L9.697099999999999,11.317879999999999Q9.76098,10.66234,10.46594,10.06128Q10.58666,9.95834,10.88193,9.72819L10.88191,9.72817Q11.03852,9.606110000000001,11.104510000000001,9.552859999999999Q11.47074,9.25746,11.67437,9.01113Q12.15248,8.43263,11.61892,7.70192Q11.07291,6.95403,9.99724,6.95403Q9.03361,6.95403,8.53906,7.41713Q8.25337,7.68471,8.16368,8.03677L7.532621,8.03677Q7.633987,7.5316,8.05019,7.1418Q8.735479999999999,6.5,9.99724,6.5Q11.442309999999999,6.5,12.169139999999999,7.49549Q12.4754,7.9149899999999995,12.49836,8.37739Q12.52226,8.85871,12.20751,9.23947Q11.971260000000001,9.52526,11.56237,9.855170000000001ZM11.60096,11.10137Q11.790140000000001,10.94724,11.893419999999999,10.867180000000001Q12.0748,10.726600000000001,12.19018,10.63353Q12.67772,10.24016,12.97825,9.876619999999999Q13.54028,9.19672,13.49713,8.3278Q13.459340000000001,7.56679,12.976790000000001,6.905836Q12.508040000000001,6.263808,11.746649999999999,5.891537Q10.94586,5.5,9.99724,5.5Q8.34033,5.5,7.366627,6.411907Q6.504151,7.21967,6.5000029999999995,8.36364L6.5,9.03677L9.12265,9.03677L9.12265,8.36912Q9.12329,8.24006,9.22265,8.14699Q9.42872,7.9540299999999995,9.99724,7.9540299999999995Q10.56483,7.9540299999999995,10.81125,8.29157Q10.863620000000001,8.36329,10.874089999999999,8.40855Q10.73544,8.56579,10.47669,8.7745Q10.41713,8.82256,10.26718,8.93943L10.87748,9.72249L10.26716,8.93948Q9.95453,9.18316,9.81714,9.30033Q8.69074,10.2607,8.690760000000001,11.45619L8.69496,12.04313L8.69334,12.04313L8.69334,14.5L11.31599,14.5L11.31599,12.30861L11.31958,12.308589999999999L11.31359,11.478200000000001Q11.32462,11.451889999999999,11.34966,11.411719999999999Q11.42944,11.283760000000001,11.60096,11.10137ZM9.69334,13.043140000000001L9.69334,13.5L10.31599,13.5L10.31599,13.043140000000001L9.69334,13.043140000000001Z" fill-rule="evenodd" fill="#FFFFFF" fill-opacity="1"/></g></g></svg>