<svg xmlns="http://www.w3.org/2000/svg" xmlns:xlink="http://www.w3.org/1999/xlink" fill="none" version="1.1" width="20" height="20" viewBox="0 0 20 20"><defs><clipPath id="master_svg0_2_6092"><rect x="0" y="0" width="20" height="20" rx="5"/></clipPath></defs><g clip-path="url(#master_svg0_2_6092)"><rect x="0" y="0" width="20" height="20" rx="5" fill="#01B3B2" fill-opacity="1"/><g><g><g><g><g><path d="M13.625,10C13.625,10.34518,13.34518,10.625,13,10.625C13,10.625,13,11.375,13,11.375C13.75939,11.375,14.375,10.75939,14.375,10C14.375,10,13.625,10,13.625,10C13.625,10,13.625,10,13.625,10ZM13,10.625C12.65482,10.625,12.375,10.34518,12.375,10C12.375,10,11.625,10,11.625,10C11.625,10.75939,12.240609,11.375,13,11.375C13,11.375,13,10.625,13,10.625C13,10.625,13,10.625,13,10.625ZM12.375,10C12.375,9.65482,12.65482,9.375,13,9.375C13,9.375,13,8.625,13,8.625C12.240609,8.625,11.625,9.240609,11.625,10C11.625,10,12.375,10,12.375,10C12.375,10,12.375,10,12.375,10ZM13,9.375C13.34518,9.375,13.625,9.65482,13.625,10C13.625,10,14.375,10,14.375,10C14.375,9.240609,13.75939,8.625,13,8.625C13,8.625,13,9.375,13,9.375C13,9.375,13,9.375,13,9.375Z" fill="#FFFFFF" fill-opacity="1"/></g><g><path d="M13.625,6C13.625,6.34518,13.34518,6.625,13,6.625C13,6.625,13,7.375,13,7.375C13.75939,7.375,14.375,6.75939,14.375,6C14.375,6,13.625,6,13.625,6C13.625,6,13.625,6,13.625,6ZM13,6.625C12.65482,6.625,12.375,6.34518,12.375,6C12.375,6,11.625,6,11.625,6C11.625,6.75939,12.240609,7.375,13,7.375C13,7.375,13,6.625,13,6.625C13,6.625,13,6.625,13,6.625ZM12.375,6C12.375,5.65482,12.65482,5.375,13,5.375C13,5.375,13,4.625,13,4.625C12.240609,4.625,11.625,5.240609,11.625,6C11.625,6,12.375,6,12.375,6C12.375,6,12.375,6,12.375,6ZM13,5.375C13.34518,5.375,13.625,5.65482,13.625,6C13.625,6,14.375,6,14.375,6C14.375,5.240609,13.75939,4.625,13,4.625C13,4.625,13,5.375,13,5.375C13,5.375,13,5.375,13,5.375Z" fill="#FFFFFF" fill-opacity="1"/></g><g><path d="M13.625,14C13.625,14.34518,13.34518,14.625,13,14.625C13,14.625,13,15.375,13,15.375C13.75939,15.375,14.375,14.75939,14.375,14C14.375,14,13.625,14,13.625,14C13.625,14,13.625,14,13.625,14ZM13,14.625C12.65482,14.625,12.375,14.34518,12.375,14C12.375,14,11.625,14,11.625,14C11.625,14.75939,12.240609,15.375,13,15.375C13,15.375,13,14.625,13,14.625C13,14.625,13,14.625,13,14.625ZM12.375,14C12.375,13.65482,12.65482,13.375,13,13.375C13,13.375,13,12.625,13,12.625C12.240609,12.625,11.625,13.240609,11.625,14C11.625,14,12.375,14,12.375,14C12.375,14,12.375,14,12.375,14ZM13,13.375C13.34518,13.375,13.625,13.65482,13.625,14C13.625,14,14.375,14,14.375,14C14.375,13.240609,13.75939,12.625,13,12.625C13,12.625,13,13.375,13,13.375C13,13.375,13,13.375,13,13.375Z" fill="#FFFFFF" fill-opacity="1"/></g><g><path d="M5.625,10C5.625,10.34518,5.34518,10.625,5,10.625C5,10.625,5,11.375,5,11.375C5.75939,11.375,6.375,10.75939,6.375,10C6.375,10,5.625,10,5.625,10C5.625,10,5.625,10,5.625,10ZM5,10.625C4.65482,10.625,4.375,10.34518,4.375,10C4.375,10,3.625,10,3.625,10C3.625,10.75939,4.240609,11.375,5,11.375C5,11.375,5,10.625,5,10.625C5,10.625,5,10.625,5,10.625ZM4.375,10C4.375,9.65482,4.65482,9.375,5,9.375C5,9.375,5,8.625,5,8.625C4.240609,8.625,3.625,9.240609,3.625,10C3.625,10,4.375,10,4.375,10C4.375,10,4.375,10,4.375,10ZM5,9.375C5.34518,9.375,5.625,9.65482,5.625,10C5.625,10,6.375,10,6.375,10C6.375,9.240609,5.75939,8.625,5,8.625C5,8.625,5,9.375,5,9.375C5,9.375,5,9.375,5,9.375Z" fill="#FFFFFF" fill-opacity="1"/></g><g><path d="M6,9.625C5.792893,9.625,5.625,9.792893,5.625,10C5.625,10.207107,5.792893,10.375,6,10.375C6,10.375,6,9.625,6,9.625C6,9.625,6,9.625,6,9.625ZM12,10.375C12.2071,10.375,12.375,10.207107,12.375,10C12.375,9.792893,12.2071,9.625,12,9.625C12,9.625,12,10.375,12,10.375C12,10.375,12,10.375,12,10.375ZM6,10.375C6,10.375,12,10.375,12,10.375C12,10.375,12,9.625,12,9.625C12,9.625,6,9.625,6,9.625C6,9.625,6,10.375,6,10.375C6,10.375,6,10.375,6,10.375Z" fill="#FFFFFF" fill-opacity="1"/></g><g><path d="M12,6.375C12.20711,6.375,12.375,6.207107,12.375,6C12.375,5.792893,12.20711,5.625,12,5.625C12,5.625,12,6.375,12,6.375C12,6.375,12,6.375,12,6.375ZM12,14.375C12.20711,14.375,12.375,14.2071,12.375,14C12.375,13.7929,12.20711,13.625,12,13.625C12,13.625,12,14.375,12,14.375C12,14.375,12,14.375,12,14.375ZM12,5.625C12,5.625,10,5.625,10,5.625C10,5.625,10,6.375,10,6.375C10,6.375,12,6.375,12,6.375C12,6.375,12,5.625,12,5.625C12,5.625,12,5.625,12,5.625ZM10,5.625C9.4422,5.625,8.954965,5.764705,8.609835,6.109835C8.264705,6.454965,8.125,6.9422,8.125,7.5C8.125,7.5,8.875,7.5,8.875,7.5C8.875,7.0578,8.985295,6.79504,9.14016,6.64016C9.29504,6.485295,9.5578,6.375,10,6.375C10,6.375,10,5.625,10,5.625C10,5.625,10,5.625,10,5.625ZM8.125,7.5C8.125,7.5,8.125,12.5,8.125,12.5C8.125,12.5,8.875,12.5,8.875,12.5C8.875,12.5,8.875,7.5,8.875,7.5C8.875,7.5,8.125,7.5,8.125,7.5C8.125,7.5,8.125,7.5,8.125,7.5ZM8.125,12.5C8.125,13.0578,8.264705,13.54505,8.609835,13.89015C8.954965,14.2353,9.4422,14.375,10,14.375C10,14.375,10,13.625,10,13.625C9.5578,13.625,9.29504,13.514700000000001,9.14016,13.35985C8.985295,13.20495,8.875,12.9422,8.875,12.5C8.875,12.5,8.125,12.5,8.125,12.5C8.125,12.5,8.125,12.5,8.125,12.5ZM10,14.375C10,14.375,12,14.375,12,14.375C12,14.375,12,13.625,12,13.625C12,13.625,10,13.625,10,13.625C10,13.625,10,14.375,10,14.375C10,14.375,10,14.375,10,14.375Z" fill="#FFFFFF" fill-opacity="1"/></g><g style="opacity:0;"></g></g></g></g></g></g></svg>