<svg xmlns="http://www.w3.org/2000/svg" xmlns:xlink="http://www.w3.org/1999/xlink" fill="none" version="1.1" width="20" height="20" viewBox="0 0 20 20"><defs><clipPath id="master_svg0_1_084044"><rect x="0" y="0" width="20" height="20" rx="5"/></clipPath><clipPath id="master_svg1_1_026931"><rect x="4" y="4" width="12" height="12" rx="0"/></clipPath></defs><g clip-path="url(#master_svg0_1_084044)"><rect x="0" y="0" width="20" height="20" rx="5" fill="#4080FF" fill-opacity="1"/><g><g clip-path="url(#master_svg1_1_026931)"><g><g><g><path d="M15.225793203125,8.000246047973633L13.290283203125,8.000246047973633L13.290283203125,11.871216047973633L14.064455203125,11.871216047973633L14.064455203125,10.709926047973633L15.225793203125,10.709926047973633C15.430993203125,10.709646047973633,15.627793203125,10.627986047973632,15.772913203125,10.482856047973634C15.918023203125,10.337736047973632,15.999713203125,10.140966047973633,15.999973203125,9.935726047973633L15.999973203125,8.774435047973633C15.999713203125,8.569183047973633,15.918113203125,8.372401047973632,15.772913203125,8.227260047973633C15.627793203125,8.082120347973634,15.430993203125,8.000477381973633,15.225793203125,8.000246047973633ZM14.064455203125,9.935726047973633L14.064455203125,8.774435047973633L15.225793203125,8.774435047973633L15.226143203125,9.935726047973633L14.064455203125,9.935726047973633Z" fill="#FFFFFF" fill-opacity="1" style="mix-blend-mode:passthrough"/></g><g><path d="M7.48388671875,8.774435047973633L8.25807571875,8.774435047973633L8.25807571875,11.871216047973633L9.03227671875,11.871216047973633L9.03227671875,8.774435047973633L9.806456718749999,8.774435047973633L9.806456718749999,8.000246047973633L7.48388671875,8.000246047973633L7.48388671875,8.774435047973633Z" fill="#FFFFFF" fill-opacity="1" style="mix-blend-mode:passthrough"/></g><g><path d="M12.516173515624999,8.000246047973633L10.193603515625,8.000246047973633L10.193603515625,8.774435047973633L10.967792515625,8.774435047973633L10.967792515625,11.871216047973633L11.741993515625,11.871216047973633L11.741993515625,8.774435047973633L12.516173515624999,8.774435047973633L12.516173515624999,8.000246047973633Z" fill="#FFFFFF" fill-opacity="1" style="mix-blend-mode:passthrough"/></g><g><path d="M5.93548,8.000246047973633L5.93548,9.548636047973632L4.774194,9.548636047973632L4.774194,8.000246047973633L4,8.000246047973633L4,11.871216047973633L4.774194,11.871216047973633L4.774194,10.322826047973633L5.93548,10.322826047973633L5.93548,11.871216047973633L6.7096800000000005,11.871216047973633L6.7096800000000005,8.000246047973633L5.93548,8.000246047973633Z" fill="#FFFFFF" fill-opacity="1" style="mix-blend-mode:passthrough"/></g></g></g></g></g></g></svg>