<svg xmlns="http://www.w3.org/2000/svg" xmlns:xlink="http://www.w3.org/1999/xlink" fill="none" version="1.1" width="20" height="20" viewBox="0 0 20 20"><defs><clipPath id="master_svg0_1_083031"><rect x="0" y="0" width="20" height="20" rx="5"/></clipPath></defs><g clip-path="url(#master_svg0_1_083031)"><rect x="0" y="0" width="20" height="20" rx="5" fill="#01B3B2" fill-opacity="1"/><g><path d="M8.594000000000001,15.7694C8.594000000000001,15.7694,10.34647,4,10.34647,4C10.34647,4,11.45077,4.230585,11.45077,4.230585C11.45077,4.230585,9.6983,16,9.6983,16C9.6983,16,8.594000000000001,15.7694,8.594000000000001,15.7694C8.594000000000001,15.7694,8.594000000000001,15.7694,8.594000000000001,15.7694ZM5.58582,9.99783C5.58582,9.99783,8.360990000000001,6.71147,8.360990000000001,6.71147C8.360990000000001,6.71147,7.56809,5.7725100000000005,7.56809,5.7725100000000005C7.56809,5.7725100000000005,4,9.99783,4,9.99783C4,9.99783,7.56809,14.2231,7.56809,14.2231C7.56809,14.2231,8.360990000000001,13.28418,8.360990000000001,13.28418C8.360990000000001,13.28418,5.58582,9.99783,5.58582,9.99783C5.58582,9.99783,5.58582,9.99783,5.58582,9.99783ZM12.43189,5.7725100000000005C12.43189,5.7725100000000005,16,9.99783,16,9.99783C16,9.99783,12.43189,14.2231,12.43189,14.2231C12.43189,14.2231,11.63898,13.28418,11.63898,13.28418C11.63898,13.28418,14.4142,9.99783,14.4142,9.99783C14.4142,9.99783,11.63898,6.71147,11.63898,6.71147C11.63898,6.71147,12.43189,5.7725100000000005,12.43189,5.7725100000000005C12.43189,5.7725100000000005,12.43189,5.7725100000000005,12.43189,5.7725100000000005Z" fill-rule="evenodd" fill="#FFFFFF" fill-opacity="1"/></g></g></svg>