<svg xmlns="http://www.w3.org/2000/svg" xmlns:xlink="http://www.w3.org/1999/xlink" fill="none" version="1.1" width="20" height="20" viewBox="0 0 20 20"><defs><clipPath id="master_svg0_1_080692"><rect x="0" y="0" width="20" height="20" rx="5"/></clipPath></defs><g clip-path="url(#master_svg0_1_080692)"><rect x="0" y="0" width="20" height="20" rx="5" fill="#7B61FF" fill-opacity="1"/><g><g><g><g><g><path d="M5.7728539375,7.3952204625C5.5935999375,7.2914844625,5.3641909375,7.3527039225,5.2604548375,7.5319585625C5.1567188375,7.7112125625,5.2179382975,7.9406215625,5.3971929375,8.0443575625C5.3971929375,8.0443575625,5.7728539375,7.3952204625,5.7728539375,7.3952204625C5.7728539375,7.3952204625,5.7728539375,7.3952204625,5.7728539375,7.3952204625ZM10.0000209375,10.274786562500001C10.0000209375,10.274786562500001,9.812190937499999,10.5993565625,9.812190937499999,10.5993565625C9.9284309375,10.6666265625,10.0717709375,10.6665965625,10.1879809375,10.5992865625C10.1879809375,10.5992865625,10.0000209375,10.274786562500001,10.0000209375,10.274786562500001C10.0000209375,10.274786562500001,10.0000209375,10.274786562500001,10.0000209375,10.274786562500001ZM14.5729709375,8.0592815625C14.7521709375,7.9554725625,14.8133209375,7.7260395625000005,14.7095209375,7.5468275625C14.6057209375,7.3676149625,14.3762709375,7.3064879625,14.1970709375,7.4102959625C14.1970709375,7.4102959625,14.5729709375,8.0592815625,14.5729709375,8.0592815625C14.5729709375,8.0592815625,14.5729709375,8.0592815625,14.5729709375,8.0592815625ZM5.3971929375,8.0443575625C5.3971929375,8.0443575625,9.812190937499999,10.5993565625,9.812190937499999,10.5993565625C9.812190937499999,10.5993565625,10.1878509375,9.9502165625,10.1878509375,9.9502165625C10.1878509375,9.9502165625,5.7728539375,7.3952204625,5.7728539375,7.3952204625C5.7728539375,7.3952204625,5.3971929375,8.0443575625,5.3971929375,8.0443575625C5.3971929375,8.0443575625,5.3971929375,8.0443575625,5.3971929375,8.0443575625ZM10.1879809375,10.5992865625C10.1879809375,10.5992865625,14.5729709375,8.0592815625,14.5729709375,8.0592815625C14.5729709375,8.0592815625,14.1970709375,7.4102959625,14.1970709375,7.4102959625C14.1970709375,7.4102959625,9.8120609375,9.9502965625,9.8120609375,9.9502965625C9.8120609375,9.9502965625,10.1879809375,10.5992865625,10.1879809375,10.5992865625C10.1879809375,10.5992865625,10.1879809375,10.5992865625,10.1879809375,10.5992865625Z" fill="#FFFFFF" fill-opacity="1"/></g><g><path d="M9.625,14.80502953125C9.625,15.01212953125,9.792893,15.18002953125,10,15.18002953125C10.207107,15.18002953125,10.375,15.01212953125,10.375,14.80502953125C10.375,14.80502953125,9.625,14.80502953125,9.625,14.80502953125C9.625,14.80502953125,9.625,14.80502953125,9.625,14.80502953125ZM10.375,10.27001953125C10.375,10.06291253125,10.207107,9.89501953125,10,9.89501953125C9.792893,9.89501953125,9.625,10.06291253125,9.625,10.27001953125C9.625,10.27001953125,10.375,10.27001953125,10.375,10.27001953125C10.375,10.27001953125,10.375,10.27001953125,10.375,10.27001953125ZM10.375,14.80502953125C10.375,14.80502953125,10.375,10.27001953125,10.375,10.27001953125C10.375,10.27001953125,9.625,10.27001953125,9.625,10.27001953125C9.625,10.27001953125,9.625,14.80502953125,9.625,14.80502953125C9.625,14.80502953125,10.375,14.80502953125,10.375,14.80502953125C10.375,14.80502953125,10.375,14.80502953125,10.375,14.80502953125Z" fill="#FFFFFF" fill-opacity="1"/></g><g><path d="M8.965068359375,5.24014071875C8.965068359375,5.24014071875,9.146878359375,5.56812671875,9.146878359375,5.56812671875C9.146878359375,5.56812671875,9.148648359374999,5.56713671875,9.148648359374999,5.56713671875C9.148648359374999,5.56713671875,8.965068359375,5.24014071875,8.965068359375,5.24014071875C8.965068359375,5.24014071875,8.965068359375,5.24014071875,8.965068359375,5.24014071875ZM6.295068359375,6.72014171875C6.295068359375,6.72014171875,6.476718359375,7.04821171875,6.476718359375,7.04821171875C6.476718359375,7.04821171875,6.476878359375,7.04812171875,6.476878359375,7.04812171875C6.476878359375,7.04812171875,6.295068359375,6.72014171875,6.295068359375,6.72014171875C6.295068359375,6.72014171875,6.295068359375,6.72014171875,6.295068359375,6.72014171875ZM6.295068359375,13.27516171875C6.295068359375,13.27516171875,6.4773383593750005,12.94741171875,6.4773383593750005,12.94741171875C6.4773383593750005,12.94741171875,6.476718359375,12.94706171875,6.476718359375,12.94706171875C6.476718359375,12.94706171875,6.295068359375,13.27516171875,6.295068359375,13.27516171875C6.295068359375,13.27516171875,6.295068359375,13.27516171875,6.295068359375,13.27516171875ZM8.965068359375,14.76021171875C8.965068359375,14.76021171875,8.782788359375001,15.08791171875,8.782788359375001,15.08791171875C8.782788359375001,15.08791171875,8.783688359375,15.08841171875,8.783688359375,15.08841171875C8.783688359375,15.08841171875,8.965068359375,14.76021171875,8.965068359375,14.76021171875C8.965068359375,14.76021171875,8.965068359375,14.76021171875,8.965068359375,14.76021171875ZM11.040068359374999,14.76021171875C11.040068359374999,14.76021171875,11.221468359374999,15.08841171875,11.221468359374999,15.08841171875C11.221468359374999,15.08841171875,11.222318359375,15.08791171875,11.222318359375,15.08791171875C11.222318359375,15.08791171875,11.040068359374999,14.76021171875,11.040068359374999,14.76021171875C11.040068359374999,14.76021171875,11.040068359374999,14.76021171875,11.040068359374999,14.76021171875ZM13.710068359375,13.27516171875C13.710068359375,13.27516171875,13.528418359375,12.94706171875,13.528418359375,12.94706171875C13.528418359375,12.94706171875,13.527818359375,12.94741171875,13.527818359375,12.94741171875C13.527818359375,12.94741171875,13.710068359375,13.27516171875,13.710068359375,13.27516171875C13.710068359375,13.27516171875,13.710068359375,13.27516171875,13.710068359375,13.27516171875ZM13.710068359375,6.72014171875C13.710068359375,6.72014171875,13.527818359375,7.04786171875,13.527818359375,7.04786171875C13.527818359375,7.04786171875,13.528418359375,7.04821171875,13.528418359375,7.04821171875C13.528418359375,7.04821171875,13.710068359375,6.72014171875,13.710068359375,6.72014171875C13.710068359375,6.72014171875,13.710068359375,6.72014171875,13.710068359375,6.72014171875ZM11.040068359374999,5.23514071875C11.040068359374999,5.23514071875,11.222368359375,4.90741171875,11.222368359375,4.90741171875C11.222368359375,4.90741171875,11.220218359375,4.90625871875,11.220218359375,4.90625871875C11.220218359375,4.90625871875,11.040068359374999,5.23514071875,11.040068359374999,5.23514071875C11.040068359374999,5.23514071875,11.040068359374999,5.23514071875,11.040068359374999,5.23514071875ZM8.783268359375,4.91215771875C8.783268359375,4.91215771875,6.113268359375,6.39216171875,6.113268359375,6.39216171875C6.113268359375,6.39216171875,6.476878359375,7.04812171875,6.476878359375,7.04812171875C6.476878359375,7.04812171875,9.146878359375,5.56812171875,9.146878359375,5.56812171875C9.146878359375,5.56812171875,8.783268359375,4.91215771875,8.783268359375,4.91215771875C8.783268359375,4.91215771875,8.783268359375,4.91215771875,8.783268359375,4.91215771875ZM6.113408359375,6.39208171875C5.738393359375,6.59973171875,5.419399359375,6.94876171875,5.195167359375,7.32904171875C4.970956359375,7.70929171875,4.820068359375,8.15711171875,4.820068359375,8.58514171875C4.820068359375,8.58514171875,5.570068359375,8.58514171875,5.570068359375,8.58514171875C5.570068359375,8.32317171875,5.666681359375,8.00599171875,5.8412183593750004,7.7099917187500004C6.015738359375,7.41402171875,6.246738359375,7.17555171875,6.476718359375,7.04821171875C6.476718359375,7.04821171875,6.113408359375,6.39208171875,6.113408359375,6.39208171875C6.113408359375,6.39208171875,6.113408359375,6.39208171875,6.113408359375,6.39208171875ZM4.820068359375,8.58514171875C4.820068359375,8.58514171875,4.820068359375,11.41016171875,4.820068359375,11.41016171875C4.820068359375,11.41016171875,5.570068359375,11.41016171875,5.570068359375,11.41016171875C5.570068359375,11.41016171875,5.570068359375,8.58514171875,5.570068359375,8.58514171875C5.570068359375,8.58514171875,4.820068359375,8.58514171875,4.820068359375,8.58514171875C4.820068359375,8.58514171875,4.820068359375,8.58514171875,4.820068359375,8.58514171875ZM4.820068359375,11.41016171875C4.820068359375,11.838161718750001,4.970956359375,12.28601171875,5.195167359375,12.66621171875C5.419399359375,13.04651171875,5.738393359375,13.39556171875,6.113408359375,13.60321171875C6.113408359375,13.60321171875,6.476718359375,12.94706171875,6.476718359375,12.94706171875C6.246738359375,12.81971171875,6.015738359375,12.58126171875,5.8412183593750004,12.28531171875C5.666681359375,11.989311718749999,5.570068359375,11.67211171875,5.570068359375,11.41016171875C5.570068359375,11.41016171875,4.820068359375,11.41016171875,4.820068359375,11.41016171875C4.820068359375,11.41016171875,4.820068359375,11.41016171875,4.820068359375,11.41016171875ZM6.112798359375,13.60286171875C6.112798359375,13.60286171875,8.782798359375,15.08791171875,8.782798359375,15.08791171875C8.782798359375,15.08791171875,9.147338359375,14.43241171875,9.147338359375,14.43241171875C9.147338359375,14.43241171875,6.4773383593750005,12.94741171875,6.4773383593750005,12.94741171875C6.4773383593750005,12.94741171875,6.112798359375,13.60286171875,6.112798359375,13.60286171875C6.112798359375,13.60286171875,6.112798359375,13.60286171875,6.112798359375,13.60286171875ZM8.783688359375,15.08841171875C9.138248359375,15.28431171875,9.581118359375001,15.37141171875,10.002568359375001,15.37141171875C10.424018359375001,15.37141171875,10.866868359375001,15.28431171875,11.221468359374999,15.08841171875C11.221468359374999,15.08841171875,10.858668359374999,14.43191171875,10.858668359374999,14.43191171875C10.643268359375,14.55096171875,10.333618359375,14.62141171875,10.002568359375001,14.62141171875C9.671518359375,14.62141171875,9.361878359375,14.55096171875,9.146448359375,14.43191171875C9.146448359375,14.43191171875,8.783688359375,15.08841171875,8.783688359375,15.08841171875C8.783688359375,15.08841171875,8.783688359375,15.08841171875,8.783688359375,15.08841171875ZM11.222318359375,15.08791171875C11.222318359375,15.08791171875,13.892318359375,13.60286171875,13.892318359375,13.60286171875C13.892318359375,13.60286171875,13.527818359375,12.94741171875,13.527818359375,12.94741171875C13.527818359375,12.94741171875,10.857818359374999,14.43241171875,10.857818359374999,14.43241171875C10.857818359374999,14.43241171875,11.222318359375,15.08791171875,11.222318359375,15.08791171875C11.222318359375,15.08791171875,11.222318359375,15.08791171875,11.222318359375,15.08791171875ZM13.891718359375,13.60321171875C14.266768359375,13.39556171875,14.585718359375,13.04651171875,14.809968359375,12.66626171875C15.034168359375,12.28601171875,15.185068359375,11.838161718750001,15.185068359375,11.41016171875C15.185068359375,11.41016171875,14.435068359375,11.41016171875,14.435068359375,11.41016171875C14.435068359375,11.67211171875,14.338468359375,11.989311718749999,14.163918359375,12.28531171875C13.989418359375,12.58126171875,13.758368359375,12.81971171875,13.528418359375,12.94706171875C13.528418359375,12.94706171875,13.891718359375,13.60321171875,13.891718359375,13.60321171875C13.891718359375,13.60321171875,13.891718359375,13.60321171875,13.891718359375,13.60321171875ZM15.185068359375,11.41016171875C15.185068359375,11.41016171875,15.185068359375,8.58514171875,15.185068359375,8.58514171875C15.185068359375,8.58514171875,14.435068359375,8.58514171875,14.435068359375,8.58514171875C14.435068359375,8.58514171875,14.435068359375,11.41016171875,14.435068359375,11.41016171875C14.435068359375,11.41016171875,15.185068359375,11.41016171875,15.185068359375,11.41016171875C15.185068359375,11.41016171875,15.185068359375,11.41016171875,15.185068359375,11.41016171875ZM15.185068359375,8.58514171875C15.185068359375,8.15711171875,15.034168359375,7.70929171875,14.809968359375,7.32904171875C14.585718359375,6.94876171875,14.266768359375,6.59973171875,13.891718359375,6.39208171875C13.891718359375,6.39208171875,13.528418359375,7.04821171875,13.528418359375,7.04821171875C13.758368359375,7.17555171875,13.989418359375,7.41402171875,14.163918359375,7.7099917187500004C14.338468359375,8.00599171875,14.435068359375,8.32317171875,14.435068359375,8.58514171875C14.435068359375,8.58514171875,15.185068359375,8.58514171875,15.185068359375,8.58514171875C15.185068359375,8.58514171875,15.185068359375,8.58514171875,15.185068359375,8.58514171875ZM13.892318359375,6.3924217187500005C13.892318359375,6.3924217187500005,11.222318359375,4.90741871875,11.222318359375,4.90741871875C11.222318359375,4.90741871875,10.857818359374999,5.56286171875,10.857818359374999,5.56286171875C10.857818359374999,5.56286171875,13.527818359375,7.04786171875,13.527818359375,7.04786171875C13.527818359375,7.04786171875,13.892318359375,6.3924217187500005,13.892318359375,6.3924217187500005C13.892318359375,6.3924217187500005,13.892318359375,6.3924217187500005,13.892318359375,6.3924217187500005ZM11.220218359375,4.90625871875C10.864068359375,4.71112641875,10.421768359375001,4.62381441075,10.000068359375,4.62451591091C9.578548359374999,4.62521741075,9.136348359374999,4.71393291875,8.781498359375,4.91314671875C8.781498359375,4.91314671875,9.148648359374999,5.56713671875,9.148648359374999,5.56713671875C9.363798359375,5.44634871875,9.671578359375001,5.37506371875,10.001318359375,5.3745147187499995C10.330868359375,5.37396671875,10.641068359375,5.44415471875,10.859918359375001,5.56402171875C10.859918359375001,5.56402171875,11.220218359375,4.90625871875,11.220218359375,4.90625871875C11.220218359375,4.90625871875,11.220218359375,4.90625871875,11.220218359375,4.90625871875Z" fill="#FFFFFF" fill-opacity="1"/></g><g transform="matrix(-1,-1.2246469849340659e-16,1.2246469849340659e-16,-1,32,32)" style="opacity:0;"></g></g></g></g></g></g></svg>