<svg xmlns="http://www.w3.org/2000/svg" xmlns:xlink="http://www.w3.org/1999/xlink" fill="none" version="1.1" width="20" height="20" viewBox="0 0 20 20"><defs><clipPath id="master_svg0_1_083545"><rect x="0" y="0" width="20" height="20" rx="5"/></clipPath></defs><g clip-path="url(#master_svg0_1_083545)"><rect x="0" y="0" width="20" height="20" rx="5" fill="#4080FF" fill-opacity="1"/><g transform="matrix(1,5.551115123125783e-17,-5.551115123125783e-17,1,0,0)"><path d="M12.242899999999999,9.81654Q12.09783,9.9043,11.86488,10.0397L12.367429999999999,10.904250000000001Q12.60797,10.76443,12.7605,10.67216Q13.39951,10.28548,13.793140000000001,9.92835Q14.55656,9.2357,14.4959,8.31957Q14.44324,7.52409,13.78889,6.8519Q12.47284,5.5,9.99633,5.5Q7.8924900000000004,5.5,6.657156,6.367698Q5.505742,7.17648,5.500006,8.36303L5.5,9.03677L8.66354,9.03677L8.66354,8.36912Q8.66411,8.2833,8.79521,8.1912Q9.13292,7.9540299999999995,9.99633,7.9540299999999995Q10.88076,7.9540299999999995,11.26183,8.34551Q11.28536,8.36967,11.30227,8.39094Q11.115079999999999,8.54244,10.79533,8.73587Q10.71479,8.78461,10.51374,8.90214L10.97581,9.69264L10.51372,8.90218Q10.099820000000001,9.14414,9.91935,9.25957Q8.42099,10.21771,8.42102,11.45739L8.42661,12.04313L8.42445,12.04313L8.42445,14.5L11.58799,14.5L11.58799,12.30932L11.59279,12.3093L11.58508,11.50977Q11.59762,11.49172,11.61832,11.466809999999999Q11.728259999999999,11.33456,11.96664,11.14503Q12.225999999999999,10.98649,12.36742,10.90426L11.86479,10.039760000000001Q11.70673,10.13166,11.419080000000001,10.30771L11.39405,10.32303L11.370989999999999,10.34117Q10.69261,10.87474,10.59938,11.313559999999999L9.43029,11.31859Q9.51931,10.70235,10.458079999999999,10.102039999999999Q10.62177,9.99735,11.0184,9.76549L11.01838,9.765460000000001Q11.22605,9.64407,11.31293,9.59149Q11.79021,9.30277,12.05462,9.06287Q12.35141,8.79354,12.334810000000001,8.39116Q12.318570000000001,7.99738,11.9784,7.64799Q11.30289,6.954029,9.99633,6.954029Q8.81685,6.954029,8.2204,7.37292Q7.82695,7.6493,7.71148,8.03677L6.548723,8.03677Q6.688866,7.56747,7.23194,7.18601Q8.2086,6.5,9.99633,6.5Q12.050740000000001,6.5,13.07234,7.54943Q13.469750000000001,7.9576899999999995,13.498090000000001,8.385629999999999Q13.52683,8.81972,13.12121,9.18774Q12.79913,9.47995,12.242899999999999,9.81654ZM9.42445,13.04313L9.42445,13.5L10.58799,13.5L10.58799,13.04313L9.42445,13.04313Z" fill-rule="evenodd" fill="#FFFFFF" fill-opacity="1"/></g></g></svg>