<svg xmlns="http://www.w3.org/2000/svg" xmlns:xlink="http://www.w3.org/1999/xlink" fill="none" version="1.1" width="20" height="20" viewBox="0 0 20 20"><defs><clipPath id="master_svg0_1_083714"><rect x="0" y="0" width="20" height="20" rx="5"/></clipPath><clipPath id="master_svg1_1_026923"><rect x="4" y="4" width="12" height="12" rx="0"/></clipPath></defs><g clip-path="url(#master_svg0_1_083714)"><rect x="0" y="0" width="20" height="20" rx="5" fill="#4080FF" fill-opacity="1"/><g><g clip-path="url(#master_svg1_1_026923)"><g><g><g><path d="M5.999881982803345,6.500242233276367C5.999881982803345,5.671822233276367,6.671454982803345,5.000242233276367,7.499881982803345,5.000242233276367L13.499861982803345,5.000242233276367C13.776011982803345,5.000242233276367,13.999881982803345,5.224102233276367,13.999881982803345,5.500245233276367L13.999881982803345,14.500232233276368C13.999881982803345,14.776382233276367,13.776011982803345,15.000242233276367,13.499861982803345,15.000242233276367L7.499881982803345,15.000242233276367C6.671454982803345,15.000242233276367,5.999881982803345,14.328702233276367,5.999881982803345,13.500252233276367L5.999881982803345,6.500242233276367ZM6.999878982803345,12.085602233276367L6.999878982803345,6.500242233276367C6.999878982803345,6.224112233276367,7.223741982803345,6.000252233276367,7.499881982803345,6.000252233276367L12.999911982803344,6.000252233276367L12.999911982803344,12.000252233276367L7.499881982803345,12.000252233276367C7.324561982803345,12.000252233276367,7.156271982803345,12.030332233276368,6.999878982803345,12.085602233276367ZM12.999911982803344,13.000232233276368L7.499881982803345,13.000232233276368C7.223741982803345,13.000232233276368,6.999878982803345,13.224102233276367,6.999878982803345,13.500252233276367C6.999878982803345,13.776402233276368,7.223741982803345,14.000282233276367,7.499881982803345,14.000282233276367L12.999911982803344,14.000282233276367L12.999911982803344,13.000232233276368Z" fill-rule="evenodd" fill="#FFFFFF" fill-opacity="1" style="mix-blend-mode:passthrough"/></g><g><path d="M10.092050014053346,7.703755983276367C10.140448014053344,7.679560983276367,10.179703014053345,7.640335983276367,10.203853014053344,7.591946983276367L10.526354014053345,6.9470359832763675C10.618454014053345,6.762769083276368,10.881404014053345,6.762769083276368,10.973544014053346,6.9470359832763675L11.296004014053345,7.591946983276367C11.320194014053344,7.640335983276367,11.359404014053345,7.679560983276367,11.407794014053344,7.703755983276367L12.052734014053344,8.026215983276368C12.237004014053344,8.118345983276367,12.237004014053344,8.381295983276367,12.052734014053344,8.473425983276368L11.407794014053344,8.795885983276367C11.359404014053345,8.820075983276368,11.320194014053344,8.859305983276368,11.296004014053345,8.907695983276367L10.973544014053346,9.552615983276368C10.881404014053345,9.736875983276366,10.618454014053345,9.736875983276366,10.526354014053345,9.552615983276368L10.203853014053344,8.907695983276367C10.179703014053345,8.859305983276368,10.140448014053344,8.820075983276368,10.092050014053346,8.795885983276367L9.447148014053345,8.473425983276368C9.262902614053345,8.381295983276367,9.262902614053345,8.118345983276367,9.447148014053345,8.026215983276368L10.092050014053346,7.703755983276367Z" fill="#FFFFFF" fill-opacity="1" style="mix-blend-mode:passthrough"/></g><g><path d="M8.288628857803344,9.855601827026367C8.317661857803344,9.841104827026367,8.341196857803345,9.817546827026367,8.355709857803344,9.788499827026367L8.615854857803345,9.268247227026368C8.671129857803345,9.157652227026368,8.828898857803345,9.157652227026368,8.884178857803345,9.268247227026368L9.144338857803344,9.788499827026367C9.158828857803345,9.817546827026367,9.182378857803345,9.841104827026367,9.211388857803344,9.855601827026367L9.731678857803345,10.115754827026366C9.842228857803345,10.170999827026368,9.842228857803345,10.328800827026367,9.731678857803345,10.384050827026368L9.211388857803344,10.644200827026367C9.182378857803345,10.658700827026367,9.158828857803345,10.682250827026367,9.144338857803344,10.711300827026367L8.884178857803345,11.231550827026368C8.828898857803345,11.342150827026368,8.671129857803345,11.342150827026368,8.615854857803345,11.231550827026368L8.355709857803344,10.711300827026367C8.341196857803345,10.682250827026367,8.317661857803344,10.658700827026367,8.288628857803344,10.644200827026367L7.768347057803345,10.384050827026368C7.657789557803345,10.328800827026367,7.657789557803345,10.170999827026368,7.768347057803345,10.115754827026366L8.288628857803344,9.855601827026367Z" fill="#FFFFFF" fill-opacity="1" style="mix-blend-mode:passthrough"/></g></g></g></g></g></g></svg>