<svg xmlns="http://www.w3.org/2000/svg" xmlns:xlink="http://www.w3.org/1999/xlink" fill="none" version="1.1" width="20" height="20" viewBox="0 0 20 20"><defs><clipPath id="master_svg0_2_02261"><rect x="0" y="0" width="20" height="20" rx="5"/></clipPath></defs><g clip-path="url(#master_svg0_2_02261)"><rect x="0" y="0" width="20" height="20" rx="5" fill="#01B3B2" fill-opacity="1"/><g><g><g><g><g><path d="M14.625,6.575C14.625,6.575,14.625,8.425,14.625,8.425C14.625,8.425,15.375,8.425,15.375,8.425C15.375,8.425,15.375,6.575,15.375,6.575C15.375,6.575,14.625,6.575,14.625,6.575C14.625,6.575,14.625,6.575,14.625,6.575ZM14.625,8.425C14.625,8.950510000000001,14.5176,9.22082,14.369209999999999,9.369209999999999C14.22082,9.5176,13.950520000000001,9.625,13.425,9.625C13.425,9.625,13.425,10.375,13.425,10.375C14.02449,10.375,14.54168,10.2574,14.89954,9.89954C15.2574,9.54168,15.375,9.02449,15.375,8.425C15.375,8.425,14.625,8.425,14.625,8.425C14.625,8.425,14.625,8.425,14.625,8.425ZM13.425,9.625C13.425,9.625,12.075,9.625,12.075,9.625C12.075,9.625,12.075,10.375,12.075,10.375C12.075,10.375,13.425,10.375,13.425,10.375C13.425,10.375,13.425,9.625,13.425,9.625C13.425,9.625,13.425,9.625,13.425,9.625ZM12.075,9.625C11.549479999999999,9.625,11.27918,9.5176,11.13079,9.369209999999999C10.9824,9.22082,10.875,8.950510000000001,10.875,8.425C10.875,8.425,10.125,8.425,10.125,8.425C10.125,9.02449,10.242601,9.54168,10.60046,9.89954C10.958319,10.2574,11.47552,10.375,12.075,10.375C12.075,10.375,12.075,9.625,12.075,9.625C12.075,9.625,12.075,9.625,12.075,9.625ZM10.875,8.425C10.875,8.425,10.875,6.575,10.875,6.575C10.875,6.575,10.125,6.575,10.125,6.575C10.125,6.575,10.125,8.425,10.125,8.425C10.125,8.425,10.875,8.425,10.875,8.425C10.875,8.425,10.875,8.425,10.875,8.425ZM10.875,6.575C10.875,6.04948,10.9824,5.77918,11.13079,5.63079C11.27918,5.4824,11.549479999999999,5.375,12.075,5.375C12.075,5.375,12.075,4.625,12.075,4.625C11.47552,4.625,10.958319,4.742601,10.60046,5.10046C10.242601,5.458319,10.125,5.9755199999999995,10.125,6.575C10.125,6.575,10.875,6.575,10.875,6.575C10.875,6.575,10.875,6.575,10.875,6.575ZM12.075,5.375C12.075,5.375,13.425,5.375,13.425,5.375C13.425,5.375,13.425,4.625,13.425,4.625C13.425,4.625,12.075,4.625,12.075,4.625C12.075,4.625,12.075,5.375,12.075,5.375C12.075,5.375,12.075,5.375,12.075,5.375ZM13.425,5.375C13.950520000000001,5.375,14.22082,5.4824,14.369209999999999,5.63079C14.5176,5.77918,14.625,6.04948,14.625,6.575C14.625,6.575,15.375,6.575,15.375,6.575C15.375,5.9755199999999995,15.2574,5.458319,14.89954,5.10046C14.54168,4.742601,14.02449,4.625,13.425,4.625C13.425,4.625,13.425,5.375,13.425,5.375C13.425,5.375,13.425,5.375,13.425,5.375Z" fill="#FFFFFF" fill-opacity="1"/></g><g><path d="M9.125,11.575C9.125,11.575,9.125,13.425,9.125,13.425C9.125,13.425,9.875,13.425,9.875,13.425C9.875,13.425,9.875,11.575,9.875,11.575C9.875,11.575,9.125,11.575,9.125,11.575C9.125,11.575,9.125,11.575,9.125,11.575ZM9.125,13.425C9.125,13.950510000000001,9.0176,14.22082,8.869209999999999,14.369209999999999C8.72082,14.5176,8.450520000000001,14.625,7.925,14.625C7.925,14.625,7.925,15.375,7.925,15.375C8.52449,15.375,9.04168,15.2574,9.39954,14.89954C9.7574,14.54168,9.875,14.02449,9.875,13.425C9.875,13.425,9.125,13.425,9.125,13.425C9.125,13.425,9.125,13.425,9.125,13.425ZM7.925,14.625C7.925,14.625,6.575,14.625,6.575,14.625C6.575,14.625,6.575,15.375,6.575,15.375C6.575,15.375,7.925,15.375,7.925,15.375C7.925,15.375,7.925,14.625,7.925,14.625C7.925,14.625,7.925,14.625,7.925,14.625ZM6.575,14.625C6.04948,14.625,5.77918,14.5176,5.63079,14.369209999999999C5.4824,14.22082,5.375,13.950510000000001,5.375,13.425C5.375,13.425,4.625,13.425,4.625,13.425C4.625,14.02449,4.742601,14.54168,5.10046,14.89954C5.458319,15.2574,5.9755199999999995,15.375,6.575,15.375C6.575,15.375,6.575,14.625,6.575,14.625C6.575,14.625,6.575,14.625,6.575,14.625ZM5.375,13.425C5.375,13.425,5.375,11.575,5.375,11.575C5.375,11.575,4.625,11.575,4.625,11.575C4.625,11.575,4.625,13.425,4.625,13.425C4.625,13.425,5.375,13.425,5.375,13.425C5.375,13.425,5.375,13.425,5.375,13.425ZM5.375,11.575C5.375,11.049479999999999,5.4824,10.77918,5.63079,10.63079C5.77918,10.4824,6.04948,10.375,6.575,10.375C6.575,10.375,6.575,9.625,6.575,9.625C5.9755199999999995,9.625,5.458319,9.742601,5.10046,10.10046C4.742601,10.458319,4.625,10.97552,4.625,11.575C4.625,11.575,5.375,11.575,5.375,11.575C5.375,11.575,5.375,11.575,5.375,11.575ZM6.575,10.375C6.575,10.375,7.925,10.375,7.925,10.375C7.925,10.375,7.925,9.625,7.925,9.625C7.925,9.625,6.575,9.625,6.575,9.625C6.575,9.625,6.575,10.375,6.575,10.375C6.575,10.375,6.575,10.375,6.575,10.375ZM7.925,10.375C8.450520000000001,10.375,8.72082,10.4824,8.869209999999999,10.63079C9.0176,10.77918,9.125,11.049479999999999,9.125,11.575C9.125,11.575,9.875,11.575,9.875,11.575C9.875,10.97552,9.7574,10.458319,9.39954,10.10046C9.04168,9.742601,8.52449,9.625,7.925,9.625C7.925,9.625,7.925,10.375,7.925,10.375C7.925,10.375,7.925,10.375,7.925,10.375Z" fill="#FFFFFF" fill-opacity="1"/></g><g><path d="M15.375,11.5C15.375,11.292893,15.20711,11.125,15,11.125C14.7929,11.125,14.625,11.292893,14.625,11.5C14.625,11.5,15.375,11.5,15.375,11.5C15.375,11.5,15.375,11.5,15.375,11.5ZM11.5,15C11.5,15,11.1784401,14.80707,11.1784401,14.80707C11.1089306,14.92291,11.1071106,15.06719,11.1736751,15.18476C11.24024,15.302330000000001,11.364898,15.375,11.5,15.375C11.5,15.375,11.5,15,11.5,15C11.5,15,11.5,15,11.5,15ZM12.34656,14.31793C12.45312,14.14035,12.39553,13.91,12.21794,13.80344C12.040345,13.69689,11.809995,13.75447,11.70344,13.93207C11.70344,13.93207,12.34656,14.31793,12.34656,14.31793C12.34656,14.31793,12.34656,14.31793,12.34656,14.31793ZM14.625,11.5C14.625,13.2279,13.2279,14.625,11.5,14.625C11.5,14.625,11.5,15.375,11.5,15.375C13.64211,15.375,15.375,13.64211,15.375,11.5C15.375,11.5,14.625,11.5,14.625,11.5C14.625,11.5,14.625,11.5,14.625,11.5ZM11.82156,15.19293C11.82156,15.19293,12.34656,14.31793,12.34656,14.31793C12.34656,14.31793,11.70344,13.93207,11.70344,13.93207C11.70344,13.93207,11.1784401,14.80707,11.1784401,14.80707C11.1784401,14.80707,11.82156,15.19293,11.82156,15.19293C11.82156,15.19293,11.82156,15.19293,11.82156,15.19293Z" fill="#FFFFFF" fill-opacity="1"/></g><g><path d="M4.625,8.5C4.625,8.70711,4.792893,8.875,5,8.875C5.207107,8.875,5.375,8.70711,5.375,8.5C5.375,8.5,4.625,8.5,4.625,8.5C4.625,8.5,4.625,8.5,4.625,8.5ZM8.5,5C8.5,5,8.82156,5.1929359999999996,8.82156,5.1929359999999996C8.89107,5.077087,8.892890000000001,4.932804,8.826319999999999,4.815238C8.75976,4.697672,8.635100000000001,4.625,8.5,4.625C8.5,4.625,8.5,5,8.5,5C8.5,5,8.5,5,8.5,5ZM7.65344,5.6820699999999995C7.546889999999999,5.85966,7.60447,6.0900099999999995,7.7820599999999995,6.19656C7.9596599999999995,6.30312,8.190010000000001,6.2455300000000005,8.29656,6.0679300000000005C8.29656,6.0679300000000005,7.65344,5.6820699999999995,7.65344,5.6820699999999995C7.65344,5.6820699999999995,7.65344,5.6820699999999995,7.65344,5.6820699999999995ZM5.375,8.5C5.375,6.7721,6.7721,5.375,8.5,5.375C8.5,5.375,8.5,4.625,8.5,4.625C6.3579,4.625,4.625,6.3579,4.625,8.5C4.625,8.5,5.375,8.5,5.375,8.5C5.375,8.5,5.375,8.5,5.375,8.5ZM8.17844,4.8070640000000004C8.17844,4.8070640000000004,7.65344,5.6820699999999995,7.65344,5.6820699999999995C7.65344,5.6820699999999995,8.29656,6.0679300000000005,8.29656,6.0679300000000005C8.29656,6.0679300000000005,8.82156,5.1929359999999996,8.82156,5.1929359999999996C8.82156,5.1929359999999996,8.17844,4.8070640000000004,8.17844,4.8070640000000004C8.17844,4.8070640000000004,8.17844,4.8070640000000004,8.17844,4.8070640000000004Z" fill="#FFFFFF" fill-opacity="1"/></g><g style="opacity:0;"></g></g></g></g></g></g></svg>