<svg 
  width="48px" height="48px" 
  viewBox="0 0 48 48" 
  xmlns="http://www.w3.org/2000/svg" 
>
  <rect x="0" y="0" width="48" height="48" fill="#00b8a9" rx="8" />
  <path 
    d="M17 18h4a1 1 0 0 1 0 2h-4v4a1 1 0 0 1-2 0v-4h-4a1 1 0 1 1 0-2h4v-4a1 1 0 0 1 2 0v4zM31 18h4a1 1 0 0 1 0 2h-4v4a1 1 0 0 1-2 0v-4h-4a1 1 0 0 1 0-2h4v-4a1 1 0 0 1 2 0v4z"
    fill="#ffffff"
  />
  <path 
    d="M24 10L26 12m-2 0l2-2m-2 0H22m4 0H26M24 36L26 38m-2 0l2-2m-2 0H22m4 0H26M10 24l2 2m0-2l2 2m0-4l2-2m-2 4H14m4 0H18M36 24l2 2m0-2l2 2m0-4l2-2m-2 4h-2m4 0h-2"
    stroke="#ffffff" 
    strokeWidth="2"
  />
</svg>