<svg xmlns="http://www.w3.org/2000/svg" xmlns:xlink="http://www.w3.org/1999/xlink" fill="none" version="1.1" width="20" height="20" viewBox="0 0 20 20"><defs><clipPath id="master_svg0_1_083172"><rect x="0" y="0" width="20" height="20" rx="5"/></clipPath></defs><g clip-path="url(#master_svg0_1_083172)"><rect x="0" y="0" width="20" height="20" rx="5" fill="#01B3B2" fill-opacity="1"/><g><g><g><g><g><path d="M8.149931640625,12.43983859375C8.149931640625,12.43983859375,8.524931640625,12.43983859375,8.524931640625,12.43983859375C8.524931640625,12.30853859375,8.456261640625,12.18678859375,8.343891640625,12.11888859375C8.343891640625,12.11888859375,8.149931640625,12.43983859375,8.149931640625,12.43983859375C8.149931640625,12.43983859375,8.149931640625,12.43983859375,8.149931640625,12.43983859375ZM10.899931640624999,5.09483259375C10.899931640624999,5.09483259375,10.980931640625,4.72868459375,10.980931640625,4.72868459375C10.980931640625,4.72868459375,10.979771640625,4.72843059375,10.979771640625,4.72843059375C10.979771640625,4.72843059375,10.899931640624999,5.09483259375,10.899931640624999,5.09483259375C10.899931640624999,5.09483259375,10.899931640624999,5.09483259375,10.899931640624999,5.09483259375ZM13.534931640625,7.12982859375C13.534931640625,7.12982859375,13.199181640625,7.296888593749999,13.199181640625,7.296888593749999C13.199181640625,7.296888593749999,13.199181640625,7.29689859375,13.199181640625,7.29689859375C13.199181640625,7.29689859375,13.534931640625,7.12982859375,13.534931640625,7.12982859375C13.534931640625,7.12982859375,13.534931640625,7.12982859375,13.534931640625,7.12982859375ZM11.864931640624999,12.434838593750001C11.864931640624999,12.434838593750001,11.671131640625,12.11378859375,11.671131640625,12.11378859375C11.558681640625,12.18168859375,11.489931640624999,12.30348859375,11.489931640624999,12.434838593750001C11.489931640624999,12.434838593750001,11.864931640624999,12.434838593750001,11.864931640624999,12.434838593750001C11.864931640624999,12.434838593750001,11.864931640624999,12.434838593750001,11.864931640624999,12.434838593750001ZM8.629931640625,13.49483859375C8.629931640625,13.49483859375,8.629931640625,13.11983859375,8.629931640625,13.11983859375C8.629931640625,13.11983859375,8.626521640625,13.11983859375,8.626521640625,13.11983859375C8.626521640625,13.11983859375,8.629931640625,13.49483859375,8.629931640625,13.49483859375C8.629931640625,13.49483859375,8.629931640625,13.49483859375,8.629931640625,13.49483859375ZM8.524931640625,13.01983859375C8.524931640625,13.01983859375,8.524931640625,12.43983859375,8.524931640625,12.43983859375C8.524931640625,12.43983859375,7.774931640625001,12.43983859375,7.774931640625001,12.43983859375C7.774931640625001,12.43983859375,7.774931640625001,13.01983859375,7.774931640625001,13.01983859375C7.774931640625001,13.01983859375,8.524931640625,13.01983859375,8.524931640625,13.01983859375C8.524931640625,13.01983859375,8.524931640625,13.01983859375,8.524931640625,13.01983859375ZM8.343891640625,12.11888859375C7.282341640625,11.47733859375,6.429931640625,10.23278859375,6.429931640625,8.94982859375C6.429931640625,8.94982859375,5.679931640625,8.94982859375,5.679931640625,8.94982859375C5.679931640625,10.54683859375,6.717521640625,12.01233859375,7.955971640625,12.76078859375C7.955971640625,12.76078859375,8.343891640625,12.11888859375,8.343891640625,12.11888859375C8.343891640625,12.11888859375,8.343891640625,12.11888859375,8.343891640625,12.11888859375ZM6.429931640625,8.94982859375C6.429931640625,6.71007859375,8.487791640625,4.95302959375,10.820091640625,5.46123559375C10.820091640625,5.46123559375,10.979771640625,4.72843059375,10.979771640625,4.72843059375C8.172071640625,4.11663659375,5.679931640625,6.23957859375,5.679931640625,8.94982859375C5.679931640625,8.94982859375,6.429931640625,8.94982859375,6.429931640625,8.94982859375C6.429931640625,8.94982859375,6.429931640625,8.94982859375,6.429931640625,8.94982859375ZM10.818931640625,5.46097859375C11.842831640625,5.68750859375,12.736681640625001,6.36740859375,13.199181640625,7.296888593749999C13.199181640625,7.296888593749999,13.870681640625,6.96277859375,13.870681640625,6.96277859375C13.303181640624999,5.82224859375,12.217031640624999,5.00215759375,10.980931640625,4.72868659375C10.980931640625,4.72868659375,10.818931640625,5.46097859375,10.818931640625,5.46097859375C10.818931640625,5.46097859375,10.818931640625,5.46097859375,10.818931640625,5.46097859375ZM13.199181640625,7.29689859375C14.136981640625,9.18147859375,13.160781640625,11.21448859375,11.671131640625,12.11378859375C11.671131640625,12.11378859375,12.058731640625,12.75583859375,12.058731640625,12.75583859375C13.799081640625,11.70518859375,15.022881640625,9.27818859375,13.870681640625,6.96276859375C13.870681640625,6.96276859375,13.199181640625,7.29689859375,13.199181640625,7.29689859375C13.199181640625,7.29689859375,13.199181640625,7.29689859375,13.199181640625,7.29689859375ZM11.489931640624999,12.434838593750001C11.489931640624999,12.434838593750001,11.489931640624999,13.01483859375,11.489931640624999,13.01483859375C11.489931640624999,13.01483859375,12.239931640624999,13.01483859375,12.239931640624999,13.01483859375C12.239931640624999,13.01483859375,12.239931640624999,12.434838593750001,12.239931640624999,12.434838593750001C12.239931640624999,12.434838593750001,11.489931640624999,12.434838593750001,11.489931640624999,12.434838593750001C11.489931640624999,12.434838593750001,11.489931640624999,12.434838593750001,11.489931640624999,12.434838593750001ZM11.489931640624999,13.01483859375C11.489931640624999,13.02913859375,11.490281640625,13.04313859375,11.490531640625,13.05388859375C11.490881640625,13.06613859375,11.491131640625,13.07458859375,11.491331640624999,13.08453859375C11.491681640625,13.10333859375,11.491581640625,13.11673859375,11.490881640625,13.12783859375C11.489381640625,13.15183859375,11.486031640625,13.14928859375,11.493031640625,13.13578859375C11.497131640625,13.12798859375,11.503231640625,13.11933859375,11.511031640625,13.11178859375C11.518781640625,13.10428859375,11.524231640625,13.10173859375,11.523231640625,13.10223859375C11.519231640625,13.10413859375,11.482481640625,13.11983859375,11.384931640625,13.11983859375C11.384931640625,13.11983859375,11.384931640625,13.86983859375,11.384931640625,13.86983859375C11.730931640625,13.86983859375,12.016181640625,13.75463859375,12.158081640625,13.48258859375C12.265931640625,13.27573859375,12.239931640624999,13.02283859375,12.239931640624999,13.01483859375C12.239931640624999,13.01483859375,11.489931640624999,13.01483859375,11.489931640624999,13.01483859375C11.489931640624999,13.01483859375,11.489931640624999,13.01483859375,11.489931640624999,13.01483859375ZM11.384931640625,13.11983859375C11.384931640625,13.11983859375,8.629931640625,13.11983859375,8.629931640625,13.11983859375C8.629931640625,13.11983859375,8.629931640625,13.86983859375,8.629931640625,13.86983859375C8.629931640625,13.86983859375,11.384931640625,13.86983859375,11.384931640625,13.86983859375C11.384931640625,13.86983859375,11.384931640625,13.11983859375,11.384931640625,13.11983859375C11.384931640625,13.11983859375,11.384931640625,13.11983859375,11.384931640625,13.11983859375ZM8.626521640625,13.11983859375C8.569391640625,13.12038859375,8.526461640625,13.11793859375,8.494851640625,13.11423859375C8.462981640625,13.11053859375,8.446811640625,13.10598859375,8.441481640625,13.10423859375C8.436661640625001,13.10263859375,8.445771640625,13.10493859375,8.460901640625,13.11628859375C8.477291640625,13.12853859375,8.493541640625,13.14593859375,8.506061640625,13.16703859375C8.528571640625,13.20488859375,8.523621640625,13.22903859375,8.522351640625,13.19328859375C8.521791640625,13.17738859375,8.522031640625,13.15758859375,8.522861640624999,13.12658859375C8.523601640625,13.09888859375,8.524931640625,13.05943859375,8.524931640625,13.01983859375C8.524931640625,13.01983859375,7.774931640625001,13.01983859375,7.774931640625001,13.01983859375C7.774931640625001,13.04643859375,7.7740716406249994,13.07168859375,7.7731316406249995,13.10643859375C7.772291640625,13.13793859375,7.771351640624999,13.17833859375,7.772821640625001,13.21983859375C7.775621640624999,13.29873859375,7.787531640625,13.42598859375,7.861301640624999,13.55013859375C8.027371640625,13.82963859375,8.352591640625,13.87238859375,8.633341640625,13.86983859375C8.633341640625,13.86983859375,8.626521640625,13.11983859375,8.626521640625,13.11983859375C8.626521640625,13.11983859375,8.626521640625,13.11983859375,8.626521640625,13.11983859375Z" fill="#FFFFFF" fill-opacity="1"/></g><g><path d="M8.1477,14.63934765625C7.9484638,14.69589965625,7.8327953,14.90325665625,7.8893468,15.10249365625C7.9458988,15.30172765625,8.153256,15.41739765625,8.352492,15.36084765625C8.352492,15.36084765625,8.1477,14.63934765625,8.1477,14.63934765625C8.1477,14.63934765625,8.1477,14.63934765625,8.1477,14.63934765625ZM11.6477,15.36084765625C11.84694,15.41739765625,12.0543,15.30172765625,12.11085,15.10249365625C12.1674,14.90325665625,12.05173,14.69589965625,11.85249,14.63934765625C11.85249,14.63934765625,11.6477,15.36084765625,11.6477,15.36084765625C11.6477,15.36084765625,11.6477,15.36084765625,11.6477,15.36084765625ZM8.352492,15.36084765625C9.43055,15.05484765625,10.56964,15.05484765625,11.6477,15.36084765625C11.6477,15.36084765625,11.85249,14.63934765625,11.85249,14.63934765625C10.640550000000001,14.29534755625,9.35964,14.29534755625,8.1477,14.63934765625C8.1477,14.63934765625,8.352492,15.36084765625,8.352492,15.36084765625C8.352492,15.36084765625,8.352492,15.36084765625,8.352492,15.36084765625Z" fill="#FFFFFF" fill-opacity="1"/></g><g style="opacity:0;"></g></g></g></g></g></g></svg>