<svg xmlns="http://www.w3.org/2000/svg" xmlns:xlink="http://www.w3.org/1999/xlink" fill="none" version="1.1" width="20" height="20" viewBox="0 0 20 20"><defs><clipPath id="master_svg0_1_083557"><rect x="0" y="0" width="20" height="20" rx="5"/></clipPath></defs><g clip-path="url(#master_svg0_1_083557)"><rect x="0" y="0" width="20" height="20" rx="5" fill="#4080FF" fill-opacity="1"/><g><g><g><g><g><path d="M15,9C15,9,15,9.375,15,9.375C15.2071,9.375,15.375,9.2071,15.375,9C15.375,9,15,9,15,9C15,9,15,9,15,9ZM5,8.75C5,8.75,4.625,8.75,4.625,8.75C4.625,8.9571,4.792893,9.125,5,9.125C5,9.125,5,8.75,5,8.75C5,8.75,5,8.75,5,8.75ZM5,11.25C5,11.25,5,10.875,5,10.875C4.792893,10.875,4.625,11.0429,4.625,11.25C4.625,11.25,5,11.25,5,11.25C5,11.25,5,11.25,5,11.25ZM15,11.5C15,11.5,15.375,11.5,15.375,11.5C15.375,11.2929,15.2071,11.125,15,11.125C15,11.125,15,11.5,15,11.5C15,11.5,15,11.5,15,11.5ZM14.125,10.25C14.125,9.767109999999999,14.5171,9.375,15,9.375C15,9.375,15,8.625,15,8.625C14.1029,8.625,13.375,9.3529,13.375,10.25C13.375,10.25,14.125,10.25,14.125,10.25C14.125,10.25,14.125,10.25,14.125,10.25ZM15.375,9C15.375,9,15.375,8.5,15.375,8.5C15.375,8.5,14.625,8.5,14.625,8.5C14.625,8.5,14.625,9,14.625,9C14.625,9,15.375,9,15.375,9C15.375,9,15.375,9,15.375,9ZM15.375,8.5C15.375,7.50268,15.2594,6.72909,14.7652,6.234835C14.2709,5.740582,13.4973,5.625,12.5,5.625C12.5,5.625,12.5,6.375,12.5,6.375C13.5027,6.375,13.9791,6.50942,14.23485,6.76516C14.4906,7.02091,14.625,7.49732,14.625,8.5C14.625,8.5,15.375,8.5,15.375,8.5C15.375,8.5,15.375,8.5,15.375,8.5ZM12.5,5.625C12.5,5.625,7.5,5.625,7.5,5.625C7.5,5.625,7.5,6.375,7.5,6.375C7.5,6.375,12.5,6.375,12.5,6.375C12.5,6.375,12.5,5.625,12.5,5.625C12.5,5.625,12.5,5.625,12.5,5.625ZM7.5,5.625C6.50268,5.625,5.72909,5.740582,5.234835,6.234835C4.740582,6.72909,4.625,7.50268,4.625,8.5C4.625,8.5,5.375,8.5,5.375,8.5C5.375,7.49732,5.50942,7.02091,5.76516,6.76516C6.02091,6.50942,6.49732,6.375,7.5,6.375C7.5,6.375,7.5,5.625,7.5,5.625C7.5,5.625,7.5,5.625,7.5,5.625ZM4.625,8.5C4.625,8.5,4.625,8.75,4.625,8.75C4.625,8.75,5.375,8.75,5.375,8.75C5.375,8.75,5.375,8.5,5.375,8.5C5.375,8.5,4.625,8.5,4.625,8.5C4.625,8.5,4.625,8.5,4.625,8.5ZM5,9.125C5.482893,9.125,5.875,9.51711,5.875,10C5.875,10,6.625,10,6.625,10C6.625,9.1029,5.8971,8.375,5,8.375C5,8.375,5,9.125,5,9.125C5,9.125,5,9.125,5,9.125ZM5.875,10C5.875,10.482890000000001,5.482893,10.875,5,10.875C5,10.875,5,11.625,5,11.625C5.8971,11.625,6.625,10.89711,6.625,10C6.625,10,5.875,10,5.875,10C5.875,10,5.875,10,5.875,10ZM4.625,11.25C4.625,11.25,4.625,11.5,4.625,11.5C4.625,11.5,5.375,11.5,5.375,11.5C5.375,11.5,5.375,11.25,5.375,11.25C5.375,11.25,4.625,11.25,4.625,11.25C4.625,11.25,4.625,11.25,4.625,11.25ZM4.625,11.5C4.625,12.4973,4.740582,13.270900000000001,5.234835,13.76515C5.72909,14.2594,6.50268,14.375,7.5,14.375C7.5,14.375,7.5,13.625,7.5,13.625C6.49732,13.625,6.02091,13.4906,5.76516,13.23485C5.50942,12.979099999999999,5.375,12.5027,5.375,11.5C5.375,11.5,4.625,11.5,4.625,11.5C4.625,11.5,4.625,11.5,4.625,11.5ZM7.5,14.375C7.5,14.375,12.5,14.375,12.5,14.375C12.5,14.375,12.5,13.625,12.5,13.625C12.5,13.625,7.5,13.625,7.5,13.625C7.5,13.625,7.5,14.375,7.5,14.375C7.5,14.375,7.5,14.375,7.5,14.375ZM12.5,14.375C13.4973,14.375,14.2709,14.2594,14.7652,13.76515C15.2594,13.270900000000001,15.375,12.4973,15.375,11.5C15.375,11.5,14.625,11.5,14.625,11.5C14.625,12.5027,14.4906,12.979099999999999,14.23485,13.23485C13.9791,13.4906,13.5027,13.625,12.5,13.625C12.5,13.625,12.5,14.375,12.5,14.375C12.5,14.375,12.5,14.375,12.5,14.375ZM15,11.125C14.5171,11.125,14.125,10.732890000000001,14.125,10.25C14.125,10.25,13.375,10.25,13.375,10.25C13.375,11.1471,14.1029,11.875,15,11.875C15,11.875,15,11.125,15,11.125C15,11.125,15,11.125,15,11.125Z" fill="#FFFFFF" fill-opacity="1"/></g><g transform="matrix(1,-4.371139183945161e-8,4.371139183945161e-8,1,-2.458765795410045e-7,3.770107550593593e-7)"><path d="M9.375,6C9.375,5.792893,9.207107,5.625,9,5.625C8.792893,5.625,8.625,5.792893,8.625,6C8.625,6,9.375,6,9.375,6C9.375,6,9.375,6,9.375,6ZM8.625,14C8.625,14.2071,8.792893,14.375,9,14.375C9.207107,14.375,9.375,14.2071,9.375,14C9.375,14,8.625,14,8.625,14C8.625,14,8.625,14,8.625,14ZM8.625,7C8.625,7.20711,8.792893,7.375,9,7.375C9.207107,7.375,9.375,7.20711,9.375,7C9.375,7,8.625,7,8.625,7C8.625,7,8.625,7,8.625,7ZM9.375,9C9.375,8.7929,9.207107,8.625,9,8.625C8.792893,8.625,8.625,8.7929,8.625,9C8.625,9,9.375,9,9.375,9C9.375,9,9.375,9,9.375,9ZM8.625,11C8.625,11.2071,8.792893,11.375,9,11.375C9.207107,11.375,9.375,11.2071,9.375,11C9.375,11,8.625,11,8.625,11C8.625,11,8.625,11,8.625,11ZM9.375,13C9.375,12.7929,9.207107,12.625,9,12.625C8.792893,12.625,8.625,12.7929,8.625,13C8.625,13,9.375,13,9.375,13C9.375,13,9.375,13,9.375,13ZM8.625,6C8.625,6,8.625,7,8.625,7C8.625,7,9.375,7,9.375,7C9.375,7,9.375,6,9.375,6C9.375,6,8.625,6,8.625,6C8.625,6,8.625,6,8.625,6ZM8.625,9C8.625,9,8.625,11,8.625,11C8.625,11,9.375,11,9.375,11C9.375,11,9.375,9,9.375,9C9.375,9,8.625,9,8.625,9C8.625,9,8.625,9,8.625,9ZM8.625,13C8.625,13,8.625,14,8.625,14C8.625,14,9.375,14,9.375,14C9.375,14,9.375,13,9.375,13C9.375,13,8.625,13,8.625,13C8.625,13,8.625,13,8.625,13Z" fill="#FFFFFF" fill-opacity="1"/></g><g style="opacity:0;"></g></g></g></g></g></g></svg>