<svg xmlns="http://www.w3.org/2000/svg" xmlns:xlink="http://www.w3.org/1999/xlink" fill="none" version="1.1" width="20" height="20" viewBox="0 0 20 20"><defs><clipPath id="master_svg0_1_083298"><rect x="0" y="0" width="20" height="20" rx="5"/></clipPath></defs><g clip-path="url(#master_svg0_1_083298)"><rect x="0" y="0" width="20" height="20" rx="5" fill="#FF9A2E" fill-opacity="1"/><g><g><g><g><path d="M13.625,10.3251953125C13.625,10.1180883125,13.4571,9.9501953125,13.25,9.9501953125C13.0429,9.9501953125,12.875,10.1180883125,12.875,10.3251953125C12.875,10.3251953125,13.625,10.3251953125,13.625,10.3251953125C13.625,10.3251953125,13.625,10.3251953125,13.625,10.3251953125ZM7.125,10.3251953125C7.125,10.1180883125,6.957107,9.9501953125,6.75,9.9501953125C6.542893,9.9501953125,6.375,10.1180883125,6.375,10.3251953125C6.375,10.3251953125,7.125,10.3251953125,7.125,10.3251953125C7.125,10.3251953125,7.125,10.3251953125,7.125,10.3251953125ZM12.875,10.3251953125C12.875,10.3251953125,12.875,12.1751953125,12.875,12.1751953125C12.875,12.1751953125,13.625,12.1751953125,13.625,12.1751953125C13.625,12.1751953125,13.625,10.3251953125,13.625,10.3251953125C13.625,10.3251953125,12.875,10.3251953125,12.875,10.3251953125C12.875,10.3251953125,12.875,10.3251953125,12.875,10.3251953125ZM12.875,12.1751953125C12.875,13.4804853125,11.63894,14.6251953125,10,14.6251953125C10,14.6251953125,10,15.3751953125,10,15.3751953125C11.95105,15.3751953125,13.625,13.9898953125,13.625,12.1751953125C13.625,12.1751953125,12.875,12.1751953125,12.875,12.1751953125C12.875,12.1751953125,12.875,12.1751953125,12.875,12.1751953125ZM10,14.6251953125C8.36106,14.6251953125,7.125,13.4804853125,7.125,12.1751953125C7.125,12.1751953125,6.375,12.1751953125,6.375,12.1751953125C6.375,13.9898953125,8.04894,15.3751953125,10,15.3751953125C10,15.3751953125,10,14.6251953125,10,14.6251953125C10,14.6251953125,10,14.6251953125,10,14.6251953125ZM7.125,12.1751953125C7.125,12.1751953125,7.125,10.3251953125,7.125,10.3251953125C7.125,10.3251953125,6.375,10.3251953125,6.375,10.3251953125C6.375,10.3251953125,6.375,12.1751953125,6.375,12.1751953125C6.375,12.1751953125,7.125,12.1751953125,7.125,12.1751953125C7.125,12.1751953125,7.125,12.1751953125,7.125,12.1751953125ZM6.375,10.3251953125C6.375,12.1639553125,8.07768,13.3751953125,10,13.3751953125C10,13.3751953125,10,12.6251953125,10,12.6251953125C8.33231,12.6251953125,7.125,11.6064253125,7.125,10.3251953125C7.125,10.3251953125,6.375,10.3251953125,6.375,10.3251953125C6.375,10.3251953125,6.375,10.3251953125,6.375,10.3251953125ZM10,13.3751953125C11.9223,13.3751953125,13.625,12.1639553125,13.625,10.3251953125C13.625,10.3251953125,12.875,10.3251953125,12.875,10.3251953125C12.875,11.6064253125,11.66769,12.6251953125,10,12.6251953125C10,12.6251953125,10,13.3751953125,10,13.3751953125C10,13.3751953125,10,13.3751953125,10,13.3751953125Z" fill="#FFFFFF" fill-opacity="1"/></g><g><path d="M12.905000000000001,9.059999999999999C12.905000000000001,9.059999999999999,12.585,8.864460000000001,12.585,8.864460000000001C12.585,8.864460000000001,12.58455,8.86519,12.58455,8.86519C12.58455,8.86519,12.905000000000001,9.059999999999999,12.905000000000001,9.059999999999999C12.905000000000001,9.059999999999999,12.905000000000001,9.059999999999999,12.905000000000001,9.059999999999999ZM7.095001,9.059999999999999C7.095001,9.059999999999999,7.41543,8.86519,7.41543,8.86519C7.41543,8.86519,7.41498,8.864460000000001,7.41498,8.864460000000001C7.41498,8.864460000000001,7.095001,9.059999999999999,7.095001,9.059999999999999C7.095001,9.059999999999999,7.095001,9.059999999999999,7.095001,9.059999999999999ZM7.7,5.83C7.7,5.83,7.94642,6.11267,7.94642,6.11267C7.94642,6.11267,7.9465900000000005,6.11251,7.9465900000000005,6.11251C7.9465900000000005,6.11251,7.7,5.83,7.7,5.83C7.7,5.83,7.7,5.83,7.7,5.83ZM12.3,5.825C12.3,5.825,12.547799999999999,5.54352,12.547799999999999,5.54352C12.547799999999999,5.54352,12.54525,5.5413,12.54525,5.5413C12.54525,5.5413,12.3,5.825,12.3,5.825C12.3,5.825,12.3,5.825,12.3,5.825ZM12.875,7.825C12.875,8.20974,12.7697,8.56225,12.585,8.864460000000001C12.585,8.864460000000001,13.225,9.25555,13.225,9.25555C13.4803,8.83775,13.625,8.35026,13.625,7.825C13.625,7.825,12.875,7.825,12.875,7.825C12.875,7.825,12.875,7.825,12.875,7.825ZM12.58455,8.86519C12.131599999999999,9.61028,11.16846,10.125,10,10.125C10,10.125,10,10.875,10,10.875C11.37154,10.875,12.6084,10.2697,13.22545,9.254809999999999C13.22545,9.254809999999999,12.58455,8.86519,12.58455,8.86519C12.58455,8.86519,12.58455,8.86519,12.58455,8.86519ZM10,10.125C8.83155,10.125,7.86841,9.61028,7.41543,8.86519C7.41543,8.86519,6.774571,9.254809999999999,6.774571,9.254809999999999C7.39159,10.2697,8.62845,10.875,10,10.875C10,10.875,10,10.125,10,10.125C10,10.125,10,10.125,10,10.125ZM7.41498,8.864460000000001C7.230302,8.56225,7.125,8.20974,7.125,7.825C7.125,7.825,6.375,7.825,6.375,7.825C6.375,8.35026,6.5197,8.83775,6.775021,9.25555C6.775021,9.25555,7.41498,8.864460000000001,7.41498,8.864460000000001C7.41498,8.864460000000001,7.41498,8.864460000000001,7.41498,8.864460000000001ZM7.125,7.825C7.125,7.16741,7.4319,6.56123,7.94642,6.11267C7.94642,6.11267,7.45357,5.547335,7.45357,5.547335C6.7980979999999995,6.11878,6.375,6.92259,6.375,7.825C6.375,7.825,7.125,7.825,7.125,7.825C7.125,7.825,7.125,7.825,7.125,7.825ZM7.9465900000000005,6.11251C8.465869999999999,5.65925,9.18742,5.375,10,5.375C10,5.375,10,4.625,10,4.625C9.01257,4.625,8.11413,4.97075,7.4534,5.547485C7.4534,5.547485,7.9465900000000005,6.11251,7.9465900000000005,6.11251C7.9465900000000005,6.11251,7.9465900000000005,6.11251,7.9465900000000005,6.11251ZM10,5.375C10.81265,5.375,11.53492,5.65935,12.05475,6.1087C12.05475,6.1087,12.54525,5.5413,12.54525,5.5413C11.885100000000001,4.970659,10.98735,4.625,10,4.625C10,4.625,10,5.375,10,5.375C10,5.375,10,5.375,10,5.375ZM12.0522,6.10647C12.568249999999999,6.5607500000000005,12.875,7.1676400000000005,12.875,7.825C12.875,7.825,13.625,7.825,13.625,7.825C13.625,6.922359999999999,13.20175,6.11925,12.547799999999999,5.54353C12.547799999999999,5.54353,12.0522,6.10647,12.0522,6.10647C12.0522,6.10647,12.0522,6.10647,12.0522,6.10647Z" fill="#FFFFFF" fill-opacity="1"/></g><g><path d="M12.3,5.825C12.3,5.825,12.547799999999999,5.54352,12.547799999999999,5.54352C12.547799999999999,5.54352,12.54525,5.5413,12.54525,5.5413C12.54525,5.5413,12.3,5.825,12.3,5.825C12.3,5.825,12.3,5.825,12.3,5.825ZM12.875,7.825C12.875,7.825,12.875,10.325,12.875,10.325C12.875,10.325,13.625,10.325,13.625,10.325C13.625,10.325,13.625,7.825,13.625,7.825C13.625,7.825,12.875,7.825,12.875,7.825C12.875,7.825,12.875,7.825,12.875,7.825ZM12.875,10.325C12.875,11.60625,11.66769,12.625,10,12.625C10,12.625,10,13.375,10,13.375C11.9223,13.375,13.625,12.16375,13.625,10.325C13.625,10.325,12.875,10.325,12.875,10.325C12.875,10.325,12.875,10.325,12.875,10.325ZM10,12.625C8.33231,12.625,7.125,11.60625,7.125,10.325C7.125,10.325,6.375,10.325,6.375,10.325C6.375,12.16375,8.07768,13.375,10,13.375C10,13.375,10,12.625,10,12.625C10,12.625,10,12.625,10,12.625ZM7.125,10.325C7.125,10.325,7.125,7.825,7.125,7.825C7.125,7.825,6.375,7.825,6.375,7.825C6.375,7.825,6.375,10.325,6.375,10.325C6.375,10.325,7.125,10.325,7.125,10.325C7.125,10.325,7.125,10.325,7.125,10.325ZM7.125,7.825C7.125,6.51971,8.36106,5.375,10,5.375C10,5.375,10,4.625,10,4.625C8.04894,4.625,6.375,6.0102899999999995,6.375,7.825C6.375,7.825,7.125,7.825,7.125,7.825C7.125,7.825,7.125,7.825,7.125,7.825ZM10,5.375C10.81265,5.375,11.53492,5.65935,12.05475,6.1087C12.05475,6.1087,12.54525,5.5413,12.54525,5.5413C11.885100000000001,4.970659,10.98735,4.625,10,4.625C10,4.625,10,5.375,10,5.375C10,5.375,10,5.375,10,5.375ZM12.0522,6.10647C12.568249999999999,6.5607500000000005,12.875,7.1676400000000005,12.875,7.825C12.875,7.825,13.625,7.825,13.625,7.825C13.625,6.922359999999999,13.20175,6.11925,12.547799999999999,5.54353C12.547799999999999,5.54353,12.0522,6.10647,12.0522,6.10647C12.0522,6.10647,12.0522,6.10647,12.0522,6.10647Z" fill="#FFFFFF" fill-opacity="1"/></g><g style="opacity:0;"></g></g></g></g></g></svg>