<svg width="12" height="12" viewBox="0 0 12 12" fill="none" xmlns="http://www.w3.org/2000/svg">
<g clip-path="url(#clip0_246_24716)">
<path d="M10.5 6C10.5 3.51472 8.48528 1.5 6 1.5C3.51472 1.5 1.5 3.51472 1.5 6C1.5 8.48528 3.51472 10.5 6 10.5C8.48528 10.5 10.5 8.48528 10.5 6ZM5.5 3C5.5 2.72386 5.72386 2.5 6 2.5C6.27614 2.5 6.5 2.72386 6.5 3V5.69092L8.22363 6.55273L8.26807 6.57812C8.48213 6.71378 8.56304 6.99208 8.44727 7.22363C8.33149 7.45519 8.06021 7.55764 7.82324 7.46777L7.77637 7.44727L5.77637 6.44727C5.60698 6.36257 5.5 6.18939 5.5 6V3ZM11.5 6C11.5 9.03757 9.03757 11.5 6 11.5C2.96243 11.5 0.5 9.03757 0.5 6C0.5 2.96243 2.96243 0.5 6 0.5C9.03757 0.5 11.5 2.96243 11.5 6Z" fill="#FC8800"/>
</g>
<defs>
<clipPath id="clip0_246_24716">
<rect width="12" height="12" fill="white"/>
</clipPath>
</defs>
</svg>
