<svg width="12" height="12" viewBox="0 0 12 12" fill="none" xmlns="http://www.w3.org/2000/svg">
<g clip-path="url(#clip0_246_24713)">
<path d="M4.78803 0.633169C5.8725 0.388182 7.00385 0.478189 8.03363 0.888051L8.23822 0.973989L8.28412 0.997426C8.50389 1.12344 8.59692 1.39774 8.49164 1.63415C8.3863 1.87056 8.12001 1.98523 7.87934 1.90612L7.83149 1.88756L7.66401 1.81676C6.82141 1.48141 5.89558 1.40827 5.00824 1.60875C4.06172 1.82261 3.20952 2.33643 2.57904 3.07409C1.94857 3.81175 1.57356 4.73373 1.50971 5.70202C1.4459 6.67024 1.69691 7.63312 2.22504 8.44713C2.75319 9.26116 3.53016 9.88282 4.44037 10.2191C5.35061 10.5554 6.34527 10.5885 7.27582 10.3133C8.20637 10.0382 9.02292 9.46944 9.60395 8.69225C10.1849 7.91513 10.4993 6.97111 10.4999 6.00084V5.54088C10.4999 5.26474 10.7238 5.04088 10.9999 5.04088C11.2761 5.04088 11.4999 5.26474 11.4999 5.54088V6.00084L11.4955 6.22301C11.4502 7.33047 11.0709 8.40035 10.4052 9.29088C9.69509 10.2408 8.69684 10.936 7.55951 11.2723C6.42215 11.6086 5.20623 11.5681 4.09369 11.1571C2.9813 10.7461 2.03167 9.98639 1.38617 8.99157C0.740655 7.99662 0.433642 6.81954 0.511661 5.6361C0.589692 4.45274 1.04832 3.32622 1.81879 2.42467C2.58938 1.52308 3.63116 0.894549 4.78803 0.633169ZM10.6464 1.64733C10.8416 1.45212 11.1581 1.45176 11.3535 1.64684C11.5488 1.84201 11.5486 2.159 11.3535 2.35436L6.35346 7.35924C6.25972 7.45299 6.13252 7.50569 5.99994 7.50573C5.86734 7.50573 5.7402 7.45301 5.64643 7.35924L4.14643 5.85924L4.11225 5.82116C3.9521 5.62477 3.96338 5.33526 4.14643 5.15221C4.34168 4.95698 4.6582 4.95698 4.85346 5.15221L5.99945 6.29821L10.6464 1.64733Z" fill="#3BB346"/>
</g>
<defs>
<clipPath id="clip0_246_24713">
<rect width="12" height="12" fill="white"/>
</clipPath>
</defs>
</svg>
