<svg width="16" height="16" viewBox="0 0 16 16" fill="none" xmlns="http://www.w3.org/2000/svg">
<g clip-path="url(#clip0_306_24348)">
<path d="M7.33329 14.666V11.9993C7.33329 11.6312 7.63177 11.3327 7.99996 11.3327C8.36815 11.3327 8.66663 11.6312 8.66663 11.9993V14.666C8.66663 15.0342 8.36815 15.3327 7.99996 15.3327C7.63177 15.3327 7.33329 15.0342 7.33329 14.666ZM4.70178 10.3548C4.96213 10.0945 5.38414 10.0945 5.64449 10.3548C5.90484 10.6152 5.90484 11.0372 5.64449 11.2975L3.75777 13.1842C3.49741 13.4444 3.07534 13.4445 2.81506 13.1842C2.55478 12.924 2.55492 12.5019 2.81506 12.2415L4.70178 10.3548ZM10.3554 10.3548C10.6158 10.0945 11.0378 10.0945 11.2981 10.3548L13.1849 12.2415C13.445 12.5019 13.4451 12.924 13.1849 13.1842C12.9246 13.4445 12.5025 13.4444 12.2421 13.1842L10.3554 11.2975C10.0951 11.0372 10.0951 10.6152 10.3554 10.3548ZM3.99996 7.33268C4.36815 7.33268 4.66663 7.63116 4.66663 7.99935C4.66663 8.36754 4.36815 8.66602 3.99996 8.66602H1.33329C0.965103 8.66602 0.666626 8.36754 0.666626 7.99935C0.666626 7.63116 0.965103 7.33268 1.33329 7.33268H3.99996ZM14.6666 7.33268C15.0348 7.33268 15.3333 7.63116 15.3333 7.99935C15.3333 8.36754 15.0348 8.66602 14.6666 8.66602H12C11.6318 8.66602 11.3333 8.36754 11.3333 7.99935C11.3333 7.63116 11.6318 7.33268 12 7.33268H14.6666ZM2.81506 2.81445C3.07534 2.55417 3.49741 2.55431 3.75777 2.81445L5.64449 4.70117C5.90484 4.96152 5.90484 5.38353 5.64449 5.64388C5.38414 5.90423 4.96213 5.90423 4.70178 5.64388L2.81506 3.75716C2.55492 3.49679 2.55478 3.07473 2.81506 2.81445ZM12.2421 2.81445C12.5025 2.55431 12.9246 2.55417 13.1849 2.81445C13.4451 3.07473 13.445 3.49679 13.1849 3.75716L11.2981 5.64388C11.0378 5.90423 10.6158 5.90423 10.3554 5.64388C10.0951 5.38353 10.0951 4.96152 10.3554 4.70117L12.2421 2.81445ZM7.33329 3.99935V1.33268C7.33329 0.964492 7.63177 0.666016 7.99996 0.666016C8.36815 0.666016 8.66663 0.964492 8.66663 1.33268V3.99935C8.66663 4.36754 8.36815 4.66602 7.99996 4.66602C7.63177 4.66602 7.33329 4.36754 7.33329 3.99935Z" fill="#0077FA"/>
</g>
<defs>
<clipPath id="clip0_306_24348">
<rect width="16" height="16" fill="white"/>
</clipPath>
</defs>
</svg>
