<svg width="12" height="12" viewBox="0 0 12 12" fill="none" xmlns="http://www.w3.org/2000/svg">
<g clip-path="url(#clip0_246_24719)">
<path d="M10.5 6C10.5 3.51472 8.48528 1.5 6 1.5C3.51472 1.5 1.5 3.51472 1.5 6C1.5 8.48528 3.51472 10.5 6 10.5C8.48528 10.5 10.5 8.48528 10.5 6ZM7.14648 4.14648C7.34175 3.95122 7.65825 3.95122 7.85352 4.14648C8.04878 4.34175 8.04878 4.65825 7.85352 4.85352L6.70703 6L7.85352 7.14648L7.8877 7.18457C8.04787 7.38096 8.03657 7.67046 7.85352 7.85352C7.67046 8.03657 7.38096 8.04787 7.18457 7.8877L7.14648 7.85352L6 6.70703L4.85352 7.85352C4.65825 8.04878 4.34175 8.04878 4.14648 7.85352C3.95122 7.65825 3.95122 7.34175 4.14648 7.14648L5.29297 6L4.14648 4.85352L4.1123 4.81543C3.95213 4.61904 3.96343 4.32954 4.14648 4.14648C4.32954 3.96343 4.61904 3.95213 4.81543 4.1123L4.85352 4.14648L6 5.29297L7.14648 4.14648ZM11.5 6C11.5 9.03757 9.03757 11.5 6 11.5C2.96243 11.5 0.5 9.03757 0.5 6C0.5 2.96243 2.96243 0.5 6 0.5C9.03757 0.5 11.5 2.96243 11.5 6Z" fill="#FAC800"/>
</g>
<defs>
<clipPath id="clip0_246_24719">
<rect width="12" height="12" fill="white"/>
</clipPath>
</defs>
</svg>
