<?xml version="1.0" standalone="no"?><!DOCTYPE svg PUBLIC "-//W3C//DTD SVG 1.1//EN" "http://www.w3.org/Graphics/SVG/1.1/DTD/svg11.dtd"><svg t="1779198728087" class="icon" viewBox="0 0 1024 1024" version="1.1" xmlns="http://www.w3.org/2000/svg" p-id="1671" xmlns:xlink="http://www.w3.org/1999/xlink" width="200" height="200"><path d="M730.1632 109.056c23.552 0 42.6496 19.0976 42.6496 42.6496v14.1824h75.8784a42.7008 42.7008 0 0 1 0 85.3504h-75.8784v104.2944h75.8784a42.7008 42.7008 0 0 1 0 85.3504h-75.8784v52.7872a213.4016 213.4016 0 0 1 165.888 207.9744l-0.2048 10.9568a213.3504 213.3504 0 0 1-213.0432 202.3424l-11.008-0.256a213.3504 213.3504 0 0 1-202.0864-202.0864l-0.256-10.9568a213.3504 213.3504 0 0 1 175.36-209.92V151.7056c0-23.552 19.1488-42.6496 42.7008-42.6496z m-4.7104 464.5888a128 128 0 1 0 0 256 128 128 0 0 0 0-256z m-350.8736 161.1776a42.7008 42.7008 0 0 1 0 85.3504H128a42.6496 42.6496 0 0 1 0-85.3504h246.5792z m-94.8736-189.6448a42.7008 42.7008 0 0 1 0 85.3504H128a42.6496 42.6496 0 0 1 0-85.3504h151.7056z m94.8736-189.6448a42.7008 42.7008 0 0 1 0 85.3504H128a42.6496 42.6496 0 0 1 0-85.3504h246.5792z m189.5936-189.6448a42.7008 42.7008 0 0 1 0 85.3504H128a42.6496 42.6496 0 0 1 0-85.3504h436.1728z" p-id="1672"></path></svg>