<svg width="24" height="24" viewBox="0 0 24 24" fill="none" xmlns="http://www.w3.org/2000/svg">
<path d="M11.5 3.00031C12.0523 3.00031 12.5 3.44802 12.5 4.00031C12.4998 4.55245 12.0522 5.00031 11.5 5.00031H5C4.44772 5.00031 4 5.44802 4 6.00031V19.0003C4.00016 19.5525 4.44782 20.0003 5 20.0003H18C18.5522 20.0003 18.9998 19.5525 19 19.0003V12.5003C19 11.948 19.4477 11.5003 20 11.5003C20.5523 11.5003 21 11.948 21 12.5003V19.0003C20.9998 20.657 19.6568 22.0003 18 22.0003H5C3.34325 22.0003 2.00016 20.657 2 19.0003V6.00031C2 4.34345 3.34315 3.00031 5 3.00031H11.5Z" fill="#828894"/>
<path fill-rule="evenodd" clip-rule="evenodd" d="M15.1719 3.17218C16.734 1.61009 19.266 1.61009 20.8281 3.17218C22.3901 4.73429 22.3902 7.26639 20.8281 8.82843C19.2661 10.3903 16.7339 10.3903 15.1719 8.82843C13.6098 7.26639 13.6099 4.73429 15.1719 3.17218ZM19.4141 4.58625C18.633 3.8052 17.367 3.8052 16.5859 4.58625C15.805 5.36731 15.8049 6.63337 16.5859 7.41437C17.3669 8.19522 18.6331 8.19522 19.4141 7.41437C20.1951 6.63337 20.195 5.36731 19.4141 4.58625Z" fill="#828894"/>
</svg>
