<svg width="24" height="24" viewBox="0 0 24 24" fill="none" xmlns="http://www.w3.org/2000/svg">
<path d="M10.7324 1.58466C11.5146 1.1247 12.4854 1.1247 13.2676 1.58466L20.2676 5.70282C21.0309 6.15189 21.4998 6.97151 21.5 7.85712V16.1413C21.5 17.0271 21.0311 17.8474 20.2676 18.2966L13.2676 22.4138C12.4852 22.874 11.5148 22.874 10.7324 22.4138L3.73242 18.2966C2.96893 17.8474 2.5 17.0271 2.5 16.1413V7.85712C2.50025 6.97152 2.96909 6.15189 3.73242 5.70282L10.7324 1.58466ZM12.2539 3.30927C12.0975 3.21735 11.9025 3.21735 11.7461 3.30927L4.74609 7.42645C4.59374 7.5162 4.50025 7.68031 4.5 7.85712V16.1413C4.5 16.3184 4.59356 16.4831 4.74609 16.5729L11.7461 20.6901C11.9026 20.7822 12.0974 20.7822 12.2539 20.6901L19.2539 16.5729C19.4064 16.4831 19.5 16.3184 19.5 16.1413V7.85712C19.4998 7.68031 19.4063 7.5162 19.2539 7.42645L12.2539 3.30927ZM15.4678 8.65106C15.936 8.35846 16.5529 8.50028 16.8457 8.96844C17.1385 9.43672 16.9956 10.0536 16.5273 10.3464L13 12.5515V16.4997C13 17.052 12.5523 17.4997 12 17.4997C11.4477 17.4997 11 17.052 11 16.4997V12.5554L7.46973 10.3464C7.00166 10.0534 6.85949 9.43657 7.15234 8.96844C7.44532 8.50043 8.06217 8.35825 8.53027 8.65106L11.9971 10.82L15.4678 8.65106Z" fill="#828894"/>
</svg>
