<svg width="24" height="24" viewBox="0 0 24 24" fill="none" xmlns="http://www.w3.org/2000/svg">
<path d="M4 14C4 13.4477 4.44772 13 5 13H7C7.55228 13 8 13.4477 8 14V17.5C8 18.0523 7.55228 18.5 7 18.5H5C4.44772 18.5 4 18.0523 4 17.5V14Z" fill="#828894"/>
<path d="M10 7C10 6.44772 10.4477 6 11 6H13C13.5523 6 14 6.44772 14 7V17.5C14 18.0523 13.5523 18.5 13 18.5H11C10.4477 18.5 10 18.0523 10 17.5V7Z" fill="#828894"/>
<path d="M16 10C16 9.44772 16.4477 9 17 9H19C19.5523 9 20 9.44772 20 10V17.5C20 18.0523 19.5523 18.5 19 18.5H17C16.4477 18.5 16 18.0523 16 17.5V10Z" fill="#828894"/>
<path d="M3 20.5C3 19.9477 3.44772 19.5 4 19.5H20C20.5523 19.5 21 19.9477 21 20.5C21 21.0523 20.5523 21.5 20 21.5H4C3.44772 21.5 3 21.0523 3 20.5Z" fill="#828894"/>
</svg>
