<svg width="24" height="24" viewBox="0 0 24 24" fill="none" xmlns="http://www.w3.org/2000/svg">
<path d="M5 14C5 13.4477 5.44772 13 6 13H8C8.55228 13 9 13.4477 9 14V17C9 17.5523 8.55228 18 8 18H6C5.44772 18 5 17.5523 5 17V14Z" fill="#828894"/>
<path d="M10 8C10 7.44772 10.4477 7 11 7H13C13.5523 7 14 7.44772 14 8V17C14 17.5523 13.5523 18 13 18H11C10.4477 18 10 17.5523 10 17V8Z" fill="#828894"/>
<path d="M15 11C15 10.4477 15.4477 10 16 10H18C18.5523 10 19 10.4477 19 11V17C19 17.5523 18.5523 18 18 18H16C15.4477 18 15 17.5523 15 17V11Z" fill="#828894"/>
<path d="M4.5 20C4.5 19.4477 4.94772 19 5.5 19H18.5C19.0523 19 19.5 19.4477 19.5 20C19.5 20.5523 19.0523 21 18.5 21H5.5C4.94772 21 4.5 20.5523 4.5 20Z" fill="#828894"/>
</svg>
