<svg width="24" height="24" viewBox="0 0 24 24" fill="none" xmlns="http://www.w3.org/2000/svg">
<path d="M15 11C15.5523 11 16 11.4477 16 12V21H19C19.2652 21 19.5195 20.8946 19.707 20.707C19.8946 20.5195 20 20.2652 20 20V9.4883L12 3.26662L4 9.4883V20C4 20.2652 4.10543 20.5195 4.29297 20.707C4.48051 20.8946 4.73478 21 5 21H8V12C8 11.4477 8.44772 11 9 11H15ZM22 20C22 20.7957 21.6837 21.5585 21.1211 22.1211C20.5585 22.6837 19.7957 23 19 23H15C14.4477 23 14 22.5523 14 22V13H10V22C10 22.5523 9.55228 23 9 23H5C4.20435 23 3.44151 22.6837 2.87891 22.1211C2.3163 21.5585 2 20.7957 2 20V9.00002C2 8.69157 2.14236 8.40042 2.38574 8.21095L11.3857 1.21095C11.7469 0.930089 12.2531 0.930089 12.6143 1.21095L21.6143 8.21095C21.8576 8.40042 22 8.69157 22 9.00002V20Z" fill="#828894"/>
</svg>
