<svg width="24" height="24" viewBox="0 0 24 24" fill="none" xmlns="http://www.w3.org/2000/svg">
<path d="M12 2C6.48 2 2 6.48 2 12C2 17.52 6.48 22 12 22C17.52 22 22 17.52 22 12C22 6.48 17.52 2 12 2ZM12 20C7.59 20 4 16.41 4 12C4 7.59 7.59 4 12 4C16.41 4 20 7.59 20 12C20 16.41 16.41 20 12 20ZM12.31 11.14C10.54 10.69 9.97 10.2 9.97 9.47C9.97 8.63 10.76 8.04 12.07 8.04C13.45 8.04 13.97 8.7 14.01 9.68H15.72C15.67 8.34 14.85 7.11 13.23 6.71V5H10.9V6.69C9.39 7.01 8.33 8.03 8.33 9.49C8.33 11.41 9.99 12.28 11.96 12.77C13.88 13.23 14.3 13.88 14.3 14.63C14.3 15.32 13.71 16.04 12.07 16.04C10.38 16.04 9.73 15.3 9.67 14.14H7.96C8.02 15.69 9.07 16.85 10.9 17.2V18.5H13.23V17.22C14.78 16.92 15.9 15.98 15.9 14.59C15.9 12.35 13.99 11.62 12.31 11.14Z" fill="#828894"/>
</svg>
