<svg width="20" height="20" viewBox="0 0 20 20" fill="none" xmlns="http://www.w3.org/2000/svg">
<g clip-path="url(#clip0_6359_446)">
<path d="M7.98013 1.05333C9.78758 0.645017 11.6732 0.795028 13.3895 1.47813L13.7305 1.62136L13.807 1.66042C14.1732 1.87045 14.3283 2.32761 14.1528 2.72162C13.9773 3.11564 13.5334 3.30676 13.1323 3.17491L13.0526 3.14399L12.7734 3.02598C11.3691 2.46706 9.82605 2.34517 8.34715 2.6793C6.76962 3.03574 5.34928 3.8921 4.29849 5.12152C3.24769 6.35096 2.62268 7.8876 2.51626 9.50141C2.40992 11.1151 2.82827 12.7199 3.70848 14.0766C4.58873 15.4333 5.88368 16.4694 7.4007 17.0299C8.91776 17.5904 10.5755 17.6455 12.1265 17.187C13.6774 16.7284 15.0383 15.7804 16.0067 14.4851C16.9749 13.1899 17.4989 11.6166 17.5 9.99945V9.23285C17.5 8.77262 17.8731 8.39952 18.3333 8.39952C18.7936 8.39952 19.1667 8.77262 19.1667 9.23285V9.99945L19.1593 10.3697C19.0838 12.2155 18.4516 13.9986 17.3421 15.4829C16.1586 17.066 14.4948 18.2248 12.5993 18.7853C10.7037 19.3457 8.67713 19.2782 6.8229 18.5932C4.96892 17.9082 3.38619 16.642 2.31037 14.984C1.23451 13.3257 0.722819 11.3639 0.85285 9.39154C0.982901 7.41927 1.74728 5.54175 3.0314 4.03917C4.31572 2.53652 6.05201 1.48896 7.98013 1.05333ZM17.7441 2.74359C18.0694 2.41825 18.597 2.41764 18.9225 2.74278C19.2481 3.06806 19.2478 3.59638 18.9225 3.92198L10.5892 12.2635C10.4329 12.4197 10.221 12.5075 9.99999 12.5076C9.77898 12.5076 9.56707 12.4197 9.41079 12.2635L6.91079 9.76345L6.85383 9.69997C6.58691 9.37266 6.60571 8.89015 6.91079 8.58507C7.23622 8.25968 7.76375 8.25969 8.08918 8.58507L9.99917 10.4951L17.7441 2.74359Z" fill="black" fill-opacity="0.65"/>
</g>
<defs>
<clipPath id="clip0_6359_446">
<rect width="20" height="20" fill="white"/>
</clipPath>
</defs>
</svg>
