<svg width="20" height="20" viewBox="0 0 20 20" fill="none" xmlns="http://www.w3.org/2000/svg">
<path d="M13.4053 10.46C14.0562 9.80909 15.1108 9.80908 15.7617 10.46L18.708 13.4062C19.3587 14.0571 19.3588 15.1119 18.708 15.7627L15.7617 18.709C15.1109 19.3598 14.0562 19.3597 13.4053 18.709L10.459 15.7627C9.8081 15.1118 9.8081 14.0571 10.459 13.4062L13.4053 10.46ZM7.5 10.834C8.42049 10.834 9.16699 11.5805 9.16699 12.501V16.668C9.16682 17.5883 8.42038 18.334 7.5 18.334H3.33301C2.4128 18.3338 1.66717 17.5882 1.66699 16.668V12.501C1.66699 11.5806 2.41269 10.8342 3.33301 10.834H7.5ZM11.6367 14.584L14.583 17.5303L17.5293 14.584L14.583 11.6377L11.6367 14.584ZM3.33301 16.668H7.5V12.501H3.33301V16.668ZM7.5 1.66797C8.42039 1.66797 9.16682 2.41367 9.16699 3.33398V7.50098C9.16699 8.42146 8.42049 9.16797 7.5 9.16797H3.33301C2.41269 9.16779 1.66699 8.42136 1.66699 7.50098V3.33398C1.66717 2.41377 2.41279 1.66814 3.33301 1.66797H7.5ZM16.667 1.66797C17.5872 1.66814 18.3328 2.41378 18.333 3.33398V7.50098C18.333 8.42136 17.5873 9.16779 16.667 9.16797H12.5C11.5795 9.16797 10.833 8.42146 10.833 7.50098V3.33398C10.8332 2.41367 11.5796 1.66797 12.5 1.66797H16.667ZM3.33301 7.50098H7.5V3.33398H3.33301V7.50098ZM12.5 7.50098H16.667V3.33398H12.5V7.50098Z" fill="black" />
</svg>
