<svg width="24" height="24" viewBox="0 0 24 24" fill="none" xmlns="http://www.w3.org/2000/svg">
<path fill-rule="evenodd" clip-rule="evenodd" d="M5 2C3.89543 2 3 2.89543 3 4V20C3 21.1046 3.89543 22 5 22H19C20.1046 22 21 21.1046 21 20V4C21 2.89543 20.1046 2 19 2H5ZM5 4H19V20H5V4ZM8 8C8 7.44772 8.44772 7 9 7H17C17.5523 7 18 7.44772 18 8C18 8.55228 17.5523 9 17 9H9C8.44772 9 8 8.55228 8 8ZM9 11C8.44772 11 8 11.4477 8 12C8 12.5523 8.44772 13 9 13H17C17.5523 13 18 12.5523 18 12C18 11.4477 17.5523 11 17 11H9ZM8 16C8 15.4477 8.44772 15 9 15H15C15.5523 15 16 15.4477 16 16C16 16.5523 15.5523 17 15 17H9C8.44772 17 8 16.5523 8 16ZM6 8C6 7.44772 6.44772 7 7 7C7.55228 7 8 7.44772 8 8C8 8.55228 7.55228 9 7 9C6.44772 9 6 8.55228 6 8ZM7 11C6.44772 11 6 11.4477 6 12C6 12.5523 6.44772 13 7 13C7.55228 13 8 12.5523 8 12C8 11.4477 7.55228 11 7 11ZM6 16C6 15.4477 6.44772 15 7 15C7.55228 15 8 15.4477 8 16C8 16.5523 7.55228 17 7 17C6.44772 17 6 16.5523 6 16Z" fill="#828894"/>
</svg>
