<svg width="24" height="24" viewBox="0 0 24 24" fill="none" xmlns="http://www.w3.org/2000/svg">
<path fill-rule="evenodd" clip-rule="evenodd" d="M5 2C3.89543 2 3 2.89543 3 4V20C3 21.1046 3.89543 22 5 22H19C20.1046 22 21 21.1046 21 20V4C21 2.89543 20.1046 2 19 2H5ZM5 4H19V20H5V4ZM7.29289 7.29289C7.68342 6.90237 8.31658 6.90237 8.70711 7.29289L11.7071 10.2929C12.0976 10.6834 12.0976 11.3166 11.7071 11.7071L8.70711 14.7071C8.31658 15.0976 7.68342 15.0976 7.29289 14.7071C6.90237 14.3166 6.90237 13.6834 7.29289 13.2929L9.58579 11L7.29289 8.70711C6.90237 8.31658 6.90237 7.68342 7.29289 7.29289ZM13 15C13 14.4477 13.4477 14 14 14H17C17.5523 14 18 14.4477 18 15C18 15.5523 17.5523 16 17 16H14C13.4477 16 13 15.5523 13 15Z" fill="#828894"/>
</svg>
