<svg width="24" height="24" viewBox="0 0 24 24" fill="none" xmlns="http://www.w3.org/2000/svg">
<path d="M3.00006 20V16C3.00006 15.4477 3.44777 15 4.00006 15C4.55234 15 5.00006 15.4477 5.00006 16V20C5.00006 20.5523 4.55234 21 4.00006 21C3.44777 21 3.00006 20.5523 3.00006 20ZM11.0001 20V9.99999C11.0001 9.44771 11.4478 8.99999 12.0001 8.99999C12.5523 8.99999 13.0001 9.44771 13.0001 9.99999V20C13.0001 20.5523 12.5523 21 12.0001 21C11.4478 21 11.0001 20.5523 11.0001 20ZM19.0001 20V13C19.0001 12.4477 19.4478 12 20.0001 12C20.5523 12 21.0001 12.4477 21.0001 13V20C21.0001 20.5523 20.5523 21 20.0001 21C19.4478 21 19.0001 20.5523 19.0001 20ZM10.2325 2.73242C11.2088 1.75611 12.7913 1.75611 13.7676 2.73242C14.2217 3.18649 14.4615 3.77176 14.4932 4.3662L18.2071 5.75976C18.2157 5.75085 18.2237 5.74123 18.2325 5.73242C19.2088 4.75611 20.7913 4.75611 21.7676 5.73242C22.7439 6.70873 22.7439 8.29126 21.7676 9.26757C20.7913 10.2439 19.2088 10.2439 18.2325 9.26757C17.7781 8.81324 17.5374 8.22761 17.5059 7.63281L13.792 6.23925C13.7834 6.24816 13.7764 6.25876 13.7676 6.26757C12.9545 7.08068 11.7224 7.21411 10.7686 6.67285L6.43072 9.92578C6.6224 10.7406 6.40305 11.6322 5.76763 12.2676C4.79132 13.2439 3.20879 13.2439 2.23248 12.2676C1.25617 11.2913 1.25617 9.70873 2.23248 8.73242C3.04546 7.91943 4.27778 7.78518 5.2315 8.32617L9.56841 5.07324C9.37721 4.2587 9.59736 3.36753 10.2325 2.73242ZM4.35357 10.1465C4.15831 9.95122 3.8418 9.95122 3.64654 10.1465C3.45128 10.3417 3.45128 10.6582 3.64654 10.8535C3.8418 11.0488 4.15831 11.0488 4.35357 10.8535C4.54883 10.6582 4.54883 10.3417 4.35357 10.1465ZM20.3536 7.14648C20.1583 6.95122 19.8418 6.95122 19.6465 7.14648C19.4513 7.34174 19.4513 7.65825 19.6465 7.85351C19.8418 8.04877 20.1583 8.04877 20.3536 7.85351C20.5488 7.65825 20.5488 7.34174 20.3536 7.14648ZM12.3536 4.14648C12.1583 3.95122 11.8418 3.95122 11.6465 4.14648C11.4513 4.34174 11.4513 4.65825 11.6465 4.85351C11.8418 5.04877 12.1583 5.04877 12.3536 4.85351C12.5488 4.65825 12.5488 4.34174 12.3536 4.14648Z" fill="#828894"/>
</svg>
