<svg width="24" height="24" viewBox="0 0 24 24" fill="none" xmlns="http://www.w3.org/2000/svg">
<path d="M12.1338 6.5C12.6861 6.5 13.1338 6.94772 13.1338 7.5V9.5H15.1338C15.6861 9.5 16.1338 9.94772 16.1338 10.5C16.1338 11.0523 15.6861 11.5 15.1338 11.5H13.1338V13.5C13.1338 14.0523 12.6861 14.5 12.1338 14.5C11.5816 14.4999 11.1338 14.0522 11.1338 13.5V11.5H9.13379C8.58159 11.4999 8.13379 11.0522 8.13379 10.5C8.13379 9.94778 8.58159 9.5001 9.13379 9.5H11.1338V7.5C11.1338 6.94778 11.5816 6.5001 12.1338 6.5Z" fill="#828894"/>
<path fill-rule="evenodd" clip-rule="evenodd" d="M19 2C20.6569 2 22 3.34315 22 5V16C22 17.6569 20.6569 19 19 19H12.7012C12.4744 19.0001 12.2543 19.0772 12.0771 19.2188L7.625 22.7812C7.32483 23.0214 6.91287 23.0679 6.56641 22.9014C6.22012 22.7348 6 22.3843 6 22V19H5C3.39489 19 2.08421 17.7394 2.00391 16.1543L2 16V5C2 3.34315 3.34315 2 5 2H19ZM5 4C4.44772 4 4 4.44772 4 5V16L4.00488 16.1025C4.05621 16.6067 4.48232 17 5 17H7C7.55228 17 8 17.4477 8 18V19.918L10.8271 17.6572C11.359 17.2318 12.0201 17.0001 12.7012 17H19C19.5523 17 20 16.5523 20 16V5C20 4.44772 19.5523 4 19 4H5Z" fill="#828894"/>
</svg>
