<svg width="24" height="24" viewBox="0 0 24 24" fill="none" xmlns="http://www.w3.org/2000/svg">
<path d="M13.5 5C13.5 3.89543 12.6046 3 11.5 3C10.3954 3 9.5 3.89543 9.5 5C9.5 5.22995 9.54096 5.45318 9.61621 5.66602C9.72452 5.9721 9.67765 6.31202 9.49023 6.57715C9.30281 6.84227 8.9985 7 8.67383 7H5.5C4.94772 7 4.5 7.44772 4.5 8V19L4.50488 19.1025C4.55621 19.6067 4.98232 20 5.5 20H18.5L18.6025 19.9951C19.1067 19.9438 19.5 19.5177 19.5 19V18C17.2909 18 15.5 16.2091 15.5 14C15.5 11.7909 17.2909 10 19.5 10V8C19.5 7.44772 19.0523 7 18.5 7H14.3262C14.0015 7 13.6972 6.84227 13.5098 6.57715C13.3223 6.31202 13.2755 5.9721 13.3838 5.66602C13.459 5.45318 13.5 5.22995 13.5 5ZM18.5 5C20.1569 5 21.5 6.34315 21.5 8V11.1738C21.5 11.4985 21.3423 11.8028 21.0771 11.9902C20.812 12.1777 20.4721 12.2245 20.166 12.1162C19.9532 12.041 19.7299 12 19.5 12C18.3954 12 17.5 12.8954 17.5 14C17.5 15.1046 18.3954 16 19.5 16C19.7283 16 19.9513 15.9588 20.166 15.8828C20.4721 15.7745 20.812 15.8214 21.0771 16.0088C21.3423 16.1962 21.5 16.5005 21.5 16.8252V19C21.5 20.6569 20.1569 22 18.5 22H5.5C3.89489 22 2.58421 20.7394 2.50391 19.1543L2.5 19V8C2.5 6.34315 3.84315 5 5.5 5H7.5C7.5 2.79086 9.29086 1 11.5 1C13.7091 1 15.5 2.79086 15.5 5H18.5Z" fill="#828894"/>
</svg>
