<svg width="24" height="24" viewBox="0 0 24 24" fill="none" xmlns="http://www.w3.org/2000/svg">
<path d="M3 6C3 5.44772 3.44772 5 4 5H16C16.5523 5 17 5.44772 17 6C17 6.55228 16.5523 7 16 7H4C3.44772 7 3 6.55228 3 6Z" fill="#828894"/>
<path d="M3 10.5C3 9.94772 3.44772 9.5 4 9.5H14C14.5523 9.5 15 9.94772 15 10.5C15 11.0523 14.5523 11.5 14 11.5H4C3.44772 11.5 3 11.0523 3 10.5Z" fill="#828894"/>
<path d="M3 15C3 14.4477 3.44772 14 4 14H17C17.5523 14 18 14.4477 18 15C18 15.5523 17.5523 16 17 16H4C3.44772 16 3 15.5523 3 15Z" fill="#828894"/>
<path d="M3 19.5C3 18.9477 3.44772 18.5 4 18.5H12C12.5523 18.5 13 18.9477 13 19.5C13 20.0523 12.5523 20.5 12 20.5H4C3.44772 20.5 3 20.0523 3 19.5Z" fill="#828894"/>
<path d="M18.5 2L19.1778 4.07295L21.25 4.23607L19.625 5.67795L20.1056 7.75L18.5 6.61803L16.8944 7.75L17.375 5.67795L15.75 4.23607L17.8222 4.07295L18.5 2Z" fill="#828894"/>
</svg>
