<?xml version="1.0" encoding="UTF-8"?>
<svg id="_图层_1" data-name="图层_1" xmlns="http://www.w3.org/2000/svg" version="1.1" viewBox="0 0 24 24">
  <!-- Generator: Adobe Illustrator 29.7.1, SVG Export Plug-In . SVG Version: 2.1.1 Build 8)  -->
  <defs>
    <style>
      .st0 {
        fill: #828894;
        fill-rule: evenodd;
      }
    </style>
  </defs>
  <path class="st0" d="M12,8c-2.21,0-4,1.79-4,4,0,2.21,1.79,4,4,4,2.21,0,4-1.79,4-4,0-2.21-1.79-4-4-4ZM12,14c-1.1,0-2-.9-2-2,0-1.1.9-2,2-2,1.1,0,2,.9,2,2,0,1.1-.9,2-2,2Z"/>
  <path class="st0" d="M23,10.59l-2.22-2.23v-3.14c0-1.1-.9-2-2-2h-3.14s-2.23-2.22-2.23-2.22c-.78-.78-2.04-.78-2.82,0l-2.23,2.22h-3.14c-1.1,0-2,.9-2,2v3.14s-2.22,2.23-2.22,2.23c-.78.78-.78,2.04,0,2.82l2.22,2.23v3.14c0,1.1.9,2,2,2h3.14s2.23,2.22,2.23,2.22c.78.78,2.04.78,2.82,0l2.23-2.22h3.14c1.1,0,2-.9,2-2v-3.14s2.22-2.23,2.22-2.23c.78-.78.78-2.04,0-2.82ZM19.22,14.37c-.24.25-.4.57-.43.91v.15s-.01,3.35-.01,3.35h-3.35c-.4,0-.78.16-1.06.44l-2.37,2.37-2.37-2.37-.11-.1c-.27-.22-.6-.34-.95-.34h-3.35s0-3.35,0-3.35v-.15c-.04-.34-.19-.66-.44-.91l-2.37-2.37,2.37-2.37c.28-.28.44-.66.44-1.06v-3.35s3.35,0,3.35,0c.4,0,.78-.16,1.06-.44l2.37-2.37,2.37,2.37c.28.28.66.44,1.06.44h3.35s0,3.35,0,3.35c0,.4.16.78.44,1.06l2.37,2.37-2.37,2.37Z"/>
</svg>