<svg width="24" height="24" viewBox="0 0 24 24" fill="none" xmlns="http://www.w3.org/2000/svg">
<path fill-rule="evenodd" clip-rule="evenodd" d="M19.0336 2.96368C19.414 2.58335 20.0305 2.58335 20.4108 2.96368C20.7911 3.34401 20.7911 3.96054 20.4108 4.34087L14.0384 10.7123L17.0648 13.7398C17.3723 13.6716 17.6913 13.6351 18.0178 13.6351L18.2433 13.6408C20.559 13.7581 22.4005 15.673 22.4005 18.0178C22.4005 18.3068 22.372 18.5889 22.3188 18.8615C22.2425 19.2522 21.9356 19.5574 21.5444 19.6319C21.1536 19.7061 20.7565 19.5353 20.5421 19.2001C20.3884 18.9599 20.1381 18.7946 19.8487 18.7573L19.7222 18.7483C19.1844 18.7483 18.7483 19.1844 18.7483 19.7222L18.7573 19.8487C18.7946 20.1381 18.9599 20.3884 19.2001 20.5421C19.5353 20.7565 19.7061 21.1536 19.6319 21.5444C19.5574 21.9356 19.2522 22.2425 18.8615 22.3188C18.5889 22.372 18.3068 22.4005 18.0178 22.4005C15.673 22.4005 13.7581 20.559 13.6408 18.2433L13.6351 18.0178C13.6351 17.6913 13.6716 17.3723 13.7398 17.0648L10.7123 14.0384L10.6715 14.0803C10.4888 14.2629 10.2412 14.3658 9.98294 14.3658H7.46434L3.77022 18.0599C3.38989 18.4402 3.38989 19.0568 3.77022 19.4371L3.93762 19.6045C4.31795 19.9848 4.93448 19.9848 5.31481 19.6045L8.32034 16.5989C8.70067 16.2186 9.3172 16.2186 9.69753 16.5989C10.0779 16.9792 10.0779 17.5957 9.69753 17.976L6.692 20.9816C5.55104 22.1225 3.70141 22.1225 2.56045 20.9816L2.39284 20.814C1.25188 19.6731 1.25188 17.8234 2.39284 16.6825L6.37246 12.7029L6.33268 12.6384C6.17267 12.4516 6.07947 12.2137 6.07947 11.9686H8.59807L9.56222 11.0045C9.56831 10.9981 9.57422 10.9914 9.58053 10.9851C9.58685 10.9788 9.59375 10.9729 9.60053 10.9671L11.5121 9.05659C11.5174 9.05133 11.5222 9.04533 11.5276 9.04011C11.5332 9.03467 11.539 9.02933 11.5445 9.02378L19.0336 2.96368ZM12.0906 12.6603L15.5269 16.0977C15.7996 16.3704 15.886 16.7784 15.7466 17.138C15.6414 17.4095 15.583 17.7057 15.583 18.0178L15.5956 18.267C15.6775 19.0747 16.1553 19.7644 16.8309 20.1427C16.8202 20.0677 16.8123 19.992 16.8071 19.9153L16.8005 19.7222C16.8005 18.1085 18.1085 16.8005 19.7222 16.8005L19.9153 16.8071C19.992 16.8123 20.0677 16.8202 20.1427 16.8309C19.7644 16.1553 19.0747 15.6775 18.267 15.5956L18.0178 15.583C17.7057 15.583 17.4095 15.6414 17.138 15.7466C16.7784 15.886 16.3704 15.7996 16.0977 15.5269L12.6603 12.0906L12.0906 12.6603Z" fill="#828894"/>
<path d="M5.35668 0.973956C7.77718 0.973956 9.73938 2.93616 9.73938 5.35668C9.73938 5.68344 9.70107 6.00145 9.63289 6.30779L10.9149 7.58981C11.2952 7.97014 11.2952 8.58667 10.9149 8.967C10.5346 9.34733 9.91807 9.34733 9.53774 8.967L7.84668 7.27616C7.57391 6.99889 7.48756 6.59511 7.627 6.23547C7.73219 5.96218 7.79145 5.66678 7.79145 5.35668C7.79145 4.44276 7.28748 3.64737 6.54271 3.23094C6.56264 3.3685 6.57409 3.50907 6.57409 3.65228C6.57409 5.26598 5.26598 6.57409 3.65228 6.57409C3.50907 6.57409 3.3685 6.56264 3.23094 6.54271C3.64737 7.28748 4.44276 7.79145 5.35668 7.79145C5.66678 7.79145 5.96218 7.73219 6.23547 7.627C6.59511 7.48756 6.99889 7.57391 7.27616 7.84668L9.16711 9.73763C9.54744 10.118 9.54744 10.7345 9.16711 11.1148C8.78678 11.4951 8.17025 11.4951 7.78992 11.1148L6.5079 9.83278C6.20156 9.90096 5.88355 9.93927 5.35668 9.93927C2.93616 9.93927 0.973956 7.97707 0.973956 5.35668C0.973956 5.02756 1.00267 4.70783 1.05753 4.40149L1.09469 4.37037C1.20989 4.0493 1.4887 3.80775 1.82996 3.74264C2.22074 3.66842 2.61781 3.83922 2.83221 4.17442C3.00803 4.449 3.31009 4.62622 3.65228 4.62622C4.19006 4.62622 4.62622 4.19006 4.62622 3.65228C4.62622 3.31009 4.449 3.00803 4.17442 2.83221C3.83922 2.61781 3.66842 2.22074 3.74264 1.82996C3.81708 1.43894 4.12224 1.13278 4.40149 1.05753C4.70783 1.00267 5.02756 0.973956 5.35668 0.973956Z" fill="#828894"/>
</svg>
