<svg width="24" height="24" viewBox="0 0 24 24" fill="none" xmlns="http://www.w3.org/2000/svg">
<path d="M11.9966 1C12.3712 1.00012 12.714 1.20982 12.8853 1.54297L15.8667 7.34082L22.5523 8.2793C22.9337 8.33293 23.2506 8.6015 23.3667 8.96875C23.4827 9.33587 23.3773 9.73692 23.0962 10L18.2837 14.498L19.4185 20.8438C19.4851 21.2168 19.3347 21.596 19.0308 21.8223C18.7269 22.0484 18.3211 22.0838 17.983 21.9131L11.9957 18.8896L6.00932 21.9131C5.67113 22.0837 5.26531 22.0485 4.96147 21.8223C4.65755 21.596 4.50811 21.2168 4.57475 20.8438L5.70757 14.498L0.897019 10C0.615639 9.73688 0.510414 9.33607 0.626511 8.96875C0.742653 8.6014 1.05943 8.33283 1.44096 8.2793L8.12456 7.34082L11.107 1.54297L11.1792 1.42383C11.3649 1.16051 11.6688 1 11.9966 1ZM9.66655 8.7168C9.51793 9.00584 9.2384 9.20481 8.91655 9.25L3.79155 9.96875L7.47124 13.4092C7.71873 13.6406 7.83148 13.9819 7.77202 14.3154L6.89507 19.2236L11.5455 16.877C11.8288 16.7339 12.1635 16.734 12.4468 16.877L17.0972 19.2246L16.2203 14.3154C16.1608 13.9819 16.2745 13.6406 16.522 13.4092L20.2007 9.96875L15.0757 9.25C14.754 9.20472 14.4743 9.00574 14.3257 8.7168L11.9957 4.18555L9.66655 8.7168Z" fill="#828894"/>
</svg>
