<svg width="24" height="24" viewBox="0 0 24 24" fill="none" xmlns="http://www.w3.org/2000/svg">
<g clip-path="url(#clip0_4600_57063)">
<path d="M9.15332 1.37402C15.0213 -0.198174 21.0526 3.28437 22.625 9.15234C24.1974 15.0205 20.7148 21.0526 14.8467 22.625C8.9788 24.197 2.94742 20.7145 1.375 14.8467C0.546573 11.7549 1.12216 8.61842 2.70801 6.11328L1.56348 6.41992C1.03023 6.56262 0.48192 6.24604 0.338867 5.71289C0.195972 5.17947 0.512505 4.63028 1.0459 4.4873L4.55859 3.54688C5.09193 3.40417 5.64027 3.72059 5.7832 4.25391L6.72461 7.7666C6.86722 8.29981 6.55068 8.84816 6.01758 8.99121C5.48433 9.13397 4.93608 8.81731 4.79297 8.28418L4.46875 7.07422C3.11642 9.14346 2.61709 11.7557 3.30664 14.3291C4.5932 19.13 9.52808 21.9786 14.3291 20.6924C19.1303 19.4059 21.9798 14.4711 20.6934 9.66992C19.4068 4.86888 14.472 2.01935 9.6709 3.30566C9.13743 3.44861 8.58923 3.1321 8.44629 2.59863C8.30351 2.06525 8.61994 1.51694 9.15332 1.37402ZM12.0029 5C12.5551 5.0002 13.0029 5.44785 13.0029 6L13.002 11.5898L16.9492 15.5371C17.3392 15.9276 17.3393 16.5608 16.9492 16.9512C16.5587 17.3414 15.9246 17.3414 15.5342 16.9512L11.2949 12.7119C11.1075 12.5245 11.002 12.269 11.002 12.0039L11.0029 6C11.003 5.44775 11.4507 5.00001 12.0029 5Z" fill="black" fill-opacity="0.88"/>
</g>
<defs>
<clipPath id="clip0_4600_57063">
<rect width="24" height="24" fill="white"/>
</clipPath>
</defs>
</svg>
