<svg width="24" height="24" viewBox="0 0 24 24" fill="none" xmlns="http://www.w3.org/2000/svg">
<path d="M18.5129 1.94836C20.1186 1.94846 21.4268 3.25668 21.4268 4.86268V18.5052C21.4268 20.1112 20.1186 21.4194 18.5129 21.4195H4.86958C3.26358 21.4194 1.95536 20.1112 1.95525 18.5052V4.86268C1.95532 3.25666 3.26356 1.94842 4.86958 1.94836H18.5129ZM4.86958 3.89583C4.33178 3.8959 3.89564 4.33204 3.89557 4.86984V18.5052C3.89572 19.043 4.33184 19.4792 4.86958 19.4793H18.5129C19.0507 19.4792 19.4868 19.043 19.4869 18.5052V4.86984C19.4868 4.33206 19.0507 3.89594 18.5129 3.89583H4.86958ZM7.46506 11.9306C8.94427 11.9306 10.143 13.1303 10.143 14.6095C10.143 16.0887 8.94427 17.2874 7.46506 17.2874C5.98585 17.2874 4.78712 16.0887 4.78712 14.6095C4.78712 13.1303 5.98585 11.9306 7.46506 11.9306ZM17.0441 13.6354C17.5819 13.6355 18.018 14.0716 18.018 14.6094C18.018 15.1472 17.5819 15.5833 17.0441 15.5833H13.1482C12.6104 15.5833 12.1743 15.1472 12.1743 14.6094C12.1743 14.0716 12.6104 13.6354 13.1482 13.6354H17.0441ZM7.46506 13.8785C7.06165 13.8785 6.73416 14.206 6.73416 14.6094C6.73422 15.0128 7.06168 15.3393 7.46506 15.3393C7.86844 15.3393 8.19493 15.0128 8.19498 14.6094C8.19498 14.206 7.8685 13.8785 7.46506 13.8785ZM10.025 6.61632C10.4053 6.23599 11.0213 6.23602 11.4017 6.61632C11.782 6.99665 11.782 7.61265 11.4017 7.99298L8.47981 10.9149C8.29717 11.0975 8.04972 11.2005 7.79145 11.2005C7.53318 11.2005 7.2857 11.0976 7.10308 10.9149L5.64214 9.45398C5.26192 9.07375 5.2619 8.45775 5.64214 8.07752C6.02246 7.69719 6.63846 7.69721 7.01879 8.07752L7.79145 8.84921L10.025 6.61632ZM17.0441 7.79166C17.5819 7.79175 18.018 8.22781 18.018 8.76566C18.018 9.30351 17.5819 9.73957 17.0441 9.73966H13.1482C12.6104 9.73966 12.1743 9.30361 12.1743 8.76566C12.1743 8.22771 12.6104 7.79166 13.1482 7.79166H17.0441Z" fill="#828894"/>
</svg>
