<svg width="24" height="24" viewBox="0 0 24 24" fill="none" xmlns="http://www.w3.org/2000/svg">
<path d="M18 13C20.7614 13 23 15.2386 23 18C23 20.7614 20.7614 23 18 23C15.2386 23 13 20.7614 13 18C13 15.2386 15.2386 13 18 13ZM19 2C20.6569 2 22 3.34315 22 5V11C22 11.5523 21.5523 12 21 12C20.4477 12 20 11.5523 20 11V5C20 4.44772 19.5523 4 19 4H5C4.44772 4 4 4.44772 4 5V19C4 19.5523 4.44772 20 5 20H11C11.5523 20 12 20.4477 12 21C12 21.5523 11.5523 22 11 22H5C3.34315 22 2 20.6569 2 19V5C2 3.34315 3.34315 2 5 2H19ZM18 15C16.3431 15 15 16.3431 15 18C15 19.6569 16.3431 21 18 21C19.6569 21 21 19.6569 21 18C21 16.3431 19.6569 15 18 15ZM17.5 15.5C18.0523 15.5 18.5 15.9477 18.5 16.5V17.5H19.5C20.0523 17.5 20.5 17.9477 20.5 18.5C20.5 19.0523 20.0523 19.5 19.5 19.5H17.5C16.9477 19.5 16.5 19.0523 16.5 18.5V16.5C16.5 15.9477 16.9477 15.5 17.5 15.5ZM8.5 12.25C10.0188 12.25 11.25 13.4812 11.25 15C11.25 16.5188 10.0188 17.75 8.5 17.75C6.98122 17.75 5.75 16.5188 5.75 15C5.75 13.4812 6.98122 12.25 8.5 12.25ZM8.5 14.25C8.08579 14.25 7.75 14.5858 7.75 15C7.75 15.4142 8.08579 15.75 8.5 15.75C8.91421 15.75 9.25 15.4142 9.25 15C9.25 14.5858 8.91421 14.25 8.5 14.25ZM10.293 6.79297C10.6835 6.40245 11.3165 6.40246 11.707 6.79297C12.0976 7.18349 12.0976 7.81651 11.707 8.20703L8.70703 11.207C8.5195 11.3945 8.2652 11.5 8 11.5C7.7348 11.5 7.48049 11.3946 7.29297 11.207L5.79297 9.70703C5.40247 9.31652 5.40248 8.68349 5.79297 8.29297C6.18349 7.90245 6.81651 7.90246 7.20703 8.29297L8 9.08594L10.293 6.79297ZM17.5 8C18.0523 8 18.5 8.44772 18.5 9C18.5 9.55228 18.0523 10 17.5 10H13.5C12.9477 10 12.5 9.55228 12.5 9C12.5 8.44772 12.9477 8 13.5 8H17.5Z" fill="black" fill-opacity="0.88"/>
</svg>
