<?xml version="1.0" standalone="no"?><!DOCTYPE svg PUBLIC "-//W3C//DTD SVG 1.1//EN" "http://www.w3.org/Graphics/SVG/1.1/DTD/svg11.dtd"><svg t="1779112648135" class="icon" viewBox="0 0 1024 1024" version="1.1" xmlns="http://www.w3.org/2000/svg" p-id="3980" xmlns:xlink="http://www.w3.org/1999/xlink" width="24" height="24"><path d="M267.95197637 62c-0.17883193 0-0.35626641 0.00977959-0.53370088 0.01117705 0.33810381 0 0.67900166 0 1.02129697 0C268.27471162 62.01117705 268.11404229 62 267.95197637 62z" fill="currentColor" p-id="3981"></path><path d="M783.86613682 661.28048193c-15.02885039 0-27.22154151 12.14798291-27.47162637 27.22154151l-0.06147334 0c-0.01397109 58.56319864-0.0265456 129.70190039-0.03492773 180.38253252l-87.05332794-89.84897139c-0.51972979-0.56443799-126.93839151-127.05435263-127.48746094-127.60481953-3.77362881-3.77362881-7.90631807-6.83332822-12.15217441-9.13858067-5.09949844-4.56160606-12.23739932-6.1752832-19.91598661-5.09949843-4.44424746 0.19699453-8.54480303 1.41249112-11.96635695 3.70936143-5.01008291 2.39886035-9.92655791 5.8371794-14.34984872 10.26047021-0.55046602 0.55046602-127.08928037 127.16053418-127.60901016 127.72497129l-88.10256709 90.89681308 0.00558808-284.45281698 0-468.30719971c3.21477979 0 6.67405547-0.00139746 10.34569513-0.00139747l3.58222323 0 81.37681788 0.00419151L756.37075888 117.02708106 756.37075888 523.87484609c0 15.29150977 12.31004971 27.68818096 27.49537794 27.68818096 15.18532822 0 27.49537792-12.39667119 27.49537792-27.68818096 0-0.2933956-0.03492773-0.57701162-0.04331073-0.86761318l0-402.71367832 0-5.95453798c-0.14669824-2.75512588-0.4917876-5.45855888-1.02688506-8.09213555-4.94860957-24.36721963-25.91523193-42.90424628-51.42948926-44.16445108l-0.00139746 0c-0.74326904-0.0363252-1.48933301-0.0628708-2.2395876-0.06985634-0.33810381 0-0.67900166 0-1.02129697 0-0.78657979 0.00698555-1.56757148 0.03213369-2.34576914 0.06985634L364.72648555 62.08242998c-0.37582646-0.0223541-59.64876299-0.05309033-96.28831055-0.06985634-0.34229531 0-0.68319316 0-1.02129697 0-26.52018575 0.25148232-48.57796143 19.1587456-53.66907774 44.23570399-0.53509834 2.63357666-0.88018769 5.33700967-1.02688506 8.09213555-0.05169375 0.98357432-0.08242998 1.97413418-0.08242997 2.97307705 0 1.00034033 0.02933965 1.99369424 0.08242997 2.98146006L212.72091523 583.57669941c-0.03213369 0.54208388-0.08242998 350.35929316-0.08242997 350.9083626 0 15.19510781 12.31843183 27.51354052 27.51354052 27.51354052 7.97617442 0 15.13503193-3.41596582 20.15908594-8.8381995 3.08484756-1.9950917 6.07329316-4.39395117 8.86474424-7.18540313l127.19965341-129.99389941 116.05340743-116.06179043 116.20289971 116.21128184 127.07670674 129.87095273c2.09708174 2.09708174 4.30872715 3.96643184 6.5860374 5.61643418 5.04081914 6.32058398 12.79485088 10.38202031 21.50730966 10.38202031 15.15179707 0 27.43809609-12.24997295 27.50795156-27.38640234l0.0055881-244.73680576c0.00977959-0.30457266 0.04610479-0.60215977 0.04610477-0.90812989C811.36011816 673.67715313 799.05006846 661.28048193 783.86613682 661.28048193zM267.66696289 117.02149209l0.81871435 0L267.66696289 117.02149209 267.66696289 117.02149209z" fill="currentColor" p-id="3982"></path></svg>