<?xml version="1.0" standalone="no"?><!DOCTYPE svg PUBLIC "-//W3C//DTD SVG 1.1//EN" "http://www.w3.org/Graphics/SVG/1.1/DTD/svg11.dtd"><svg t="1779112663741" class="icon" viewBox="0 0 1024 1024" version="1.1" xmlns="http://www.w3.org/2000/svg" p-id="4307" xmlns:xlink="http://www.w3.org/1999/xlink" width="24" height="24"><path d="M512 142.70971045l329.91674414 185.51180303v369.05275195L512 882.97891982l-330.0131707-185.6082287V328.22151348L512 142.70971045m0-53.24712451l-376.29645908 211.6667584v423.33351592l376.29645908 211.66675839 376.29645908-211.66675839v-423.33351592l-376.29645908-211.6667584z m0 0" fill="currentColor" p-id="4308"></path><path d="M629.40449551 376.20048799l-34.43230195-25.59051124-85.70034317 112.42091866-79.77484864-111.57072363-34.99792294 25.116612 81.00134033 113.35813243h-64.9099626v43.83971367h76.76094991v40.54594307h-76.76094991v43.3669913h76.76094991v57.38638624h43.37169433v-57.38638624h83.06391534v-43.3669913h-83.06391534v-40.54594307h83.06391534v-43.83971367H543.13853223l86.26596328-113.73442822z m0 0" fill="currentColor" p-id="4309"></path></svg>