<?xml version="1.0" standalone="no"?><!DOCTYPE svg PUBLIC "-//W3C//DTD SVG 1.1//EN" "http://www.w3.org/Graphics/SVG/1.1/DTD/svg11.dtd"><svg t="1779112659347" class="icon" viewBox="0 0 1024 1024" version="1.1" xmlns="http://www.w3.org/2000/svg" p-id="4141" xmlns:xlink="http://www.w3.org/1999/xlink" width="24" height="24"><path d="M670.74890188 371.29261874h-317.1682782c-9.47385737 0-17.30008767-7.74384851-17.30008767-17.30008768v-0.57667016c0-9.47385737 7.74384851-17.30008767 17.30008767-17.30008768h317.25065919c9.47385737 0 17.30008767 7.74384851 17.30008768 17.30008768v0.57667016c-0.08238098 9.55623916-7.82623032 17.30008767-17.38246867 17.30008768zM670.74890188 511.91761902h-317.1682782c-9.47385737 0-17.30008767-7.74384851-17.30008767-17.3000885v-0.57666934c0-9.47385737 7.74384851-17.30008767 17.30008767-17.30008768h317.25065919c9.47385737 0 17.30008767 7.74384851 17.30008768 17.30008768v0.57666934c-0.08238098 9.55623916-7.82623032 17.30008767-17.38246867 17.3000885zM670.74890188 652.54261846h-317.1682782c-9.47385737 0-17.30008767-7.74384851-17.30008767-17.30008767v-0.57666934c0-9.47385737 7.74384851-17.30008767 17.30008767-17.3000885h317.25065919c9.47385737 0 17.30008767 7.74384851 17.30008768 17.3000885v0.57666934c-0.08238098 9.47385737-7.82623032 17.30008767-17.38246867 17.30008768z" fill="currentColor" p-id="4142"></path><path d="M780.0689809 142.84907697H685.57754859c-7.9086113-30.15158176-35.25922651-52.72407697-67.79986826-52.72407697H406.63422705c-32.62302274 0-59.97363794 22.57249521-67.79986826 52.72407697H244.26054468c-46.21594895 0-84.60566757 36.3301842-84.60566758 82.71089676v40.28449026c0 9.72100195 7.9086113 17.54723227 17.54723227 17.54723227 9.72100195 0 17.54723227-7.9086113 17.54723145-17.54723227v-40.28449026c0-27.02108962 22.57249521-47.61643223 49.42882288-47.61643222h94.49143231c7.9086113 30.15158176 35.25922651 52.72407697 67.79986825 52.72407695h211.06107148c32.62302274 0 59.97363794-22.57249521 67.79986825-52.72407695h94.49143231c26.85632685 0 47.94595779 20.51296162 47.9459578 47.61643222v462.07710928H668.35984189c-38.14257486 0-69.03558875 30.89301389-69.03558875 68.95320694v141.94310175H244.26054468c-26.85632685 0-49.42882287-23.47869095-49.42882206-50.49977977v-441.56414767c0-9.72100195-7.9086113-17.54723227-17.54723226-17.54723227-9.72100195 0-17.54723227 7.9086113-17.54723228 17.54723227v441.56414767c0 46.46309353 38.38971863 85.67662527 84.6056684 85.67662529h399.05536021l219.8758785-208.17772395V225.55997372c-0.08238098-46.38071173-36.98923536-82.71089593-83.20518429-82.71089675zM617.69529852 195.73791755H406.63422705c-19.3596221 0-35.17684552-15.65246063-35.17684552-35.01208274S387.27460496 125.71375208 406.63422705 125.71375208h211.06107147c19.3596221 0 35.17684552 15.65246063 35.17684552 35.01208273S637.13730242 195.73791755 617.69529852 195.73791755zM633.9244285 891.6957381v-135.10544816c0-19.11247834 19.44200391-33.61159946 40.77877862-33.61159944h142.19024634L633.9244285 891.6957381z" fill="currentColor" p-id="4143"></path><path d="M160.39630923 336.19815503a17.62961325 17.54723227 0 1 0 35.25922651 0 17.62961325 17.54723227 0 1 0-35.25922651 0Z" fill="currentColor" p-id="4144"></path></svg>