<svg width="24" height="24" viewBox="0 0 24 24" fill="none" xmlns="http://www.w3.org/2000/svg">
<path d="M21 9C21 8.73478 20.8946 8.48051 20.707 8.29297C20.5195 8.10543 20.2652 8 20 8H3V19C3 19.2652 3.10543 19.5195 3.29297 19.707C3.48051 19.8946 3.73478 20 4 20H20C20.2652 20 20.5195 19.8946 20.707 19.707C20.8946 19.5195 21 19.2652 21 19V9ZM23 19C23 19.7957 22.6837 20.5585 22.1211 21.1211C21.5585 21.6837 20.7957 22 20 22H4C3.20435 22 2.44151 21.6837 1.87891 21.1211C1.3163 20.5585 1 19.7957 1 19V5C1 4.20435 1.3163 3.44152 1.87891 2.87891C2.44152 2.3163 3.20435 2 4 2H9.5C10.1294 2 10.7219 2.29638 11.0996 2.7998L13.5 6H20C20.7957 6 21.5585 6.3163 22.1211 6.87891C22.6837 7.44151 23 8.20435 23 9V19ZM3 6H11L9.5 4H4C3.73478 4 3.4805 4.10543 3.29297 4.29297C3.10543 4.4805 3 4.73478 3 5V6Z" fill="#828894"/>
</svg>
