<?xml version="1.0" standalone="no"?><!DOCTYPE svg PUBLIC "-//W3C//DTD SVG 1.1//EN" "http://www.w3.org/Graphics/SVG/1.1/DTD/svg11.dtd"><svg t="1779112669620" class="icon" viewBox="0 0 1024 1024" version="1.1" xmlns="http://www.w3.org/2000/svg" p-id="4468" xmlns:xlink="http://www.w3.org/1999/xlink" width="24" height="24"><path d="M759.15324682 126.27937659L842.36616651 209.59586016c13.82566875 13.82566875 13.87745068 36.24707201 0.10356387 50.12452147l-83.21292091 83.88608a35.52212977 35.52212977 0 0 1-50.43521065-50.02095881l23.19812623-23.40525155h-469.65848535a75.60103466 75.60103466 0 0 0-75.18678281 68.24805687l-0.31068919 7.24941513v424.09073778c0 17.96819081 6.99050667 34.90075139 19.83232592 47.69078993 12.63469394 12.68647466 29.82616178 19.78054519 47.79435379 19.67698132h515.2262317a67.36777125 67.36777125 0 0 0 67.41955319-67.36777125v-424.09073778a35.47034905 35.47034905 0 1 1 70.99247881 0v424.09073778a138.10134282 138.10134282 0 0 1-138.412032 138.36025006h-515.2262317a138.30846934 138.30846934 0 0 1-138.61915852-138.412032v-424.09073778a146.43816889 146.43816889 0 0 1 146.54173275-146.43816888h469.14066963l-22.6285298-22.62852979a35.52212977 35.52212977 0 0 1-3.72827022-45.77487288l3.72827022-4.45321125a35.52212977 35.52212977 0 0 1 50.22808535 0z m-229.23683674 244.0981369a35.47034905 35.47034905 0 0 1 17.70928356 30.7064474v332.95524386a35.47034905 35.47034905 0 1 1-70.94069809 0v-332.95524386a35.47034905 35.47034905 0 0 1 53.23141453-30.7064474z m166.27049481 166.47762133a35.47034905 35.47034905 0 0 1 17.76106548 30.7064474v166.47762253a35.47034905 35.47034905 0 0 1-70.94069688 0v-166.47762253a35.47034905 35.47034905 0 0 1 53.1796314-30.7064474z m-350.66452621 50.74589984c19.62520061 0 35.52212977 15.84514845 35.52212977 35.47034904v110.96782105a35.47034905 35.47034905 0 1 1-70.99247882 0v-110.96782105c0-19.62520061 15.89693038-35.52212977 35.47034905-35.52212976z" fill="currentColor" p-id="4469"></path></svg>