<?xml version="1.0" standalone="no"?><!DOCTYPE svg PUBLIC "-//W3C//DTD SVG 1.1//EN" "http://www.w3.org/Graphics/SVG/1.1/DTD/svg11.dtd"><svg t="1779199282881" class="icon" viewBox="0 0 1024 1024" version="1.1" xmlns="http://www.w3.org/2000/svg" p-id="20595" xmlns:xlink="http://www.w3.org/1999/xlink" width="200" height="200"><path d="M761.6 234.4h143.2c21.6-4 38.4-21.6 38.4-42.4 0-25.6-16.8-42.4-42.4-42.4H757.6c-21.6 4-38.4 21.6-38.4 42.4 0 25.6 16.8 42.4 42.4 42.4zM900 362.4H757.6c-21.6 4-38.4 21.6-38.4 42.4 0 25.6 16.8 42.4 42.4 42.4h143.2c21.6-4 38.4-21.6 38.4-42.4 0-24.8-17.6-42.4-43.2-42.4zM900 576H761.6c-25.6 0-42.4 16.8-42.4 42.4s16.8 42.4 42.4 42.4h138.4c25.6 0 42.4-16.8 42.4-42.4s-16.8-42.4-42.4-42.4zM485.6 488c25.6 0 42.4-16.8 42.4-42.4s-16.8-42.4-42.4-42.4H396l60-60c16.8-16.8 16.8-42.4 0-60s-42.4-16.8-60 0L314.4 364 233.6 283.2c-16.8-16.8-42.4-16.8-60 0s-16.8 42.4 0 60l60 60H144c-25.6 0-42.4 16.8-42.4 42.4S118.4 488 144 488h128v85.6H144c-25.6 0-42.4 16.8-42.4 42.4s16.8 42.4 42.4 42.4h128v42.4c0 25.6 16.8 42.4 42.4 42.4s42.4-16.8 42.4-42.4v-42.4h128c25.6 0 42.4-16.8 42.4-42.4s-16.8-42.4-42.4-42.4h-128V488h128.8z" p-id="20596"></path><path d="M535.2 128H145.6c-21.6 4-34.4 21.6-34.4 42.4 0 25.6 16.8 42.4 42.4 42.4h385.6c21.6 4 38.4 21.6 38.4 42.4v516c-4 21.6-21.6 38.4-42.4 38.4H157.6c-21.6 4-38.4 21.6-38.4 42.4 0 25.6 16.8 42.4 42.4 42.4H544c68-4 119.2-60 119.2-128V247.2c-4-68-64-119.2-128-119.2zM900 789.6H761.6c-25.6 0-42.4 16.8-42.4 42.4s16.8 42.4 42.4 42.4h138.4c25.6 0 42.4-16.8 42.4-42.4s-16.8-42.4-42.4-42.4z" p-id="20597"></path></svg>