<svg width="12" height="9" viewBox="0 0 12 9" fill="none" xmlns="http://www.w3.org/2000/svg">
<path d="M10.5 5.49996C10.5 4.11925 9.38067 2.99996 7.99996 2.99996H2.20699L3.35348 4.14645C3.54874 4.34171 3.54874 4.65822 3.35348 4.85348C3.15822 5.04874 2.84171 5.04874 2.64645 4.85348L0.646447 2.85348C0.451184 2.65822 0.451184 2.34171 0.646447 2.14645L2.64645 0.146447C2.84171 -0.0488155 3.15822 -0.0488155 3.35348 0.146447C3.54874 0.341709 3.54874 0.658216 3.35348 0.853478L2.20699 1.99996H7.99996C9.93296 1.99996 11.5 3.56697 11.5 5.49996C11.5 7.43296 9.93296 8.99996 7.99996 8.99996H4.49996C4.22382 8.99996 3.99996 8.7761 3.99996 8.49996C3.99996 8.22382 4.22382 7.99996 4.49996 7.99996H7.99996C9.38067 7.99996 10.5 6.88067 10.5 5.49996Z" fill="#9E28B3"/>
</svg>
