<svg width="12" height="12" viewBox="0 0 12 12" fill="none" xmlns="http://www.w3.org/2000/svg">
<g clip-path="url(#clip0_2379_10784)">
<path d="M0.5 10V3C0.50003 2.60222 0.658175 2.22073 0.939453 1.93945C1.22075 1.65818 1.6022 1.5 2 1.5H5.5C5.7761 1.5 5.99994 1.72391 6 2C6 2.27614 5.77614 2.5 5.5 2.5H2C1.86742 2.5 1.74025 2.55275 1.64648 2.64648C1.55274 2.74023 1.50003 2.86743 1.5 3V10C1.5 10.1326 1.55275 10.2598 1.64648 10.3535C1.74025 10.4473 1.86739 10.5 2 10.5H9C9.13261 10.5 9.25975 10.4473 9.35352 10.3535C9.44725 10.2598 9.5 10.1326 9.5 10V6.5C9.50006 6.22391 9.7239 6 10 6C10.2761 6 10.4999 6.22391 10.5 6.5V10C10.5 10.3978 10.3418 10.7792 10.0605 11.0605C9.77924 11.3419 9.39783 11.5 9 11.5H2C1.60217 11.5 1.22076 11.3419 0.939453 11.0605C0.658184 10.7792 0.5 10.3978 0.5 10ZM10.5605 2C10.5605 1.85134 10.5016 1.70863 10.3965 1.60352C10.2913 1.49841 10.1487 1.43945 10 1.43945C9.85133 1.43945 9.70865 1.49841 9.60352 1.60352L4.95117 6.25537L4.68652 7.31299L5.74414 7.04883L10.3965 2.39648C10.5016 2.29135 10.5605 2.14867 10.5605 2ZM11.5605 2C11.5605 2.41389 11.3962 2.81084 11.1035 3.10352L6.35352 7.85352C6.28944 7.91759 6.20901 7.96337 6.12109 7.98535L4.12109 8.48535C3.95077 8.52786 3.77063 8.47766 3.64648 8.35352C3.52234 8.22933 3.47255 8.04927 3.51514 7.87891L4.01514 5.87891L4.03564 5.81445C4.06071 5.75177 4.09842 5.69455 4.14648 5.64648L8.89648 0.896484C9.18916 0.603839 9.58611 0.439453 10 0.439453C10.4139 0.439453 10.8108 0.603839 11.1035 0.896484C11.3962 1.18914 11.5605 1.58613 11.5605 2Z" fill="#0077FA"/>
</g>
<defs>
<clipPath id="clip0_2379_10784">
<rect width="12" height="12" fill="white"/>
</clipPath>
</defs>
</svg>
