<svg width="12" height="12" viewBox="0 0 12 12" fill="none" xmlns="http://www.w3.org/2000/svg">
<path d="M10 10C10.2761 10 10.5 10.2239 10.5 10.5C10.5 10.7761 10.2761 11 10 11H2C1.72386 11 1.5 10.7761 1.5 10.5C1.5 10.2239 1.72386 10 2 10H10Z" fill="#FC8800"/>
<path fill-rule="evenodd" clip-rule="evenodd" d="M6.08008 0.75C6.67649 0.750012 7.35444 0.89078 7.89258 1.32666C8.4495 1.7778 8.78418 2.48611 8.78418 3.46338C8.78414 4.46457 8.41724 5.07073 8.05615 5.49707C7.971 5.5976 7.88663 5.6875 7.81641 5.7627C7.74257 5.84176 7.68771 5.90089 7.64307 5.95557C7.56124 6.05583 7.56347 6.08359 7.56494 6.07471C7.56494 6.14565 7.56614 6.20706 7.56641 6.26074H9.00049C9.82898 6.26084 10.5 6.93252 10.5 7.76074V9C10.5 9.27614 10.2761 9.5 10 9.5H2C1.86739 9.5 1.74025 9.44728 1.64648 9.35352C1.55271 9.25968 1.49992 9.13217 1.5 8.99951C1.50024 8.58724 1.50106 8.17373 1.50146 7.76221C1.50227 6.93408 2.17318 6.26085 3.00293 6.26074H4.479C4.4795 6.21761 4.48045 6.16932 4.48047 6.11426C4.46989 6.09829 4.44896 6.06903 4.41016 6.02393C4.36024 5.9659 4.30345 5.90569 4.22559 5.82129C4.15174 5.74124 4.06659 5.64713 3.97998 5.54053C3.62022 5.09768 3.25541 4.45991 3.25537 3.46338C3.25537 2.46793 3.63387 1.75991 4.2207 1.31641C4.78461 0.89024 5.48479 0.75 6.08008 0.75ZM6.08008 1.75C5.62035 1.75 5.1583 1.86142 4.82373 2.11426C4.51209 2.34978 4.25537 2.74851 4.25537 3.46338C4.25541 4.1768 4.50351 4.59897 4.75635 4.91016C4.82288 4.99204 4.89121 5.06748 4.96094 5.14307C5.0266 5.21424 5.10355 5.29613 5.16846 5.37158C5.28036 5.50167 5.48096 5.74533 5.48096 6.06982C5.48096 6.27841 5.48555 6.53249 5.4375 6.72119C5.40959 6.83077 5.34933 6.98548 5.2041 7.10596C5.05338 7.23089 4.88217 7.26072 4.75195 7.26074H3.00293C2.72673 7.26085 2.50174 7.48531 2.50146 7.76318C2.50123 8.00927 2.5008 8.25465 2.50049 8.5H9.5V7.76074C9.5 7.48452 9.2764 7.26084 9.00049 7.26074H7.26025C7.20707 7.26074 7.04923 7.26161 6.896 7.17236C6.70912 7.06346 6.63567 6.89112 6.60547 6.77393C6.57839 6.66877 6.57149 6.55382 6.56836 6.45752C6.56499 6.35348 6.56494 6.22256 6.56494 6.06982C6.56494 5.73819 6.73154 5.49064 6.86816 5.32324C6.93773 5.23801 7.01655 5.15434 7.08545 5.08057C7.15799 5.00289 7.22587 4.92981 7.29297 4.85059C7.54133 4.55734 7.78414 4.17229 7.78418 3.46338C7.78418 2.73057 7.54444 2.33192 7.26318 2.104C6.96304 1.8609 6.53864 1.75001 6.08008 1.75Z" fill="#FC8800"/>
</svg>
