<svg width="12" height="12" viewBox="0 0 12 12" fill="none" xmlns="http://www.w3.org/2000/svg">
<g clip-path="url(#clip0_2379_10855)">
<path d="M4.78827 0.633169C5.87275 0.388182 7.0041 0.478189 8.03388 0.888051L8.23847 0.973989L8.28437 0.997426C8.50414 1.12344 8.59716 1.39774 8.49189 1.63415C8.38655 1.87056 8.12026 1.98523 7.87958 1.90612L7.83173 1.88756L7.66425 1.81676C6.82166 1.48141 5.89582 1.40827 5.00849 1.60875C4.06197 1.82261 3.20976 2.33643 2.57929 3.07409C1.94881 3.81175 1.5738 4.73373 1.50995 5.70202C1.44615 6.67024 1.69716 7.63312 2.22528 8.44713C2.75344 9.26116 3.5304 9.88282 4.44062 10.2191C5.35085 10.5554 6.34551 10.5885 7.27607 10.3133C8.20661 10.0382 9.02317 9.46944 9.60419 8.69225C10.1851 7.91513 10.4996 6.97111 10.5002 6.00084V5.54088C10.5002 5.26474 10.724 5.04088 11.0002 5.04088C11.2763 5.04088 11.5002 5.26474 11.5002 5.54088V6.00084L11.4958 6.22301C11.4504 7.33047 11.0711 8.40035 10.4055 9.29088C9.69534 10.2408 8.69708 10.936 7.55976 11.2723C6.4224 11.6086 5.20647 11.5681 4.09394 11.1571C2.98155 10.7461 2.03191 9.98639 1.38642 8.99157C0.740899 7.99662 0.433887 6.81954 0.511906 5.6361C0.589936 4.45274 1.04856 3.32622 1.81903 2.42467C2.58962 1.52308 3.6314 0.894549 4.78827 0.633169ZM10.6467 1.64733C10.8418 1.45212 11.1584 1.45176 11.3537 1.64684C11.5491 1.84201 11.5489 2.159 11.3537 2.35436L6.3537 7.35924C6.25997 7.45299 6.13277 7.50569 6.00019 7.50573C5.86758 7.50573 5.74044 7.45301 5.64667 7.35924L4.14667 5.85924L4.11249 5.82116C3.95234 5.62477 3.96362 5.33526 4.14667 5.15221C4.34193 4.95698 4.65845 4.95698 4.8537 5.15221L5.9997 6.29821L10.6467 1.64733Z" fill="#3BB346"/>
</g>
<defs>
<clipPath id="clip0_2379_10855">
<rect width="12" height="12" fill="white"/>
</clipPath>
</defs>
</svg>
