<svg xmlns="http://www.w3.org/2000/svg" xmlns:xlink="http://www.w3.org/1999/xlink" fill="none" version="1.1" width="12" height="12" viewBox="0 0 12 12"><defs><clipPath id="master_svg0_1_085786"><rect x="0" y="0" width="12" height="12" rx="0"/></clipPath></defs><g clip-path="url(#master_svg0_1_085786)"><g><path d="M5.245259453125,3.032170625C5.245259453125,4.089020625,4.498089453125,4.971360625,3.503169453125,5.179810625L3.503169453125,7.652210625C3.503169453125,7.974160625,3.764119453125,8.235110625,4.0860294531250005,8.235110625L5.456259453125,8.235110625C5.394859453125,8.391820625000001,5.360759453125,8.564970625,5.360759453125,8.747110625000001C5.360759453125,8.930970625,5.395509453125,9.105770625,5.458059453125,9.263670625L4.0860294531250005,9.263670625C3.196059453125,9.263670625,2.474599453125,8.542220624999999,2.474599453125,7.652210625L2.474599453125,5.149960625C1.542329453125,4.896850625,0.856689453125,4.044580625,0.856689453125,3.032170625C0.856689453125,1.820300625,1.839099453125,0.837890625,3.050969453125,0.837890625C4.262829453125001,0.837890625,5.245259453125,1.820300625,5.245259453125,3.032170625ZM4.216679453125,3.032170625C4.216679453125,3.675970625,3.694769453125,4.197880625,3.050969453125,4.197880625C2.407159453125,4.197880625,1.885259453125,3.675970625,1.885259453125,3.032170625C1.885259453125,2.3883706250000003,2.407159453125,1.866460625,3.050969453125,1.866460625C3.694769453125,1.866460625,4.216679453125,2.3883706250000003,4.216679453125,3.032170625Z" fill-rule="evenodd" fill="#4E5969" fill-opacity="1" style="mix-blend-mode:passthrough"/></g><g><path d="M6.8595474609375,8.2345453125C6.8495974609375,8.2345453125,6.8397474609375,8.2347953125,6.8299474609375,8.2352953125L6.7655474609375,8.2352953125C6.5226474609375,8.2565953125,6.3011474609375,8.4177453125,6.3011474609375,8.7446453125C6.3011474609375,9.0818453125,6.5517974609375,9.2453953125,6.7904474609375,9.2585453125C6.8130974609375,9.2611453125,6.8361474609375,9.2624453125,6.8595474609375,9.2624453125L8.2324974609375,9.2624453125L8.2324974609375,10.665345312500001C8.2324974609375,10.9493953125,8.4627474609375,11.1796453125,8.7467974609375,11.1796453125C9.0307974609375,11.1796453125,9.2610974609375,10.9493953125,9.2610974609375,10.665345312500001L9.2610974609375,9.2624453125L10.633097460937499,9.2624453125C10.9406974609375,9.2624453125,11.1900474609375,9.0323453125,11.1900474609375,8.7484953125C11.1900474609375,8.4646453125,10.9406974609375,8.2345453125,10.633097460937499,8.2345453125L9.2610974609375,8.2345453125L9.2610974609375,6.8082453125C9.2610974609375,6.5241953125,9.0307974609375,6.2939453125,8.7467974609375,6.2939453125C8.4627474609375,6.2939453125,8.2324974609375,6.5241953125,8.2324974609375,6.8082453125L8.2324974609375,8.2345453125L6.8595474609375,8.2345453125Z" fill="#4E5969" fill-opacity="1" style="mix-blend-mode:passthrough"/></g></g></svg>