<svg  width="14" height="14" viewBox="0 0 24 24" fill="currentColor" xmlns="http://www.w3.org/2000/svg"><path fill-rule="evenodd" clip-rule="evenodd" d="M12.1426 2.11906C11.4166 1.6999 10.5221 1.6999 9.79609 2.11906L2.99807 6.04393C2.27207 6.4631 1.82483 7.23774 1.82483 8.07606V15.9258C1.82483 16.7641 2.27206 17.5388 2.99807 17.9579L9.79609 21.8828C10.5221 22.302 11.4166 22.302 12.1426 21.8828L14.4882 20.2576L13.217 18.9211L11.8806 19.9223V12.8359L18.2849 9.13827V11.0131L20.1138 12.6339V8.07607C20.1138 7.23774 19.6666 6.4631 18.9406 6.04394L12.1426 2.11906ZM11.2281 3.70294L17.6347 7.40183L10.9661 11.252L4.30071 7.40369L10.7105 3.70294C10.8707 3.61048 11.068 3.61048 11.2281 3.70294ZM3.65372 15.9258V9.14199L10.0517 12.8359V19.9185L3.91251 16.3741C3.75237 16.2816 3.65372 16.1107 3.65372 15.9258Z"></path><path d="M17.8717 19.8343L17.8717 21.0474C17.8717 21.2174 17.7291 21.3551 17.5533 21.3551 17.4855 21.3551 17.4195 21.3342 17.3649 21.2955L14.835 18.7389C14.6935 18.6381 14.6634 18.4454 14.7677 18.3087 14.8277 18.23 14.9228 18.1836 15.024 18.1836L21.6301 18.1836C21.8793 18.1836 22.4399 18.4398 22.4399 19.0045 22.4399 19.5188 21.9817 19.8343 21.6301 19.8343H17.8717zM19.2738 14.062L19.2738 15.2751 15.5155 15.2751C15.1638 15.2751 14.7056 15.5906 14.7056 16.1049 14.7056 16.6695 15.2662 16.9258 15.5154 16.9258H22.1215C22.2227 16.9258 22.3178 16.8794 22.3778 16.8007 22.4821 16.6639 22.452 16.4713 22.3105 16.3705L19.7806 13.8139C19.726 13.7752 19.66 13.7543 19.5922 13.7543 19.4164 13.7543 19.2738 13.892 19.2738 14.062z"></path></svg>