<svg xmlns="http://www.w3.org/2000/svg" xmlns:xlink="http://www.w3.org/1999/xlink" fill="none" version="1.1" width="20" height="20" viewBox="0 0 20 20"><defs><clipPath id="master_svg0_168_9541"><rect x="0" y="0" width="20" height="20" rx="0"/></clipPath></defs><g clip-path="url(#master_svg0_168_9541)"><g><path d="M2.4353512470703125,2.2364300234375C2.6561282470703125,2.0802260234375,2.9389822470703124,2.0408768234375,3.1940082470703124,2.1308876234375C3.1940082470703124,2.1308876234375,9.999998247070312,4.5329940234374995,9.999998247070312,4.5329940234374995C9.999998247070312,4.5329940234374995,16.806028247070312,2.1308876234375,16.806028247070312,2.1308876234375C17.06102824707031,2.0408768234375,17.343828247070313,2.0802260234375,17.56462824707031,2.2364300234375C17.785428247070314,2.3926340234375,17.916628247070314,2.6462660234374997,17.916628247070314,2.9167110234375C17.916628247070314,2.9167110234375,17.916628247070314,14.5833740234375,17.916628247070314,14.5833740234375C17.916628247070314,14.9366740234375,17.693828247070314,15.2516740234375,17.360628247070313,15.3691740234375C17.360628247070313,15.3691740234375,10.277328247070313,17.869174023437502,10.277328247070313,17.869174023437502C10.097868247070313,17.9325740234375,9.902118247070312,17.9325740234375,9.722658247070314,17.869174023437502C9.722658247070314,17.869174023437502,2.6393112470703124,15.3691740234375,2.6393112470703124,15.3691740234375C2.3061352470703125,15.2516740234375,2.0833282470703125,14.9366740234375,2.0833282470703125,14.5833740234375C2.0833282470703125,14.5833740234375,2.0833282470703125,2.9167110234375,2.0833282470703125,2.9167110234375C2.0833282470703125,2.6462660234374997,2.2145732470703123,2.3926340234375,2.4353512470703125,2.2364300234375C2.4353512470703125,2.2364300234375,2.4353512470703125,2.2364300234375,2.4353512470703125,2.2364300234375ZM9.166658247070313,6.0063040234375C9.166658247070313,6.0063040234375,3.7499982470703124,4.0945440234375,3.7499982470703124,4.0945440234375C3.7499982470703124,4.0945440234375,3.7499982470703124,13.9937740234375,3.7499982470703124,13.9937740234375C3.7499982470703124,13.9937740234375,9.166658247070313,15.9055740234375,9.166658247070313,15.9055740234375C9.166658247070313,15.9055740234375,9.166658247070313,6.0063040234375,9.166658247070313,6.0063040234375C9.166658247070313,6.0063040234375,9.166658247070313,6.0063040234375,9.166658247070313,6.0063040234375ZM10.833328247070312,15.9055740234375C10.833328247070312,15.9055740234375,16.25002824707031,13.9937740234375,16.25002824707031,13.9937740234375C16.25002824707031,13.9937740234375,16.25002824707031,4.0945440234375,16.25002824707031,4.0945440234375C16.25002824707031,4.0945440234375,10.833328247070312,6.0063040234375,10.833328247070312,6.0063040234375C10.833328247070312,6.0063040234375,10.833328247070312,15.9055740234375,10.833328247070312,15.9055740234375C10.833328247070312,15.9055740234375,10.833328247070312,15.9055740234375,10.833328247070312,15.9055740234375ZM5.280278247070313,5.6735940234375C5.280278247070313,5.6735940234375,8.196958247070313,6.7152540234375,8.196958247070313,6.7152540234375C8.196958247070313,6.7152540234375,7.636368247070313,8.2848340234375,7.636368247070313,8.2848340234375C7.636368247070313,8.2848340234375,4.719718247070313,7.2431640234375,4.719718247070313,7.2431640234375C4.719718247070313,7.2431640234375,5.280278247070313,5.6735940234375,5.280278247070313,5.6735940234375C5.280278247070313,5.6735940234375,5.280278247070313,5.6735940234375,5.280278247070313,5.6735940234375ZM15.280328247070312,7.2431640234375C15.280328247070312,7.2431640234375,12.363628247070313,8.2848340234375,12.363628247070313,8.2848340234375C12.363628247070313,8.2848340234375,11.803038247070312,6.7152540234375,11.803038247070312,6.7152540234375C11.803038247070312,6.7152540234375,14.719728247070313,5.6735940234375,14.719728247070313,5.6735940234375C14.719728247070313,5.6735940234375,15.280328247070312,7.2431640234375,15.280328247070312,7.2431640234375C15.280328247070312,7.2431640234375,15.280328247070312,7.2431640234375,15.280328247070312,7.2431640234375ZM5.280278247070313,8.590254023437499C5.280278247070313,8.590254023437499,8.196958247070313,9.6319140234375,8.196958247070313,9.6319140234375C8.196958247070313,9.6319140234375,7.636368247070313,11.2014940234375,7.636368247070313,11.2014940234375C7.636368247070313,11.2014940234375,4.719718247070313,10.1598340234375,4.719718247070313,10.1598340234375C4.719718247070313,10.1598340234375,5.280278247070313,8.590254023437499,5.280278247070313,8.590254023437499C5.280278247070313,8.590254023437499,5.280278247070313,8.590254023437499,5.280278247070313,8.590254023437499ZM15.280328247070312,10.1598340234375C15.280328247070312,10.1598340234375,12.363628247070313,11.2014940234375,12.363628247070313,11.2014940234375C12.363628247070313,11.2014940234375,11.803038247070312,9.6319140234375,11.803038247070312,9.6319140234375C11.803038247070312,9.6319140234375,14.719728247070313,8.590254023437499,14.719728247070313,8.590254023437499C14.719728247070313,8.590254023437499,15.280328247070312,10.1598340234375,15.280328247070312,10.1598340234375C15.280328247070312,10.1598340234375,15.280328247070312,10.1598340234375,15.280328247070312,10.1598340234375ZM5.280278247070313,11.5069140234375C5.280278247070313,11.5069140234375,8.196958247070313,12.5485740234375,8.196958247070313,12.5485740234375C8.196958247070313,12.5485740234375,7.636368247070313,14.1181740234375,7.636368247070313,14.1181740234375C7.636368247070313,14.1181740234375,4.719718247070313,13.0764740234375,4.719718247070313,13.0764740234375C4.719718247070313,13.0764740234375,5.280278247070313,11.5069140234375,5.280278247070313,11.5069140234375C5.280278247070313,11.5069140234375,5.280278247070313,11.5069140234375,5.280278247070313,11.5069140234375ZM15.280328247070312,13.0764740234375C15.280328247070312,13.0764740234375,12.363628247070313,14.1181740234375,12.363628247070313,14.1181740234375C12.363628247070313,14.1181740234375,11.803038247070312,12.5485740234375,11.803038247070312,12.5485740234375C11.803038247070312,12.5485740234375,14.719728247070313,11.5069140234375,14.719728247070313,11.5069140234375C14.719728247070313,11.5069140234375,15.280328247070312,13.0764740234375,15.280328247070312,13.0764740234375C15.280328247070312,13.0764740234375,15.280328247070312,13.0764740234375,15.280328247070312,13.0764740234375Z" fill-rule="evenodd" fill="#4E5969" fill-opacity="1"/></g></g></svg>