<svg xmlns="http://www.w3.org/2000/svg" xmlns:xlink="http://www.w3.org/1999/xlink" fill="none" version="1.1" width="20" height="20" viewBox="0 0 20 20"><defs><clipPath id="master_svg0_177_9451"><rect x="0" y="0" width="20" height="20" rx="0"/></clipPath></defs><g clip-path="url(#master_svg0_177_9451)"><g><path d="M10.68231,14.289065625C10.33001,14.608065625,9.67716,14.667365625,9.22337,14.419965625L1.403538,10.173085625C0.9497267,9.926325625,0.866119,9.467505625,1.216768,9.148565625L2.5207100000000002,8.446375625L3.62899,9.046765625L3.22426,9.253795625C2.9533199999999997,9.484875625,3.01801,9.819485625,3.36922,9.998535625L9.39954,13.087165625C9.75019,13.265165625,10.25416,13.223765625,10.5251,12.990965625L16.7756,9.808845625C17.0466,9.576075625,16.9819,9.243155625,16.630699999999997,9.062955625L16.3241,8.906855625L17.4792,8.281285624999999L18.5964,8.887285625C19.0501,9.134575625,19.1338,9.593405625,18.7837,9.912355625L10.68231,14.289065625ZM15.8852,7.790585625C15.8852,8.106185625,15.6277,8.363545625,15.3121,8.363545625C14.9977,8.363545625,14.7413,8.106165625,14.7413,7.790585625C14.7413,7.473885625,14.9977,7.218185625,15.3121,7.218185625C15.6277,7.218165625,15.8852,7.473885625,15.8852,7.790585625ZM17.4212,7.218165625Q17.0702,7.510895625,16.7611,7.122005625Q16.4174,6.689765625,16.8069,6.480225625C17.0924,6.246895625,17.2104,5.782955625,16.839199999999998,5.602775625L10.65756,2.401605625C10.28514,2.221425625,9.86906,2.142825625,9.34245,2.4247356250000003L3.16128,5.602775625C2.87473,5.835565625,2.83434,6.180715625,3.04499,6.436185625Q3.23567,6.667425625,9.26241,9.591435625C9.63424,9.771615625,10.27087,9.779175625,10.55852,9.546405625L13.4173,8.167705625Q13.8118,7.938545625,14.1521,8.416155625Q14.4109,8.779405624999999,14.0072,9.052495625Q11.0115,10.674095625,10.68231,10.847895625C10.31214,11.043365625,9.58367,11.166665625,9.01318,10.814315625L1.403538,6.716825625C0.9497267,6.470065625,0.866119,6.008995625,1.216768,5.688375625L9.31758,1.294881625C9.66989,0.974282525,10.32327,0.914961825,10.77708,1.163396625L18.5964,5.425985625C19.0501,5.674425625,19.1338,6.135475625,18.7837,6.456075625L17.4212,7.218165625ZM2.5207100000000002,11.883065625L3.62899,12.486265625L3.22426,12.691065625C2.9533199999999997,12.922665625,3.01801,13.257265625,3.36922,13.435265625L9.39954,16.523865625C9.75019,16.702965624999997,10.25416,16.660365625,10.5251,16.427565625L16.7756,13.246065625C17.0466,13.013365625,16.9819,12.680965625,16.630699999999997,12.499665625L16.3241,12.344065625L17.4792,11.720765625L18.5964,12.325165625C19.0501,12.571265625,19.1338,13.031265625,18.7837,13.350165625L10.68231,17.725765625C10.33001,18.044765625,9.67716,18.104065625,9.22337,17.857865625L1.403538,13.612065625C0.9497267,13.365865625,0.866119,12.905965625,1.216768,12.585865625L2.5207100000000002,11.883065625Z" fill="#4E5969" fill-opacity="1" style="mix-blend-mode:passthrough"/></g></g></svg>