<svg xmlns="http://www.w3.org/2000/svg" xmlns:xlink="http://www.w3.org/1999/xlink" fill="none" version="1.1" width="16" height="16" viewBox="0 0 16 16"><defs><clipPath id="master_svg0_1_058785"><rect x="0" y="0" width="16" height="16" rx="0"/></clipPath></defs><g clip-path="url(#master_svg0_1_058785)"><g><path d="M6.3267578125,13.7952390625C6.3267578125,13.7952390625,8.4105278125,1.9775390625,8.4105278125,1.9775390625C8.4105278125,1.9775390625,9.7235878125,2.2090700625,9.7235878125,2.2090700625C9.7235878125,2.2090700625,7.6398278125,14.0267390625,7.6398278125,14.0267390625C7.6398278125,14.0267390625,6.3267578125,13.7952390625,6.3267578125,13.7952390625C6.3267578125,13.7952390625,6.3267578125,13.7952390625,6.3267578125,13.7952390625ZM2.7498778125000003,7.9999690625C2.7498778125000003,7.9999690625,6.0496878125,4.7001390625,6.0496878125,4.7001390625C6.0496878125,4.7001390625,5.1068878125,3.7573290625,5.1068878125,3.7573290625C5.1068878125,3.7573290625,0.8642578125,7.9999690625,0.8642578125,7.9999690625C0.8642578125,7.9999690625,5.1068878125,12.2426390625,5.1068878125,12.2426390625C5.1068878125,12.2426390625,6.0496878125,11.2998090625,6.0496878125,11.2998090625C6.0496878125,11.2998090625,2.7498778125000003,7.9999690625,2.7498778125000003,7.9999690625C2.7498778125000003,7.9999690625,2.7498778125000003,7.9999690625,2.7498778125000003,7.9999690625ZM10.8901578125,3.7573290625C10.8901578125,3.7573290625,15.1328578125,7.9999690625,15.1328578125,7.9999690625C15.1328578125,7.9999690625,10.8901578125,12.2426390625,10.8901578125,12.2426390625C10.8901578125,12.2426390625,9.9473878125,11.2998090625,9.9473878125,11.2998090625C9.9473878125,11.2998090625,13.2472578125,7.9999690625,13.2472578125,7.9999690625C13.2472578125,7.9999690625,9.9473878125,4.7001390625,9.9473878125,4.7001390625C9.9473878125,4.7001390625,10.8901578125,3.7573290625,10.8901578125,3.7573290625C10.8901578125,3.7573290625,10.8901578125,3.7573290625,10.8901578125,3.7573290625Z" fill-rule="evenodd" fill="#4E5969" fill-opacity="1"/></g></g></svg>