<svg xmlns="http://www.w3.org/2000/svg" xmlns:xlink="http://www.w3.org/1999/xlink" fill="none" version="1.1" width="14" height="14" viewBox="0 0 14 14"><defs><clipPath id="master_svg0_1_12650"><rect x="0" y="0" width="14" height="14" rx="0"/></clipPath></defs><g clip-path="url(#master_svg0_1_12650)"><g><path d="M4.666664123535156,4.016748046875C4.666664123535156,4.016748046875,4.161108123535156,4.016748046875,4.161108123535156,4.016748046875C4.161108123535156,4.016748046875,4.161108123535156,5.316748046875,4.161108123535156,5.316748046875C4.161108123535156,5.316748046875,4.666664123535156,5.316748046875,4.666664123535156,5.316748046875C4.666664123535156,5.316748046875,4.666664123535156,4.016748046875,4.666664123535156,4.016748046875C4.666664123535156,4.016748046875,4.666664123535156,4.016748046875,4.666664123535156,4.016748046875ZM9.333334123535156,5.316748046875C9.333334123535156,5.316748046875,9.838884123535156,5.316748046875,9.838884123535156,5.316748046875C9.838884123535156,5.316748046875,9.838884123535156,4.016748046875,9.838884123535156,4.016748046875C9.838884123535156,4.016748046875,9.333334123535156,4.016748046875,9.333334123535156,4.016748046875C9.333334123535156,4.016748046875,9.333334123535156,5.316748046875,9.333334123535156,5.316748046875C9.333334123535156,5.316748046875,9.333334123535156,5.316748046875,9.333334123535156,5.316748046875ZM4.666664123535156,5.316748046875C4.666664123535156,5.316748046875,9.333334123535156,5.316748046875,9.333334123535156,5.316748046875C9.333334123535156,5.316748046875,9.333334123535156,4.016748046875,9.333334123535156,4.016748046875C9.333334123535156,4.016748046875,4.666664123535156,4.016748046875,4.666664123535156,4.016748046875C4.666664123535156,4.016748046875,4.666664123535156,5.316748046875,4.666664123535156,5.316748046875C4.666664123535156,5.316748046875,4.666664123535156,5.316748046875,4.666664123535156,5.316748046875Z" fill="#1A2233" fill-opacity="1"/></g><g><path d="M4.666664123535156,6.35C4.666664123535156,6.35,4.161108123535156,6.35,4.161108123535156,6.35C4.161108123535156,6.35,4.161108123535156,7.65,4.161108123535156,7.65C4.161108123535156,7.65,4.666664123535156,7.65,4.666664123535156,7.65C4.666664123535156,7.65,4.666664123535156,6.35,4.666664123535156,6.35C4.666664123535156,6.35,4.666664123535156,6.35,4.666664123535156,6.35ZM6.999994123535156,7.65C6.999994123535156,7.65,7.505554123535156,7.65,7.505554123535156,7.65C7.505554123535156,7.65,7.505554123535156,6.35,7.505554123535156,6.35C7.505554123535156,6.35,6.999994123535156,6.35,6.999994123535156,6.35C6.999994123535156,6.35,6.999994123535156,7.65,6.999994123535156,7.65C6.999994123535156,7.65,6.999994123535156,7.65,6.999994123535156,7.65ZM4.666664123535156,7.65C4.666664123535156,7.65,6.999994123535156,7.65,6.999994123535156,7.65C6.999994123535156,7.65,6.999994123535156,6.35,6.999994123535156,6.35C6.999994123535156,6.35,4.666664123535156,6.35,4.666664123535156,6.35C4.666664123535156,6.35,4.666664123535156,7.65,4.666664123535156,7.65C4.666664123535156,7.65,4.666664123535156,7.65,4.666664123535156,7.65Z" fill="#1A2233" fill-opacity="1"/></g><g><path d="M2.3333282470703125,11.9583C2.3333282470703125,11.9583,1.8277722470703126,11.9583,1.8277722470703126,11.9583C1.8277722470703126,12.2376,2.0541172470703124,12.4639,2.3333282470703125,12.4639C2.3333282470703125,12.4639,2.3333282470703125,11.9583,2.3333282470703125,11.9583C2.3333282470703125,11.9583,2.3333282470703125,11.9583,2.3333282470703125,11.9583ZM2.3333282470703125,1.75C2.3333282470703125,1.75,2.3333282470703125,1.244444,2.3333282470703125,1.244444C2.0541172470703124,1.244444,1.8277722470703126,1.470789,1.8277722470703126,1.7500000000000002C1.8277722470703126,1.7500000000000002,2.3333282470703125,1.75,2.3333282470703125,1.75C2.3333282470703125,1.75,2.3333282470703125,1.75,2.3333282470703125,1.75ZM11.666658247070313,1.75C11.666658247070313,1.75,12.172218247070312,1.75,12.172218247070312,1.75C12.172218247070312,1.470789,11.945888247070313,1.244444,11.666658247070313,1.244444C11.666658247070313,1.244444,11.666658247070313,1.75,11.666658247070313,1.75C11.666658247070313,1.75,11.666658247070313,1.75,11.666658247070313,1.75ZM6.999998247070312,11.45278C6.999998247070312,11.45278,2.3333282470703125,11.45278,2.3333282470703125,11.45278C2.3333282470703125,11.45278,2.3333282470703125,12.4639,2.3333282470703125,12.4639C2.3333282470703125,12.4639,6.999998247070312,12.4639,6.999998247070312,12.4639C6.999998247070312,12.4639,6.999998247070312,11.45278,6.999998247070312,11.45278C6.999998247070312,11.45278,6.999998247070312,11.45278,6.999998247070312,11.45278ZM2.8388842470703124,11.9583C2.8388842470703124,11.9583,2.8388842470703124,1.75,2.8388842470703124,1.75C2.8388842470703124,1.75,1.8277722470703126,1.75,1.8277722470703126,1.75C1.8277722470703126,1.75,1.8277722470703126,11.9583,1.8277722470703126,11.9583C1.8277722470703126,11.9583,2.8388842470703124,11.9583,2.8388842470703124,11.9583C2.8388842470703124,11.9583,2.8388842470703124,11.9583,2.8388842470703124,11.9583ZM2.3333282470703125,2.255556C2.3333282470703125,2.255556,11.666658247070313,2.255556,11.666658247070313,2.255556C11.666658247070313,2.255556,11.666658247070313,1.244444,11.666658247070313,1.244444C11.666658247070313,1.244444,2.3333282470703125,1.244444,2.3333282470703125,1.244444C2.3333282470703125,1.244444,2.3333282470703125,2.255556,2.3333282470703125,2.255556C2.3333282470703125,2.255556,2.3333282470703125,2.255556,2.3333282470703125,2.255556ZM11.161108247070313,1.75C11.161108247070313,1.75,11.161108247070313,6.70833,11.161108247070313,6.70833C11.161108247070313,6.70833,12.172218247070312,6.70833,12.172218247070312,6.70833C12.172218247070312,6.70833,12.172218247070312,1.75,12.172218247070312,1.75C12.172218247070312,1.75,11.161108247070313,1.75,11.161108247070313,1.75C11.161108247070313,1.75,11.161108247070313,1.75,11.161108247070313,1.75Z" fill="#1A2233" fill-opacity="1"/></g><g><path d="M8.75,8.458251953125C8.75,8.458251953125,8.75,7.952695953125,8.75,7.952695953125C8.470789,7.952695953125,8.244444,8.179040953125,8.244444,8.458251953125C8.244444,8.458251953125,8.75,8.458251953125,8.75,8.458251953125C8.75,8.458251953125,8.75,8.458251953125,8.75,8.458251953125ZM11.95833,8.458251953125C11.95833,8.458251953125,12.46389,8.458251953125,12.46389,8.458251953125C12.46389,8.179040953125,12.23754,7.952695953125,11.95833,7.952695953125C11.95833,7.952695953125,11.95833,8.458251953125,11.95833,8.458251953125C11.95833,8.458251953125,11.95833,8.458251953125,11.95833,8.458251953125ZM11.95833,12.249921953125C11.95833,12.249921953125,11.686910000000001,12.676431953125,11.686910000000001,12.676431953125C11.84258,12.775501953125,12.039860000000001,12.781881953125,12.20161,12.693091953125C12.36336,12.604301953124999,12.46389,12.434441953124999,12.46389,12.249921953125C12.46389,12.249921953125,11.95833,12.249921953125,11.95833,12.249921953125C11.95833,12.249921953125,11.95833,12.249921953125,11.95833,12.249921953125ZM10.35417,11.229081953125C10.35417,11.229081953125,10.62559,10.802571953125,10.62559,10.802571953125C10.45998,10.697181953125,10.24835,10.697181953125,10.08275,10.802571953125C10.08275,10.802571953125,10.35417,11.229081953125,10.35417,11.229081953125C10.35417,11.229081953125,10.35417,11.229081953125,10.35417,11.229081953125ZM8.75,12.249921953125C8.75,12.249921953125,8.244444,12.249921953125,8.244444,12.249921953125C8.244444,12.434441953124999,8.344972,12.604301953124999,8.506722,12.693091953125C8.6684718,12.781881953125,8.86575,12.775501953125,9.021419999999999,12.676431953125C9.021419999999999,12.676431953125,8.75,12.249921953125,8.75,12.249921953125C8.75,12.249921953125,8.75,12.249921953125,8.75,12.249921953125ZM8.75,8.963807953125C8.75,8.963807953125,11.95833,8.963807953125,11.95833,8.963807953125C11.95833,8.963807953125,11.95833,7.952695953125,11.95833,7.952695953125C11.95833,7.952695953125,8.75,7.952695953125,8.75,7.952695953125C8.75,7.952695953125,8.75,8.963807953125,8.75,8.963807953125C8.75,8.963807953125,8.75,8.963807953125,8.75,8.963807953125ZM11.45278,8.458251953125C11.45278,8.458251953125,11.45278,12.249921953125,11.45278,12.249921953125C11.45278,12.249921953125,12.46389,12.249921953125,12.46389,12.249921953125C12.46389,12.249921953125,12.46389,8.458251953125,12.46389,8.458251953125C12.46389,8.458251953125,11.45278,8.458251953125,11.45278,8.458251953125C11.45278,8.458251953125,11.45278,8.458251953125,11.45278,8.458251953125ZM12.22975,11.823401953125C12.22975,11.823401953125,10.62559,10.802571953125,10.62559,10.802571953125C10.62559,10.802571953125,10.08275,11.655601953125,10.08275,11.655601953125C10.08275,11.655601953125,11.686910000000001,12.676431953125,11.686910000000001,12.676431953125C11.686910000000001,12.676431953125,12.22975,11.823401953125,12.22975,11.823401953125C12.22975,11.823401953125,12.22975,11.823401953125,12.22975,11.823401953125ZM10.08275,10.802571953125C10.08275,10.802571953125,8.478580000000001,11.823401953125,8.478580000000001,11.823401953125C8.478580000000001,11.823401953125,9.021419999999999,12.676431953125,9.021419999999999,12.676431953125C9.021419999999999,12.676431953125,10.62559,11.655601953125,10.62559,11.655601953125C10.62559,11.655601953125,10.08275,10.802571953125,10.08275,10.802571953125C10.08275,10.802571953125,10.08275,10.802571953125,10.08275,10.802571953125ZM9.255556,12.249921953125C9.255556,12.249921953125,9.255556,8.458251953125,9.255556,8.458251953125C9.255556,8.458251953125,8.244444,8.458251953125,8.244444,8.458251953125C8.244444,8.458251953125,8.244444,12.249921953125,8.244444,12.249921953125C8.244444,12.249921953125,9.255556,12.249921953125,9.255556,12.249921953125C9.255556,12.249921953125,9.255556,12.249921953125,9.255556,12.249921953125Z" fill="#1A2233" fill-opacity="1"/></g></g></svg>