<svg xmlns="http://www.w3.org/2000/svg" xmlns:xlink="http://www.w3.org/1999/xlink" fill="none" version="1.1" width="14" height="14" viewBox="0 0 14 14"><defs><clipPath id="master_svg0_2_25476"><rect x="0" y="0" width="14" height="14" rx="0"/></clipPath></defs><g clip-path="url(#master_svg0_2_25476)"><g><path d="M11.08333,1.75016609375L2.91667,1.75016609375L2.91667,12.25019609375L5.83333,12.25019609375L5.83333,13.41679609375L2.91667,13.41679609375C2.272334,13.41679609375,1.75,12.89449609375,1.75,12.25019609375L1.75,1.75016609375C1.75,1.1058300937499999,2.272334,0.58349609375,2.91667,0.58349609375L11.08333,0.58349609375C11.72768,0.58349609375,12.25,1.1058300937499999,12.25,1.75016609375L12.25,6.41682609375L11.08333,6.41682609375L11.08333,1.75016609375Z" fill="#454856" fill-opacity="1" style="mix-blend-mode:passthrough"/></g><g><path d="M4.66682909375,4.08349609375C4.34466609375,4.08349609375,4.08349609375,4.34466609375,4.08349609375,4.66682909375C4.08349609375,4.98899309375,4.34466609375,5.25016609375,4.66682909375,5.25016609375L9.33349609375,5.25016609375C9.65566609375,5.25016609375,9.91682609375,4.98899309375,9.91682609375,4.66682909375C9.91682609375,4.34466609375,9.65566609375,4.08349609375,9.33349609375,4.08349609375L4.66682909375,4.08349609375ZM4.08349609375,7.29182609375C4.08349609375,6.96965609375,4.34466609375,6.70849609375,4.66682909375,6.70849609375L7.00016609375,6.70849609375C7.32233609375,6.70849609375,7.58349609375,6.96965609375,7.58349609375,7.29182609375C7.58349609375,7.61400609375,7.32233609375,7.87516609375,7.00016609375,7.87516609375L4.66682909375,7.87516609375C4.34466609375,7.87516609375,4.08349609375,7.61400609375,4.08349609375,7.29182609375ZM11.858396093749999,7.61277609375C12.20011609375,7.27106609375,12.75416609375,7.27106609375,13.09587609375,7.61277609375C13.43753609375,7.95449609375,13.43753609375,8.508546093749999,13.09587609375,8.85020609375L12.47713609375,9.468946093749999L11.239716093750001,8.23152609375L11.858396093749999,7.61277609375ZM10.620966093749999,8.85020609375L11.858396093749999,10.087686093750001L8.95222609375,12.99385609375C8.830366093750001,13.11571609375,8.67339609375,13.19644609375,8.503416093750001,13.22473609375L7.40038609375,13.40813609375C7.36882609375,13.41338609375,7.3367460937499995,13.40311609375,7.31416609375,13.38048609375C7.29130609375,13.35762609375,7.28103609375,13.32501609375,7.28669609375,13.29316609375L7.48251609375,12.19532609375C7.51174609375,12.03158609375,7.59043609375,11.88079609375,7.70803609375,11.76319609375L10.620966093749999,8.85020609375Z" fill="#454856" fill-opacity="1" style="mix-blend-mode:passthrough"/></g></g></svg>