<svg xmlns="http://www.w3.org/2000/svg" xmlns:xlink="http://www.w3.org/1999/xlink" fill="none" version="1.1" width="12" height="12" viewBox="0 0 12 12"><defs><clipPath id="master_svg0_254_00991"><rect x="0" y="0" width="12" height="12" rx="0"/></clipPath></defs><g clip-path="url(#master_svg0_254_00991)"><g><path d="M9.811788359375,10.8674984375L2.195068359375,10.8674984375C1.419638359375,10.8674984375,0.788818359375,10.2366784375,0.788818359375,9.4612484375L0.788818359375,2.5458984375C0.788818359375,1.7704684375,1.419638359375,1.1396484375,2.195068359375,1.1396484375L9.811788359375,1.1396484375C10.587218359375,1.1396484375,11.218018359375,1.7704684375,11.218018359375,2.5458984375L11.218018359375,9.4612484375C11.218018359375,10.2366784375,10.587218359375,10.8674984375,9.811788359375,10.8674984375ZM2.195068359375,2.0771484375C1.936548359375,2.0771484375,1.726318359375,2.2873784375,1.726318359375,2.5458984375L1.726318359375,9.4612484375C1.726318359375,9.7197684375,1.936548359375,9.9299984375,2.195068359375,9.9299984375L9.811788359375,9.9299984375C10.070298359375,9.9299984375,10.280538359375,9.7197684375,10.280538359375,9.4612484375L10.280538359375,2.5458984375C10.280538359375,2.2873784375,10.070298359375,2.0771484375,9.811788359375,2.0771484375L2.195068359375,2.0771484375Z" fill="#292D32" fill-opacity="1" style="mix-blend-mode:passthrough"/></g><g><path d="M3.9212646484375,9.042077890625C3.6623976484375,9.042077890625,3.4525146484375,8.832197890625,3.4525146484375,8.573327890625L3.4525146484375,4.840677890625C3.4525146484375,4.581807890625,3.6623976484375,4.371927890625,3.9212646484375,4.371927890625C4.1801316484375,4.371927890625,4.3900146484375,4.581807890625,4.3900146484375,4.840677890625L4.3900146484375,8.573207890625C4.3900146484375,8.832197890625,4.1801316484375,9.042077890625,3.9212646484375,9.042077890625ZM8.0854046484375,9.042077890625C7.8265346484375,9.042077890625,7.6166546484375,8.832197890625,7.6166546484375,8.573327890625L7.6166546484375,5.775947890625C7.6166546484375,5.517077890625,7.8265346484375,5.307197890625,8.0854046484375,5.307197890625C8.3442746484375,5.307197890625,8.5541546484375,5.517077890625,8.5541546484375,5.775947890625L8.5541546484375,8.573327890625C8.5541546484375,8.832197890625,8.3442746484375,9.042077890625,8.0854046484375,9.042077890625ZM6.0033346484375,9.042077890625C5.7444646484375,9.042077890625,5.5345846484375,8.832197890625,5.5345846484375,8.573327890625L5.5345846484375,3.433837890625C5.5345846484375,3.174970890625,5.7444646484375,2.965087890625,6.0033346484375,2.965087890625C6.2622046484375,2.965087890625,6.4720846484375,3.174970890625,6.4720846484375,3.433837890625L6.4720846484375,8.573207890625C6.4720846484375,8.832197890625,6.2622046484375,9.042077890625,6.0033346484375,9.042077890625Z" fill="#292D32" fill-opacity="1" style="mix-blend-mode:passthrough"/></g></g></svg>