<svg xmlns="http://www.w3.org/2000/svg" xmlns:xlink="http://www.w3.org/1999/xlink" fill="none" version="1.1" width="12" height="12" viewBox="0 0 12 12"><g><g><g><g><path d="M9.625,6.3251953125C9.625,6.1180883125,9.4571,5.9501953125,9.25,5.9501953125C9.0429,5.9501953125,8.875,6.1180883125,8.875,6.3251953125C8.875,6.3251953125,9.625,6.3251953125,9.625,6.3251953125C9.625,6.3251953125,9.625,6.3251953125,9.625,6.3251953125ZM3.125,6.3251953125C3.125,6.1180883125,2.957107,5.9501953125,2.75,5.9501953125C2.542893,5.9501953125,2.375,6.1180883125,2.375,6.3251953125C2.375,6.3251953125,3.125,6.3251953125,3.125,6.3251953125C3.125,6.3251953125,3.125,6.3251953125,3.125,6.3251953125ZM8.875,6.3251953125C8.875,6.3251953125,8.875,8.1751953125,8.875,8.1751953125C8.875,8.1751953125,9.625,8.1751953125,9.625,8.1751953125C9.625,8.1751953125,9.625,6.3251953125,9.625,6.3251953125C9.625,6.3251953125,8.875,6.3251953125,8.875,6.3251953125C8.875,6.3251953125,8.875,6.3251953125,8.875,6.3251953125ZM8.875,8.1751953125C8.875,9.4804853125,7.63894,10.6251953125,6,10.6251953125C6,10.6251953125,6,11.3751953125,6,11.3751953125C7.95105,11.3751953125,9.625,9.9898953125,9.625,8.1751953125C9.625,8.1751953125,8.875,8.1751953125,8.875,8.1751953125C8.875,8.1751953125,8.875,8.1751953125,8.875,8.1751953125ZM6,10.6251953125C4.36106,10.6251953125,3.125,9.4804853125,3.125,8.1751953125C3.125,8.1751953125,2.375,8.1751953125,2.375,8.1751953125C2.375,9.9898953125,4.04894,11.3751953125,6,11.3751953125C6,11.3751953125,6,10.6251953125,6,10.6251953125C6,10.6251953125,6,10.6251953125,6,10.6251953125ZM3.125,8.1751953125C3.125,8.1751953125,3.125,6.3251953125,3.125,6.3251953125C3.125,6.3251953125,2.375,6.3251953125,2.375,6.3251953125C2.375,6.3251953125,2.375,8.1751953125,2.375,8.1751953125C2.375,8.1751953125,3.125,8.1751953125,3.125,8.1751953125C3.125,8.1751953125,3.125,8.1751953125,3.125,8.1751953125ZM2.375,6.3251953125C2.375,8.1639553125,4.07768,9.3751953125,6,9.3751953125C6,9.3751953125,6,8.6251953125,6,8.6251953125C4.33231,8.6251953125,3.125,7.6064253125,3.125,6.3251953125C3.125,6.3251953125,2.375,6.3251953125,2.375,6.3251953125C2.375,6.3251953125,2.375,6.3251953125,2.375,6.3251953125ZM6,9.3751953125C7.9223,9.3751953125,9.625,8.1639553125,9.625,6.3251953125C9.625,6.3251953125,8.875,6.3251953125,8.875,6.3251953125C8.875,7.6064253125,7.66769,8.6251953125,6,8.6251953125C6,8.6251953125,6,9.3751953125,6,9.3751953125C6,9.3751953125,6,9.3751953125,6,9.3751953125Z" fill="#292D32" fill-opacity="1"/></g><g><path d="M8.905000000000001,5.06C8.905000000000001,5.06,8.585,4.86446,8.585,4.86446C8.585,4.86446,8.58455,4.86519,8.58455,4.86519C8.58455,4.86519,8.905000000000001,5.06,8.905000000000001,5.06C8.905000000000001,5.06,8.905000000000001,5.06,8.905000000000001,5.06ZM3.095001,5.06C3.095001,5.06,3.4154299999999997,4.86519,3.4154299999999997,4.86519C3.4154299999999997,4.86519,3.41498,4.86446,3.41498,4.86446C3.41498,4.86446,3.095001,5.06,3.095001,5.06C3.095001,5.06,3.095001,5.06,3.095001,5.06ZM3.7,1.83C3.7,1.83,3.94642,2.11267,3.94642,2.11267C3.94642,2.11267,3.94659,2.1125100000000003,3.94659,2.1125100000000003C3.94659,2.1125100000000003,3.7,1.83,3.7,1.83C3.7,1.83,3.7,1.83,3.7,1.83ZM8.3,1.825C8.3,1.825,8.547799999999999,1.54352,8.547799999999999,1.54352C8.547799999999999,1.54352,8.54525,1.5413000000000001,8.54525,1.5413000000000001C8.54525,1.5413000000000001,8.3,1.825,8.3,1.825C8.3,1.825,8.3,1.825,8.3,1.825ZM8.875,3.825C8.875,4.20974,8.7697,4.562250000000001,8.585,4.86446C8.585,4.86446,9.225,5.25555,9.225,5.25555C9.4803,4.83775,9.625,4.3502600000000005,9.625,3.825C9.625,3.825,8.875,3.825,8.875,3.825C8.875,3.825,8.875,3.825,8.875,3.825ZM8.58455,4.86519C8.131599999999999,5.61028,7.16846,6.125,6,6.125C6,6.125,6,6.875,6,6.875C7.37154,6.875,8.6084,6.2697,9.22545,5.25481C9.22545,5.25481,8.58455,4.86519,8.58455,4.86519C8.58455,4.86519,8.58455,4.86519,8.58455,4.86519ZM6,6.125C4.83155,6.125,3.86841,5.61028,3.4154299999999997,4.86519C3.4154299999999997,4.86519,2.774571,5.25481,2.774571,5.25481C3.39159,6.2697,4.62845,6.875,6,6.875C6,6.875,6,6.125,6,6.125C6,6.125,6,6.125,6,6.125ZM3.41498,4.86446C3.230302,4.562250000000001,3.125,4.20974,3.125,3.825C3.125,3.825,2.375,3.825,2.375,3.825C2.375,4.3502600000000005,2.5197,4.83775,2.775021,5.25555C2.775021,5.25555,3.41498,4.86446,3.41498,4.86446C3.41498,4.86446,3.41498,4.86446,3.41498,4.86446ZM3.125,3.825C3.125,3.16741,3.4318999999999997,2.56123,3.94642,2.11267C3.94642,2.11267,3.45357,1.547335,3.45357,1.547335C2.798098,2.11878,2.375,2.92259,2.375,3.825C2.375,3.825,3.125,3.825,3.125,3.825C3.125,3.825,3.125,3.825,3.125,3.825ZM3.94659,2.1125100000000003C4.46587,1.65925,5.1874199999999995,1.375,6,1.375C6,1.375,6,0.625,6,0.625C5.01257,0.625,4.11413,0.97075,3.4534000000000002,1.547485C3.4534000000000002,1.547485,3.94659,2.1125100000000003,3.94659,2.1125100000000003C3.94659,2.1125100000000003,3.94659,2.1125100000000003,3.94659,2.1125100000000003ZM6,1.375C6.81265,1.375,7.53492,1.65935,8.05475,2.1087C8.05475,2.1087,8.54525,1.5413000000000001,8.54525,1.5413000000000001C7.8851,0.9706589999999999,6.98735,0.625,6,0.625C6,0.625,6,1.375,6,1.375C6,1.375,6,1.375,6,1.375ZM8.0522,2.10647C8.568249999999999,2.56075,8.875,3.16764,8.875,3.825C8.875,3.825,9.625,3.825,9.625,3.825C9.625,2.92236,9.20175,2.11925,8.547799999999999,1.54353C8.547799999999999,1.54353,8.0522,2.10647,8.0522,2.10647C8.0522,2.10647,8.0522,2.10647,8.0522,2.10647Z" fill="#292D32" fill-opacity="1"/></g><g><path d="M8.3,1.825C8.3,1.825,8.547799999999999,1.54352,8.547799999999999,1.54352C8.547799999999999,1.54352,8.54525,1.5413000000000001,8.54525,1.5413000000000001C8.54525,1.5413000000000001,8.3,1.825,8.3,1.825C8.3,1.825,8.3,1.825,8.3,1.825ZM8.875,3.825C8.875,3.825,8.875,6.325,8.875,6.325C8.875,6.325,9.625,6.325,9.625,6.325C9.625,6.325,9.625,3.825,9.625,3.825C9.625,3.825,8.875,3.825,8.875,3.825C8.875,3.825,8.875,3.825,8.875,3.825ZM8.875,6.325C8.875,7.60625,7.66769,8.625,6,8.625C6,8.625,6,9.375,6,9.375C7.9223,9.375,9.625,8.16375,9.625,6.325C9.625,6.325,8.875,6.325,8.875,6.325C8.875,6.325,8.875,6.325,8.875,6.325ZM6,8.625C4.33231,8.625,3.125,7.60625,3.125,6.325C3.125,6.325,2.375,6.325,2.375,6.325C2.375,8.16375,4.07768,9.375,6,9.375C6,9.375,6,8.625,6,8.625C6,8.625,6,8.625,6,8.625ZM3.125,6.325C3.125,6.325,3.125,3.825,3.125,3.825C3.125,3.825,2.375,3.825,2.375,3.825C2.375,3.825,2.375,6.325,2.375,6.325C2.375,6.325,3.125,6.325,3.125,6.325C3.125,6.325,3.125,6.325,3.125,6.325ZM3.125,3.825C3.125,2.51971,4.36106,1.375,6,1.375C6,1.375,6,0.625,6,0.625C4.04894,0.625,2.375,2.01029,2.375,3.825C2.375,3.825,3.125,3.825,3.125,3.825C3.125,3.825,3.125,3.825,3.125,3.825ZM6,1.375C6.81265,1.375,7.53492,1.65935,8.05475,2.1087C8.05475,2.1087,8.54525,1.5413000000000001,8.54525,1.5413000000000001C7.8851,0.9706589999999999,6.98735,0.625,6,0.625C6,0.625,6,1.375,6,1.375C6,1.375,6,1.375,6,1.375ZM8.0522,2.10647C8.568249999999999,2.56075,8.875,3.16764,8.875,3.825C8.875,3.825,9.625,3.825,9.625,3.825C9.625,2.92236,9.20175,2.11925,8.547799999999999,1.54353C8.547799999999999,1.54353,8.0522,2.10647,8.0522,2.10647C8.0522,2.10647,8.0522,2.10647,8.0522,2.10647Z" fill="#292D32" fill-opacity="1"/></g><g style="opacity:0;"></g></g></g></g></svg>