<svg xmlns="http://www.w3.org/2000/svg" xmlns:xlink="http://www.w3.org/1999/xlink" fill="none" version="1.1" width="14" height="14" viewBox="0 0 14 14"><defs><clipPath id="master_svg0_74_32304"><rect x="0" y="0" width="14" height="14" rx="0"/></clipPath></defs><g clip-path="url(#master_svg0_74_32304)"><g><path d="M0,0.995464C0,0.445484,0.451,0,1.0045,0L4.9955,0C5.5505,0,6,0.449984,6,0.995464L6,13.0045C6,13.5545,5.549,14,4.9955,14L1.005,14C0.4495,13.9995,0,13.5495,0,13.004L0,0.994965L0,0.995464ZM1,1.50045L1,12.4991C1,12.776,1.223,12.9995,1.4985,12.9995L4.5015,12.9995C4.7735,12.9995,5,12.7755,5,12.4996L5,1.49995C5,1.22346,4.777,0.999964,4.5015,0.999964L1.4985,0.999964C1.2265,0.999964,1,1.22396,1,1.49995L1,1.50045ZM7,1.00446C7,0.449484,7.4485,0,8.003,0L12.997,0C13.551,0,14,0.450984,14,1.00446L14,4.99532C14,5.5503,13.5515,5.99978,12.997,5.99978L8.003,5.99978C7.44882,5.99896,7,5.54949,7,4.99532L7,1.00496L7,1.00446ZM8,1.49845L8,4.50134C8.00082,4.77591,8.22292,4.99845,8.4975,4.99982L12.5025,4.99982C12.7725,4.99982,13,4.77683,13,4.50134L13,1.49845C12.9992,1.22387,12.7771,1.00134,12.5025,0.999964L8.4975,0.999964C8.2275,0.999964,8,1.22296,8,1.49845ZM7,8.00271C7,7.44873,7.4485,6.99975,8.003,6.99975L12.997,6.99975C13.551,6.99975,14,7.44823,14,8.00271L14,12.9965C14.0003,13.5506,13.5511,13.9998,12.997,13.9995L8.003,13.9995C7.44894,13.9998,6.99972,13.5506,7,12.9965L7,8.00271ZM8,8.4977L8,12.5021C8,12.772,8.223,12.9995,8.4975,12.9995L12.5025,12.9995C12.7725,12.9995,13,12.7765,13,12.5021L13,8.4972C13,8.22721,12.777,7.99971,12.5025,7.99971L8.4975,7.99971C8.2275,7.99971,8,8.22271,8,8.4972L8,8.4977Z" fill="#333333" fill-opacity="1" style="mix-blend-mode:passthrough"/></g></g></svg>