<svg xmlns="http://www.w3.org/2000/svg" xmlns:xlink="http://www.w3.org/1999/xlink" fill="none" version="1.1" width="16" height="16" viewBox="0 0 16 16"><defs><clipPath id="master_svg0_16_6728"><rect x="0" y="0" width="16" height="16" rx="0"/></clipPath></defs><g clip-path="url(#master_svg0_16_6728)"><g><path d="M7.144658247070312,0.79559125C7.673998247070313,0.49001095,8.326058247070312,0.49001165,8.855328247070313,0.79559125L13.811428247070312,3.65694625C14.340628247070313,3.96253625,14.666728247070312,4.52727625,14.666728247070312,5.13843625L14.666728247070312,10.86110625C14.666728247070312,11.47230625,14.340628247070313,12.03710625,13.811428247070312,12.34260625L8.855328247070313,15.20400625C8.326058247070312,15.50960625,7.673998247070313,15.50960625,7.144658247070312,15.20400625L2.1886612470703124,12.34260625C1.6593812470703124,12.03710625,1.3333282470703125,11.47230625,1.3333282470703125,10.86110625L1.3333282470703125,5.13843625C1.3333282470703125,4.52726625,1.6593812470703124,3.96253625,2.1886682470703125,3.65694625L7.144658247070312,0.79559125ZM12.859328247070312,4.64690625L8.188658247070313,1.95029625C8.071928247070312,1.88288625,7.928128247070313,1.88288625,7.811328247070312,1.95028625L3.1383382470703127,4.64825625L7.997658247070312,7.45380625L12.859328247070312,4.64690625ZM2.6666582470703126,5.91552625L2.6666582470703126,10.86110625C2.6666582470703126,10.99590625,2.7385782470703126,11.12050625,2.8553282470703127,11.18790625L7.330998247070313,13.77190625L7.330998247070313,8.60847625L2.6666582470703126,5.91552625ZM8.664328247070312,13.77470625L13.144728247070313,11.18790625C13.261428247070313,11.12050625,13.333428247070312,10.99590625,13.333428247070312,10.86110625L13.333428247070312,5.91282625L8.664328247070312,8.60847625L8.664328247070312,13.77470625Z" fill-rule="evenodd" fill="#000000" fill-opacity="1" style="mix-blend-mode:passthrough"/></g></g></svg>