<svg width="16" height="16" viewBox="0 0 16 16" fill="none" xmlns="http://www.w3.org/2000/svg">
<path d="M12.6667 14.0007V12.6673C12.6667 12.1369 12.4558 11.6283 12.0807 11.2533C11.7526 10.9251 11.3223 10.7226 10.8646 10.6771L10.6667 10.6673H5.33333C4.8029 10.6673 4.29434 10.8782 3.91927 11.2533C3.5442 11.6283 3.33333 12.1369 3.33333 12.6673V14.0007C3.33333 14.3688 3.03486 14.6673 2.66667 14.6673C2.29848 14.6673 2 14.3688 2 14.0007V12.6673C2 11.7833 2.35144 10.9357 2.97656 10.3105C3.60168 9.68543 4.44928 9.33398 5.33333 9.33398H10.6667C11.5507 9.33398 12.3983 9.68543 13.0234 10.3105C13.6486 10.9357 14 11.7833 14 12.6673V14.0007C14 14.3688 13.7015 14.6673 13.3333 14.6673C12.9651 14.6673 12.6667 14.3688 12.6667 14.0007ZM10 4.66732C10 3.56275 9.10457 2.66732 8 2.66732C6.89543 2.66732 6 3.56275 6 4.66732C6 5.77189 6.89543 6.66732 8 6.66732C9.10457 6.66732 10 5.77189 10 4.66732ZM11.3333 4.66732C11.3333 6.50827 9.84095 8.00065 8 8.00065C6.15905 8.00065 4.66667 6.50827 4.66667 4.66732C4.66667 2.82637 6.15905 1.33398 8 1.33398C9.84095 1.33398 11.3333 2.82637 11.3333 4.66732Z" fill="#828894"/>
</svg>
