<svg xmlns="http://www.w3.org/2000/svg" xmlns:xlink="http://www.w3.org/1999/xlink" fill="none" version="1.1" width="20" height="20" viewBox="0 0 20 20"><g><path d="M10,0C10,0,20,5.83319,20,5.83319C20,5.83319,20,20,20,20C20,20,0,20,0,20C0,20,0,5.83319,0,5.83319C0,5.83319,10,0,10,0C10,0,10,0,10,0ZM8.94737,17.9123C8.94737,17.9123,11.0526,17.9123,11.0526,17.9123C11.0526,17.9123,11.0526,13.2151,11.0526,13.2151C11.0526,13.2151,8.94737,13.2151,8.94737,13.2151C8.94737,13.2151,8.94737,17.9123,8.94737,17.9123C8.94737,17.9123,8.94737,17.9123,8.94737,17.9123ZM13.1579,17.9123C13.1579,17.9123,13.1579,11.1274,13.1579,11.1274C13.1579,11.1274,6.84211,11.1274,6.84211,11.1274C6.84211,11.1274,6.84211,17.9123,6.84211,17.9123C6.84211,17.9123,2.10526,17.9123,2.10526,17.9123C2.10526,17.9123,2.10526,7.02722,2.10526,7.02722C2.10526,7.02722,10,2.42207,10,2.42207C10,2.42207,17.8947,7.02722,17.8947,7.02722C17.8947,7.02722,17.8947,17.9123,17.8947,17.9123C17.8947,17.9123,13.1579,17.9123,13.1579,17.9123C13.1579,17.9123,13.1579,17.9123,13.1579,17.9123Z" fill-rule="evenodd" fill="#767676" fill-opacity="1"/></g></svg>