<svg width="1rem" height="1rem" viewBox="0 0 16 16" fill="currentColor" xmlns="http://www.w3.org/2000/svg">
<path d="M13.3333 3.33203C13.3333 2.96384 13.0349 2.66536 12.6667 2.66536H3.33333C2.96514 2.66536 2.66667 2.96384 2.66667 3.33203V10.6654L2.66992 10.7337C2.70414 11.0698 2.98822 11.332 3.33333 11.332H4.66667C5.03486 11.332 5.33333 11.6305 5.33333 11.9987V13.2773L7.2181 11.7702C7.57266 11.4865 8.0134 11.3321 8.46745 11.332H12.6667C13.0349 11.332 13.3333 11.0336 13.3333 10.6654V3.33203ZM14.6667 10.6654C14.6667 11.7699 13.7712 12.6654 12.6667 12.6654H8.46745C8.31626 12.6654 8.16953 12.7168 8.05143 12.8112L5.08333 15.1862C4.88322 15.3463 4.60858 15.3773 4.3776 15.2663C4.14674 15.1552 4 14.9216 4 14.6654V12.6654H3.33333C2.26326 12.6654 1.38948 11.825 1.33594 10.7682L1.33333 10.6654V3.33203C1.33333 2.22746 2.22876 1.33203 3.33333 1.33203H12.6667C13.7712 1.33203 14.6667 2.22746 14.6667 3.33203V10.6654Z" />
</svg>
