<svg xmlns="http://www.w3.org/2000/svg" xmlns:xlink="http://www.w3.org/1999/xlink" fill="none" version="1.1" width="20" height="20" viewBox="0 0 20 20"><g><g><path d="M2.9166946411132812,3.333906328125C2.9166946411132812,2.4134283281249997,3.662886641113281,1.667236328125,4.583364641113281,1.667236328125C4.583364641113281,1.667236328125,13.67849464111328,1.667236328125,13.67849464111328,1.667236328125C13.67849464111328,1.667236328125,17.08339464111328,5.072056328125,17.08339464111328,5.072056328125C17.08339464111328,5.072056328125,17.08339464111328,16.667236328125,17.08339464111328,16.667236328125C17.08339464111328,17.587736328125,16.337194641113282,18.333936328125,15.416694641113281,18.333936328125C15.416694641113281,18.333936328125,4.583364641113281,18.333936328125,4.583364641113281,18.333936328125C3.662886641113281,18.333936328125,2.9166946411132812,17.587736328125,2.9166946411132812,16.667236328125C2.9166946411132812,16.667236328125,2.9166946411132812,3.333906328125,2.9166946411132812,3.333906328125C2.9166946411132812,3.333906328125,2.9166946411132812,3.333906328125,2.9166946411132812,3.333906328125ZM12.988194641113282,3.333906328125C12.988194641113282,3.333906328125,4.583364641113281,3.333906328125,4.583364641113281,3.333906328125C4.583364641113281,3.333906328125,4.583364641113281,16.667236328125,4.583364641113281,16.667236328125C4.583364641113281,16.667236328125,15.416694641113281,16.667236328125,15.416694641113281,16.667236328125C15.416694641113281,16.667236328125,15.416694641113281,5.762416328125,15.416694641113281,5.762416328125C15.416694641113281,5.762416328125,12.988194641113282,3.333906328125,12.988194641113282,3.333906328125C12.988194641113282,3.333906328125,12.988194641113282,3.333906328125,12.988194641113282,3.333906328125ZM13.333394641113282,9.583906328125C13.333394641113282,9.583906328125,6.666694641113281,9.583906328125,6.666694641113281,9.583906328125C6.666694641113281,9.583906328125,6.666694641113281,7.917236328125,6.666694641113281,7.917236328125C6.666694641113281,7.917236328125,13.333394641113282,7.917236328125,13.333394641113282,7.917236328125C13.333394641113282,7.917236328125,13.333394641113282,9.583906328125,13.333394641113282,9.583906328125C13.333394641113282,9.583906328125,13.333394641113282,9.583906328125,13.333394641113282,9.583906328125ZM10.833364641113281,12.917236328125C10.833364641113281,12.917236328125,6.666694641113281,12.917236328125,6.666694641113281,12.917236328125C6.666694641113281,12.917236328125,6.666694641113281,11.250566328125,6.666694641113281,11.250566328125C6.666694641113281,11.250566328125,10.833364641113281,11.250566328125,10.833364641113281,11.250566328125C10.833364641113281,11.250566328125,10.833364641113281,12.917236328125,10.833364641113281,12.917236328125C10.833364641113281,12.917236328125,10.833364641113281,12.917236328125,10.833364641113281,12.917236328125Z" fill-rule="evenodd" fill="#767676" fill-opacity="1"/></g></g></svg>