<svg xmlns="http://www.w3.org/2000/svg" xmlns:xlink="http://www.w3.org/1999/xlink" fill="none" version="1.1" width="12" height="12" viewBox="0 0 12 12"><g><g><g><g><path d="M1.7728539374999999,3.395464603125C1.5935999375,3.291728603125,1.3641909375,3.352948063125,1.2604548375,3.532202703125C1.1567188375,3.711456703125,1.2179382975,3.940865703125,1.3971929375,4.044601703125C1.3971929375,4.044601703125,1.7728539374999999,3.395464603125,1.7728539374999999,3.395464603125C1.7728539374999999,3.395464603125,1.7728539374999999,3.395464603125,1.7728539374999999,3.395464603125ZM6.0000209375,6.275030703125C6.0000209375,6.275030703125,5.8121909375,6.599600703125001,5.8121909375,6.599600703125001C5.9284309375,6.666870703124999,6.0717709375,6.6668407031250005,6.1879809375,6.599530703125C6.1879809375,6.599530703125,6.0000209375,6.275030703125,6.0000209375,6.275030703125C6.0000209375,6.275030703125,6.0000209375,6.275030703125,6.0000209375,6.275030703125ZM10.5729709375,4.059525703125C10.7521709375,3.955716703125,10.8133209375,3.726283703125,10.7095209375,3.547071703125C10.6057209375,3.367859103125,10.3762709375,3.306732103125,10.1970709375,3.410540103125C10.1970709375,3.410540103125,10.5729709375,4.059525703125,10.5729709375,4.059525703125C10.5729709375,4.059525703125,10.5729709375,4.059525703125,10.5729709375,4.059525703125ZM1.3971929375,4.044601703125C1.3971929375,4.044601703125,5.8121909375,6.599600703125001,5.8121909375,6.599600703125001C5.8121909375,6.599600703125001,6.1878509375,5.950460703125,6.1878509375,5.950460703125C6.1878509375,5.950460703125,1.7728539374999999,3.395464603125,1.7728539374999999,3.395464603125C1.7728539374999999,3.395464603125,1.3971929375,4.044601703125,1.3971929375,4.044601703125C1.3971929375,4.044601703125,1.3971929375,4.044601703125,1.3971929375,4.044601703125ZM6.1879809375,6.599530703125C6.1879809375,6.599530703125,10.5729709375,4.059525703125,10.5729709375,4.059525703125C10.5729709375,4.059525703125,10.1970709375,3.410540103125,10.1970709375,3.410540103125C10.1970709375,3.410540103125,5.8120609375,5.950540703125,5.8120609375,5.950540703125C5.8120609375,5.950540703125,6.1879809375,6.599530703125,6.1879809375,6.599530703125C6.1879809375,6.599530703125,6.1879809375,6.599530703125,6.1879809375,6.599530703125Z" fill="#5E6772" fill-opacity="1"/></g><g><path d="M5.625,10.80502953125C5.625,11.01212953125,5.792893,11.18002953125,6,11.18002953125C6.207107,11.18002953125,6.375,11.01212953125,6.375,10.80502953125C6.375,10.80502953125,5.625,10.80502953125,5.625,10.80502953125C5.625,10.80502953125,5.625,10.80502953125,5.625,10.80502953125ZM6.375,6.27001953125C6.375,6.06291253125,6.207107,5.89501953125,6,5.89501953125C5.792893,5.89501953125,5.625,6.06291253125,5.625,6.27001953125C5.625,6.27001953125,6.375,6.27001953125,6.375,6.27001953125C6.375,6.27001953125,6.375,6.27001953125,6.375,6.27001953125ZM6.375,10.80502953125C6.375,10.80502953125,6.375,6.27001953125,6.375,6.27001953125C6.375,6.27001953125,5.625,6.27001953125,5.625,6.27001953125C5.625,6.27001953125,5.625,10.80502953125,5.625,10.80502953125C5.625,10.80502953125,6.375,10.80502953125,6.375,10.80502953125C6.375,10.80502953125,6.375,10.80502953125,6.375,10.80502953125Z" fill="#5E6772" fill-opacity="1"/></g><g><path d="M4.965068359375,1.239896578125C4.965068359375,1.239896578125,5.146878359375,1.5678825781249999,5.146878359375,1.5678825781249999C5.146878359375,1.5678825781249999,5.148648359375,1.566892578125,5.148648359375,1.566892578125C5.148648359375,1.566892578125,4.965068359375,1.239896578125,4.965068359375,1.239896578125C4.965068359375,1.239896578125,4.965068359375,1.239896578125,4.965068359375,1.239896578125ZM2.295068359375,2.719897578125C2.295068359375,2.719897578125,2.476718359375,3.047967578125,2.476718359375,3.047967578125C2.476718359375,3.047967578125,2.476878359375,3.047877578125,2.476878359375,3.047877578125C2.476878359375,3.047877578125,2.295068359375,2.719897578125,2.295068359375,2.719897578125C2.295068359375,2.719897578125,2.295068359375,2.719897578125,2.295068359375,2.719897578125ZM2.295068359375,9.274917578125C2.295068359375,9.274917578125,2.477338359375,8.947167578125,2.477338359375,8.947167578125C2.477338359375,8.947167578125,2.476718359375,8.946817578125,2.476718359375,8.946817578125C2.476718359375,8.946817578125,2.295068359375,9.274917578125,2.295068359375,9.274917578125C2.295068359375,9.274917578125,2.295068359375,9.274917578125,2.295068359375,9.274917578125ZM4.965068359375,10.759967578125C4.965068359375,10.759967578125,4.782788359375,11.087667578125,4.782788359375,11.087667578125C4.782788359375,11.087667578125,4.783688359375001,11.088167578125,4.783688359375001,11.088167578125C4.783688359375001,11.088167578125,4.965068359375,10.759967578125,4.965068359375,10.759967578125C4.965068359375,10.759967578125,4.965068359375,10.759967578125,4.965068359375,10.759967578125ZM7.040068359375,10.759967578125C7.040068359375,10.759967578125,7.221468359375,11.088167578125,7.221468359375,11.088167578125C7.221468359375,11.088167578125,7.222318359375,11.087667578125,7.222318359375,11.087667578125C7.222318359375,11.087667578125,7.040068359375,10.759967578125,7.040068359375,10.759967578125C7.040068359375,10.759967578125,7.040068359375,10.759967578125,7.040068359375,10.759967578125ZM9.710068359375,9.274917578125C9.710068359375,9.274917578125,9.528418359375,8.946817578125,9.528418359375,8.946817578125C9.528418359375,8.946817578125,9.527818359375,8.947167578125,9.527818359375,8.947167578125C9.527818359375,8.947167578125,9.710068359375,9.274917578125,9.710068359375,9.274917578125C9.710068359375,9.274917578125,9.710068359375,9.274917578125,9.710068359375,9.274917578125ZM9.710068359375,2.719897578125C9.710068359375,2.719897578125,9.527818359375,3.047617578125,9.527818359375,3.047617578125C9.527818359375,3.047617578125,9.528418359375,3.047967578125,9.528418359375,3.047967578125C9.528418359375,3.047967578125,9.710068359375,2.719897578125,9.710068359375,2.719897578125C9.710068359375,2.719897578125,9.710068359375,2.719897578125,9.710068359375,2.719897578125ZM7.040068359375,1.2348965781249999C7.040068359375,1.2348965781249999,7.222368359375,0.9071675781249999,7.222368359375,0.9071675781249999C7.222368359375,0.9071675781249999,7.220218359375,0.906014578125,7.220218359375,0.906014578125C7.220218359375,0.906014578125,7.040068359375,1.2348965781249999,7.040068359375,1.2348965781249999C7.040068359375,1.2348965781249999,7.040068359375,1.2348965781249999,7.040068359375,1.2348965781249999ZM4.7832683593750005,0.9119135781250001C4.7832683593750005,0.9119135781250001,2.1132683593749997,2.3919175781249997,2.1132683593749997,2.3919175781249997C2.1132683593749997,2.3919175781249997,2.476878359375,3.047877578125,2.476878359375,3.047877578125C2.476878359375,3.047877578125,5.146878359375,1.567877578125,5.146878359375,1.567877578125C5.146878359375,1.567877578125,4.7832683593750005,0.9119135781250001,4.7832683593750005,0.9119135781250001C4.7832683593750005,0.9119135781250001,4.7832683593750005,0.9119135781250001,4.7832683593750005,0.9119135781250001ZM2.1134083593749997,2.391837578125C1.7383933593749998,2.599487578125,1.4193993593749998,2.948517578125,1.195167359375,3.328797578125C0.970956359375,3.709047578125,0.820068359375,4.156867578125,0.820068359375,4.584897578125C0.820068359375,4.584897578125,1.570068359375,4.584897578125,1.570068359375,4.584897578125C1.570068359375,4.322927578125,1.666681359375,4.005747578125,1.841218359375,3.709747578125C2.015738359375,3.413777578125,2.246738359375,3.175307578125,2.476718359375,3.047967578125C2.476718359375,3.047967578125,2.1134083593749997,2.391837578125,2.1134083593749997,2.391837578125C2.1134083593749997,2.391837578125,2.1134083593749997,2.391837578125,2.1134083593749997,2.391837578125ZM0.820068359375,4.584897578125C0.820068359375,4.584897578125,0.820068359375,7.409917578125,0.820068359375,7.409917578125C0.820068359375,7.409917578125,1.570068359375,7.409917578125,1.570068359375,7.409917578125C1.570068359375,7.409917578125,1.570068359375,4.584897578125,1.570068359375,4.584897578125C1.570068359375,4.584897578125,0.820068359375,4.584897578125,0.820068359375,4.584897578125C0.820068359375,4.584897578125,0.820068359375,4.584897578125,0.820068359375,4.584897578125ZM0.820068359375,7.409917578125C0.820068359375,7.837917578125,0.970956359375,8.285767578125,1.195167359375,8.665967578125C1.4193993593749998,9.046267578125,1.7383933593749998,9.395317578125,2.1134083593749997,9.602967578125C2.1134083593749997,9.602967578125,2.476718359375,8.946817578125,2.476718359375,8.946817578125C2.246738359375,8.819467578125,2.015738359375,8.581017578125,1.841218359375,8.285067578125C1.666681359375,7.989067578125,1.570068359375,7.671867578125,1.570068359375,7.409917578125C1.570068359375,7.409917578125,0.820068359375,7.409917578125,0.820068359375,7.409917578125C0.820068359375,7.409917578125,0.820068359375,7.409917578125,0.820068359375,7.409917578125ZM2.1127983593749997,9.602617578125C2.1127983593749997,9.602617578125,4.7827983593750005,11.087667578125,4.7827983593750005,11.087667578125C4.7827983593750005,11.087667578125,5.147338359375,10.432167578125,5.147338359375,10.432167578125C5.147338359375,10.432167578125,2.477338359375,8.947167578125,2.477338359375,8.947167578125C2.477338359375,8.947167578125,2.1127983593749997,9.602617578125,2.1127983593749997,9.602617578125C2.1127983593749997,9.602617578125,2.1127983593749997,9.602617578125,2.1127983593749997,9.602617578125ZM4.783688359375001,11.088167578125C5.138248359375,11.284067578125,5.581118359375,11.371167578125,6.002568359375,11.371167578125C6.424018359375,11.371167578125,6.866868359375,11.284067578125,7.221468359375,11.088167578125C7.221468359375,11.088167578125,6.858668359375,10.431667578125,6.858668359375,10.431667578125C6.643268359375,10.550717578125,6.333618359375,10.621167578125,6.002568359375,10.621167578125C5.671518359375,10.621167578125,5.361878359375,10.550717578125,5.146448359375,10.431667578125C5.146448359375,10.431667578125,4.783688359375001,11.088167578125,4.783688359375001,11.088167578125C4.783688359375001,11.088167578125,4.783688359375001,11.088167578125,4.783688359375001,11.088167578125ZM7.222318359375,11.087667578125C7.222318359375,11.087667578125,9.892318359375,9.602617578125,9.892318359375,9.602617578125C9.892318359375,9.602617578125,9.527818359375,8.947167578125,9.527818359375,8.947167578125C9.527818359375,8.947167578125,6.857818359375,10.432167578125,6.857818359375,10.432167578125C6.857818359375,10.432167578125,7.222318359375,11.087667578125,7.222318359375,11.087667578125C7.222318359375,11.087667578125,7.222318359375,11.087667578125,7.222318359375,11.087667578125ZM9.891718359375,9.602967578125C10.266768359375,9.395317578125,10.585718359375,9.046267578125,10.809968359375,8.666017578125C11.034168359375,8.285767578125,11.185068359375,7.837917578125,11.185068359375,7.409917578125C11.185068359375,7.409917578125,10.435068359375,7.409917578125,10.435068359375,7.409917578125C10.435068359375,7.671867578125,10.338468359375,7.989067578125,10.163918359375,8.285067578125C9.989418359375,8.581017578125,9.758368359375,8.819467578125,9.528418359375,8.946817578125C9.528418359375,8.946817578125,9.891718359375,9.602967578125,9.891718359375,9.602967578125C9.891718359375,9.602967578125,9.891718359375,9.602967578125,9.891718359375,9.602967578125ZM11.185068359375,7.409917578125C11.185068359375,7.409917578125,11.185068359375,4.584897578125,11.185068359375,4.584897578125C11.185068359375,4.584897578125,10.435068359375,4.584897578125,10.435068359375,4.584897578125C10.435068359375,4.584897578125,10.435068359375,7.409917578125,10.435068359375,7.409917578125C10.435068359375,7.409917578125,11.185068359375,7.409917578125,11.185068359375,7.409917578125C11.185068359375,7.409917578125,11.185068359375,7.409917578125,11.185068359375,7.409917578125ZM11.185068359375,4.584897578125C11.185068359375,4.156867578125,11.034168359375,3.709047578125,10.809968359375,3.328797578125C10.585718359375,2.948517578125,10.266768359375,2.599487578125,9.891718359375,2.391837578125C9.891718359375,2.391837578125,9.528418359375,3.047967578125,9.528418359375,3.047967578125C9.758368359375,3.175307578125,9.989418359375,3.413777578125,10.163918359375,3.709747578125C10.338468359375,4.005747578125,10.435068359375,4.322927578125,10.435068359375,4.584897578125C10.435068359375,4.584897578125,11.185068359375,4.584897578125,11.185068359375,4.584897578125C11.185068359375,4.584897578125,11.185068359375,4.584897578125,11.185068359375,4.584897578125ZM9.892318359375,2.392177578125C9.892318359375,2.392177578125,7.222318359375,0.907174578125,7.222318359375,0.907174578125C7.222318359375,0.907174578125,6.857818359375,1.562617578125,6.857818359375,1.562617578125C6.857818359375,1.562617578125,9.527818359375,3.047617578125,9.527818359375,3.047617578125C9.527818359375,3.047617578125,9.892318359375,2.392177578125,9.892318359375,2.392177578125C9.892318359375,2.392177578125,9.892318359375,2.392177578125,9.892318359375,2.392177578125ZM7.220218359375,0.906014578125C6.864068359375,0.710882278125,6.421768359375,0.623570270125,6.000068359375,0.624271770285C5.578548359375,0.624973270125,5.136348359375,0.713688778125,4.781498359375,0.912902578125C4.781498359375,0.912902578125,5.148648359375,1.566892578125,5.148648359375,1.566892578125C5.363798359375,1.446104578125,5.671578359375,1.3748195781249999,6.001318359375,1.374270578125C6.330868359375,1.373722578125,6.641068359375,1.4439105781250001,6.859918359375,1.5637775781249998C6.859918359375,1.5637775781249998,7.220218359375,0.906014578125,7.220218359375,0.906014578125C7.220218359375,0.906014578125,7.220218359375,0.906014578125,7.220218359375,0.906014578125Z" fill="#5E6772" fill-opacity="1"/></g><g transform="matrix(-1,0,0,-1,24,24)" style="opacity:0;"></g></g></g></g></svg>