<svg xmlns="http://www.w3.org/2000/svg" xmlns:xlink="http://www.w3.org/1999/xlink" fill="none" version="1.1" width="13.333399772644043" height="14.866804122924805" viewBox="0 0 13.333399772644043 14.866804122924805"><g><path d="M5.81133,0.229185C6.34067,-0.0763953,6.99273,-0.0763946,7.522,0.229185L12.4781,3.09054C13.0073,3.39613,13.3334,3.96087,13.3334,4.57203L13.3334,10.2947C13.3334,10.9059,13.0073,11.4707,12.4781,11.7762L7.522,14.6376C6.99273,14.9432,6.34067,14.9432,5.81133,14.6376L0.855333,11.7762C0.326053,11.4707,0,10.9059,0,10.2947L0,4.57203C0,3.96086,0.326053,3.39613,0.85534,3.09054L5.81133,0.229185ZM11.526,4.0805L6.85533,1.38389C6.7386,1.31648,6.5948,1.31648,6.478,1.38388L1.80501,4.08185L6.66433,6.8874L11.526,4.0805ZM1.33333,5.34912L1.33333,10.2947C1.33333,10.4295,1.40525,10.5541,1.522,10.6215L5.99767,13.2055L5.99767,8.04207L1.33333,5.34912ZM7.331,13.2083L11.8114,10.6215C11.9281,10.5541,12.0001,10.4295,12.0001,10.2947L12.0001,5.34642L7.331,8.04207L7.331,13.2083Z" fill-rule="evenodd" fill="#000000" fill-opacity="1" style="mix-blend-mode:passthrough"/></g></svg>