<svg xmlns="http://www.w3.org/2000/svg" xmlns:xlink="http://www.w3.org/1999/xlink" fill="none" version="1.1" width="20" height="20" viewBox="0 0 20 20"><g><g><path d="M1.6666641235351562,4.1666259765625C1.6666641235351562,3.4320339765625,2.2828011235351564,2.9166259765625,2.9411741235351565,2.9166259765625C2.9411741235351565,2.9166259765625,8.580534123535156,2.9166259765625,8.580534123535156,2.9166259765625C8.984834123535157,2.9166259765625,9.380794123535157,3.1064029765625,9.626204123535157,3.4517799765625C9.626204123535157,3.4517799765625,10.430164123535157,4.5832959765625,10.430164123535157,4.5832959765625C10.430164123535157,4.5832959765625,16.617664123535157,4.5832959765625,16.617664123535157,4.5832959765625C17.519664123535158,4.5832959765625,18.333364123535155,5.2852459765625,18.333364123535155,6.2499559765625C18.333364123535155,6.2499559765625,18.333364123535155,14.9999259765625,18.333364123535155,14.9999259765625C18.333364123535155,15.4210259765625,18.170164123535155,15.8849259765625,17.947864123535155,16.2398259765625C17.750364123535157,16.5551259765625,17.312564123535154,17.0833259765625,16.617664123535157,17.0833259765625C16.617664123535157,17.0833259765625,3.382354123535156,17.0833259765625,3.382354123535156,17.0833259765625C2.4803221235351565,17.0833259765625,1.6666641235351562,16.3813259765625,1.6666641235351562,15.4166259765625C1.6666641235351562,15.4166259765625,1.6666641235351562,4.1666259765625,1.6666641235351562,4.1666259765625C1.6666641235351562,4.1666259765625,1.6666641235351562,4.1666259765625,1.6666641235351562,4.1666259765625ZM3.333334123535156,6.2499559765625C3.333334123535156,6.2499559765625,3.333334123535156,15.4023259765625,3.333334123535156,15.4023259765625C3.3410941235351563,15.4084259765625,3.3568541235351566,15.4166259765625,3.382354123535156,15.4166259765625C3.382354123535156,15.4166259765625,16.492264123535158,15.4166259765625,16.492264123535158,15.4166259765625C16.504664123535157,15.4011259765625,16.51926412353516,15.3808259765625,16.535264123535157,15.3552259765625C16.576664123535156,15.2892259765625,16.612764123535158,15.2106259765625,16.637364123535157,15.1341259765625C16.649364123535157,15.0968259765625,16.657164123535157,15.0645259765625,16.661764123535157,15.0389259765625C16.666364123535157,15.0136259765625,16.666664123535156,15.0007259765625,16.666664123535156,15.0000259765625C16.666664123535156,15.0000259765625,16.666664123535156,6.2642259765625,16.666664123535156,6.2642259765625C16.658864123535157,6.2581459765625,16.643164123535158,6.2499559765625,16.617664123535157,6.2499559765625C16.617664123535157,6.2499559765625,3.333334123535156,6.2499559765625,3.333334123535156,6.2499559765625C3.333334123535156,6.2499559765625,3.333334123535156,6.2499559765625,3.333334123535156,6.2499559765625Z" fill-rule="evenodd" fill="#4E5969" fill-opacity="1"/></g></g></svg>