<svg xmlns="http://www.w3.org/2000/svg" xmlns:xlink="http://www.w3.org/1999/xlink" fill="none" version="1.1" width="20" height="20" viewBox="0 0 20 20"><defs><clipPath id="master_svg0_1_03582"><rect x="0" y="0" width="20" height="20" rx="0"/></clipPath></defs><g clip-path="url(#master_svg0_1_03582)"><g><path d="M2.916668876464844,2.0833740234375C2.4564318764648436,2.0833740234375,2.0833358764648438,2.4564700234375,2.0833358764648438,2.9167070234375C2.0833358764648438,2.9167070234375,2.0833358764648438,8.3333740234375,2.0833358764648438,8.3333740234375C2.0833358764648438,8.7936240234375,2.4564318764648436,9.1667040234375,2.916668876464844,9.1667040234375C2.916668876464844,9.1667040234375,8.333335876464844,9.1667040234375,8.333335876464844,9.1667040234375C8.793585876464844,9.1667040234375,9.166665876464844,8.7936240234375,9.166665876464844,8.3333740234375C9.166665876464844,8.3333740234375,9.166665876464844,2.9167070234375,9.166665876464844,2.9167070234375C9.166665876464844,2.4564700234375,8.793585876464844,2.0833740234375,8.333335876464844,2.0833740234375C8.333335876464844,2.0833740234375,2.916668876464844,2.0833740234375,2.916668876464844,2.0833740234375C2.916668876464844,2.0833740234375,2.916668876464844,2.0833740234375,2.916668876464844,2.0833740234375ZM3.7500058764648436,7.5000440234375C3.7500058764648436,7.5000440234375,3.7500058764648436,3.7500440234375,3.7500058764648436,3.7500440234375C3.7500058764648436,3.7500440234375,7.500005876464844,3.7500440234375,7.500005876464844,3.7500440234375C7.500005876464844,3.7500440234375,7.500005876464844,7.5000440234375,7.500005876464844,7.5000440234375C7.500005876464844,7.5000440234375,3.7500058764648436,7.5000440234375,3.7500058764648436,7.5000440234375C3.7500058764648436,7.5000440234375,3.7500058764648436,7.5000440234375,3.7500058764648436,7.5000440234375ZM11.666665876464844,2.0833740234375C11.206415876464844,2.0833740234375,10.833335876464844,2.4564700234375,10.833335876464844,2.9167070234375C10.833335876464844,2.9167070234375,10.833335876464844,8.3333740234375,10.833335876464844,8.3333740234375C10.833335876464844,8.7936240234375,11.206415876464844,9.1667040234375,11.666665876464844,9.1667040234375C11.666665876464844,9.1667040234375,17.083335876464844,9.1667040234375,17.083335876464844,9.1667040234375C17.543535876464844,9.1667040234375,17.916635876464845,8.7936240234375,17.916635876464845,8.3333740234375C17.916635876464845,8.3333740234375,17.916635876464845,2.9167070234375,17.916635876464845,2.9167070234375C17.916635876464845,2.4564700234375,17.543535876464844,2.0833740234375,17.083335876464844,2.0833740234375C17.083335876464844,2.0833740234375,11.666665876464844,2.0833740234375,11.666665876464844,2.0833740234375C11.666665876464844,2.0833740234375,11.666665876464844,2.0833740234375,11.666665876464844,2.0833740234375ZM12.500035876464844,7.5000440234375C12.500035876464844,7.5000440234375,12.500035876464844,3.7500440234375,12.500035876464844,3.7500440234375C12.500035876464844,3.7500440234375,16.250035876464842,3.7500440234375,16.250035876464842,3.7500440234375C16.250035876464842,3.7500440234375,16.250035876464842,7.5000440234375,16.250035876464842,7.5000440234375C16.250035876464842,7.5000440234375,12.500035876464844,7.5000440234375,12.500035876464844,7.5000440234375C12.500035876464844,7.5000440234375,12.500035876464844,7.5000440234375,12.500035876464844,7.5000440234375ZM2.0833358764648438,11.6667040234375C2.0833358764648438,11.2064540234375,2.4564318764648436,10.8333740234375,2.916668876464844,10.8333740234375C2.916668876464844,10.8333740234375,8.333335876464844,10.8333740234375,8.333335876464844,10.8333740234375C8.793585876464844,10.8333740234375,9.166665876464844,11.2064540234375,9.166665876464844,11.6667040234375C9.166665876464844,11.6667040234375,9.166665876464844,17.0833740234375,9.166665876464844,17.0833740234375C9.166665876464844,17.5435740234375,8.793585876464844,17.9166740234375,8.333335876464844,17.9166740234375C8.333335876464844,17.9166740234375,2.916668876464844,17.9166740234375,2.916668876464844,17.9166740234375C2.4564318764648436,17.9166740234375,2.0833358764648438,17.5435740234375,2.0833358764648438,17.0833740234375C2.0833358764648438,17.0833740234375,2.0833358764648438,11.6667040234375,2.0833358764648438,11.6667040234375C2.0833358764648438,11.6667040234375,2.0833358764648438,11.6667040234375,2.0833358764648438,11.6667040234375ZM3.7500058764648436,12.5000740234375C3.7500058764648436,12.5000740234375,3.7500058764648436,16.2500740234375,3.7500058764648436,16.2500740234375C3.7500058764648436,16.2500740234375,7.500005876464844,16.2500740234375,7.500005876464844,16.2500740234375C7.500005876464844,16.2500740234375,7.500005876464844,12.5000740234375,7.500005876464844,12.5000740234375C7.500005876464844,12.5000740234375,3.7500058764648436,12.5000740234375,3.7500058764648436,12.5000740234375C3.7500058764648436,12.5000740234375,3.7500058764648436,12.5000740234375,3.7500058764648436,12.5000740234375ZM11.666665876464844,10.8333740234375C11.206415876464844,10.8333740234375,10.833335876464844,11.2064540234375,10.833335876464844,11.6667040234375C10.833335876464844,11.6667040234375,10.833335876464844,17.0833740234375,10.833335876464844,17.0833740234375C10.833335876464844,17.5435740234375,11.206415876464844,17.9166740234375,11.666665876464844,17.9166740234375C11.666665876464844,17.9166740234375,17.083335876464844,17.9166740234375,17.083335876464844,17.9166740234375C17.543535876464844,17.9166740234375,17.916635876464845,17.5435740234375,17.916635876464845,17.0833740234375C17.916635876464845,17.0833740234375,17.916635876464845,11.6667040234375,17.916635876464845,11.6667040234375C17.916635876464845,11.2064540234375,17.543535876464844,10.8333740234375,17.083335876464844,10.8333740234375C17.083335876464844,10.8333740234375,11.666665876464844,10.8333740234375,11.666665876464844,10.8333740234375C11.666665876464844,10.8333740234375,11.666665876464844,10.8333740234375,11.666665876464844,10.8333740234375ZM12.500035876464844,16.2500740234375C12.500035876464844,16.2500740234375,12.500035876464844,12.5000740234375,12.500035876464844,12.5000740234375C12.500035876464844,12.5000740234375,16.250035876464842,12.5000740234375,16.250035876464842,12.5000740234375C16.250035876464842,12.5000740234375,16.250035876464842,16.2500740234375,16.250035876464842,16.2500740234375C16.250035876464842,16.2500740234375,12.500035876464844,16.2500740234375,12.500035876464844,16.2500740234375C12.500035876464844,16.2500740234375,12.500035876464844,16.2500740234375,12.500035876464844,16.2500740234375Z" fill-rule="evenodd" fill="#4E5969" fill-opacity="1"/></g></g></svg>