<svg width="1rem" height="1rem" viewBox="0 0 16 16" fill="currentColor">
<path d="M7.99775 0.666016C8.24748 0.666096 8.476 0.805898 8.5902 1.02799L10.5778 4.89323L15.0349 5.51888C15.2891 5.55464 15.5004 5.73368 15.5778 5.97852C15.6551 6.22326 15.5849 6.49063 15.3975 6.66602L12.1892 9.66471L12.9457 13.8952C12.9901 14.1439 12.8898 14.3967 12.6872 14.5475C12.4846 14.6983 12.2141 14.7219 11.9886 14.6081L7.9971 12.5924L4.00622 14.6081C3.78076 14.7218 3.5102 14.6983 3.30765 14.5475C3.10503 14.3967 3.00541 14.1439 3.04984 13.8952L3.80504 9.66471L0.598013 6.66602C0.410426 6.49061 0.340276 6.2234 0.417674 5.97852C0.495102 5.73362 0.706286 5.55457 0.960643 5.51888L5.41637 4.89323L7.40465 1.02799L7.45283 0.948568C7.57658 0.773023 7.77918 0.666016 7.99775 0.666016ZM6.44437 5.81055C6.34529 6.00324 6.15894 6.13589 5.94437 6.16602L2.5277 6.64518L4.98083 8.9388C5.14582 9.09308 5.22099 9.3206 5.18135 9.54297L4.59671 12.8151L7.69697 11.2507C7.88585 11.1553 8.10898 11.1554 8.29788 11.2507L11.3981 12.8158L10.8135 9.54297C10.7739 9.32062 10.8497 9.09307 11.0147 8.9388L13.4672 6.64518L10.0505 6.16602C9.83601 6.13583 9.64953 6.00318 9.55049 5.81055L7.9971 2.78971L6.44437 5.81055Z" />
</svg>
