<svg xmlns="http://www.w3.org/2000/svg" xmlns:xlink="http://www.w3.org/1999/xlink" fill="none" version="1.1" width="14" height="14" viewBox="0 0 14 14"><g><path d="M7,1.47368C5.77916,1.47368,4.78947,2.46337,4.78947,3.68421C4.78947,4.37161,5.10234,4.98529,5.59624,5.39191C5.59624,5.39191,6.03256,5.75113,6.03256,5.75113C6.03256,5.75113,4.4601,9.21053,4.4601,9.21053C4.4601,9.21053,9.53989,9.21053,9.53989,9.21053C9.53989,9.21053,7.96744,5.75113,7.96744,5.75113C7.96744,5.75113,8.40376,5.39191,8.40376,5.39191C8.89766,4.98529,9.21053,4.37161,9.21053,3.68421C9.21053,2.46337,8.22084,1.47368,7,1.47368C7,1.47368,7,1.47368,7,1.47368ZM1.47368,10.6842C1.47368,10.6842,1.47368,12.5263,1.47368,12.5263C1.47368,12.5263,12.5263,12.5263,12.5263,12.5263C12.5263,12.5263,12.5263,10.6842,12.5263,10.6842C12.5263,10.6842,1.47368,10.6842,1.47368,10.6842C1.47368,10.6842,1.47368,10.6842,1.47368,10.6842ZM2.84133,9.21053C2.84133,9.21053,1.10526,9.21053,1.10526,9.21053C0.494845,9.21053,0,9.70535,0,10.3158C0,10.3158,0,12.8947,0,12.8947C0,13.5052,0.494845,14,1.10526,14C1.10526,14,12.8947,14,12.8947,14C13.5052,14,14,13.5052,14,12.8947C14,12.8947,14,10.3158,14,10.3158C14,9.70535,13.5051,9.21053,12.8947,9.21053C12.8947,9.21053,11.1587,9.21053,11.1587,9.21053C11.1587,9.21053,9.75737,6.12761,9.75737,6.12761C10.3334,5.47787,10.6842,4.6218,10.6842,3.68421C10.6842,1.64948,9.03472,0,7,0C4.96528,0,3.31579,1.64948,3.31579,3.68421C3.31579,4.6218,3.66661,5.47787,4.24263,6.12761C4.24263,6.12761,2.84133,9.21053,2.84133,9.21053C2.84133,9.21053,2.84133,9.21053,2.84133,9.21053Z" fill-rule="evenodd" fill="#4E5969" fill-opacity="1"/></g></svg>