<svg xmlns="http://www.w3.org/2000/svg" xmlns:xlink="http://www.w3.org/1999/xlink" fill="none" version="1.1" width="19.00507354736328" height="17.345748901367188" viewBox="0 0 19.00507354736328 17.345748901367188"><g><path d="M7.68,1.82773C7.68,0.259085,9.52896,-0.578035,10.7078,0.456845L18.385,7.20181C19.2036,7.92108,19.2131,9.19304,18.4051,9.92437L10.728,16.8709C9.55488,17.9317,7.68,17.0994,7.68,15.5173L7.68,12.4885C6.6528,12.4386,5.8128,12.4856,4.97664,12.6988C3.936,12.9637,2.83392,13.5013,1.36416,14.5458C1.1006,14.7329,0.754656,14.7573,0.467485,14.6089C0.180362,14.4607,0,14.1645,0,13.8412C0,10.8661,0.61536,8.55829,2.09856,7.00501C3.432,5.60821,5.32896,4.96116,7.68,4.83925L7.68,1.82773ZM9.42144,1.77493C9.41568,1.78261,9.408,1.79605,9.408,1.82773L9.408,5.68117C9.408,6.15834,9.02117,6.54517,8.544,6.54517C6.01632,6.54517,4.37664,7.12117,3.34944,8.19829C2.53344,9.05268,1.99776,10.3314,1.80672,12.1957C2.77248,11.6293,3.65664,11.2511,4.55136,11.0245C5.86944,10.6885,7.14144,10.6981,8.616,10.82C9.06368,10.8574,9.408,11.2318,9.408,11.6812L9.408,15.5183C9.408,15.55,9.41568,15.5634,9.42144,15.5711C9.43248,15.5863,9.4474,15.5982,9.46464,15.6056C9.48198,15.6138,9.50123,15.6172,9.52032,15.6152C9.52992,15.6143,9.54528,15.6104,9.56832,15.5893L17.2454,8.64276C17.2881,8.60461,17.2881,8.53788,17.2454,8.49972L9.56736,1.75572C9.54432,1.7346,9.52896,1.73172,9.51936,1.7298C9.50059,1.72801,9.48168,1.73133,9.46464,1.7394C9.44728,1.74711,9.43235,1.75938,9.42144,1.77493Z" fill="#6B6D6D" fill-opacity="1" style="mix-blend-mode:passthrough"/></g></svg>