<svg xmlns="http://www.w3.org/2000/svg" xmlns:xlink="http://www.w3.org/1999/xlink" fill="none" version="1.1" width="17" height="18" viewBox="0 0 17 18"><g><path d="M8.5,0C8.5,0,17,5.24987,17,5.24987C17,5.24987,17,18,17,18C17,18,0,18,0,18C0,18,0,5.24987,0,5.24987C0,5.24987,8.5,0,8.5,0C8.5,0,8.5,0,8.5,0ZM7.60526,16.1211C7.60526,16.1211,9.39474,16.1211,9.39474,16.1211C9.39474,16.1211,9.39474,11.8936,9.39474,11.8936C9.39474,11.8936,7.60526,11.8936,7.60526,11.8936C7.60526,11.8936,7.60526,16.1211,7.60526,16.1211C7.60526,16.1211,7.60526,16.1211,7.60526,16.1211ZM11.1842,16.1211C11.1842,16.1211,11.1842,10.0147,11.1842,10.0147C11.1842,10.0147,5.81579,10.0147,5.81579,10.0147C5.81579,10.0147,5.81579,16.1211,5.81579,16.1211C5.81579,16.1211,1.78947,16.1211,1.78947,16.1211C1.78947,16.1211,1.78947,6.3245,1.78947,6.3245C1.78947,6.3245,8.5,2.17986,8.5,2.17986C8.5,2.17986,15.2105,6.3245,15.2105,6.3245C15.2105,6.3245,15.2105,16.1211,15.2105,16.1211C15.2105,16.1211,11.1842,16.1211,11.1842,16.1211C11.1842,16.1211,11.1842,16.1211,11.1842,16.1211Z" fill-rule="evenodd" fill="#767676" fill-opacity="1"/></g></svg>