<svg xmlns="http://www.w3.org/2000/svg" xmlns:xlink="http://www.w3.org/1999/xlink" fill="none" version="1.1" width="20" height="20" viewBox="0 0 20 20"><defs><clipPath id="master_svg0_153_6278"><rect x="0" y="0" width="20" height="20" rx="0"/></clipPath><clipPath id="master_svg1_153_6374"><rect x="8" y="7" width="12" height="12" rx="0"/></clipPath></defs><g clip-path="url(#master_svg0_153_6278)"><g><path d="M6.666778564453125,6.017236328125C6.666778564453125,6.017236328125,5.944556564453125,6.017236328125,5.944556564453125,6.017236328125C5.944556564453125,6.017236328125,5.944556564453125,7.317236328125,5.944556564453125,7.317236328125C5.944556564453125,7.317236328125,6.666778564453125,7.317236328125,6.666778564453125,7.317236328125C6.666778564453125,7.317236328125,6.666778564453125,6.017236328125,6.666778564453125,6.017236328125C6.666778564453125,6.017236328125,6.666778564453125,6.017236328125,6.666778564453125,6.017236328125ZM13.333448564453125,7.317236328125C13.333448564453125,7.317236328125,14.055668564453125,7.317236328125,14.055668564453125,7.317236328125C14.055668564453125,7.317236328125,14.055668564453125,6.017236328125,14.055668564453125,6.017236328125C14.055668564453125,6.017236328125,13.333448564453125,6.017236328125,13.333448564453125,6.017236328125C13.333448564453125,6.017236328125,13.333448564453125,7.317236328125,13.333448564453125,7.317236328125C13.333448564453125,7.317236328125,13.333448564453125,7.317236328125,13.333448564453125,7.317236328125ZM6.666778564453125,7.317236328125C6.666778564453125,7.317236328125,13.333448564453125,7.317236328125,13.333448564453125,7.317236328125C13.333448564453125,7.317236328125,13.333448564453125,6.017236328125,13.333448564453125,6.017236328125C13.333448564453125,6.017236328125,6.666778564453125,6.017236328125,6.666778564453125,6.017236328125C6.666778564453125,6.017236328125,6.666778564453125,7.317236328125,6.666778564453125,7.317236328125C6.666778564453125,7.317236328125,6.666778564453125,7.317236328125,6.666778564453125,7.317236328125Z" fill="#4E5969" fill-opacity="1"/></g><g><path d="M6.666778564453125,9.35C6.666778564453125,9.35,5.944556564453125,9.35,5.944556564453125,9.35C5.944556564453125,9.35,5.944556564453125,10.65,5.944556564453125,10.65C5.944556564453125,10.65,6.666778564453125,10.65,6.666778564453125,10.65C6.666778564453125,10.65,6.666778564453125,9.35,6.666778564453125,9.35C6.666778564453125,9.35,6.666778564453125,9.35,6.666778564453125,9.35ZM10.000108564453125,10.65C10.000108564453125,10.65,10.722338564453125,10.65,10.722338564453125,10.65C10.722338564453125,10.65,10.722338564453125,9.35,10.722338564453125,9.35C10.722338564453125,9.35,10.000108564453125,9.35,10.000108564453125,9.35C10.000108564453125,9.35,10.000108564453125,10.65,10.000108564453125,10.65C10.000108564453125,10.65,10.000108564453125,10.65,10.000108564453125,10.65ZM6.666778564453125,10.65C6.666778564453125,10.65,10.000108564453125,10.65,10.000108564453125,10.65C10.000108564453125,10.65,10.000108564453125,9.35,10.000108564453125,9.35C10.000108564453125,9.35,6.666778564453125,9.35,6.666778564453125,9.35C6.666778564453125,9.35,6.666778564453125,10.65,6.666778564453125,10.65C6.666778564453125,10.65,6.666778564453125,10.65,6.666778564453125,10.65Z" fill="#4E5969" fill-opacity="1"/></g><g><path d="M3.3332977294921875,14.1667C3.3332977294921875,14.1667,2.7013537294921877,14.1667,2.7013537294921877,14.1667C2.7013537294921877,14.4858,2.9842847294921873,14.7444,3.3332977294921875,14.7444C3.3332977294921875,14.7444,3.3332977294921875,14.1667,3.3332977294921875,14.1667C3.3332977294921875,14.1667,3.3332977294921875,14.1667,3.3332977294921875,14.1667ZM3.3332977294921875,2.5C3.3332977294921875,2.5,3.3332977294921875,1.922222,3.3332977294921875,1.922222C2.9842847294921873,1.922222,2.7013537294921877,2.180902,2.7013537294921877,2.5C2.7013537294921877,2.5,3.3332977294921875,2.5,3.3332977294921875,2.5C3.3332977294921875,2.5,3.3332977294921875,2.5,3.3332977294921875,2.5ZM14.999997729492188,2.5C14.999997729492188,2.5,15.631897729492188,2.5,15.631897729492188,2.5C15.631897729492188,2.180902,15.348997729492188,1.922222,14.999997729492188,1.922222C14.999997729492188,1.922222,14.999997729492188,2.5,14.999997729492188,2.5C14.999997729492188,2.5,14.999997729492188,2.5,14.999997729492188,2.5ZM9.166627729492188,13.5889C9.166627729492188,13.5889,3.3332977294921875,13.5889,3.3332977294921875,13.5889C3.3332977294921875,13.5889,3.3332977294921875,14.7444,3.3332977294921875,14.7444C3.3332977294921875,14.7444,9.166627729492188,14.7444,9.166627729492188,14.7444C9.166627729492188,14.7444,9.166627729492188,13.5889,9.166627729492188,13.5889C9.166627729492188,13.5889,9.166627729492188,13.5889,9.166627729492188,13.5889ZM3.9652417294921873,14.1667C3.9652417294921873,14.1667,3.9652417294921873,2.5,3.9652417294921873,2.5C3.9652417294921873,2.5,2.7013537294921877,2.5,2.7013537294921877,2.5C2.7013537294921877,2.5,2.7013537294921877,14.1667,2.7013537294921877,14.1667C2.7013537294921877,14.1667,3.9652417294921873,14.1667,3.9652417294921873,14.1667C3.9652417294921873,14.1667,3.9652417294921873,14.1667,3.9652417294921873,14.1667ZM3.3332977294921875,3.077778C3.3332977294921875,3.077778,14.999997729492188,3.077778,14.999997729492188,3.077778C14.999997729492188,3.077778,14.999997729492188,1.922222,14.999997729492188,1.922222C14.999997729492188,1.922222,3.3332977294921875,1.922222,3.3332977294921875,1.922222C3.3332977294921875,1.922222,3.3332977294921875,3.077778,3.3332977294921875,3.077778C3.3332977294921875,3.077778,3.3332977294921875,3.077778,3.3332977294921875,3.077778ZM14.367997729492188,2.5C14.367997729492188,2.5,14.367997729492188,8.16667,14.367997729492188,8.16667C14.367997729492188,8.16667,15.631897729492188,8.16667,15.631897729492188,8.16667C15.631897729492188,8.16667,15.631897729492188,2.5,15.631897729492188,2.5C15.631897729492188,2.5,14.367997729492188,2.5,14.367997729492188,2.5C14.367997729492188,2.5,14.367997729492188,2.5,14.367997729492188,2.5Z" fill="#4E5969" fill-opacity="1"/></g><g clip-path="url(#master_svg1_153_6374)"><g><path d="M14,9C11.790849999999999,9,10,10.790849999999999,10,13C10,15.209150000000001,11.790849999999999,17,14,17C16.20915,17,18,15.209150000000001,18,13C18,10.790849999999999,16.20915,9,14,9C14,9,14,9,14,9ZM9,13C9,10.23857,11.23857,8,14,8C16.76143,8,19,10.23857,19,13C19,15.76143,16.76143,18,14,18C11.23857,18,9,15.76143,9,13C9,13,9,13,9,13ZM13.5,10.5C13.5,10.5,14.5,10.5,14.5,10.5C14.5,10.5,14.5,12.5,14.5,12.5C14.5,12.5,16.375,12.5,16.375,12.5C16.375,12.5,16.375,13.5,16.375,13.5C16.375,13.5,13.5,13.5,13.5,13.5C13.5,13.5,13.5,10.5,13.5,10.5C13.5,10.5,13.5,10.5,13.5,10.5Z" fill-rule="evenodd" fill="#767676" fill-opacity="1"/></g></g></g></svg>