<svg xmlns="http://www.w3.org/2000/svg" xmlns:xlink="http://www.w3.org/1999/xlink" fill="none" version="1.1" width="15" height="15" viewBox="0 0 15 15"><defs><clipPath id="master_svg0_153_39914"><rect x="0" y="0" width="15" height="15" rx="0"/></clipPath></defs><g clip-path="url(#master_svg0_153_39914)"><rect x="0" y="0" width="15" height="15" rx="0" fill="#FFFFFF" fill-opacity="1"/><g><g><g><path d="M6.249995,2.578125C5.410405,2.578125,4.703685,3.1546149999999997,4.507385,3.934355C4.435525,4.219775,4.193474999999999,4.430255,3.900835,4.461774999999999C3.1574150000000003,4.541855,2.578125,5.172495,2.578125,5.937505C2.578125,6.352965,2.7479050000000003,6.727545,3.023705,6.997815C3.158645,7.130055,3.234695,7.311055,3.234695,7.500005C3.234695,7.688945,3.158645,7.869945,3.023705,8.002195C2.7479050000000003,8.272455,2.578125,8.647045,2.578125,9.062495C2.578125,9.681985,2.957795,10.214435,3.499835,10.436705C3.699075,10.518395,3.849905,10.686905,3.909095,10.893965C4.161535000000001,11.776775,4.975095,12.421975,5.937505,12.421975C6.244305,12.421975,6.534815,12.356775,6.796875,12.239675L6.796875,10.625005C6.796875,9.977765,6.272235,9.453125,5.625005,9.453125C5.236675,9.453125,4.921875,9.138325,4.921875,8.750005C4.921875,8.361675,5.236675,8.046875,5.625005,8.046875C6.046985,8.046875,6.445285,8.148245,6.796875,8.327975L6.796875,2.662655C6.624845,2.607785,6.441245,2.578125,6.249995,2.578125ZM8.203125,2.662655L8.203125,4.374995C8.203125,5.022215,8.727775000000001,5.546875,9.375005,5.546875C9.763335,5.546875,10.078125,5.861675,10.078125,6.249995C10.078125,6.638325,9.763335,6.953125,9.375005,6.953125C8.953015,6.953125,8.554715,6.851745,8.203125,6.672025L8.203125,12.239675C8.465215,12.356775,8.755704999999999,12.421975,9.062495,12.421975C10.024895,12.421975,10.838465,11.776775,11.090895,10.893965C11.150145,10.686905,11.300875,10.518395,11.500175,10.436705C12.042175,10.214435,12.421975,9.681985,12.421975,9.062495C12.421975,8.647025,12.252075,8.272455,11.976275,8.002195C11.841275,7.869945,11.765375,7.688945,11.765375,7.500005C11.765375,7.311055,11.841275,7.130055,11.976275,6.997815C12.252075,6.727545,12.421975,6.352975,12.421975,5.937505C12.421975,5.172495,11.842575,4.541855,11.099145,4.461774999999999C10.806535,4.430255,10.564525,4.219785,10.492665,3.934375C10.296325,3.1546250000000002,9.589575,2.578125,8.750005,2.578125C8.558755,2.578125,8.375155,2.607785,8.203125,2.662655ZM7.500015,13.462475C7.028905,13.696575,6.497915,13.828075,5.937505,13.828075C4.446384999999999,13.828075,3.173555,12.900275,2.662035,11.591575C1.774232,11.099035,1.171875,10.151795,1.171875,9.062495C1.171875,8.487105,1.3404639999999999,7.950455,1.630296,7.500005C1.3404639999999999,7.049555,1.171875,6.512895,1.171875,5.937505C1.171875,4.608785,2.067911,3.490095,3.288995,3.151685C3.769585,1.989804,4.913575,1.171875,6.249995,1.171875C6.692605,1.171875,7.115405,1.2620144,7.500005,1.425139C7.884605,1.2620144,8.307395,1.171875,8.750005,1.171875C10.086415,1.171875,11.230375,1.989814,11.711075,3.151685C12.932075,3.490095,13.828075,4.608785,13.828075,5.937505C13.828075,6.512885,13.659575,7.049555,13.369675,7.500005C13.659575,7.950465,13.828075,8.487115,13.828075,9.062495C13.828075,10.151805,13.225675,11.099035,12.337975,11.591575C11.826475,12.900275,10.553605,13.828075,9.062495,13.828075C8.502065,13.828075,7.971105,13.696475,7.500015,13.462475Z" fill-rule="evenodd" fill="#5E6772" fill-opacity="1" style="mix-blend-mode:passthrough"/></g></g></g></g></svg>