<svg xmlns="http://www.w3.org/2000/svg" xmlns:xlink="http://www.w3.org/1999/xlink" fill="none" version="1.1" width="14" height="14" viewBox="0 0 14 14"><g><g><path d="M6.088332133789063,7.072224745788574L3.6887501337890627,5.1426247457885745C3.4101496337890627,4.918642745788574,3.3912931337890626,4.538869745788574,3.6466381337890623,4.294478745788574C3.9019831337890625,4.050088045788574,4.334786133789063,4.033672745788574,4.613212133789062,4.257818745788574L6.886072133789062,6.0862247457885745L9.158922133789062,4.258219745788574C9.435972133789061,4.026672545788574,9.875622133789062,4.039652745788574,10.134312133789063,4.287016745788574C10.392992133789061,4.534381745788574,10.370042133789063,4.919860745788574,10.083382133789062,5.142224745788575L7.455882133789062,7.256224745788574L7.455882133789062,10.200234745788574C7.455882133789062,10.531604745788574,7.149742133789062,10.800234745788575,6.772102133789062,10.800234745788575C6.394472133789062,10.800234745788575,6.088332133789063,10.531604745788574,6.088332133789063,10.200234745788574L6.088332133789063,7.072224745788574Z" fill="#383743" fill-opacity="1" style="mix-blend-mode:passthrough"/></g><g><path d="M7,12.7072L12.3662,9.9888C12.6936,9.82044,13.1145,9.9181,13.3042,10.2064C13.4939,10.4947,13.3798,10.8635,13.05,11.028L7.34189,13.9196C7.13033,14.0268,6.86968,14.0268,6.65811,13.9196L0.341886,10.7196C0.130326,10.6124,1.82587e-7,10.4144,0,10.2L0,3.79999C0.00000639054,3.58564,0.130332,3.38757,0.341886,3.28039L6.65811,0.080385C6.86967,-0.0267951,7.13033,-0.0267951,7.34189,0.080385L13.6581,3.28039C13.8697,3.38758,14,3.58565,14,3.79999L14,7.778C14,8.10937,13.6939,8.378,13.3162,8.378C12.9386,8.378,12.6325,8.10937,12.6325,7.778L12.6325,4.14639L7,1.29279L1.36754,4.14639L1.36754,9.85361L7,12.7072Z" fill="#383743" fill-opacity="1" style="mix-blend-mode:passthrough"/></g></g></svg>