<svg xmlns="http://www.w3.org/2000/svg" xmlns:xlink="http://www.w3.org/1999/xlink" fill="none" version="1.1" width="16" height="16" viewBox="0 0 16 16"><defs><clipPath id="master_svg0_153_6765"><rect x="0" y="0" width="16" height="16" rx="0"/></clipPath></defs><g clip-path="url(#master_svg0_153_6765)"><g><path d="M5.623186328125,2.065690373069763C5.743416328125,1.6328693730697632,6.137486328125,1.3333333730697632,6.586686328125,1.3333333730697632C6.586686328125,1.3333333730697632,9.413316328125,1.3333333730697632,9.413316328125,1.3333333730697632C9.862516328125,1.3333333730697632,10.256586328125,1.6328683730697633,10.376816328125,2.065690373069763C10.376816328125,2.065690373069763,10.717716328125,3.292853373069763,10.717716328125,3.292853373069763C10.717716328125,3.292853373069763,11.950986328125,2.974453373069763,11.950986328125,2.974453373069763C12.385986328125,2.8621633730697633,12.842386328125,3.053683373069763,13.066986328125,3.442713373069763C13.066986328125,3.442713373069763,14.480286328125,5.890633373069763,14.480286328125,5.890633373069763C14.704886328125,6.279663373069763,14.642486328125,6.770703373069763,14.327786328125,7.091233373069763C14.327786328125,7.091233373069763,13.435486328125,8.000003373069763,13.435486328125,8.000003373069763C13.435486328125,8.000003373069763,14.327786328125,8.908763373069764,14.327786328125,8.908763373069764C14.642486328125,9.229303373069763,14.704886328125,9.720363373069763,14.480286328125,10.109363373069764C14.480286328125,10.109363373069764,13.066986328125,12.557333373069763,13.066986328125,12.557333373069763C12.842386328125,12.946333373069763,12.385986328125,13.137833373069764,11.950986328125,13.025533373069763C11.950986328125,13.025533373069763,10.717686328125,12.707133373069762,10.717686328125,12.707133373069762C10.717686328125,12.707133373069762,10.376816328125,13.934333373069764,10.376816328125,13.934333373069764C10.256586328125,14.367133373069763,9.862516328125,14.666633373069763,9.413316328125,14.666633373069763C9.413316328125,14.666633373069763,6.586686328125,14.666633373069763,6.586686328125,14.666633373069763C6.137486328125,14.666633373069763,5.743416328125,14.367133373069763,5.623186328125,13.934333373069764C5.623186328125,13.934333373069764,5.282316328125,12.707233373069764,5.282316328125,12.707233373069764C5.282316328125,12.707233373069764,4.049286328125,13.025533373069763,4.049286328125,13.025533373069763C3.614336328125,13.137833373069764,3.157886328125,12.946333373069763,2.933286328125,12.557333373069763C2.933286328125,12.557333373069763,1.519982328125,10.109363373069764,1.519982328125,10.109363373069764C1.295378728125,9.720363373069763,1.357742528125,9.229303373069763,1.672462328125,8.908763373069764C1.672462328125,8.908763373069764,2.564756328125,8.000003373069763,2.564756328125,8.000003373069763C2.564756328125,8.000003373069763,1.672463328125,7.091233373069763,1.672463328125,7.091233373069763C1.357745128125,6.770703373069763,1.295379028125,6.279663373069763,1.519983328125,5.890633373069763C1.519983328125,5.890633373069763,2.933286328125,3.442713373069763,2.933286328125,3.442713373069763C3.157896328125,3.053683373069763,3.614336328125,2.8621633730697633,4.049286328125,2.974453373069763C4.049286328125,2.974453373069763,5.282316328125,3.292783373069763,5.282316328125,3.292783373069763C5.282316328125,3.292783373069763,5.623186328125,2.065690373069763,5.623186328125,2.065690373069763C5.623186328125,2.065690373069763,5.623186328125,2.065690373069763,5.623186328125,2.065690373069763ZM5.194716328125001,12.391833373069764C5.194716328125001,12.391833373069764,5.194856328125001,12.392333373069762,5.194856328125001,12.392333373069762C5.194856328125001,12.392333373069762,5.194716328125001,12.391833373069764,5.194716328125001,12.391833373069764ZM6.840056328125,2.6666633730697633C6.840056328125,2.6666633730697633,6.479416328125,3.9649933730697633,6.479416328125,3.9649933730697633C6.333516328125,4.490263373069763,5.793756328125,4.801863373069763,5.265916328125,4.665603373069763C5.265916328125,4.665603373069763,3.961306328125,4.328793373069763,3.961306328125,4.328793373069763C3.961306328125,4.328793373069763,2.801366328125,6.337863373069763,2.801366328125,6.337863373069763C2.801366328125,6.337863373069763,3.745446328125,7.299403373069763,3.745446328125,7.299403373069763C4.1273863281250005,7.688403373069764,4.1273863281250005,8.311633373069764,3.745446328125,8.700603373069765C3.745446328125,8.700603373069765,2.801366328125,9.662133373069762,2.801366328125,9.662133373069762C2.801366328125,9.662133373069762,3.961306328125,11.671233373069763,3.961306328125,11.671233373069763C3.961306328125,11.671233373069763,5.265916328125,11.334433373069762,5.265916328125,11.334433373069762C5.793786328125,11.198133373069764,6.333516328125,11.509733373069762,6.479416328125,12.035033373069764C6.479416328125,12.035033373069764,6.840056328125,13.333333373069763,6.840056328125,13.333333373069763C6.840056328125,13.333333373069763,9.159956328125,13.333333373069763,9.159956328125,13.333333373069763C9.159956328125,13.333333373069763,9.520616328125,12.034933373069762,9.520616328125,12.034933373069762C9.666516328125,11.509633373069763,10.206256328125,11.198063373069763,10.734086328125,11.334333373069763C10.734086328125,11.334333373069763,12.038986328125,11.671233373069763,12.038986328125,11.671233373069763C12.038986328125,11.671233373069763,13.198886328125,9.662133373069762,13.198886328125,9.662133373069762C13.198886328125,9.662133373069762,12.254786328125,8.700603373069765,12.254786328125,8.700603373069765C11.872886328125,8.311633373069764,11.872886328125,7.688403373069764,12.254786328125,7.299403373069763C12.254786328125,7.299403373069763,13.198886328125,6.337863373069763,13.198886328125,6.337863373069763C13.198886328125,6.337863373069763,12.038986328125,4.328793373069763,12.038986328125,4.328793373069763C12.038986328125,4.328793373069763,10.734086328125,4.6656733730697635,10.734086328125,4.6656733730697635C10.206256328125,4.8019333730697635,9.666516328125,4.490323373069764,9.520616328125,3.9650633730697633C9.520616328125,3.9650633730697633,9.159956328125,2.6666633730697633,9.159956328125,2.6666633730697633C9.159956328125,2.6666633730697633,6.840056328125,2.6666633730697633,6.840056328125,2.6666633730697633C6.840056328125,2.6666633730697633,6.840056328125,2.6666633730697633,6.840056328125,2.6666633730697633ZM7.999986328125,6.666663373069763C7.263616328125,6.666663373069763,6.666656328125,7.263633373069763,6.666656328125,8.000003373069763C6.666656328125,8.736363373069764,7.263616328125,9.333333373069763,7.999986328125,9.333333373069763C8.736386328125,9.333333373069763,9.333316328125001,8.736363373069764,9.333316328125001,8.000003373069763C9.333316328125001,7.263633373069763,8.736386328125,6.666663373069763,7.999986328125,6.666663373069763C7.999986328125,6.666663373069763,7.999986328125,6.666663373069763,7.999986328125,6.666663373069763ZM5.333316328125,8.000003373069763C5.333316328125,6.527233373069763,6.527256328125,5.333333373069763,7.999986328125,5.333333373069763C9.472756328125,5.333333373069763,10.666656328125,6.527233373069763,10.666656328125,8.000003373069763C10.666656328125,9.472763373069764,9.472756328125,10.666663373069763,7.999986328125,10.666663373069763C6.527256328125,10.666663373069763,5.333316328125,9.472763373069764,5.333316328125,8.000003373069763C5.333316328125,8.000003373069763,5.333316328125,8.000003373069763,5.333316328125,8.000003373069763Z" fill-rule="evenodd" fill="#4E5969" fill-opacity="1"/></g></g></svg>