<svg xmlns="http://www.w3.org/2000/svg" xmlns:xlink="http://www.w3.org/1999/xlink" fill="none" version="1.1" width="14" height="14" viewBox="0 0 14 14"><defs><clipPath id="master_svg0_74_38593"><rect x="0" y="0" width="14" height="14" rx="0"/></clipPath></defs><g clip-path="url(#master_svg0_74_38593)"><g><path d="M2.041668041999817,1.4583617448806763C1.7195020419998168,1.4583617448806763,1.458335041999817,1.7195287448806762,1.458335041999817,2.0416947448806764C1.458335041999817,2.0416947448806764,1.458335041999817,5.833361744880676,1.458335041999817,5.833361744880676C1.458335041999817,6.155541744880677,1.7195020419998168,6.416691744880676,2.041668041999817,6.416691744880676C2.041668041999817,6.416691744880676,5.833335041999817,6.416691744880676,5.833335041999817,6.416691744880676C6.155515041999817,6.416691744880676,6.416665041999817,6.155541744880677,6.416665041999817,5.833361744880676C6.416665041999817,5.833361744880676,6.416665041999817,2.0416947448806764,6.416665041999817,2.0416947448806764C6.416665041999817,1.7195287448806762,6.155515041999817,1.4583617448806763,5.833335041999817,1.4583617448806763C5.833335041999817,1.4583617448806763,2.041668041999817,1.4583617448806763,2.041668041999817,1.4583617448806763C2.041668041999817,1.4583617448806763,2.041668041999817,1.4583617448806763,2.041668041999817,1.4583617448806763ZM2.6250050419998168,5.250031744880676C2.6250050419998168,5.250031744880676,2.6250050419998168,2.625031744880676,2.6250050419998168,2.625031744880676C2.6250050419998168,2.625031744880676,5.250005041999817,2.625031744880676,5.250005041999817,2.625031744880676C5.250005041999817,2.625031744880676,5.250005041999817,5.250031744880676,5.250005041999817,5.250031744880676C5.250005041999817,5.250031744880676,2.6250050419998168,5.250031744880676,2.6250050419998168,5.250031744880676C2.6250050419998168,5.250031744880676,2.6250050419998168,5.250031744880676,2.6250050419998168,5.250031744880676ZM8.166665041999817,1.4583617448806763C7.844495041999817,1.4583617448806763,7.583335041999817,1.7195287448806762,7.583335041999817,2.0416947448806764C7.583335041999817,2.0416947448806764,7.583335041999817,5.833361744880676,7.583335041999817,5.833361744880676C7.583335041999817,6.155541744880677,7.844495041999817,6.416691744880676,8.166665041999817,6.416691744880676C8.166665041999817,6.416691744880676,11.958335041999817,6.416691744880676,11.958335041999817,6.416691744880676C12.280535041999817,6.416691744880676,12.541635041999816,6.155541744880677,12.541635041999816,5.833361744880676C12.541635041999816,5.833361744880676,12.541635041999816,2.0416947448806764,12.541635041999816,2.0416947448806764C12.541635041999816,1.7195287448806762,12.280535041999817,1.4583617448806763,11.958335041999817,1.4583617448806763C11.958335041999817,1.4583617448806763,8.166665041999817,1.4583617448806763,8.166665041999817,1.4583617448806763C8.166665041999817,1.4583617448806763,8.166665041999817,1.4583617448806763,8.166665041999817,1.4583617448806763ZM8.750005041999817,5.250031744880676C8.750005041999817,5.250031744880676,8.750005041999817,2.625031744880676,8.750005041999817,2.625031744880676C8.750005041999817,2.625031744880676,11.375005041999817,2.625031744880676,11.375005041999817,2.625031744880676C11.375005041999817,2.625031744880676,11.375005041999817,5.250031744880676,11.375005041999817,5.250031744880676C11.375005041999817,5.250031744880676,8.750005041999817,5.250031744880676,8.750005041999817,5.250031744880676C8.750005041999817,5.250031744880676,8.750005041999817,5.250031744880676,8.750005041999817,5.250031744880676ZM1.458335041999817,8.166691744880676C1.458335041999817,7.8445217448806766,1.7195020419998168,7.583361744880676,2.041668041999817,7.583361744880676C2.041668041999817,7.583361744880676,5.833335041999817,7.583361744880676,5.833335041999817,7.583361744880676C6.155515041999817,7.583361744880676,6.416665041999817,7.8445217448806766,6.416665041999817,8.166691744880676C6.416665041999817,8.166691744880676,6.416665041999817,11.958361744880676,6.416665041999817,11.958361744880676C6.416665041999817,12.280561744880677,6.155515041999817,12.541661744880676,5.833335041999817,12.541661744880676C5.833335041999817,12.541661744880676,2.041668041999817,12.541661744880676,2.041668041999817,12.541661744880676C1.7195020419998168,12.541661744880676,1.458335041999817,12.280561744880677,1.458335041999817,11.958361744880676C1.458335041999817,11.958361744880676,1.458335041999817,8.166691744880676,1.458335041999817,8.166691744880676C1.458335041999817,8.166691744880676,1.458335041999817,8.166691744880676,1.458335041999817,8.166691744880676ZM2.6250050419998168,8.750031744880676C2.6250050419998168,8.750031744880676,2.6250050419998168,11.375031744880676,2.6250050419998168,11.375031744880676C2.6250050419998168,11.375031744880676,5.250005041999817,11.375031744880676,5.250005041999817,11.375031744880676C5.250005041999817,11.375031744880676,5.250005041999817,8.750031744880676,5.250005041999817,8.750031744880676C5.250005041999817,8.750031744880676,2.6250050419998168,8.750031744880676,2.6250050419998168,8.750031744880676C2.6250050419998168,8.750031744880676,2.6250050419998168,8.750031744880676,2.6250050419998168,8.750031744880676ZM8.166665041999817,7.583361744880676C7.844495041999817,7.583361744880676,7.583335041999817,7.8445217448806766,7.583335041999817,8.166691744880676C7.583335041999817,8.166691744880676,7.583335041999817,11.958361744880676,7.583335041999817,11.958361744880676C7.583335041999817,12.280561744880677,7.844495041999817,12.541661744880676,8.166665041999817,12.541661744880676C8.166665041999817,12.541661744880676,11.958335041999817,12.541661744880676,11.958335041999817,12.541661744880676C12.280535041999817,12.541661744880676,12.541635041999816,12.280561744880677,12.541635041999816,11.958361744880676C12.541635041999816,11.958361744880676,12.541635041999816,8.166691744880676,12.541635041999816,8.166691744880676C12.541635041999816,7.8445217448806766,12.280535041999817,7.583361744880676,11.958335041999817,7.583361744880676C11.958335041999817,7.583361744880676,8.166665041999817,7.583361744880676,8.166665041999817,7.583361744880676C8.166665041999817,7.583361744880676,8.166665041999817,7.583361744880676,8.166665041999817,7.583361744880676ZM8.750005041999817,11.375031744880676C8.750005041999817,11.375031744880676,8.750005041999817,8.750031744880676,8.750005041999817,8.750031744880676C8.750005041999817,8.750031744880676,11.375005041999817,8.750031744880676,11.375005041999817,8.750031744880676C11.375005041999817,8.750031744880676,11.375005041999817,11.375031744880676,11.375005041999817,11.375031744880676C11.375005041999817,11.375031744880676,8.750005041999817,11.375031744880676,8.750005041999817,11.375031744880676C8.750005041999817,11.375031744880676,8.750005041999817,11.375031744880676,8.750005041999817,11.375031744880676Z" fill-rule="evenodd" fill="#4E5969" fill-opacity="1"/></g></g></svg>