<svg xmlns="http://www.w3.org/2000/svg" xmlns:xlink="http://www.w3.org/1999/xlink" fill="none" version="1.1" width="14" height="14" viewBox="0 0 14 14"><g><g><path d="M1.75,2.3336621875C1.75,1.6893261874999999,2.272334,1.1669921875,2.91667,1.1669921875C2.91667,1.1669921875,11.08333,1.1669921875,11.08333,1.1669921875C11.72765,1.1669921875,12.25,1.6893261874999999,12.25,2.3336621875C12.25,2.3336621875,12.25,11.6669921875,12.25,11.6669921875C12.25,12.3112921875,11.72765,12.8336921875,11.08333,12.8336921875C11.08333,12.8336921875,2.91667,12.8336921875,2.91667,12.8336921875C2.272334,12.8336921875,1.75,12.3112921875,1.75,11.6669921875C1.75,11.6669921875,1.75,2.3336621875,1.75,2.3336621875C1.75,2.3336621875,1.75,2.3336621875,1.75,2.3336621875ZM11.08333,2.3336621875C11.08333,2.3336621875,2.91667,2.3336621875,2.91667,2.3336621875C2.91667,2.3336621875,2.91667,4.9586621875,2.91667,4.9586621875C2.91667,4.9586621875,11.08333,4.9586621875,11.08333,4.9586621875C11.08333,4.9586621875,11.08333,2.3336621875,11.08333,2.3336621875C11.08333,2.3336621875,11.08333,2.3336621875,11.08333,2.3336621875ZM11.08333,6.1253221875C11.08333,6.1253221875,7.58333,6.1253221875,7.58333,6.1253221875C7.58333,6.1253221875,7.58333,11.6669921875,7.58333,11.6669921875C7.58333,11.6669921875,11.08333,11.6669921875,11.08333,11.6669921875C11.08333,11.6669921875,11.08333,6.1253221875,11.08333,6.1253221875C11.08333,6.1253221875,11.08333,6.1253221875,11.08333,6.1253221875ZM6.41667,11.6669921875C6.41667,11.6669921875,6.41667,6.1253221875,6.41667,6.1253221875C6.41667,6.1253221875,2.91667,6.1253221875,2.91667,6.1253221875C2.91667,6.1253221875,2.91667,11.6669921875,2.91667,11.6669921875C2.91667,11.6669921875,6.41667,11.6669921875,6.41667,11.6669921875C6.41667,11.6669921875,6.41667,11.6669921875,6.41667,11.6669921875Z" fill-rule="evenodd" fill="#4E5969" fill-opacity="1"/></g></g></svg>