<svg xmlns="http://www.w3.org/2000/svg" xmlns:xlink="http://www.w3.org/1999/xlink" fill="none" version="1.1" width="20" height="20" viewBox="0 0 20 20"><g><g><path d="M9.16667,2.9718180468749997C9.16667,2.9718180468749997,9.16667,1.666748046875,9.16667,1.666748046875C9.16667,1.666748046875,10.83333,1.666748046875,10.83333,1.666748046875C10.83333,1.666748046875,10.83333,2.9718180468749997,10.83333,2.9718180468749997C13.8911,3.3792280468750002,16.25,5.997498046875,16.25,9.166748046875C16.25,9.166748046875,16.25,13.750048046875,16.25,13.750048046875C16.25,13.750048046875,17.5,13.750048046875,17.5,13.750048046875C17.5,13.750048046875,17.5,15.416748046875,17.5,15.416748046875C17.5,15.416748046875,2.5,15.416748046875,2.5,15.416748046875C2.5,15.416748046875,2.5,13.750048046875,2.5,13.750048046875C2.5,13.750048046875,3.75,13.750048046875,3.75,13.750048046875C3.75,13.750048046875,3.75,9.166748046875,3.75,9.166748046875C3.75,5.997498046875,6.10887,3.3792280468750002,9.16667,2.9718180468749997C9.16667,2.9718180468749997,9.16667,2.9718180468749997,9.16667,2.9718180468749997ZM5.41667,13.750048046875C5.41667,13.750048046875,14.5833,13.750048046875,14.5833,13.750048046875C14.5833,13.750048046875,14.5833,9.166748046875,14.5833,9.166748046875C14.5833,6.635458046875,12.5313,4.583418046875,10,4.583418046875C7.46871,4.583418046875,5.41667,6.635458046875,5.41667,9.166748046875C5.41667,9.166748046875,5.41667,13.750048046875,5.41667,13.750048046875C5.41667,13.750048046875,5.41667,13.750048046875,5.41667,13.750048046875ZM12.9167,16.666748046875C12.9167,16.666748046875,12.9167,18.333448046875,12.9167,18.333448046875C12.9167,18.333448046875,7.08333,18.333448046875,7.08333,18.333448046875C7.08333,18.333448046875,7.08333,16.666748046875,7.08333,16.666748046875C7.08333,16.666748046875,12.9167,16.666748046875,12.9167,16.666748046875C12.9167,16.666748046875,12.9167,16.666748046875,12.9167,16.666748046875Z" fill-rule="evenodd" fill="#767676" fill-opacity="1"/></g></g></svg>