<svg xmlns="http://www.w3.org/2000/svg" xmlns:xlink="http://www.w3.org/1999/xlink" fill="none" version="1.1" width="14" height="14" viewBox="0 0 14 14"><defs><clipPath id="master_svg0_153_40005"><rect x="0" y="0" width="14" height="14" rx="0"/></clipPath></defs><g clip-path="url(#master_svg0_153_40005)"><g><path d="M4.9202880371093745,1.8074787461395263C5.025488037109374,1.4287607461395264,5.370298037109375,1.1666667461395264,5.763348037109375,1.1666667461395264C5.763348037109375,1.1666667461395264,8.236658037109375,1.1666667461395264,8.236658037109375,1.1666667461395264C8.629708037109374,1.1666667461395264,8.974518037109375,1.4287597461395265,9.079718037109375,1.8074787461395263C9.079718037109375,1.8074787461395263,9.378008037109375,2.881246746139526,9.378008037109375,2.881246746139526C9.378008037109375,2.881246746139526,10.457118037109375,2.602646746139526,10.457118037109375,2.602646746139526C10.837708037109374,2.5043967461395265,11.237138037109375,2.671976746139526,11.433638037109375,3.0123667461395263C11.433638037109375,3.0123667461395263,12.670238037109375,5.154306746139526,12.670238037109375,5.154306746139526C12.866738037109375,5.494706746139526,12.812238037109376,5.924366746139526,12.536838037109375,6.204826746139527C12.536838037109375,6.204826746139527,11.756038037109375,6.9999967461395265,11.756038037109375,6.9999967461395265C11.756038037109375,6.9999967461395265,12.536838037109375,7.795166746139526,12.536838037109375,7.795166746139526C12.812238037109376,8.075636746139526,12.866738037109375,8.505316746139528,12.670238037109375,8.845696746139527C12.670238037109375,8.845696746139527,11.433638037109375,10.987636746139527,11.433638037109375,10.987636746139527C11.237138037109375,11.328066746139527,10.837708037109374,11.495566746139527,10.457118037109375,11.397366746139527C10.457118037109375,11.397366746139527,9.377978037109376,11.118736746139527,9.377978037109376,11.118736746139527C9.377978037109376,11.118736746139527,9.079718037109375,12.192466746139527,9.079718037109375,12.192466746139527C8.974518037109375,12.571266746139527,8.629708037109374,12.833366746139527,8.236658037109375,12.833366746139527C8.236658037109375,12.833366746139527,5.763348037109375,12.833366746139527,5.763348037109375,12.833366746139527C5.370298037109375,12.833366746139527,5.025488037109374,12.571266746139527,4.9202880371093745,12.192466746139527C4.9202880371093745,12.192466746139527,4.622028037109375,11.118796746139527,4.622028037109375,11.118796746139527C4.622028037109375,11.118796746139527,3.543128037109375,11.397366746139527,3.543128037109375,11.397366746139527C3.1625480371093753,11.495566746139527,2.763158037109375,11.328066746139527,2.566628037109375,10.987636746139527C2.566628037109375,10.987636746139527,1.329985037109375,8.845696746139527,1.329985037109375,8.845696746139527C1.133456337109375,8.505316746139528,1.188024737109375,8.075636746139526,1.463405037109375,7.795166746139526C1.463405037109375,7.795166746139526,2.244158037109375,6.9999967461395265,2.244158037109375,6.9999967461395265C2.244158037109375,6.9999967461395265,1.4634060371093751,6.204826746139527,1.4634060371093751,6.204826746139527C1.188026937109375,5.924366746139526,1.133456637109375,5.494706746139526,1.329985037109375,5.154306746139526C1.329985037109375,5.154306746139526,2.566628037109375,3.0123667461395263,2.566628037109375,3.0123667461395263C2.763158037109375,2.671976746139526,3.1625480371093753,2.5043967461395265,3.543128037109375,2.602646746139526C3.543128037109375,2.602646746139526,4.622028037109375,2.8811867461395266,4.622028037109375,2.8811867461395266C4.622028037109375,2.8811867461395266,4.9202880371093745,1.8074787461395263,4.9202880371093745,1.8074787461395263C4.9202880371093745,1.8074787461395263,4.9202880371093745,1.8074787461395263,4.9202880371093745,1.8074787461395263ZM4.545378037109375,10.842886746139527C4.545378037109375,10.842886746139527,4.545498037109375,10.843256746139526,4.545498037109375,10.843256746139526C4.545498037109375,10.843256746139526,4.545378037109375,10.842886746139527,4.545378037109375,10.842886746139527ZM5.985048037109375,2.3333367461395262C5.985048037109375,2.3333367461395262,5.669488037109375,3.469376746139526,5.669488037109375,3.469376746139526C5.541828037109375,3.928976746139526,5.069538037109375,4.201636746139526,4.607678037109375,4.082406746139526C4.607678037109375,4.082406746139526,3.466148037109375,3.7876967461395266,3.466148037109375,3.7876967461395266C3.466148037109375,3.7876967461395266,2.451198037109375,5.545636746139526,2.451198037109375,5.545636746139526C2.451198037109375,5.545636746139526,3.277268037109375,6.386976746139526,3.277268037109375,6.386976746139526C3.611468037109375,6.727346746139526,3.611468037109375,7.272676746139527,3.277268037109375,7.613026746139527C3.277268037109375,7.613026746139527,2.4511880371093753,8.454366746139527,2.4511880371093753,8.454366746139527C2.4511880371093753,8.454366746139527,3.466148037109375,10.212296746139526,3.466148037109375,10.212296746139526C3.466148037109375,10.212296746139526,4.607678037109375,9.917596746139527,4.607678037109375,9.917596746139527C5.069568037109375,9.798366746139527,5.541828037109375,10.071016746139527,5.669488037109375,10.530626746139527C5.669488037109375,10.530626746139527,5.985048037109375,11.666666746139526,5.985048037109375,11.666666746139526C5.985048037109375,11.666666746139526,8.014958037109375,11.666666746139526,8.014958037109375,11.666666746139526C8.014958037109375,11.666666746139526,8.330538037109374,10.530566746139526,8.330538037109374,10.530566746139526C8.458208037109376,10.070956746139526,8.930468037109375,9.798306746139527,9.392328037109374,9.917536746139527C9.392328037109374,9.917536746139527,10.534108037109375,10.212296746139526,10.534108037109375,10.212296746139526C10.534108037109375,10.212296746139526,11.549038037109375,8.454366746139527,11.549038037109375,8.454366746139527C11.549038037109375,8.454366746139527,10.722968037109375,7.613026746139527,10.722968037109375,7.613026746139527C10.388778037109375,7.272676746139527,10.388778037109375,6.727346746139526,10.722968037109375,6.386976746139526C10.722968037109375,6.386976746139526,11.549038037109375,5.545636746139526,11.549038037109375,5.545636746139526C11.549038037109375,5.545636746139526,10.534088037109376,3.7876967461395266,10.534088037109376,3.7876967461395266C10.534088037109376,3.7876967461395266,9.392328037109374,4.082456746139526,9.392328037109374,4.082456746139526C8.930468037109375,4.201686746139526,8.458208037109376,3.9290367461395266,8.330538037109374,3.4694267461395265C8.330538037109374,3.4694267461395265,8.014958037109375,2.3333367461395262,8.014958037109375,2.3333367461395262C8.014958037109375,2.3333367461395262,5.985048037109375,2.3333367461395262,5.985048037109375,2.3333367461395262C5.985048037109375,2.3333367461395262,5.985048037109375,2.3333367461395262,5.985048037109375,2.3333367461395262ZM6.999988037109375,5.833336746139526C6.355668037109375,5.833336746139526,5.833318037109375,6.355676746139526,5.833318037109375,6.9999967461395265C5.833318037109375,7.644316746139526,6.355668037109375,8.166666746139526,6.999988037109375,8.166666746139526C7.644338037109375,8.166666746139526,8.166658037109375,7.644316746139526,8.166658037109375,6.9999967461395265C8.166658037109375,6.355676746139526,7.644338037109375,5.833336746139526,6.999988037109375,5.833336746139526C6.999988037109375,5.833336746139526,6.999988037109375,5.833336746139526,6.999988037109375,5.833336746139526ZM4.666658037109375,6.9999967461395265C4.666658037109375,5.711326746139527,5.711348037109375,4.666666746139526,6.999988037109375,4.666666746139526C8.288658037109375,4.666666746139526,9.333318037109375,5.711326746139527,9.333318037109375,6.9999967461395265C9.333318037109375,8.288666746139526,8.288658037109375,9.333336746139526,6.999988037109375,9.333336746139526C5.711348037109375,9.333336746139526,4.666658037109375,8.288666746139526,4.666658037109375,6.9999967461395265C4.666658037109375,6.9999967461395265,4.666658037109375,6.9999967461395265,4.666658037109375,6.9999967461395265Z" fill-rule="evenodd" fill="#4E5969" fill-opacity="1"/></g></g></svg>