<svg xmlns="http://www.w3.org/2000/svg" xmlns:xlink="http://www.w3.org/1999/xlink" fill="none" version="1.1" width="14" height="14" viewBox="0 0 14 14"><defs><clipPath id="master_svg0_119_7300"><rect x="0" y="0" width="14" height="14" rx="0"/></clipPath></defs><g clip-path="url(#master_svg0_119_7300)"><g><path d="M5.66616,1.31893988L10.49121,1.31893988Q10.69841,1.2758898,10.85163,1.520627Q11.00488,1.765321,10.85696,1.980527L8.50094,4.98747L11.5672,4.98747Q11.81338,4.99158,11.92083,5.218859999999999Q12.02833,5.44614,11.90075,5.64393L11.10459,6.53687Q10.75892,6.43402,10.56139,6.42942Q10.363900000000001,6.42483,9.96424,6.48315L10.46553,5.87218L7.51648,5.86203Q7.3112,5.82812,7.19841,5.61878C7.11783,5.41324,7.17881,5.29052,7.20375,5.2483900000000006Q7.24173,5.19803,9.550329999999999,2.201291L6.0323899999999995,2.201291L3.6166,6.81648L6.59663,6.81648Q6.80698,6.83923,6.92607,7.01545Q7.0452,7.19168,6.97861,7.37586L6.11783,10.63021L7.38019,9.262540000000001L7.37656,10.57115L5.52624,12.5803Q5.29774,12.7633,5.00168,12.6207Q4.78914,12.5132,4.78381,12.2172L5.9747699999999995,7.69397L2.790907,7.69515Q2.625357,7.66807,2.4880695,7.49403Q2.3508257,7.31995,2.4437945,7.13384L5.39723,1.523254Q5.46355,1.4092411,5.5172799999999995,1.3702599Q5.571,1.3313224,5.66616,1.31893988Z" fill="#4E5969" fill-opacity="1" style="mix-blend-mode:passthrough"/></g><g><path d="M12.4700858984375,8.490328828125C12.4243658984375,8.424488828125,12.3432558984375,8.353828828125,12.3207658984375,8.340968828125L10.6173658984375,7.365692928125Q10.5408458984375,7.330824017125,10.4442858984375,7.331305503845Q10.3474258984375,7.331786990125,10.2658758984375,7.368099528125Q8.5549458984375,8.352828828125,8.5244518984375,8.379948828125C8.4939588984375,8.407288828125001,8.4598338984375,8.431268828124999,8.4087336984375,8.509188828125Q8.3576777984375,8.587148828125,8.3470458984375,8.673338828125L8.3470458984375,10.703778828125Q8.3535647384375,10.789958828125,8.3954331984375,10.874658828125Q8.4370829984375,10.959358828125,8.5082198984375,11.005128828125Q10.2290858984375,12.011378828125,10.2835558984375,12.035088828125C10.3380158984375,12.058848828125,10.4186058984375,12.064878828125,10.4689658984375,12.064878828125C10.519275898437499,12.064878828125,10.5679658984375,12.057358828125,10.6142158984375,12.040688828124999Q10.6480758984375,12.021308828125001,12.2360258984375,11.109948828124999Q12.377385898437499,11.024028828125001,12.4594558984375,10.940508828125001C12.5412658984375,10.857248828125,12.5562758984375,10.749498828125,12.5562758984375,10.706658828125L12.5562758984375,8.670408828125C12.5562758984375,8.640178828125,12.5158558984375,8.556178828125,12.4700858984375,8.490328828125ZM11.7035058984375,10.414718828125L10.4515558984375,11.124688828125L9.2223088984375,10.418568828125L9.2223088984375,8.974208828125L10.4515558984375,8.264230828125L11.7035058984375,8.986328828125L11.7035058984375,10.414718828125Z" fill="#4E5969" fill-opacity="1" style="mix-blend-mode:passthrough"/></g><g><path d="M10.9077323359375,9.712716265625Q10.9077313359375,9.756534265625,10.8991833359375,9.799510265625Q10.8906343359375,9.842486265625,10.8738663359375,9.882969265625Q10.8570973359375,9.923452265625,10.8327533359375,9.959885265625Q10.8084093359375,9.996319265625,10.7774253359375,10.027303265625Q10.7464413359375,10.058287265625,10.7100073359375,10.082631265625Q10.6735743359375,10.106975265625,10.6330913359375,10.123744265625Q10.5926083359375,10.140512265625,10.5496323359375,10.149061265625Q10.5066563359375,10.157609265625,10.4628383359375,10.157610265625Q10.4190203359375,10.157609265625,10.3760433359375,10.149061265625Q10.3330673359375,10.140512265625,10.2925843359375,10.123744265625Q10.2521023359375,10.106975265625,10.215668335937501,10.082631265625Q10.1792343359375,10.058287265625,10.1482503359375,10.027303265625Q10.1172665359375,9.996319265625,10.0929224359375,9.959885265625Q10.0685783359375,9.923452265625,10.0518098359375,9.882969265625Q10.0350413359375,9.842486265625,10.0264928459375,9.799510265625Q10.0179443359375,9.756534265625,10.0179443359375,9.712716265625Q10.0179443359375,9.668898265625,10.0264928459375,9.625921265625Q10.0350413359375,9.582945265625,10.0518098359375,9.542462265625Q10.0685783359375,9.501980265625,10.0929224359375,9.465546265625001Q10.1172665359375,9.429112265625,10.1482503359375,9.398128265625Q10.1792343359375,9.367144465625,10.215668335937501,9.342800365625Q10.2521023359375,9.318456265625,10.2925843359375,9.301687765625Q10.3330673359375,9.284919265625,10.3760433359375,9.276370775625Q10.4190203359375,9.267822265625,10.4628383359375,9.267822265625Q10.5066563359375,9.267822265625,10.5496323359375,9.276370775625Q10.5926083359375,9.284919265625,10.6330913359375,9.301687765625Q10.6735743359375,9.318456265625,10.7100073359375,9.342800365625Q10.7464413359375,9.367144465625,10.7774253359375,9.398128265625Q10.8084093359375,9.429112265625,10.8327533359375,9.465546265625001Q10.8570973359375,9.501980265625,10.8738663359375,9.542462265625Q10.8906343359375,9.582945265625,10.8991833359375,9.625921265625Q10.9077313359375,9.668898265625,10.9077323359375,9.712716265625Z" fill="#4E5969" fill-opacity="1" style="mix-blend-mode:passthrough"/></g></g></svg>