<svg xmlns="http://www.w3.org/2000/svg" xmlns:xlink="http://www.w3.org/1999/xlink" fill="none" version="1.1" width="12" height="12" viewBox="0 0 12 12"><g><g><g><path d="M2.415010986328125,8.670009765625C2.415010986328125,8.670009765625,2.497320986328125,8.304159765625,2.497320986328125,8.304159765625C2.489690986328125,8.302459765624999,2.481990986328125,8.300959765624999,2.474260986328125,8.299709765625C2.474260986328125,8.299709765625,2.415010986328125,8.670009765625,2.415010986328125,8.670009765625C2.415010986328125,8.670009765625,2.415010986328125,8.670009765625,2.415010986328125,8.670009765625ZM2.060010986328125,8.575009765625001C2.060010986328125,8.575009765625001,1.928850986328125,8.926359765625001,1.928850986328125,8.926359765625001C1.928850986328125,8.926359765625001,1.931860986328125,8.927459765624999,1.931860986328125,8.927459765624999C1.931860986328125,8.927459765624999,2.060010986328125,8.575009765625001,2.060010986328125,8.575009765625001C2.060010986328125,8.575009765625001,2.060010986328125,8.575009765625001,2.060010986328125,8.575009765625001ZM9.590010986328124,3.320009765625C9.590010986328124,3.320009765625,9.959410986328125,3.255369765625,9.959410986328125,3.255369765625C9.958910986328124,3.252609765625,9.958410986328126,3.2498597656249997,9.957860986328125,3.247119765625C9.957860986328125,3.247119765625,9.590010986328124,3.320009765625,9.590010986328124,3.320009765625C9.590010986328124,3.320009765625,9.590010986328124,3.320009765625,9.590010986328124,3.320009765625ZM9.275010986328125,3.959989765625C9.275010986328125,3.959989765625,9.275010986328125,6.534999765625,9.275010986328125,6.534999765625C9.275010986328125,6.534999765625,10.025010986328125,6.534999765625,10.025010986328125,6.534999765625C10.025010986328125,6.534999765625,10.025010986328125,3.959989765625,10.025010986328125,3.959989765625C10.025010986328125,3.959989765625,9.275010986328125,3.959989765625,9.275010986328125,3.959989765625C9.275010986328125,3.959989765625,9.275010986328125,3.959989765625,9.275010986328125,3.959989765625ZM9.275010986328125,6.534999765625C9.275010986328125,7.233509765625,9.077310986328126,7.670759765625,8.789860986328126,7.937709765625C8.497360986328125,8.209309765625001,8.052510986328125,8.360009765625,7.450010986328125,8.360009765625C7.450010986328125,8.360009765625,7.450010986328125,9.110009765625,7.450010986328125,9.110009765625C8.167510986328125,9.110009765625,8.822710986328126,8.930659765625,9.300160986328125,8.487309765625C9.782710986328125,8.039259765625001,10.025010986328125,7.376459765625,10.025010986328125,6.534999765625C10.025010986328125,6.534999765625,9.275010986328125,6.534999765625,9.275010986328125,6.534999765625C9.275010986328125,6.534999765625,9.275010986328125,6.534999765625,9.275010986328125,6.534999765625ZM7.450010986328125,8.360009765625C7.450010986328125,8.360009765625,3.055010986328125,8.360009765625,3.055010986328125,8.360009765625C3.055010986328125,8.360009765625,3.055010986328125,9.110009765625,3.055010986328125,9.110009765625C3.055010986328125,9.110009765625,7.450010986328125,9.110009765625,7.450010986328125,9.110009765625C7.450010986328125,9.110009765625,7.450010986328125,8.360009765625,7.450010986328125,8.360009765625C7.450010986328125,8.360009765625,7.450010986328125,8.360009765625,7.450010986328125,8.360009765625ZM3.055010986328125,8.360009765625C2.851540986328125,8.360009765625,2.664900986328125,8.341859765625,2.497320986328125,8.304159765625C2.497320986328125,8.304159765625,2.3326909863281253,9.035859765625,2.3326909863281253,9.035859765625C2.565120986328125,9.088159765625,2.808470986328125,9.110009765625,3.055010986328125,9.110009765625C3.055010986328125,9.110009765625,3.055010986328125,8.360009765625,3.055010986328125,8.360009765625C3.055010986328125,8.360009765625,3.055010986328125,8.360009765625,3.055010986328125,8.360009765625ZM2.474260986328125,8.299709765625C2.378930986328125,8.284459765625,2.282610986328125,8.256909765625,2.188170986328125,8.222609765625C2.188170986328125,8.222609765625,1.931860986328125,8.927459765624999,1.931860986328125,8.927459765624999C2.057420986328125,8.973109765625,2.201080986328125,9.015559765625,2.355760986328125,9.040309765625C2.355760986328125,9.040309765625,2.474260986328125,8.299709765625,2.474260986328125,8.299709765625C2.474260986328125,8.299709765625,2.474260986328125,8.299709765625,2.474260986328125,8.299709765625ZM2.191170986328125,8.223709765625C1.885950986328125,8.109759765625,1.654700986328125,7.927459765625,1.495390986328125,7.669309765625C1.333527986328125,7.407009765625,1.230010986328125,7.040109765625,1.230010986328125,6.534999765625C1.230010986328125,6.534999765625,0.48001098632812506,6.534999765625,0.48001098632812506,6.534999765625C0.48001098632812506,7.139909765625,0.603995986328125,7.652959765625,0.857133986328125,8.063209765625C1.112825986328125,8.477559765625,1.484070986328125,8.760259765625001,1.928860986328125,8.926309765625C1.928860986328125,8.926309765625,2.191170986328125,8.223709765625,2.191170986328125,8.223709765625C2.191170986328125,8.223709765625,2.191170986328125,8.223709765625,2.191170986328125,8.223709765625ZM1.230010986328125,6.534999765625C1.230010986328125,6.534999765625,1.230010986328125,3.959989765625,1.230010986328125,3.959989765625C1.230010986328125,3.959989765625,0.48001098632812506,3.959989765625,0.48001098632812506,3.959989765625C0.48001098632812506,3.959989765625,0.48001098632812506,6.534999765625,0.48001098632812506,6.534999765625C0.48001098632812506,6.534999765625,1.230010986328125,6.534999765625,1.230010986328125,6.534999765625C1.230010986328125,6.534999765625,1.230010986328125,6.534999765625,1.230010986328125,6.534999765625ZM1.230010986328125,3.959989765625C1.230010986328125,3.261459765625,1.4277009863281251,2.8242297656249997,1.715170986328125,2.5572997656250003C2.007680986328125,2.285689765625,2.452490986328125,2.135009765625,3.055010986328125,2.135009765625C3.055010986328125,2.135009765625,3.055010986328125,1.385009765625,3.055010986328125,1.385009765625C2.337520986328125,1.385009765625,1.682330986328125,1.564320765625,1.204841986328125,2.007701765625C0.722317986328125,2.455749765625,0.48001098632812506,3.118519765625,0.48001098632812506,3.959989765625C0.48001098632812506,3.959989765625,1.230010986328125,3.959989765625,1.230010986328125,3.959989765625C1.230010986328125,3.959989765625,1.230010986328125,3.959989765625,1.230010986328125,3.959989765625ZM3.055010986328125,2.135009765625C3.055010986328125,2.135009765625,7.450010986328125,2.135009765625,7.450010986328125,2.135009765625C7.450010986328125,2.135009765625,7.450010986328125,1.385009765625,7.450010986328125,1.385009765625C7.450010986328125,1.385009765625,3.055010986328125,1.385009765625,3.055010986328125,1.385009765625C3.055010986328125,1.385009765625,3.055010986328125,2.135009765625,3.055010986328125,2.135009765625C3.055010986328125,2.135009765625,3.055010986328125,2.135009765625,3.055010986328125,2.135009765625ZM7.450010986328125,2.135009765625C7.960810986328125,2.135009765625,8.359760986328125,2.243705765625,8.646210986328125,2.441649765625C8.924510986328125,2.633939765625,9.131210986328124,2.933969765625,9.222160986328126,3.392899765625C9.222160986328126,3.392899765625,9.957860986328125,3.247119765625,9.957860986328125,3.247119765625C9.833810986328125,2.621039765625,9.530510986328125,2.141072765625,9.072560986328124,1.824622765625C8.622760986328124,1.513811765625,8.059210986328125,1.385009765625,7.450010986328125,1.385009765625C7.450010986328125,1.385009765625,7.450010986328125,2.135009765625,7.450010986328125,2.135009765625C7.450010986328125,2.135009765625,7.450010986328125,2.135009765625,7.450010986328125,2.135009765625ZM9.220610986328126,3.3846497656250003C9.253160986328124,3.570569765625,9.275010986328125,3.752959765625,9.275010986328125,3.959989765625C9.275010986328125,3.959989765625,10.025010986328125,3.959989765625,10.025010986328125,3.959989765625C10.025010986328125,3.697019765625,9.996860986328125,3.469439765625,9.959410986328125,3.255369765625C9.959410986328125,3.255369765625,9.220610986328126,3.3846497656250003,9.220610986328126,3.3846497656250003C9.220610986328126,3.3846497656250003,9.220610986328126,3.3846497656250003,9.220610986328126,3.3846497656250003Z" fill="#292D32" fill-opacity="1"/></g><g><path d="M3.560567861328125,10.075078359375C3.560567861328125,10.075078359375,3.693567861328125,9.724428359375,3.693567861328125,9.724428359375C3.693567861328125,9.724428359375,3.690617861328125,9.723378359375001,3.690617861328125,9.723378359375001C3.690617861328125,9.723378359375001,3.560567861328125,10.075078359375,3.560567861328125,10.075078359375C3.560567861328125,10.075078359375,3.560567861328125,10.075078359375,3.560567861328125,10.075078359375ZM2.415564861328125,8.670078359375001C2.415564861328125,8.670078359375001,2.497881861328125,8.304228359375,2.497881861328125,8.304228359375C2.374090861328125,8.276378359375,2.244612861328125,8.313008359375,2.153766861328125,8.401578359375C2.062919961328125,8.490178359375001,2.023029961328125,8.618678359375,2.047749931328125,8.743128359375C2.047749931328125,8.743128359375,2.415564861328125,8.670078359375001,2.415564861328125,8.670078359375001C2.415564861328125,8.670078359375001,2.415564861328125,8.670078359375001,2.415564861328125,8.670078359375001ZM9.590567861328125,3.320074359375C9.590567861328125,3.320074359375,9.667817861328125,2.953118649375,9.667817861328125,2.953118649375C9.544167861328125,2.927082659375,9.415667861328124,2.965091159375,9.326067861328125,3.054224359375C9.236517861328124,3.143357359375,9.197817861328126,3.271625359375,9.223217861328125,3.395428359375C9.223217861328125,3.395428359375,9.590567861328125,3.320074359375,9.590567861328125,3.320074359375C9.590567861328125,3.320074359375,9.590567861328125,3.320074359375,9.590567861328125,3.320074359375ZM10.775567861328126,5.460058359375C10.775567861328126,5.460058359375,10.775567861328126,8.035068359375,10.775567861328126,8.035068359375C10.775567861328126,8.035068359375,11.525567861328126,8.035068359375,11.525567861328126,8.035068359375C11.525567861328126,8.035068359375,11.525567861328126,5.460058359375,11.525567861328126,5.460058359375C11.525567861328126,5.460058359375,10.775567861328126,5.460058359375,10.775567861328126,5.460058359375C10.775567861328126,5.460058359375,10.775567861328126,5.460058359375,10.775567861328126,5.460058359375ZM10.775567861328126,8.035068359375C10.775567861328126,8.733578359374999,10.577867861328125,9.170828359375001,10.290417861328125,9.437778359374999C9.997917861328126,9.709378359375,9.553067861328124,9.860078359374999,8.950567861328125,9.860078359374999C8.950567861328125,9.860078359374999,8.950567861328125,10.610078359374999,8.950567861328125,10.610078359374999C9.668067861328126,10.610078359374999,10.323267861328125,10.430728359375,10.800717861328126,9.987378359375C11.283267861328126,9.539328359375,11.525567861328126,8.876528359375001,11.525567861328126,8.035068359375C11.525567861328126,8.035068359375,10.775567861328126,8.035068359375,10.775567861328126,8.035068359375C10.775567861328126,8.035068359375,10.775567861328126,8.035068359375,10.775567861328126,8.035068359375ZM8.950567861328125,9.860078359374999C8.950567861328125,9.860078359374999,4.555567861328125,9.860078359374999,4.555567861328125,9.860078359374999C4.555567861328125,9.860078359374999,4.555567861328125,10.610078359374999,4.555567861328125,10.610078359374999C4.555567861328125,10.610078359374999,8.950567861328125,10.610078359374999,8.950567861328125,10.610078359374999C8.950567861328125,10.610078359374999,8.950567861328125,9.860078359374999,8.950567861328125,9.860078359374999C8.950567861328125,9.860078359374999,8.950567861328125,9.860078359374999,8.950567861328125,9.860078359374999ZM4.555567861328125,9.860078359374999C4.217597861328125,9.860078359374999,3.930127861328125,9.814178359375,3.693567861328125,9.724478359375C3.693567861328125,9.724478359375,3.4275778613281247,10.425728359375,3.4275778613281247,10.425728359375C3.771017861328125,10.555978359375,4.153527861328125,10.610078359374999,4.555567861328125,10.610078359374999C4.555567861328125,10.610078359374999,4.555567861328125,9.860078359374999,4.555567861328125,9.860078359374999C4.555567861328125,9.860078359374999,4.555567861328125,9.860078359374999,4.555567861328125,9.860078359374999ZM3.690617861328125,9.723378359375001C3.224117861328125,9.550878359375,2.904281861328125,9.205728359375,2.783378861328125,8.597028359374999C2.783378861328125,8.597028359374999,2.047749931328125,8.743128359375,2.047749931328125,8.743128359375C2.216847861328125,9.594478359375,2.707021861328125,10.159278359375,3.4305178613281253,10.426828359375001C3.4305178613281253,10.426828359375001,3.690617861328125,9.723378359375001,3.690617861328125,9.723378359375001C3.690617861328125,9.723378359375001,3.690617861328125,9.723378359375001,3.690617861328125,9.723378359375001ZM2.333247861328125,9.035928359375C2.565674861328125,9.088228359375,2.809029861328125,9.110078359374999,3.055567861328125,9.110078359374999C3.055567861328125,9.110078359374999,3.055567861328125,8.360078359374999,3.055567861328125,8.360078359374999C2.852097861328125,8.360078359374999,2.665453861328125,8.341928359375,2.497881861328125,8.304228359375C2.497881861328125,8.304228359375,2.333247861328125,9.035928359375,2.333247861328125,9.035928359375C2.333247861328125,9.035928359375,2.333247861328125,9.035928359375,2.333247861328125,9.035928359375ZM3.055567861328125,9.110078359374999C3.055567861328125,9.110078359374999,7.450567861328125,9.110078359374999,7.450567861328125,9.110078359374999C7.450567861328125,9.110078359374999,7.450567861328125,8.360078359374999,7.450567861328125,8.360078359374999C7.450567861328125,8.360078359374999,3.055567861328125,8.360078359374999,3.055567861328125,8.360078359374999C3.055567861328125,8.360078359374999,3.055567861328125,9.110078359374999,3.055567861328125,9.110078359374999C3.055567861328125,9.110078359374999,3.055567861328125,9.110078359374999,3.055567861328125,9.110078359374999ZM7.450567861328125,9.110078359374999C8.168067861328126,9.110078359374999,8.823267861328125,8.930728359375,9.300717861328124,8.487378359375C9.783267861328124,8.039308359375,10.025567861328124,7.376548359375,10.025567861328124,6.535068359375C10.025567861328124,6.535068359375,9.275567861328124,6.535068359375,9.275567861328124,6.535068359375C9.275567861328124,7.233598359375,9.077867861328125,7.670828359375,8.790417861328125,7.937768359375C8.497917861328126,8.209378359375,8.053067861328124,8.360078359374999,7.450567861328125,8.360078359374999C7.450567861328125,8.360078359374999,7.450567861328125,9.110078359374999,7.450567861328125,9.110078359374999C7.450567861328125,9.110078359374999,7.450567861328125,9.110078359374999,7.450567861328125,9.110078359374999ZM10.025567861328124,6.535068359375C10.025567861328124,6.535068359375,10.025567861328124,3.960058359375,10.025567861328124,3.960058359375C10.025567861328124,3.960058359375,9.275567861328124,3.960058359375,9.275567861328124,3.960058359375C9.275567861328124,3.960058359375,9.275567861328124,6.535068359375,9.275567861328124,6.535068359375C9.275567861328124,6.535068359375,10.025567861328124,6.535068359375,10.025567861328124,6.535068359375C10.025567861328124,6.535068359375,10.025567861328124,6.535068359375,10.025567861328124,6.535068359375ZM10.025567861328124,3.960058359375C10.025567861328124,3.7035593593750002,10.003717861328125,3.467990359375,9.957917861328125,3.244720359375C9.957917861328125,3.244720359375,9.223217861328125,3.395428359375,9.223217861328125,3.395428359375C9.257417861328125,3.562158359375,9.275567861328124,3.7465583593750003,9.275567861328124,3.960058359375C9.275567861328124,3.960058359375,10.025567861328124,3.960058359375,10.025567861328124,3.960058359375C10.025567861328124,3.960058359375,10.025567861328124,3.960058359375,10.025567861328124,3.960058359375ZM9.513317861328126,3.687030359375C9.919767861328125,3.772603359375,10.223917861328125,3.951108359375,10.430017861328125,4.218018359375C10.637767861328125,4.487018359375,10.775567861328126,4.884268359375,10.775567861328126,5.460058359375C10.775567861328126,5.460058359375,11.525567861328126,5.460058359375,11.525567861328126,5.460058359375C11.525567861328126,4.765858359375,11.358367861328125,4.193108359375,11.023617861328125,3.759612359375C10.687267861328126,3.324037359375,10.211367861328124,3.067546359375,9.667817861328125,2.953118649375C9.667817861328125,2.953118649375,9.513317861328126,3.687030359375,9.513317861328126,3.687030359375C9.513317861328126,3.687030359375,9.513317861328126,3.687030359375,9.513317861328126,3.687030359375Z" fill="#292D32" fill-opacity="1"/></g><g><path d="M6.194239736328125,5.249941640625C6.194239736328125,5.771841640625,5.771139736328125,6.194941640625,5.249239736328125,6.194941640625C5.249239736328125,6.194941640625,5.249239736328125,6.944941640625,5.249239736328125,6.944941640625C6.185359736328126,6.944941640625,6.944239736328125,6.186061640625001,6.944239736328125,5.249941640625C6.944239736328125,5.249941640625,6.194239736328125,5.249941640625,6.194239736328125,5.249941640625C6.194239736328125,5.249941640625,6.194239736328125,5.249941640625,6.194239736328125,5.249941640625ZM5.249239736328125,6.194941640625C4.727329736328125,6.194941640625,4.304229736328125,5.771841640625,4.304229736328125,5.249941640625C4.304229736328125,5.249941640625,3.554229736328125,5.249941640625,3.554229736328125,5.249941640625C3.554229736328125,6.186061640625001,4.313113736328125,6.944941640625,5.249239736328125,6.944941640625C5.249239736328125,6.944941640625,5.249239736328125,6.194941640625,5.249239736328125,6.194941640625C5.249239736328125,6.194941640625,5.249239736328125,6.194941640625,5.249239736328125,6.194941640625ZM4.304229736328125,5.249941640625C4.304229736328125,4.728031640625,4.727329736328125,4.304931640625,5.249239736328125,4.304931640625C5.249239736328125,4.304931640625,5.249239736328125,3.554931640625,5.249239736328125,3.554931640625C4.313113736328125,3.554931640625,3.554229736328125,4.313815640625,3.554229736328125,5.249941640625C3.554229736328125,5.249941640625,4.304229736328125,5.249941640625,4.304229736328125,5.249941640625C4.304229736328125,5.249941640625,4.304229736328125,5.249941640625,4.304229736328125,5.249941640625ZM5.249239736328125,4.304931640625C5.771139736328125,4.304931640625,6.194239736328125,4.728031640625,6.194239736328125,5.249941640625C6.194239736328125,5.249941640625,6.944239736328125,5.249941640625,6.944239736328125,5.249941640625C6.944239736328125,4.313815640625,6.185359736328126,3.554931640625,5.249239736328125,3.554931640625C5.249239736328125,3.554931640625,5.249239736328125,4.304931640625,5.249239736328125,4.304931640625C5.249239736328125,4.304931640625,5.249239736328125,4.304931640625,5.249239736328125,4.304931640625Z" fill="#292D32" fill-opacity="1"/></g><g><path d="M2.764923095703125,4.14990234375C2.764923095703125,3.94279534375,2.597030095703125,3.77490234375,2.389923095703125,3.77490234375C2.182816095703125,3.77490234375,2.014923095703125,3.94279534375,2.014923095703125,4.14990234375C2.014923095703125,4.14990234375,2.764923095703125,4.14990234375,2.764923095703125,4.14990234375C2.764923095703125,4.14990234375,2.764923095703125,4.14990234375,2.764923095703125,4.14990234375ZM2.014923095703125,6.34991234375C2.014923095703125,6.55702234375,2.182816095703125,6.72491234375,2.389923095703125,6.72491234375C2.597030095703125,6.72491234375,2.764923095703125,6.55702234375,2.764923095703125,6.34991234375C2.764923095703125,6.34991234375,2.014923095703125,6.34991234375,2.014923095703125,6.34991234375C2.014923095703125,6.34991234375,2.014923095703125,6.34991234375,2.014923095703125,6.34991234375ZM2.014923095703125,4.14990234375C2.014923095703125,4.14990234375,2.014923095703125,6.34991234375,2.014923095703125,6.34991234375C2.014923095703125,6.34991234375,2.764923095703125,6.34991234375,2.764923095703125,6.34991234375C2.764923095703125,6.34991234375,2.764923095703125,4.14990234375,2.764923095703125,4.14990234375C2.764923095703125,4.14990234375,2.014923095703125,4.14990234375,2.014923095703125,4.14990234375C2.014923095703125,4.14990234375,2.014923095703125,4.14990234375,2.014923095703125,4.14990234375Z" fill="#292D32" fill-opacity="1"/></g><g><path d="M8.485870361328125,4.150146484375C8.485870361328125,3.943039484375,8.317977361328126,3.775146484375,8.110870361328125,3.775146484375C7.903763361328125,3.775146484375,7.735870361328125,3.943039484375,7.735870361328125,4.150146484375C7.735870361328125,4.150146484375,8.485870361328125,4.150146484375,8.485870361328125,4.150146484375C8.485870361328125,4.150146484375,8.485870361328125,4.150146484375,8.485870361328125,4.150146484375ZM7.735870361328125,6.350156484375C7.735870361328125,6.557266484375,7.903763361328125,6.725156484375,8.110870361328125,6.725156484375C8.317977361328126,6.725156484375,8.485870361328125,6.557266484375,8.485870361328125,6.350156484375C8.485870361328125,6.350156484375,7.735870361328125,6.350156484375,7.735870361328125,6.350156484375C7.735870361328125,6.350156484375,7.735870361328125,6.350156484375,7.735870361328125,6.350156484375ZM7.735870361328125,4.150146484375C7.735870361328125,4.150146484375,7.735870361328125,6.350156484375,7.735870361328125,6.350156484375C7.735870361328125,6.350156484375,8.485870361328125,6.350156484375,8.485870361328125,6.350156484375C8.485870361328125,6.350156484375,8.485870361328125,4.150146484375,8.485870361328125,4.150146484375C8.485870361328125,4.150146484375,7.735870361328125,4.150146484375,7.735870361328125,4.150146484375C7.735870361328125,4.150146484375,7.735870361328125,4.150146484375,7.735870361328125,4.150146484375Z" fill="#292D32" fill-opacity="1"/></g></g><g style="opacity:0;"></g></g></svg>