<svg xmlns="http://www.w3.org/2000/svg" xmlns:xlink="http://www.w3.org/1999/xlink" fill="none" version="1.1" width="14" height="14" viewBox="0 0 14 14"><defs><clipPath id="master_svg0_2_4221"><rect x="0" y="0" width="14" height="14" rx="0"/></clipPath></defs><g clip-path="url(#master_svg0_2_4221)"><g><path d="M4.08349609375,4.958333C4.08349609375,4.63617,4.34466609375,4.375,4.66682909375,4.375L7.00016609375,4.375C7.32233609375,4.375,7.58349609375,4.63617,7.58349609375,4.958333C7.58349609375,5.280502,7.32233609375,5.54167,7.00016609375,5.54167L4.66682909375,5.54167C4.34466609375,5.54167,4.08349609375,5.280502,4.08349609375,4.958333ZM4.08349609375,7.29167C4.08349609375,6.96949,4.34466609375,6.70833,4.66682909375,6.70833L9.33349609375,6.70833C9.65566609375,6.70833,9.91682609375,6.96949,9.91682609375,7.29167C9.91682609375,7.61384,9.65566609375,7.875,9.33349609375,7.875L4.66682909375,7.875C4.34466609375,7.875,4.08349609375,7.61384,4.08349609375,7.29167ZM4.08349609375,9.625C4.08349609375,9.30282,4.34466609375,9.04167,4.66682909375,9.04167L9.33349609375,9.04167C9.65566609375,9.04167,9.91682609375,9.30282,9.91682609375,9.625C9.91682609375,9.94717,9.65566609375,10.20833,9.33349609375,10.20833L4.66682909375,10.20833C4.34466609375,10.20833,4.08349609375,9.94717,4.08349609375,9.625Z" fill="#454856" fill-opacity="1" style="mix-blend-mode:passthrough"/></g><g><path d="M1.75,1.75016609375C1.75,1.1058300937499999,2.272334,0.58349609375,2.91667,0.58349609375L11.08333,0.58349609375C11.72768,0.58349609375,12.25,1.1058300937499999,12.25,1.75016609375L12.25,12.25019609375C12.25,12.89449609375,11.72768,13.41679609375,11.08333,13.41679609375L2.91667,13.41679609375C2.272334,13.41679609375,1.75,12.89449609375,1.75,12.25019609375L1.75,1.75016609375ZM2.91667,1.75016609375L2.91667,12.25019609375L11.08333,12.25019609375L11.08333,1.75016609375L2.91667,1.75016609375Z" fill="#454856" fill-opacity="1" style="mix-blend-mode:passthrough"/></g></g></svg>