<svg xmlns="http://www.w3.org/2000/svg" xmlns:xlink="http://www.w3.org/1999/xlink" fill="none" version="1.1" width="12" height="12" viewBox="0 0 12 12"><defs><clipPath id="master_svg0_16_07515"><rect x="0" y="0" width="12" height="12" rx="0"/></clipPath></defs><g clip-path="url(#master_svg0_16_07515)"><g><g><g><path d="M5,2.0625C4.32832,2.0625,3.76295,2.52369,3.60591,3.14748C3.54842,3.37582,3.35478,3.5442,3.12067,3.56942C2.52593,3.63348,2.0625,4.13799,2.0625,4.75C2.0625,5.08237,2.19832,5.38203,2.41896,5.59825C2.52692,5.70405,2.5877600000000003,5.84884,2.5877600000000003,6C2.5877600000000003,6.15116,2.52692,6.29595,2.41896,6.40175C2.19832,6.61797,2.0625,6.91763,2.0625,7.25C2.0625,7.74559,2.36624,8.17155,2.7998700000000003,8.34936C2.95926,8.414719999999999,3.07992,8.549520000000001,3.12728,8.71517C3.32923,9.42146,3.98007,9.93754,4.75,9.93754C4.99545,9.93754,5.22785,9.88543,5.4375,9.79174L5.4375,8.5C5.4375,7.98221,5.01779,7.5625,4.5,7.5625C4.18934,7.5625,3.9375,7.31066,3.9375,7C3.9375,6.68934,4.18934,6.4375,4.5,6.4375C4.8375900000000005,6.4375,5.15623,6.5186,5.4375,6.66238L5.4375,2.13012C5.29988,2.08623,5.153,2.0625,5,2.0625ZM6.5625,2.13012L6.5625,3.5C6.5625,4.0177700000000005,6.98222,4.4375,7.5,4.4375C7.81066,4.4375,8.0625,4.68934,8.0625,5C8.0625,5.31066,7.81066,5.5625,7.5,5.5625C7.16241,5.5625,6.84377,5.48139,6.5625,5.33762L6.5625,9.79174C6.77217,9.88543,7.00456,9.93754,7.25,9.93754C8.019919999999999,9.93754,8.670770000000001,9.42146,8.87271,8.71517C8.920110000000001,8.549520000000001,9.04071,8.414719999999999,9.20014,8.34936C9.63377,8.17155,9.93754,7.74559,9.93754,7.25C9.93754,6.91762,9.80169,6.61797,9.58106,6.40175C9.47306,6.29595,9.41229,6.15116,9.41229,6C9.41229,5.84884,9.47306,5.70405,9.58106,5.59825C9.80169,5.38203,9.93754,5.08238,9.93754,4.75C9.93754,4.13799,9.47409,3.63348,8.87931,3.56942C8.64523,3.5442,8.45162,3.37583,8.39413,3.1475C8.23706,2.5237,7.67166,2.0625,7,2.0625C6.847,2.0625,6.70012,2.08623,6.5625,2.13012ZM6.00001,10.77C5.62312,10.9573,5.19833,11.0625,4.75,11.0625C3.55711,11.0625,2.53884,10.32026,2.1296299999999997,9.27326C1.419386,8.87923,0.9375,8.12144,0.9375,7.25C0.9375,6.78969,1.072371,6.36036,1.304237,6C1.072371,5.63964,0.9375,5.21031,0.9375,4.75C0.9375,3.68703,1.6543290000000002,2.79207,2.6311999999999998,2.52135C3.01567,1.591843,3.93086,0.9375,5,0.9375C5.35408,0.9375,5.69232,1.0096115,6,1.140111C6.30768,1.0096115,6.64592,0.9375,7,0.9375C8.069130000000001,0.9375,8.98431,1.5918510000000001,9.36883,2.52135C10.34563,2.79207,11.0625,3.68703,11.0625,4.75C11.0625,5.21031,10.92763,5.63964,10.69577,6C10.92763,6.36037,11.0625,6.78969,11.0625,7.25C11.0625,8.12145,10.58057,8.87923,9.87034,9.27326C9.46114,10.32026,8.442879999999999,11.0625,7.25,11.0625C6.80165,11.0625,6.37689,10.9572,6.00001,10.77Z" fill-rule="evenodd" fill="#4E5969" fill-opacity="1" style="mix-blend-mode:passthrough"/></g></g></g></g></svg>