<svg xmlns="http://www.w3.org/2000/svg" xmlns:xlink="http://www.w3.org/1999/xlink" fill="none" version="1.1" width="14" height="14" viewBox="0 0 14 14"><defs><clipPath id="master_svg0_2_25471"><rect x="0" y="0" width="14" height="14" rx="0"/></clipPath></defs><g clip-path="url(#master_svg0_2_25471)"><g><path d="M11.08335,1.75016609375L2.91667,1.75016609375L2.91667,12.25009609375L4.5730900000000005,12.25009609375C4.6843900000000005,12.68259609375,4.88633,13.07869609375,5.157439999999999,13.41679609375L2.91667,13.41679609375C2.272334,13.41679609375,1.75,12.89449609375,1.75,12.25009609375L1.75,1.75016609375C1.75,1.1058300937499999,2.272334,0.58349609375,2.91667,0.58349609375L11.08335,0.58349609375C11.72764,0.58349609375,12.25,1.1058300937499999,12.25,1.75016609375L12.25,7.50735609375C11.9225,7.16814609375,11.52755,6.89176609375,11.08335,6.70212609375L11.08335,1.75016609375Z" fill="#454856" fill-opacity="1" style="mix-blend-mode:passthrough"/></g><g><path d="M4.08349609375,4.083333C4.08349609375,3.76117,4.34466009375,3.5,4.66682909375,3.5L9.33350609375,3.5C9.655686093749999,3.5,9.91684609375,3.76117,9.91684609375,4.083333C9.91684609375,4.4055029999999995,9.655686093749999,4.66667,9.33350609375,4.66667L4.66682909375,4.66667C4.34466009375,4.66667,4.08349609375,4.4055029999999995,4.08349609375,4.083333ZM4.66682909375,6.12498C4.34466009375,6.12498,4.08349609375,6.38614,4.08349609375,6.7083200000000005C4.08349609375,7.03049,4.34466009375,7.291650000000001,4.66682909375,7.291650000000001L6.416846093749999,7.291650000000001C6.73901609375,7.291650000000001,7.0001760937499995,7.03049,7.0001760937499995,6.7083200000000005C7.0001760937499995,6.38614,6.73901609375,6.12498,6.416846093749999,6.12498L4.66682909375,6.12498ZM9.67604609375,7.58332C8.48224609375,7.58332,7.51029609375,8.44251,7.30070609375,9.54863C6.36223609375,9.68682,5.64191609375,10.495370000000001,5.64191609375,11.47222C5.64191609375,12.54608,6.51244609375,13.41665,7.58636609375,13.41665L11.46319609375,13.41665C12.65069609375,13.41665,13.54820609375,12.34122,13.33581609375,11.17286C13.21092609375,10.48593,12.72284609375,9.93158,12.07721609375,9.71172C11.93715609375,8.541789999999999,10.94234609375,7.58332,9.67604609375,7.58332ZM7.4706360937500005,10.70287L8.29231609375,10.58188L8.44695609375,9.765799999999999C8.55563609375,9.192319999999999,9.06114609375,8.74998,9.67604609375,8.74998C10.327046093749999,8.74998,10.846036093750001,9.2422,10.91883609375,9.850380000000001L11.00609609375,10.57943L11.70119609375,10.816089999999999C11.950926093749999,10.90114,12.13969609375,11.11604,12.18793609375,11.38157C12.27018609375,11.83377,11.922806093750001,12.24998,11.46319609375,12.24998L7.58636609375,12.24998C7.15679609375,12.24998,6.8085460937499995,11.90179,6.8085460937499995,11.47222C6.8085460937499995,11.0825,7.09630609375,10.75793,7.4706360937500005,10.70287Z" fill="#454856" fill-opacity="1" style="mix-blend-mode:passthrough"/></g></g></svg>