<svg xmlns="http://www.w3.org/2000/svg" xmlns:xlink="http://www.w3.org/1999/xlink" fill="none" version="1.1" width="12.250014305114746" height="12.250014305114746" viewBox="0 0 12.250014305114746 12.250014305114746"><g><path d="M10.1989,0.209598C10.3024,-0.0698659,10.6976,-0.0698659,10.8011,0.209598L11.0846,0.975788C11.1171,1.06365,11.1863,1.13293,11.2742,1.16544L12.0404,1.44895C12.3199,1.55237,12.3199,1.94763,12.0404,2.05105L11.2742,2.33456C11.1863,2.36707,11.1171,2.43635,11.0846,2.52421L10.8011,3.2904C10.6976,3.56987,10.3024,3.56987,10.1989,3.2904L9.91544,2.52421C9.88295,2.43635,9.81365,2.36707,9.7258,2.33456L8.95959,2.05105C8.68012,1.94763,8.68012,1.55237,8.95959,1.44895L9.7258,1.16544C9.81365,1.13293,9.88295,1.06365,9.91544,0.975788L10.1989,0.209598ZM7.02812,1.50379C6.7179,0.665403,5.5321,0.665403,5.22188,1.50379L4.37131,3.80236C4.27378,4.06596,4.06596,4.27378,3.80236,4.37131L1.50379,5.22188C0.665403,5.5321,0.665403,6.7179,1.50379,7.02812L3.80236,7.87867C4.06596,7.97621,4.27378,8.18405,4.37131,8.44766L5.22188,10.7462C5.5321,11.5846,6.7179,11.5846,7.02812,10.7462L7.87867,8.44766C7.97621,8.18405,8.18405,7.97621,8.44766,7.87867L10.7462,7.02812C11.5846,6.7179,11.5846,5.5321,10.7462,5.22188L8.44766,4.37131C8.18405,4.27378,7.97621,4.06596,7.87867,3.80236L7.02812,1.50379ZM2.05105,8.95959C1.94763,8.68012,1.55237,8.68012,1.44895,8.95959L1.16544,9.7258C1.13293,9.81365,1.06365,9.88295,0.975788,9.91544L0.209598,10.1989C-0.0698659,10.3024,-0.0698659,10.6976,0.209598,10.8011L0.975788,11.0846C1.06365,11.1171,1.13293,11.1863,1.16544,11.2742L1.44895,12.0404C1.55237,12.3199,1.94763,12.3199,2.05105,12.0404L2.33456,11.2742C2.36707,11.1863,2.43635,11.1171,2.52421,11.0846L3.2904,10.8011C3.56987,10.6976,3.56987,10.3024,3.2904,10.1989L2.52421,9.91544C2.43635,9.88295,2.36707,9.81365,2.33456,9.7258L2.05105,8.95959Z" fill="#000000" fill-opacity="1" style="mix-blend-mode:passthrough"/></g></svg>