<svg xmlns="http://www.w3.org/2000/svg" xmlns:xlink="http://www.w3.org/1999/xlink" fill="none" version="1.1" width="8" height="8" viewBox="0 0 8 8"><g><path d="M3.5,0C3.22386,0,3,0.223858,3,0.5L3,3L0.5,3C0.22386,3,0,3.22386,0,3.5L0,4.5C0,4.77614,0.22386,5,0.5,5L3,5L3,7.5C3,7.77614,3.22386,8,3.5,8L4.5,8C4.77614,8,5,7.77614,5,7.5L5,5L7.5,5C7.77614,5,8,4.77614,8,4.5L8,3.5C8,3.22386,7.77614,3,7.5,3L5,3L5,0.5C5,0.223858,4.77614,0,4.5,0L3.5,0Z" fill-rule="evenodd" fill="#1D2129" fill-opacity="1"/></g></svg>