<svg xmlns="http://www.w3.org/2000/svg" xmlns:xlink="http://www.w3.org/1999/xlink" fill="none" version="1.1" width="18" height="18" viewBox="0 0 18 18"><defs><clipPath id="master_svg0_1_36116"><rect x="0" y="0" width="18" height="18" rx="0"/></clipPath></defs><g clip-path="url(#master_svg0_1_36116)"><g><path d="M6.32544375,2.323901C6.46070375,1.836978,6.90403375,1.5,7.40938375,1.5C7.40938375,1.5,10.58934375,1.5,10.58934375,1.5C11.09469375,1.5,11.53801375,1.836977,11.67329375,2.323901C11.67329375,2.323901,12.05679375,3.70446,12.05679375,3.70446C12.05679375,3.70446,13.44419375,3.34626,13.44419375,3.34626C13.93359375,3.2199400000000002,14.44709375,3.4354,14.69969375,3.87305C14.69969375,3.87305,16.289693749999998,6.62696,16.289693749999998,6.62696C16.542393750000002,7.06462,16.472193750000002,7.61704,16.11819375,7.97764C16.11819375,7.97764,15.11429375,9,15.11429375,9C15.11429375,9,16.11819375,10.02236,16.11819375,10.02236C16.472193750000002,10.38296,16.542393750000002,10.93541,16.289693749999998,11.37304C16.289693749999998,11.37304,14.69969375,14.127,14.69969375,14.127C14.44709375,14.5646,13.93359375,14.7801,13.44419375,14.6537C13.44419375,14.6537,12.05679375,14.2955,12.05679375,14.2955C12.05679375,14.2955,11.67329375,15.6761,11.67329375,15.6761C11.53801375,16.163,11.09469375,16.5,10.58934375,16.5C10.58934375,16.5,7.40938375,16.5,7.40938375,16.5C6.90403375,16.5,6.46070375,16.163,6.32544375,15.6761C6.32544375,15.6761,5.94197375,14.2956,5.94197375,14.2956C5.94197375,14.2956,4.55480375,14.6537,4.55480375,14.6537C4.06548375,14.7801,3.5519837499999998,14.5646,3.29930375,14.127C3.29930375,14.127,1.70933975,11.37304,1.70933975,11.37304C1.45665975,10.93541,1.52681945,10.38296,1.88087975,10.02236C1.88087975,10.02236,2.88470375,9,2.88470375,9C2.88470375,9,1.88088075,7.97764,1.88088075,7.97764C1.52682235,7.61704,1.45666075,7.06462,1.70934075,6.62696C1.70934075,6.62696,3.29931375,3.87305,3.29931375,3.87305C3.5519937500000003,3.4354,4.06549375,3.2199400000000002,4.55480375,3.34626C4.55480375,3.34626,5.94197375,3.70438,5.94197375,3.70438C5.94197375,3.70438,6.32544375,2.323901,6.32544375,2.323901C6.32544375,2.323901,6.32544375,2.323901,6.32544375,2.323901ZM5.84341375,13.9408C5.84341375,13.9408,5.84357375,13.9413,5.84357375,13.9413C5.84357375,13.9413,5.84341375,13.9408,5.84341375,13.9408ZM7.69442375,3C7.69442375,3,7.28870375,4.4606200000000005,7.28870375,4.4606200000000005C7.12457375,5.051550000000001,6.51733375,5.4021,5.92351375,5.2488C5.92351375,5.2488,4.45583375,4.86989,4.45583375,4.86989C4.45583375,4.86989,3.15089375,7.1301,3.15089375,7.1301C3.15089375,7.1301,4.21299375,8.21182,4.21299375,8.21182C4.64267375,8.64945,4.64267375,9.35059,4.21299375,9.78818C4.21299375,9.78818,3.15089375,10.8699,3.15089375,10.8699C3.15089375,10.8699,4.45583375,13.1301,4.45583375,13.1301C4.45583375,13.1301,5.92351375,12.7512,5.92351375,12.7512C6.51737375,12.5979,7.12457375,12.9485,7.28870375,13.5394C7.28870375,13.5394,7.69442375,15,7.69442375,15C7.69442375,15,10.30430375,15,10.30430375,15C10.30430375,15,10.71005375,13.5393,10.71005375,13.5393C10.87419375,12.9484,11.48139375,12.5978,12.07519375,12.7511C12.07519375,12.7511,13.54319375,13.1301,13.54319375,13.1301C13.54319375,13.1301,14.84819375,10.8699,14.84819375,10.8699C14.84819375,10.8699,13.78599375,9.78818,13.78599375,9.78818C13.35639375,9.35059,13.35639375,8.64945,13.78599375,8.21182C13.78599375,8.21182,14.84819375,7.1301,14.84819375,7.1301C14.84819375,7.1301,13.54319375,4.8698999999999995,13.54319375,4.8698999999999995C13.54319375,4.8698999999999995,12.07519375,5.24888,12.07519375,5.24888C11.48139375,5.40217,10.87419375,5.05162,10.71005375,4.4607C10.71005375,4.4607,11.05821375,3.36517,10.30430375,3C9.55039375,2.63483,7.69442375,3,7.69442375,3C7.69442375,3,7.69442375,3,7.69442375,3ZM8.999343750000001,7.5C8.17093375,7.5,7.49934375,8.17159,7.49934375,9C7.49934375,9.82841,8.17093375,10.5,8.999343750000001,10.5C9.82779375,10.5,10.49934375,9.82841,10.49934375,9C10.49934375,8.17159,9.82779375,7.5,8.999343750000001,7.5C8.999343750000001,7.5,8.999343750000001,7.5,8.999343750000001,7.5ZM5.99934375,9C5.99934375,7.34314,7.34252375,6,8.999343750000001,6C10.65620375,6,11.99939375,7.34314,11.99939375,9C11.99939375,10.65686,10.65620375,12,8.999343750000001,12C7.34252375,12,5.99934375,10.65686,5.99934375,9C5.99934375,9,5.99934375,9,5.99934375,9Z" fill-rule="evenodd" fill="#767676" fill-opacity="1"/></g></g></svg>