<svg xmlns="http://www.w3.org/2000/svg" xmlns:xlink="http://www.w3.org/1999/xlink" fill="none" version="1.1" width="14" height="14" viewBox="0 0 14 14"><g><path d="M6.5,5.25L4.5,5.25C4.2,5.25,4,5.01667,4,4.66667L4,0.583333C4,0.233333,4.2,0,4.5,0L9.5,0C9.8,0,10,0.233333,10,0.583333L10,4.66667C10,5.01667,9.8,5.25,9.5,5.25L7.5,5.25L7.5,6.41667L11,6.41667C11.3,6.41667,11.5,6.65,11.5,7L11.5,8.75L13.5,8.75C13.8,8.75,14,8.98333,14,9.33333L14,13.4167C14,13.7667,13.8,14,13.5,14L8.5,14C8.2,14,8,13.7667,8,13.4167L8,9.33333C8,8.98333,8.2,8.75,8.5,8.75L10.5,8.75L10.5,7.58333L3.5,7.58333L3.5,8.75L5.5,8.75C5.8,8.75,6,8.98333,6,9.33333L6,13.4167C6,13.7667,5.8,14,5.5,14L0.5,14C0.2,14,0,13.7667,0,13.4167L0,9.33333C0,8.98333,0.2,8.75,0.5,8.75L2.5,8.75L2.5,7C2.5,6.65,2.7,6.41667,3,6.41667L6.5,6.41667L6.5,5.25ZM5,9.91667L1,9.91667L1,12.8333L5,12.8333L5,9.91667ZM13,9.91667L9,9.91667L9,12.8333L13,12.8333L13,9.91667ZM9,1.16667L5,1.16667L5,4.08333L9,4.08333L9,1.16667Z" fill="#383743" fill-opacity="1" style="mix-blend-mode:passthrough"/></g></svg>