<svg  width="1em" height="1em" viewBox="0 0 24 24" fill="currentColor" xmlns="http://www.w3.org/2000/svg"><path d="M3 3C1.89543 3 1 3.89543 1 5V19C1 20.1046 1.89543 21 3 21H11.6546C11.2677 20.3875 10.967 19.7152 10.7696 19H3V5H21V10.1241C21.7357 10.4455 22.4099 10.8816 23 11.4097V5C23 3.89543 22.1046 3 21 3H3Z"></path><path d="M6 7C5.44772 7 5 7.44772 5 8 5 8.55228 5.44771 9 6 9H15C15.5523 9 16 8.55228 16 8 16 7.44772 15.5523 7 15 7H6zM5 12C5 11.4477 5.44772 11 6 11H11C11.5523 11 12 11.4477 12 12 12 12.5523 11.5523 13 11 13H6C5.44772 13 5 12.5523 5 12zM15.4302 16.2374C15.1373 16.5303 15.1373 17.0051 15.4302 17.298L17.1899 19.0577 17.1979 19.0659C17.4908 19.3588 17.9657 19.3588 18.2586 19.0659L20.7335 16.591C21.0264 16.2981 21.0264 15.8232 20.7335 15.5303 20.4406 15.2374 19.9657 15.2374 19.6728 15.5303L17.7283 17.4748 16.4909 16.2374C16.198 15.9445 15.7231 15.9445 15.4302 16.2374z"></path><path fill-rule="evenodd" clip-rule="evenodd" d="M24 17C24 20.3137 21.3137 23 18 23C14.6863 23 12 20.3137 12 17C12 13.6863 14.6863 11 18 11C21.3137 11 24 13.6863 24 17ZM22 17C22 19.2091 20.2091 21 18 21C15.7909 21 14 19.2091 14 17C14 14.7909 15.7909 13 18 13C20.2091 13 22 14.7909 22 17Z"></path></svg>