<svg xmlns="http://www.w3.org/2000/svg" xmlns:xlink="http://www.w3.org/1999/xlink" fill="none" version="1.1" width="14.041015625" height="14.041748046875" viewBox="0 0 14.041015625 14.041748046875"><g><g><g><g><path d="M5.27083,13.2917C5.27083,13.2917,8.77083,13.2917,8.77083,13.2917C8.77083,13.2917,8.77083,12.4167,8.77083,12.4167C8.77083,12.4167,5.27083,12.4167,5.27083,12.4167C5.27083,12.4167,5.27083,13.2917,5.27083,13.2917C5.27083,13.2917,5.27083,13.2917,5.27083,13.2917ZM8.77083,13.2917C10.27233,13.2917,11.4372,12.994,12.2156,12.2156C12.994,11.4372,13.2917,10.27233,13.2917,8.77083C13.2917,8.77083,12.4167,8.77083,12.4167,8.77083C12.4167,10.186,12.1309,11.0628,11.5969,11.5969C11.0628,12.1309,10.186,12.4167,8.77083,12.4167C8.77083,12.4167,8.77083,13.2917,8.77083,13.2917C8.77083,13.2917,8.77083,13.2917,8.77083,13.2917ZM13.2917,8.77083C13.2917,8.77083,13.2917,5.27083,13.2917,5.27083C13.2917,5.27083,12.4167,5.27083,12.4167,5.27083C12.4167,5.27083,12.4167,8.77083,12.4167,8.77083C12.4167,8.77083,13.2917,8.77083,13.2917,8.77083C13.2917,8.77083,13.2917,8.77083,13.2917,8.77083ZM13.2917,5.27083C13.2917,3.76935,12.994,2.6045,12.2156,1.82606C11.4372,1.047617,10.27233,0.7500000000000001,8.77083,0.7500000000000001C8.77083,0.7500000000000001,8.77083,1.625,8.77083,1.625C10.186,1.625,11.0628,1.91072,11.5969,2.4447799999999997C12.1309,2.97883,12.4167,3.85565,12.4167,5.27083C12.4167,5.27083,13.2917,5.27083,13.2917,5.27083C13.2917,5.27083,13.2917,5.27083,13.2917,5.27083ZM8.77083,0.7500000000000001C8.77083,0.7500000000000001,5.27083,0.7500000000000001,5.27083,0.7500000000000001C5.27083,0.7500000000000001,5.27083,1.625,5.27083,1.625C5.27083,1.625,8.77083,1.625,8.77083,1.625C8.77083,1.625,8.77083,0.7500000000000001,8.77083,0.7500000000000001C8.77083,0.7500000000000001,8.77083,0.7500000000000001,8.77083,0.7500000000000001ZM5.27083,0.7500000000000001C3.76935,0.7500000000000001,2.6045,1.047617,1.82606,1.82606C1.047617,2.6045,0.7500000000000001,3.76935,0.7500000000000001,5.27083C0.7500000000000001,5.27083,1.625,5.27083,1.625,5.27083C1.625,3.85565,1.91072,2.97883,2.4447799999999997,2.4447799999999997C2.97883,1.91072,3.85565,1.625,5.27083,1.625C5.27083,1.625,5.27083,0.7500000000000001,5.27083,0.7500000000000001C5.27083,0.7500000000000001,5.27083,0.7500000000000001,5.27083,0.7500000000000001ZM0.7500000000000001,5.27083C0.7500000000000001,5.27083,0.7500000000000001,8.77083,0.7500000000000001,8.77083C0.7500000000000001,8.77083,1.625,8.77083,1.625,8.77083C1.625,8.77083,1.625,5.27083,1.625,5.27083C1.625,5.27083,0.7500000000000001,5.27083,0.7500000000000001,5.27083C0.7500000000000001,5.27083,0.7500000000000001,5.27083,0.7500000000000001,5.27083ZM0.7500000000000001,8.77083C0.7500000000000001,10.27233,1.047617,11.4372,1.82606,12.2156C2.6045,12.994,3.76935,13.2917,5.27083,13.2917C5.27083,13.2917,5.27083,12.4167,5.27083,12.4167C3.85565,12.4167,2.97883,12.1309,2.4447799999999997,11.5969C1.91072,11.0628,1.625,10.186,1.625,8.77083C1.625,8.77083,0.7500000000000001,8.77083,0.7500000000000001,8.77083C0.7500000000000001,8.77083,0.7500000000000001,8.77083,0.7500000000000001,8.77083Z" fill="#292D32" fill-opacity="1"/><path d="M1.295722,12.7459L1.295741,12.7459Q2.59146,14.0417,5.27083,14.0417L8.77083,14.0417Q11.4503,14.0417,12.7459,12.7459Q14.0417,11.4503,14.0417,8.77083L14.0417,5.27083Q14.0417,2.59144,12.7459,1.295721Q11.4503,0,8.77083,0L5.27083,0Q2.59146,0,1.2957269999999999,1.2957269999999999Q0,2.59146,0,5.27083L0,8.77083Q0,11.4502,1.295722,12.7459ZM5.27083,11.6667Q3.57525,11.6667,2.97513,11.0666L2.9751,11.0666Q2.375,10.46639,2.375,8.77083L2.375,5.27083Q2.375,3.57521,2.97511,2.97511Q3.57521,2.375,5.27083,2.375L8.77083,2.375Q10.46643,2.375,11.0666,2.97513Q11.6667,3.57521,11.6667,5.27083L11.6667,8.77083Q11.6667,10.46642,11.0665,11.0666Q10.46642,11.6667,8.77083,11.6667L5.27083,11.6667Z" fill-rule="evenodd" fill="#000000" fill-opacity="1"/></g><g><path d="M1.205078125,4.54150390625C0.963453125,4.54150390625,0.767578125,4.73737890625,0.767578125,4.97900390625C0.767578125,5.22062890625,0.963453125,5.41650390625,1.205078125,5.41650390625C1.205078125,5.41650390625,1.205078125,4.54150390625,1.205078125,4.54150390625C1.205078125,4.54150390625,1.205078125,4.54150390625,1.205078125,4.54150390625ZM12.854278125,5.41650390625C13.095878125,5.41650390625,13.291778125,5.22062890625,13.291778125,4.97900390625C13.291778125,4.73737890625,13.095878125,4.54150390625,12.854278125,4.54150390625C12.854278125,4.54150390625,12.854278125,5.41650390625,12.854278125,5.41650390625C12.854278125,5.41650390625,12.854278125,5.41650390625,12.854278125,5.41650390625ZM1.205078125,5.41650390625C1.205078125,5.41650390625,12.854278125,5.41650390625,12.854278125,5.41650390625C12.854278125,5.41650390625,12.854278125,4.54150390625,12.854278125,4.54150390625C12.854278125,4.54150390625,1.205078125,4.54150390625,1.205078125,4.54150390625C1.205078125,4.54150390625,1.205078125,5.41650390625,1.205078125,5.41650390625C1.205078125,5.41650390625,1.205078125,5.41650390625,1.205078125,5.41650390625Z" fill="#292D32" fill-opacity="1"/><path d="M13.316678125,3.88513190625Q13.095378125,3.79150390625,12.854278125,3.79150390625L1.205078125,3.79150390625Q0.963980125,3.79150390625,0.742619525,3.88513090625Q0.529379125,3.97532490625,0.365389125,4.13931490625Q0.201399125,4.30330490625,0.11120512500000002,4.51654520625Q0.017578125,4.73790590625,0.017578125,4.97900390625Q0.017578125,5.22010190625,0.11120512500000002,5.44146290625Q0.201399125,5.65470390625,0.365389125,5.81869390625Q0.529379125,5.98268390625,0.742619525,6.07287390625Q0.963980125,6.16650390625,1.205078125,6.16650390625L12.854278125,6.16650390625Q13.095378125,6.16650390625,13.316678125,6.07287390625Q13.529978125,5.98268390625,13.693878125,5.81869390625Q13.857878125,5.6547139062500005,13.948078125,5.44146990625Q14.041778125,5.22010390625,14.041778125,4.97900390625Q14.041778125,4.73790390625,13.948078125,4.51653760625Q13.857878125,4.30329790625,13.693878125,4.1393109062499995Q13.529978125,3.97532490625,13.316678125,3.88513190625Z" fill-rule="evenodd" fill="#000000" fill-opacity="1"/></g><g><path d="M1.205078125,8.625C0.963453125,8.625,0.767578125,8.820875,0.767578125,9.0625C0.767578125,9.304124999999999,0.963453125,9.5,1.205078125,9.5C1.205078125,9.5,1.205078125,8.625,1.205078125,8.625C1.205078125,8.625,1.205078125,8.625,1.205078125,8.625ZM12.854278125,9.5C13.095878125,9.5,13.291778125,9.304124999999999,13.291778125,9.0625C13.291778125,8.820875,13.095878125,8.625,12.854278125,8.625C12.854278125,8.625,12.854278125,9.5,12.854278125,9.5C12.854278125,9.5,12.854278125,9.5,12.854278125,9.5ZM1.205078125,9.5C1.205078125,9.5,12.854278125,9.5,12.854278125,9.5C12.854278125,9.5,12.854278125,8.625,12.854278125,8.625C12.854278125,8.625,1.205078125,8.625,1.205078125,8.625C1.205078125,8.625,1.205078125,9.5,1.205078125,9.5C1.205078125,9.5,1.205078125,9.5,1.205078125,9.5Z" fill="#292D32" fill-opacity="1"/><path d="M13.316678125,7.968628Q13.095378125,7.875,12.854278125,7.875L1.205078125,7.875Q0.963980125,7.875,0.742619525,7.968627Q0.529379125,8.058821,0.365389125,8.222811Q0.201399125,8.386801,0.11120512500000002,8.6000413Q0.017578125,8.821402,0.017578125,9.0625Q0.017578125,9.303598000000001,0.11120512500000002,9.524958999999999Q0.201399125,9.738199999999999,0.365389125,9.902190000000001Q0.529379125,10.06618,0.742619525,10.156369999999999Q0.963980125,10.25,1.205078125,10.25L12.854278125,10.25Q13.095378125,10.25,13.316678125,10.156369999999999Q13.529978125,10.06618,13.693878125,9.902190000000001Q13.857878125,9.73821,13.948078125,9.524966Q14.041778125,9.3036,14.041778125,9.0625Q14.041778125,8.8214,13.948078125,8.6000337Q13.857878125,8.386794,13.693878125,8.222807Q13.529978125,8.058821,13.316678125,7.968628Z" fill-rule="evenodd" fill="#000000" fill-opacity="1"/></g><g><path d="M4.548828125,12.848359375C4.548828125,13.089959375,4.744703125,13.285859375,4.986328125,13.285859375C5.227953125,13.285859375,5.423828125,13.089959375,5.423828125,12.848359375C5.423828125,12.848359375,4.548828125,12.848359375,4.548828125,12.848359375C4.548828125,12.848359375,4.548828125,12.848359375,4.548828125,12.848359375ZM5.423828125,1.193359375C5.423828125,0.951734375,5.227953125,0.755859375,4.986328125,0.755859375C4.744703125,0.755859375,4.548828125,0.951734375,4.548828125,1.193359375C4.548828125,1.193359375,5.423828125,1.193359375,5.423828125,1.193359375C5.423828125,1.193359375,5.423828125,1.193359375,5.423828125,1.193359375ZM5.423828125,12.848359375C5.423828125,12.848359375,5.423828125,1.193359375,5.423828125,1.193359375C5.423828125,1.193359375,4.548828125,1.193359375,4.548828125,1.193359375C4.548828125,1.193359375,4.548828125,12.848359375,4.548828125,12.848359375C4.548828125,12.848359375,5.423828125,12.848359375,5.423828125,12.848359375C5.423828125,12.848359375,5.423828125,12.848359375,5.423828125,12.848359375Z" fill="#292D32" fill-opacity="1"/><path d="M3.892455125,0.730900675Q3.798828125,0.952261375,3.798828125,1.193359375L3.798828125,12.848359375Q3.798828125,13.089459375,3.892456125,13.310859375Q3.982649125,13.524059375,4.1466351249999995,13.688059375Q4.310622125,13.852059375,4.523861725,13.942259375Q4.745226125,14.035859375,4.986328125,14.035859375Q5.227430125,14.035859375,5.448794125,13.942259375Q5.6620381250000005,13.852059375,5.826018125,13.688059375Q5.990008125,13.524059375,6.080198125,13.310859375Q6.173828125,13.089459375,6.173828125,12.848359375L6.173828125,1.193359375Q6.173828125,0.952261375,6.080198125,0.730900775Q5.990008125,0.517660375,5.826018125,0.353670375Q5.662028125,0.189680375,5.448787125,0.09948637500000002Q5.227426125,0.005859375,4.986328125,0.005859375Q4.745230125,0.005859375,4.523869525,0.09948637500000002Q4.310629125,0.189680375,4.146639125,0.353670375Q3.982649125,0.517660375,3.892455125,0.730900675Z" fill-rule="evenodd" fill="#000000" fill-opacity="1"/></g><g><path d="M8.630859375,12.848359375C8.630859375,13.089959375,8.826734375,13.285859375,9.068359375,13.285859375C9.309984374999999,13.285859375,9.505859375,13.089959375,9.505859375,12.848359375C9.505859375,12.848359375,8.630859375,12.848359375,8.630859375,12.848359375C8.630859375,12.848359375,8.630859375,12.848359375,8.630859375,12.848359375ZM9.505859375,1.193359375C9.505859375,0.951734375,9.309984374999999,0.755859375,9.068359375,0.755859375C8.826734375,0.755859375,8.630859375,0.951734375,8.630859375,1.193359375C8.630859375,1.193359375,9.505859375,1.193359375,9.505859375,1.193359375C9.505859375,1.193359375,9.505859375,1.193359375,9.505859375,1.193359375ZM9.505859375,12.848359375C9.505859375,12.848359375,9.505859375,1.193359375,9.505859375,1.193359375C9.505859375,1.193359375,8.630859375,1.193359375,8.630859375,1.193359375C8.630859375,1.193359375,8.630859375,12.848359375,8.630859375,12.848359375C8.630859375,12.848359375,9.505859375,12.848359375,9.505859375,12.848359375C9.505859375,12.848359375,9.505859375,12.848359375,9.505859375,12.848359375Z" fill="#292D32" fill-opacity="1"/><path d="M7.974486375,0.730900675Q7.880859375,0.952261375,7.880859375,1.193359375L7.880859375,12.848359375Q7.880859375,13.089459375,7.974487375,13.310859375Q8.064680375,13.524059375,8.228666375,13.688059375Q8.392653375,13.852059375,8.605892975,13.942259375Q8.827257375,14.035859375,9.068359375,14.035859375Q9.309461375,14.035859375,9.530825375,13.942259375Q9.744069375,13.852059375,9.908049375000001,13.688059375Q10.072039375,13.524059375,10.162229374999999,13.310859375Q10.255859375,13.089459375,10.255859375,12.848359375L10.255859375,1.193359375Q10.255859375,0.952261375,10.162229374999999,0.730900775Q10.072039375,0.517660375,9.908049375000001,0.353670375Q9.744059374999999,0.189680375,9.530818374999999,0.09948637500000002Q9.309457375000001,0.005859375,9.068359375,0.005859375Q8.827261375,0.005859375,8.605900775,0.09948637500000002Q8.392660375,0.189680375,8.228670375,0.353670375Q8.064680375,0.517660375,7.974486375,0.730900675Z" fill-rule="evenodd" fill="#000000" fill-opacity="1"/></g><g style="opacity:0;"><path d="" fill-rule="evenodd" fill="#000000" fill-opacity="1"/></g></g></g></g></svg>