<svg xmlns="http://www.w3.org/2000/svg" xmlns:xlink="http://www.w3.org/1999/xlink" fill="none" version="1.1" width="24" height="24" viewBox="0 0 24 24"><defs><clipPath id="master_svg0_2_4187"><rect x="0" y="0" width="24" height="24" rx="0"/></clipPath></defs><g clip-path="url(#master_svg0_2_4187)"><g><path d="M3.0315,1.5C2.738,1.5,2.5,1.738,2.5,2.0315L2.5,17.559C2.5,18.869,3.041,20.126,4.004,21.0525C4.9670000000000005,21.98,6.273,22.5,7.635,22.5L20.9685,22.5C21.262,22.5,21.5,22.262,21.5,21.9685L21.5,6.441C21.5,5.131,20.959,3.874,19.996,2.947C19.033,2.0205,17.727,1.5,16.365000000000002,1.5L3.0315,1.5ZM14.8655,6.75L6.752,6.75L6.752,14.8635C6.752,16.1815,7.82047,17.25,9.1385,17.25L17.252000000000002,17.25L17.252000000000002,9.1365C17.252299999999998,7.81855,16.183500000000002,6.75,14.8655,6.75L14.8655,6.75ZM12.6785,11.284L12.6785,8.182L14.8655,8.182C15.3927,8.182,15.8202,8.609259999999999,15.8205,9.1365L15.8205,11.284L12.6785,11.284ZM8.1835,8.182L11.247,8.182L11.247,11.284L8.184000000000001,11.284L8.1835,8.182L8.1835,8.182ZM8.1835,14.8635L8.1835,12.716L11.247,12.716L11.247,15.818L9.1385,15.818C8.61126,15.818,8.183779999999999,15.3907,8.1835,14.8635ZM15.82,15.8185L12.6785,15.8185L12.6785,12.716L15.82,12.716L15.82,15.8185L15.82,15.8185Z" fill-rule="evenodd" fill="#009A29" fill-opacity="1"/></g></g></svg>