<svg xmlns="http://www.w3.org/2000/svg" xmlns:xlink="http://www.w3.org/1999/xlink" fill="none" version="1.1" width="24" height="24" viewBox="0 0 24 24"><defs><clipPath id="master_svg0_2_11677"><rect x="0" y="0" width="24" height="24" rx="0"/></clipPath></defs><g clip-path="url(#master_svg0_2_11677)"><g><path d="M3.035500186920166,1.499500036239624C2.742000186920166,1.499500036239624,2.504000186920166,1.737500036239624,2.504000186920166,2.031000036239624L2.504000186920166,17.562500036239623C2.504000186920166,18.873000036239624,3.045000186920166,20.130500036239624,4.008500186920166,21.057500036239624C4.971500186920165,21.984000036239625,6.278500186920166,22.505000036239625,7.640500186920166,22.505000036239625L20.977000186920165,22.505000036239625C21.270500186920167,22.505000036239625,21.508500186920166,22.267000036239622,21.508500186920166,21.973000036239625L21.508500186920166,6.442000036239624C21.508500186920166,5.131000036239624,20.967500186920166,3.874000036239624,20.004500186920165,2.947000036239624C19.041000186920165,2.020000036239624,17.734500186920165,1.500000000239624,16.372500186920163,1.500000000239624L3.035500186920166,1.499500036239624L3.035500186920166,1.499500036239624ZM7.0000001869201665,8.701000036239623C7.0000001869201665,8.314400036239624,7.313400186920166,8.001000036239624,7.700000186920166,8.001000036239624L16.302500186920167,8.001000036239624C16.689400186920167,8.000620036239624,17.003200186920168,8.314130036239625,17.003200186920168,8.701000036239623C17.003200186920168,9.087870036239625,16.689400186920167,9.401380036239624,16.302500186920167,9.401000036239624L7.700000186920166,9.401000036239624C7.313400186920166,9.401000036239624,7.0000001869201665,9.087600036239625,7.0000001869201665,8.701000036239623ZM7.0000001869201665,12.102000036239623C7.0000001869201665,11.715400036239624,7.313400186920166,11.402000036239624,7.700000186920166,11.402000036239624L16.302500186920167,11.402000036239624C16.689100186920165,11.402000036239624,17.002500186920166,11.715400036239624,17.002500186920166,12.102000036239623C17.002500186920166,12.488600036239625,16.689100186920165,12.802000036239624,16.302500186920167,12.802000036239624L7.700000186920166,12.802000036239624C7.313400186920166,12.802000036239624,7.0000001869201665,12.488600036239625,7.0000001869201665,12.102000036239623ZM7.700000186920166,14.802500036239625C7.313260186920166,14.802500036239625,6.999750186920166,15.116000036239624,6.999750186920166,15.502800036239623C6.999750186920166,15.889500036239625,7.313260186920166,16.203000036239622,7.700000186920166,16.203000036239622L12.301500186920165,16.203000036239622C12.688100186920167,16.203000036239622,13.001500186920167,15.889600036239624,13.001500186920167,15.503000036239625C13.001500186920167,15.116400036239623,12.688100186920167,14.803000036239624,12.301500186920165,14.803000036239624L7.700000186920166,14.802500036239625L7.700000186920166,14.802500036239625Z" fill-rule="evenodd" fill="#165DFF" fill-opacity="1"/></g></g></svg>