<svg xmlns="http://www.w3.org/2000/svg" xmlns:xlink="http://www.w3.org/1999/xlink" fill="none" version="1.1" width="14" height="14" viewBox="0 0 14 14"><defs><clipPath id="master_svg0_1_128255"><rect x="0" y="0" width="14" height="14" rx="0"/></clipPath></defs><g clip-path="url(#master_svg0_1_128255)"><g><path d="M4.66667,1.166748046875C4.022334,1.166748046875,3.5,1.6890820468749999,3.5,2.333418046875L3.5,10.500078046875C3.5,11.788748046875,4.54467,12.833448046875,5.83333,12.833448046875L11.66667,12.833448046875C12.31102,12.833448046875,12.83333,12.311148046875,12.83333,11.666748046875L12.83333,3.500078046875C12.83333,2.211418046875,11.78864,1.166748046875,10.5,1.166748046875L4.66667,1.166748046875ZM6.41667,4.666748046875C6.09449,4.666748046875,5.83333,4.927918046875,5.83333,5.250078046875C5.83333,5.572248046875,6.09449,5.833418046875,6.41667,5.833418046875L9.91667,5.833418046875C10.23884,5.833418046875,10.5,5.572248046875,10.5,5.250078046875C10.5,4.927918046875,10.23884,4.666748046875,9.91667,4.666748046875L6.41667,4.666748046875ZM5.83333,8.166748046875C5.83333,7.844568046875,6.09449,7.583418046875,6.41667,7.583418046875L8.75,7.583418046875C9.07218,7.583418046875,9.33333,7.844568046875,9.33333,8.166748046875C9.33333,8.488928046875,9.07218,8.750078046875,8.75,8.750078046875L6.41667,8.750078046875C6.09449,8.750078046875,5.83333,8.488928046875,5.83333,8.166748046875Z" fill-rule="evenodd" fill="#000000" fill-opacity="1" style="mix-blend-mode:passthrough"/></g><g><path d="M2.3336621875,2.333251953125C1.6893261874999999,2.333251953125,1.1669921875,2.855585953125,1.1669921875,3.499921953125L1.1669921875,10.499921953125C1.1669921875,11.144271953125,1.6893261874999999,11.666581953125,2.3336621875,11.666581953125L2.3336621875,2.333251953125Z" fill="#000000" fill-opacity="1" style="mix-blend-mode:passthrough"/></g></g></svg>