<svg xmlns="http://www.w3.org/2000/svg" xmlns:xlink="http://www.w3.org/1999/xlink" fill="none" version="1.1" width="1em" height="1em" viewBox="0 0 12.23077392578125 12"><g><g><g><g><path d="M4.357104884765625,5.10009765625C4.357104884765625,4.89299065625,4.185982884765625,4.72509765625,3.974893884765625,4.72509765625C3.763803884765625,4.72509765625,3.592681884765625,4.89299065625,3.592681884765625,5.10009765625C3.592681884765625,5.10009765625,4.357104884765625,5.10009765625,4.357104884765625,5.10009765625C4.357104884765625,5.10009765625,4.357104884765625,5.10009765625,4.357104884765625,5.10009765625ZM3.592681884765625,7.20008765625C3.592681884765625,7.40719765625,3.763803884765625,7.57508765625,3.974893884765625,7.57508765625C4.185982884765625,7.57508765625,4.357104884765625,7.40719765625,4.357104884765625,7.20008765625C4.357104884765625,7.20008765625,3.592681884765625,7.20008765625,3.592681884765625,7.20008765625C3.592681884765625,7.20008765625,3.592681884765625,7.20008765625,3.592681884765625,7.20008765625ZM3.592681884765625,5.10009765625C3.592681884765625,5.10009765625,3.592681884765625,7.20008765625,3.592681884765625,7.20008765625C3.592681884765625,7.20008765625,4.357104884765625,7.20008765625,4.357104884765625,7.20008765625C4.357104884765625,7.20008765625,4.357104884765625,5.10009765625,4.357104884765625,5.10009765625C4.357104884765625,5.10009765625,3.592681884765625,5.10009765625,3.592681884765625,5.10009765625C3.592681884765625,5.10009765625,3.592681884765625,5.10009765625,3.592681884765625,5.10009765625Z" fill="#292D32" fill-opacity="1"/></g><g><path d="M4.66298607421875,3.97501C4.66298607421875,4.30637,4.38919607421875,4.575,4.05144607421875,4.575C4.05144607421875,4.575,4.05144607421875,5.325,4.05144607421875,5.325C4.81135607421875,5.325,5.42740607421875,4.7206,5.42740607421875,3.97501C5.42740607421875,3.97501,4.66298607421875,3.97501,4.66298607421875,3.97501C4.66298607421875,3.97501,4.66298607421875,3.97501,4.66298607421875,3.97501ZM4.05144607421875,4.575C3.71369607421875,4.575,3.43989907421875,4.30637,3.43989907421875,3.97501C3.43989907421875,3.97501,2.67547607421875,3.97501,2.67547607421875,3.97501C2.67547607421875,4.7206,3.29152907421875,5.325,4.05144607421875,5.325C4.05144607421875,5.325,4.05144607421875,4.575,4.05144607421875,4.575C4.05144607421875,4.575,4.05144607421875,4.575,4.05144607421875,4.575ZM3.43989907421875,3.97501C3.43989907421875,3.64364,3.71369607421875,3.375,4.05144607421875,3.375C4.05144607421875,3.375,4.05144607421875,2.625,4.05144607421875,2.625C3.2915210742187497,2.625,2.67547607421875,3.229421,2.67547607421875,3.97501C2.67547607421875,3.97501,3.43989907421875,3.97501,3.43989907421875,3.97501C3.43989907421875,3.97501,3.43989907421875,3.97501,3.43989907421875,3.97501ZM4.05144607421875,3.375C4.38918607421875,3.375,4.66298607421875,3.64364,4.66298607421875,3.97501C4.66298607421875,3.97501,5.42740607421875,3.97501,5.42740607421875,3.97501C5.42740607421875,3.229421,4.81136607421875,2.625,4.05144607421875,2.625C4.05144607421875,2.625,4.05144607421875,3.375,4.05144607421875,3.375C4.05144607421875,3.375,4.05144607421875,3.375,4.05144607421875,3.375Z" fill="#292D32" fill-opacity="1"/></g><g><path d="M4.51008607421875,8.099961171875C4.51008607421875,8.389911171875,4.27051607421875,8.624951171875,3.9749860742187497,8.624951171875C3.9749860742187497,8.624951171875,3.9749860742187497,9.374951171875,3.9749860742187497,9.374951171875C4.69269607421875,9.374951171875,5.27450607421875,8.804121171875,5.27450607421875,8.099961171875C5.27450607421875,8.099961171875,4.51008607421875,8.099961171875,4.51008607421875,8.099961171875C4.51008607421875,8.099961171875,4.51008607421875,8.099961171875,4.51008607421875,8.099961171875ZM3.9749860742187497,8.624951171875C3.67946607421875,8.624951171875,3.43989907421875,8.389911171875,3.43989907421875,8.099961171875C3.43989907421875,8.099961171875,2.67547607421875,8.099961171875,2.67547607421875,8.099961171875C2.67547607421875,8.804121171875,3.25728507421875,9.374951171875,3.9749860742187497,9.374951171875C3.9749860742187497,9.374951171875,3.9749860742187497,8.624951171875,3.9749860742187497,8.624951171875C3.9749860742187497,8.624951171875,3.9749860742187497,8.624951171875,3.9749860742187497,8.624951171875ZM3.43989907421875,8.099961171875C3.43989907421875,7.810001171875,3.67947607421875,7.574951171875,3.9749860742187497,7.574951171875C3.9749860742187497,7.574951171875,3.9749860742187497,6.824951171875,3.9749860742187497,6.824951171875C3.25727607421875,6.824951171875,2.67547607421875,7.395805171875,2.67547607421875,8.099961171875C2.67547607421875,8.099961171875,3.43989907421875,8.099961171875,3.43989907421875,8.099961171875C3.43989907421875,8.099961171875,3.43989907421875,8.099961171875,3.43989907421875,8.099961171875ZM3.9749860742187497,7.574951171875C4.2705060742187495,7.574951171875,4.51008607421875,7.810001171875,4.51008607421875,8.099961171875C4.51008607421875,8.099961171875,5.27450607421875,8.099961171875,5.27450607421875,8.099961171875C5.27450607421875,7.395805171875,4.69270607421875,6.824951171875,3.9749860742187497,6.824951171875C3.9749860742187497,6.824951171875,3.9749860742187497,7.574951171875,3.9749860742187497,7.574951171875C3.9749860742187497,7.574951171875,3.9749860742187497,7.574951171875,3.9749860742187497,7.574951171875Z" fill="#292D32" fill-opacity="1"/></g><g><path d="M8.791061416015625,8.099961171875C8.791061416015625,8.389911171875,8.551491416015626,8.624951171875,8.255961416015625,8.624951171875C8.255961416015625,8.624951171875,8.255961416015625,9.374951171875,8.255961416015625,9.374951171875C8.973671416015625,9.374951171875,9.555481416015624,8.804121171875,9.555481416015624,8.099961171875C9.555481416015624,8.099961171875,8.791061416015625,8.099961171875,8.791061416015625,8.099961171875C8.791061416015625,8.099961171875,8.791061416015625,8.099961171875,8.791061416015625,8.099961171875ZM8.255961416015625,8.624951171875C7.960441416015625,8.624951171875,7.720874416015625,8.389911171875,7.720874416015625,8.099961171875C7.720874416015625,8.099961171875,6.956451416015625,8.099961171875,6.956451416015625,8.099961171875C6.956451416015625,8.804121171875,7.538260416015625,9.374951171875,8.255961416015625,9.374951171875C8.255961416015625,9.374951171875,8.255961416015625,8.624951171875,8.255961416015625,8.624951171875C8.255961416015625,8.624951171875,8.255961416015625,8.624951171875,8.255961416015625,8.624951171875ZM7.720874416015625,8.099961171875C7.720874416015625,7.810001171875,7.960451416015625,7.574951171875,8.255961416015625,7.574951171875C8.255961416015625,7.574951171875,8.255961416015625,6.824951171875,8.255961416015625,6.824951171875C7.538251416015625,6.824951171875,6.956451416015625,7.395805171875,6.956451416015625,8.099961171875C6.956451416015625,8.099961171875,7.720874416015625,8.099961171875,7.720874416015625,8.099961171875C7.720874416015625,8.099961171875,7.720874416015625,8.099961171875,7.720874416015625,8.099961171875ZM8.255961416015625,7.574951171875C8.551481416015625,7.574951171875,8.791061416015625,7.810001171875,8.791061416015625,8.099961171875C8.791061416015625,8.099961171875,9.555481416015624,8.099961171875,9.555481416015624,8.099961171875C9.555481416015624,7.395805171875,8.973681416015625,6.824951171875,8.255961416015625,6.824951171875C8.255961416015625,6.824951171875,8.255961416015625,7.574951171875,8.255961416015625,7.574951171875C8.255961416015625,7.574951171875,8.255961416015625,7.574951171875,8.255961416015625,7.574951171875Z" fill="#292D32" fill-opacity="1"/></g><g><path d="M4.38595688671875,5.00679765625C4.33338688671875,4.80621635625,4.12503988671875,4.68542535625,3.92060088671875,4.73700335625C3.71616248671875,4.78858135625,3.59304858671875,4.99299765625,3.64561848671875,5.19357865625C3.64561848671875,5.19357865625,4.38595688671875,5.00679765625,4.38595688671875,5.00679765625C4.38595688671875,5.00679765625,4.38595688671875,5.00679765625,4.38595688671875,5.00679765625ZM5.2184738867187495,6.01017765625C5.2184738867187495,6.01017765625,5.21662388671875,5.63517865625,5.21662388671875,5.63517865625C5.21662388671875,5.63517865625,5.2150938867187495,5.63519365625,5.2150938867187495,5.63519365625C5.2150938867187495,5.63519365625,5.2184738867187495,6.01017765625,5.2184738867187495,6.01017765625C5.2184738867187495,6.01017765625,5.2184738867187495,6.01017765625,5.2184738867187495,6.01017765625ZM6.268273886718751,6.0051876562499995C6.268273886718751,6.0051876562499995,6.2701338867187495,6.3801876562499995,6.2701338867187495,6.3801876562499995C6.2701338867187495,6.3801876562499995,6.270713886718751,6.38017765625,6.270713886718751,6.38017765625C6.270713886718751,6.38017765625,6.268273886718751,6.0051876562499995,6.268273886718751,6.0051876562499995C6.268273886718751,6.0051876562499995,6.268273886718751,6.0051876562499995,6.268273886718751,6.0051876562499995ZM7.63995388671875,7.3332876562500005C7.70924388671875,7.52891765625,7.92705388671875,7.63239765625,8.12644388671875,7.564407656249999C8.32584388671875,7.49642765625,8.431313886718751,7.28272765625,8.36201388671875,7.08709765625C8.36201388671875,7.08709765625,7.63995388671875,7.3332876562500005,7.63995388671875,7.3332876562500005C7.63995388671875,7.3332876562500005,7.63995388671875,7.3332876562500005,7.63995388671875,7.3332876562500005ZM3.64561848671875,5.19357865625C3.82547088671875,5.87980765625,4.46436488671875,6.39173765625,5.22185388671875,6.38516765625C5.22185388671875,6.38516765625,5.2150938867187495,5.63519365625,5.2150938867187495,5.63519365625C4.82084388671875,5.6386136562499996,4.48129688671875,5.37056865625,4.38595688671875,5.00679765625C4.38595688671875,5.00679765625,3.64561848671875,5.19357865625,3.64561848671875,5.19357865625C3.64561848671875,5.19357865625,3.64561848671875,5.19357865625,3.64561848671875,5.19357865625ZM5.2203238867187505,6.38517765625C5.2203238867187505,6.38517765625,6.2701338867187495,6.3801876562499995,6.2701338867187495,6.3801876562499995C6.2701338867187495,6.3801876562499995,6.26642388671875,5.63019365625,6.26642388671875,5.63019365625C6.26642388671875,5.63019365625,5.21662388671875,5.63518365625,5.21662388671875,5.63518365625C5.21662388671875,5.63518365625,5.2203238867187505,6.38517765625,5.2203238867187505,6.38517765625C5.2203238867187505,6.38517765625,5.2203238867187505,6.38517765625,5.2203238867187505,6.38517765625ZM6.270713886718751,6.38017765625C6.90094388671875,6.3762476562499995,7.44187388671875,6.77405765625,7.63995388671875,7.3332876562500005C7.63995388671875,7.3332876562500005,8.36201388671875,7.08709765625,8.36201388671875,7.08709765625C8.06067388671875,6.23631765625,7.235803886718751,5.62413365625,6.26584388671875,5.63019365625C6.26584388671875,5.63019365625,6.270713886718751,6.38017765625,6.270713886718751,6.38017765625C6.270713886718751,6.38017765625,6.270713886718751,6.38017765625,6.270713886718751,6.38017765625Z" fill="#292D32" fill-opacity="1"/></g><g><path d="M4.58654392578125,11.375C4.58654392578125,11.375,7.64423392578125,11.375,7.64423392578125,11.375C7.64423392578125,11.375,7.64423392578125,10.625,7.64423392578125,10.625C7.64423392578125,10.625,4.58654392578125,10.625,4.58654392578125,10.625C4.58654392578125,10.625,4.58654392578125,11.375,4.58654392578125,11.375C4.58654392578125,11.375,4.58654392578125,11.375,4.58654392578125,11.375ZM7.64423392578125,11.375C8.95598392578125,11.375,9.97363392578125,11.1199,10.65362392578125,10.45265C11.33372392578125,9.78545,11.59372392578125,8.787,11.59372392578125,7.5C11.59372392578125,7.5,10.82932392578125,7.5,10.82932392578125,7.5C10.82932392578125,8.713,10.57972392578125,9.46455,10.11316392578125,9.92235C9.64656392578125,10.3801,8.88056392578125,10.625,7.64423392578125,10.625C7.64423392578125,10.625,7.64423392578125,11.375,7.64423392578125,11.375C7.64423392578125,11.375,7.64423392578125,11.375,7.64423392578125,11.375ZM11.59372392578125,7.5C11.59372392578125,7.5,11.59372392578125,4.5,11.59372392578125,4.5C11.59372392578125,4.5,10.82932392578125,4.5,10.82932392578125,4.5C10.82932392578125,4.5,10.82932392578125,7.5,10.82932392578125,7.5C10.82932392578125,7.5,11.59372392578125,7.5,11.59372392578125,7.5C11.59372392578125,7.5,11.59372392578125,7.5,11.59372392578125,7.5ZM11.59372392578125,4.5C11.59372392578125,3.21302,11.33372392578125,2.21457,10.65362392578125,1.547335C9.97363392578125,0.8801,8.95598392578125,0.6250000000000001,7.64423392578125,0.6250000000000001C7.64423392578125,0.6250000000000001,7.64423392578125,1.375,7.64423392578125,1.375C8.88056392578125,1.375,9.64656392578125,1.6199,10.11316392578125,2.07766C10.57972392578125,2.53543,10.82932392578125,3.28698,10.82932392578125,4.5C10.82932392578125,4.5,11.59372392578125,4.5,11.59372392578125,4.5C11.59372392578125,4.5,11.59372392578125,4.5,11.59372392578125,4.5ZM7.64423392578125,0.6250000000000001C7.64423392578125,0.6250000000000001,4.58654392578125,0.6250000000000001,4.58654392578125,0.6250000000000001C4.58654392578125,0.6250000000000001,4.58654392578125,1.375,4.58654392578125,1.375C4.58654392578125,1.375,7.64423392578125,1.375,7.64423392578125,1.375C7.64423392578125,1.375,7.64423392578125,0.6250000000000001,7.64423392578125,0.6250000000000001C7.64423392578125,0.6250000000000001,7.64423392578125,0.6250000000000001,7.64423392578125,0.6250000000000001ZM4.58654392578125,0.6250000000000001C3.27480392578125,0.6250000000000001,2.25716392578125,0.8801,1.57709592578125,1.547335C0.89702992578125,2.21457,0.6370239257812501,3.21302,0.6370239257812501,4.5C0.6370239257812501,4.5,1.4014469257812499,4.5,1.4014469257812499,4.5C1.4014469257812499,3.28698,1.65105392578125,2.53543,2.11762392578125,2.07766C2.58419392578125,1.6199,3.35020392578125,1.375,4.58654392578125,1.375C4.58654392578125,1.375,4.58654392578125,0.6250000000000001,4.58654392578125,0.6250000000000001C4.58654392578125,0.6250000000000001,4.58654392578125,0.6250000000000001,4.58654392578125,0.6250000000000001ZM0.6370239257812501,4.5C0.6370239257812501,4.5,0.6370239257812501,7.5,0.6370239257812501,7.5C0.6370239257812501,7.5,1.4014469257812499,7.5,1.4014469257812499,7.5C1.4014469257812499,7.5,1.4014469257812499,4.5,1.4014469257812499,4.5C1.4014469257812499,4.5,0.6370239257812501,4.5,0.6370239257812501,4.5C0.6370239257812501,4.5,0.6370239257812501,4.5,0.6370239257812501,4.5ZM0.6370239257812501,7.5C0.6370239257812501,8.787,0.89702992578125,9.78545,1.57709592578125,10.45265C2.25716392578125,11.1199,3.27480392578125,11.375,4.58654392578125,11.375C4.58654392578125,11.375,4.58654392578125,10.625,4.58654392578125,10.625C3.35020392578125,10.625,2.58419392578125,10.3801,2.11762392578125,9.92235C1.65105392578125,9.46455,1.4014469257812499,8.713,1.4014469257812499,7.5C1.4014469257812499,7.5,0.6370239257812501,7.5,0.6370239257812501,7.5C0.6370239257812501,7.5,0.6370239257812501,7.5,0.6370239257812501,7.5Z" fill="#292D32" fill-opacity="1"/></g><g style="opacity:0;"></g></g></g></g></svg>