<svg xmlns="http://www.w3.org/2000/svg" xmlns:xlink="http://www.w3.org/1999/xlink" fill="#000" version="1.1" width="15" height="13.5" viewBox="0 0 15 13.5"><g><path d="M3.375,3.375C3.375,2.33947,4.21447,1.5,5.25,1.5C6.28553,1.5,7.125,2.33947,7.125,3.375C7.125,4.41053,6.28553,5.25,5.25,5.25C4.21447,5.25,3.375,4.41053,3.375,3.375C3.375,3.375,3.375,3.375,3.375,3.375ZM5.25,0C3.38604,0,1.875,1.51104,1.875,3.375C1.875,5.23898,3.38604,6.75,5.25,6.75C7.11398,6.75,8.625,5.23898,8.625,3.375C8.625,1.51104,7.11398,0,5.25,0C5.25,0,5.25,0,5.25,0ZM10.5,4.875C10.5,4.46077,10.8358,4.125,11.25,4.125C11.6642,4.125,12,4.46077,12,4.875C12,5.28923,11.6642,5.625,11.25,5.625C10.8358,5.625,10.5,5.28923,10.5,4.875C10.5,4.875,10.5,4.875,10.5,4.875ZM11.25,2.625C10.0074,2.625,9,3.63236,9,4.875C9,6.11764,10.0074,7.125,11.25,7.125C12.4926,7.125,13.5,6.11764,13.5,4.875C13.5,3.63236,12.4926,2.625,11.25,2.625C11.25,2.625,11.25,2.625,11.25,2.625ZM0,10.5C0,8.84314,1.34315,7.5,3,7.5C3,7.5,7.5,7.5,7.5,7.5C9.15686,7.5,10.5,8.84314,10.5,10.5C10.5,10.5,10.5,13.5,10.5,13.5C10.5,13.5,0,13.5,0,13.5C0,13.5,0,10.5,0,10.5C0,10.5,0,10.5,0,10.5ZM3,9C2.17157,9,1.5,9.67159,1.5,10.5C1.5,10.5,1.5,12,1.5,12C1.5,12,9,12,9,12C9,12,9,10.5,9,10.5C9,9.67159,8.32841,9,7.5,9C7.5,9,3,9,3,9C3,9,3,9,3,9ZM15,10.5C15,9.25736,13.9926,8.25,12.75,8.25C12.75,8.25,11.25,8.25,11.25,8.25C11.25,8.25,11.25,9.75,11.25,9.75C11.25,9.75,12.75,9.75,12.75,9.75C13.1642,9.75,13.5,10.0858,13.5,10.5C13.5,10.5,13.5,11.25,13.5,11.25C13.5,11.25,11.25,11.25,11.25,11.25C11.25,11.25,11.25,12.75,11.25,12.75C11.25,12.75,15,12.75,15,12.75C15,12.75,15,10.5,15,10.5C15,10.5,15,10.5,15,10.5Z" fill-rule="evenodd" fill="null" fill-opacity="1"/></g></svg>