<svg xmlns="http://www.w3.org/2000/svg" xmlns:xlink="http://www.w3.org/1999/xlink" fill="#000" version="1.1" width="18" height="18" viewBox="0 0 18 18"><defs><clipPath id="master_svg0_6_44865"><rect x="0" y="0" width="18" height="18" rx="0"/></clipPath></defs><g clip-path="url(#master_svg0_6_44865)"><g><g><path d="M7.125,2.625C7.125,2.625,7.125,1.875,7.125,1.875C6.710786,1.875,6.375,2.210786,6.375,2.625C6.375,2.625,7.125,2.625,7.125,2.625C7.125,2.625,7.125,2.625,7.125,2.625ZM11.25,2.625C11.25,2.625,12,2.625,12,2.625C12,2.210786,11.66421,1.875,11.25,1.875C11.25,1.875,11.25,2.625,11.25,2.625C11.25,2.625,11.25,2.625,11.25,2.625ZM11.25,15.375C11.25,15.375,11.25,16.125,11.25,16.125C11.66421,16.125,12,15.7892,12,15.375C12,15.375,11.25,15.375,11.25,15.375C11.25,15.375,11.25,15.375,11.25,15.375ZM7.125,15.375C7.125,15.375,6.375,15.375,6.375,15.375C6.375,15.7892,6.710786,16.125,7.125,16.125C7.125,16.125,7.125,15.375,7.125,15.375C7.125,15.375,7.125,15.375,7.125,15.375ZM7.125,3.375C7.125,3.375,11.25,3.375,11.25,3.375C11.25,3.375,11.25,1.875,11.25,1.875C11.25,1.875,7.125,1.875,7.125,1.875C7.125,1.875,7.125,3.375,7.125,3.375C7.125,3.375,7.125,3.375,7.125,3.375ZM10.5,2.625C10.5,2.625,10.5,15.375,10.5,15.375C10.5,15.375,12,15.375,12,15.375C12,15.375,12,2.625,12,2.625C12,2.625,10.5,2.625,10.5,2.625C10.5,2.625,10.5,2.625,10.5,2.625ZM11.25,14.625C11.25,14.625,7.125,14.625,7.125,14.625C7.125,14.625,7.125,16.125,7.125,16.125C7.125,16.125,11.25,16.125,11.25,16.125C11.25,16.125,11.25,14.625,11.25,14.625C11.25,14.625,11.25,14.625,11.25,14.625ZM7.875,15.375C7.875,15.375,7.875,2.625,7.875,2.625C7.875,2.625,6.375,2.625,6.375,2.625C6.375,2.625,6.375,15.375,6.375,15.375C6.375,15.375,7.875,15.375,7.875,15.375C7.875,15.375,7.875,15.375,7.875,15.375Z" fill="null" fill-opacity="1"/></g><g><path d="M11.25,6.75C11.25,6.75,11.25,6,11.25,6C10.835786,6,10.5,6.335786,10.5,6.75C10.5,6.75,11.25,6.75,11.25,6.75C11.25,6.75,11.25,6.75,11.25,6.75ZM15,6.75C15,6.75,15.75,6.75,15.75,6.75C15.75,6.335786,15.41421,6,15,6C15,6,15,6.75,15,6.75C15,6.75,15,6.75,15,6.75ZM15,15.375C15,15.375,15,16.125,15,16.125C15.41421,16.125,15.75,15.78921,15.75,15.375C15.75,15.375,15,15.375,15,15.375C15,15.375,15,15.375,15,15.375ZM11.25,15.375C11.25,15.375,10.5,15.375,10.5,15.375C10.5,15.78921,10.835786,16.125,11.25,16.125C11.25,16.125,11.25,15.375,11.25,15.375C11.25,15.375,11.25,15.375,11.25,15.375ZM11.25,7.5C11.25,7.5,15,7.5,15,7.5C15,7.5,15,6,15,6C15,6,11.25,6,11.25,6C11.25,6,11.25,7.5,11.25,7.5C11.25,7.5,11.25,7.5,11.25,7.5ZM14.25,6.75C14.25,6.75,14.25,15.375,14.25,15.375C14.25,15.375,15.75,15.375,15.75,15.375C15.75,15.375,15.75,6.75,15.75,6.75C15.75,6.75,14.25,6.75,14.25,6.75C14.25,6.75,14.25,6.75,14.25,6.75ZM15,14.625C15,14.625,11.25,14.625,11.25,14.625C11.25,14.625,11.25,16.125,11.25,16.125C11.25,16.125,15,16.125,15,16.125C15,16.125,15,14.625,15,14.625C15,14.625,15,14.625,15,14.625ZM12,15.375C12,15.375,12,6.75,12,6.75C12,6.75,10.5,6.75,10.5,6.75C10.5,6.75,10.5,15.375,10.5,15.375C10.5,15.375,12,15.375,12,15.375C12,15.375,12,15.375,12,15.375Z" fill="null" fill-opacity="1"/></g><g><path d="M3,9.375C3,9.375,3,8.625,3,8.625C2.585786,8.625,2.25,8.960786,2.25,9.375C2.25,9.375,3,9.375,3,9.375C3,9.375,3,9.375,3,9.375ZM6.75,9.375C6.75,9.375,7.5,9.375,7.5,9.375C7.5,8.960786,7.16421,8.625,6.75,8.625C6.75,8.625,6.75,9.375,6.75,9.375C6.75,9.375,6.75,9.375,6.75,9.375ZM6.75,15.375C6.75,15.375,6.75,16.125,6.75,16.125C7.16421,16.125,7.5,15.78921,7.5,15.375C7.5,15.375,6.75,15.375,6.75,15.375C6.75,15.375,6.75,15.375,6.75,15.375ZM3,15.375C3,15.375,2.25,15.375,2.25,15.375C2.25,15.78921,2.585786,16.125,3,16.125C3,16.125,3,15.375,3,15.375C3,15.375,3,15.375,3,15.375ZM3,10.125C3,10.125,6.75,10.125,6.75,10.125C6.75,10.125,6.75,8.625,6.75,8.625C6.75,8.625,3,8.625,3,8.625C3,8.625,3,10.125,3,10.125C3,10.125,3,10.125,3,10.125ZM6,9.375C6,9.375,6,15.375,6,15.375C6,15.375,7.5,15.375,7.5,15.375C7.5,15.375,7.5,9.375,7.5,9.375C7.5,9.375,6,9.375,6,9.375C6,9.375,6,9.375,6,9.375ZM6.75,14.625C6.75,14.625,3,14.625,3,14.625C3,14.625,3,16.125,3,16.125C3,16.125,6.75,16.125,6.75,16.125C6.75,16.125,6.75,14.625,6.75,14.625C6.75,14.625,6.75,14.625,6.75,14.625ZM3.75,15.375C3.75,15.375,3.75,9.375,3.75,9.375C3.75,9.375,2.25,9.375,2.25,9.375C2.25,9.375,2.25,15.375,2.25,15.375C2.25,15.375,3.75,15.375,3.75,15.375C3.75,15.375,3.75,15.375,3.75,15.375Z" fill="null" fill-opacity="1"/></g><g><path d="M2.25,14.625C1.835786,14.625,1.5,14.960786,1.5,15.375C1.5,15.789214,1.835786,16.125,2.25,16.125C2.25,16.125,2.25,14.625,2.25,14.625C2.25,14.625,2.25,14.625,2.25,14.625ZM15.75,16.125C16.1642,16.125,16.5,15.789214,16.5,15.375C16.5,14.960786,16.1642,14.625,15.75,14.625C15.75,14.625,15.75,16.125,15.75,16.125C15.75,16.125,15.75,16.125,15.75,16.125ZM2.25,16.125C2.25,16.125,15.75,16.125,15.75,16.125C15.75,16.125,15.75,14.625,15.75,14.625C15.75,14.625,2.25,14.625,2.25,14.625C2.25,14.625,2.25,16.125,2.25,16.125C2.25,16.125,2.25,16.125,2.25,16.125Z" fill="null" fill-opacity="1"/></g></g></g></svg>