<svg xmlns="http://www.w3.org/2000/svg" xmlns:xlink="http://www.w3.org/1999/xlink" fill="#000" version="1.1" width="18" height="18" viewBox="0 0 18 18"><defs><clipPath id="master_svg0_6_44979"><rect x="0" y="0" width="18" height="18" rx="0"/></clipPath></defs><g clip-path="url(#master_svg0_6_44979)"><g><path d="M6,5.35C6,5.35,5.35,5.35,5.35,5.35C5.35,5.35,5.35,6.65,5.35,6.65C5.35,6.65,6,6.65,6,6.65C6,6.65,6,5.35,6,5.35C6,5.35,6,5.35,6,5.35ZM12,6.65C12,6.65,12.65,6.65,12.65,6.65C12.65,6.65,12.65,5.35,12.65,5.35C12.65,5.35,12,5.35,12,5.35C12,5.35,12,6.65,12,6.65C12,6.65,12,6.65,12,6.65ZM6,6.65C6,6.65,12,6.65,12,6.65C12,6.65,12,5.35,12,5.35C12,5.35,6,5.35,6,5.35C6,5.35,6,6.65,6,6.65C6,6.65,6,6.65,6,6.65Z" fill="null" fill-opacity="1"/></g><g><path d="M6,8.35C6,8.35,5.35,8.35,5.35,8.35C5.35,8.35,5.35,9.65,5.35,9.65C5.35,9.65,6,9.65,6,9.65C6,9.65,6,8.35,6,8.35C6,8.35,6,8.35,6,8.35ZM9,9.65C9,9.65,9.65,9.65,9.65,9.65C9.65,9.65,9.65,8.35,9.65,8.35C9.65,8.35,9,8.35,9,8.35C9,8.35,9,9.65,9,9.65C9,9.65,9,9.65,9,9.65ZM6,9.65C6,9.65,9,9.65,9,9.65C9,9.65,9,8.35,9,8.35C9,8.35,6,8.35,6,8.35C6,8.35,6,9.65,6,9.65C6,9.65,6,9.65,6,9.65Z" fill="null" fill-opacity="1"/></g><g><path d="M3,15.375C3,15.375,2.35,15.375,2.35,15.375C2.35,15.734,2.641015,16.025,3,16.025C3,16.025,3,15.375,3,15.375C3,15.375,3,15.375,3,15.375ZM3,2.25C3,2.25,3,1.6,3,1.6C2.641015,1.6,2.35,1.891015,2.35,2.25C2.35,2.25,3,2.25,3,2.25C3,2.25,3,2.25,3,2.25ZM15,2.25C15,2.25,15.65,2.25,15.65,2.25C15.65,1.891015,15.359,1.6,15,1.6C15,1.6,15,2.25,15,2.25C15,2.25,15,2.25,15,2.25ZM9,14.725C9,14.725,3,14.725,3,14.725C3,14.725,3,16.025,3,16.025C3,16.025,9,16.025,9,16.025C9,16.025,9,14.725,9,14.725C9,14.725,9,14.725,9,14.725ZM3.65,15.375C3.65,15.375,3.65,2.25,3.65,2.25C3.65,2.25,2.35,2.25,2.35,2.25C2.35,2.25,2.35,15.375,2.35,15.375C2.35,15.375,3.65,15.375,3.65,15.375C3.65,15.375,3.65,15.375,3.65,15.375ZM3,2.9C3,2.9,15,2.9,15,2.9C15,2.9,15,1.6,15,1.6C15,1.6,3,1.6,3,1.6C3,1.6,3,2.9,3,2.9C3,2.9,3,2.9,3,2.9ZM14.35,2.25C14.35,2.25,14.35,8.625,14.35,8.625C14.35,8.625,15.65,8.625,15.65,8.625C15.65,8.625,15.65,2.25,15.65,2.25C15.65,2.25,14.35,2.25,14.35,2.25C14.35,2.25,14.35,2.25,14.35,2.25Z" fill="null" fill-opacity="1"/></g><g><path d="M11.25,10.875C11.25,10.875,11.25,10.225,11.25,10.225C10.891015,10.225,10.6,10.516015,10.6,10.875C10.6,10.875,11.25,10.875,11.25,10.875C11.25,10.875,11.25,10.875,11.25,10.875ZM15.375,10.875C15.375,10.875,16.025,10.875,16.025,10.875C16.025,10.516015,15.733979999999999,10.225,15.375,10.225C15.375,10.225,15.375,10.875,15.375,10.875C15.375,10.875,15.375,10.875,15.375,10.875ZM15.375,15.75C15.375,15.75,15.02603,16.29838,15.02603,16.29838C15.22618,16.42575,15.47982,16.43395,15.68779,16.31979C15.89575,16.20563,16.025,15.98724,16.025,15.75C16.025,15.75,15.375,15.75,15.375,15.75C15.375,15.75,15.375,15.75,15.375,15.75ZM13.3125,14.4375C13.3125,14.4375,13.66147,13.88912,13.66147,13.88912C13.448550000000001,13.75363,13.176449999999999,13.75363,12.96353,13.88912C12.96353,13.88912,13.3125,14.4375,13.3125,14.4375C13.3125,14.4375,13.3125,14.4375,13.3125,14.4375ZM11.25,15.75C11.25,15.75,10.6,15.75,10.6,15.75C10.6,15.98724,10.72925,16.20563,10.937214,16.31979C11.145178,16.43395,11.398821,16.42575,11.598969,16.29838C11.598969,16.29838,11.25,15.75,11.25,15.75C11.25,15.75,11.25,15.75,11.25,15.75ZM11.25,11.525C11.25,11.525,15.375,11.525,15.375,11.525C15.375,11.525,15.375,10.225,15.375,10.225C15.375,10.225,11.25,10.225,11.25,10.225C11.25,10.225,11.25,11.525,11.25,11.525C11.25,11.525,11.25,11.525,11.25,11.525ZM14.725,10.875C14.725,10.875,14.725,15.75,14.725,15.75C14.725,15.75,16.025,15.75,16.025,15.75C16.025,15.75,16.025,10.875,16.025,10.875C16.025,10.875,14.725,10.875,14.725,10.875C14.725,10.875,14.725,10.875,14.725,10.875ZM15.72397,15.20162C15.72397,15.20162,13.66147,13.88912,13.66147,13.88912C13.66147,13.88912,12.96353,14.98588,12.96353,14.98588C12.96353,14.98588,15.02603,16.29838,15.02603,16.29838C15.02603,16.29838,15.72397,15.20162,15.72397,15.20162C15.72397,15.20162,15.72397,15.20162,15.72397,15.20162ZM12.96353,13.88912C12.96353,13.88912,10.901031,15.20162,10.901031,15.20162C10.901031,15.20162,11.598969,16.29838,11.598969,16.29838C11.598969,16.29838,13.66147,14.98588,13.66147,14.98588C13.66147,14.98588,12.96353,13.88912,12.96353,13.88912C12.96353,13.88912,12.96353,13.88912,12.96353,13.88912ZM11.9,15.75C11.9,15.75,11.9,10.875,11.9,10.875C11.9,10.875,10.6,10.875,10.6,10.875C10.6,10.875,10.6,15.75,10.6,15.75C10.6,15.75,11.9,15.75,11.9,15.75C11.9,15.75,11.9,15.75,11.9,15.75Z" fill="null" fill-opacity="1"/></g></g></svg>