<?xml version="1.0" standalone="no"?><!DOCTYPE svg PUBLIC "-//W3C//DTD SVG 1.1//EN" "http://www.w3.org/Graphics/SVG/1.1/DTD/svg11.dtd"><svg t="1734665183581" class="icon" viewBox="0 0 1024 1024" version="1.1" xmlns="http://www.w3.org/2000/svg" p-id="26739" xmlns:xlink="http://www.w3.org/1999/xlink" width="200" height="200"><path d="M812 824c19.882 0 36 16.118 36 36s-16.118 36-36 36H212c-19.882 0-36-16.118-36-36s16.118-36 36-36h600z m68-696c44.183 0 80 35.817 80 80v449c0 44.183-35.817 80-80 80H144c-44.183 0-80-35.817-80-80V208c0-44.183 35.817-80 80-80h736z m0.25 72H144a8.006 8.006 0 0 0-8 7.75V657a8.006 8.006 0 0 0 7.75 8H880a8.006 8.006 0 0 0 8-7.75V208a8.006 8.006 0 0 0-7.75-8zM484.171 344.05l0.476 0.033c11.49 0.683 22.435 6.867 28.758 17.456l0.268 0.456c0.004 0.007 0.008 0.013-0.008 0.031l42.136 73.035 117.242-67.738c17.19-9.959 39.192-4.07 49.13 13.13 0.004 0.008 0.008 0.014-0.008 0.033l0.02 0.034c9.902 17.212 4.01 39.2-13.172 49.154l-147.984 85.5a35.75 35.75 0 0 1-20.096 4.782l-0.581-0.039c-11.49-0.683-22.436-6.867-28.76-17.456l-0.267-0.456c-0.004-0.007-0.008-0.013 0.008-0.031l-42.137-73.036-117.24 67.738c-17.018 9.858-38.752 4.186-48.828-12.619l-0.302-0.513c-0.004-0.006-0.008-0.013 0.008-0.03l-0.02-0.035c-9.903-17.211-4.012-39.199 13.171-49.153l147.984-85.5a35.75 35.75 0 0 1 20.202-4.776z" fill="null" p-id="26740"></path></svg>