<svg xmlns="http://www.w3.org/2000/svg" xmlns:xlink="http://www.w3.org/1999/xlink" fill="#000" version="1.1" width="10" height="10" viewBox="-1 0 15.5 15"><g><path d="M4.76685,0.823901C4.90211,0.336978,5.34544,0,5.85079,0C5.85079,0,9.03075,0,9.03075,0C9.5361,0,9.97943,0.336977,10.1147,0.823901C10.1147,0.823901,10.4982,2.20446,10.4982,2.20446C10.4982,2.20446,11.8856,1.84626,11.8856,1.84626C12.375,1.71994,12.8885,1.9354,13.1411,2.37305C13.1411,2.37305,14.7311,5.12696,14.7311,5.12696C14.9838,5.56462,14.9136,6.11704,14.5596,6.47764C14.5596,6.47764,13.5557,7.5,13.5557,7.5C13.5557,7.5,14.5596,8.52236,14.5596,8.52236C14.9136,8.88296,14.9838,9.43541,14.7311,9.87304C14.7311,9.87304,13.1411,12.627,13.1411,12.627C12.8885,13.0646,12.375,13.2801,11.8856,13.1537C11.8856,13.1537,10.4982,12.7955,10.4982,12.7955C10.4982,12.7955,10.1147,14.1761,10.1147,14.1761C9.97943,14.663,9.5361,15,9.03075,15C9.03075,15,5.85079,15,5.85079,15C5.34544,15,4.90211,14.663,4.76685,14.1761C4.76685,14.1761,4.38338,12.7956,4.38338,12.7956C4.38338,12.7956,2.99621,13.1537,2.99621,13.1537C2.50689,13.2801,1.99339,13.0646,1.74071,12.627C1.74071,12.627,0.150746,9.87304,0.150746,9.87304C-0.101934,9.43541,-0.0317743,8.88296,0.322286,8.52236C0.322286,8.52236,1.32611,7.5,1.32611,7.5C1.32611,7.5,0.322287,6.47764,0.322287,6.47764C-0.0317714,6.11704,-0.101933,5.56462,0.150747,5.12696C0.150747,5.12696,1.74072,2.37305,1.74072,2.37305C1.9934,1.9354,2.5069,1.71994,2.99621,1.84626C2.99621,1.84626,4.38338,2.20438,4.38338,2.20438C4.38338,2.20438,4.76685,0.823901,4.76685,0.823901C4.76685,0.823901,4.76685,0.823901,4.76685,0.823901ZM4.28483,12.4408C4.28483,12.4408,4.28498,12.4413,4.28498,12.4413C4.28498,12.4413,4.28483,12.4408,4.28483,12.4408ZM6.13583,1.5C6.13583,1.5,5.73011,2.96062,5.73011,2.96062C5.56598,3.55155,4.95874,3.9021,4.36493,3.7488C4.36493,3.7488,2.89724,3.36989,2.89724,3.36989C2.89724,3.36989,1.5923,5.6301,1.5923,5.6301C1.5923,5.6301,2.6544,6.71182,2.6544,6.71182C3.08408,7.14945,3.08408,7.85059,2.6544,8.28817C2.6544,8.28817,1.5923,9.3699,1.5923,9.3699C1.5923,9.3699,2.89724,11.6301,2.89724,11.6301C2.89724,11.6301,4.36493,11.2512,4.36493,11.2512C4.95878,11.0979,5.56598,11.4484,5.73011,12.0394C5.73011,12.0394,6.13583,13.5,6.13583,13.5C6.13583,13.5,8.74571,13.5,8.74571,13.5C8.74571,13.5,9.15146,12.0393,9.15146,12.0393C9.3156,11.4484,9.9228,11.0978,10.5166,11.2511C10.5166,11.2511,11.9846,11.6301,11.9846,11.6301C11.9846,11.6301,13.2896,9.3699,13.2896,9.3699C13.2896,9.3699,12.2274,8.28817,12.2274,8.28817C11.7978,7.85059,11.7978,7.14945,12.2274,6.71182C12.2274,6.71182,13.2896,5.6301,13.2896,5.6301C13.2896,5.6301,11.9846,3.3699,11.9846,3.3699C11.9846,3.3699,10.5166,3.74888,10.5166,3.74888C9.9228,3.90217,9.3156,3.55162,9.15146,2.9607C9.15146,2.9607,8.74571,1.5,8.74571,1.5C8.74571,1.5,6.13583,1.5,6.13583,1.5C6.13583,1.5,6.13583,1.5,6.13583,1.5ZM7.44075,6C6.61234,6,5.94075,6.67159,5.94075,7.5C5.94075,8.32841,6.61234,9,7.44075,9C8.2692,9,8.94075,8.32841,8.94075,7.5C8.94075,6.67159,8.2692,6,7.44075,6C7.44075,6,7.44075,6,7.44075,6ZM4.44075,7.5C4.44075,5.84314,5.78393,4.5,7.44075,4.5C9.09761,4.5,10.4408,5.84314,10.4408,7.5C10.4408,9.15686,9.09761,10.5,7.44075,10.5C5.78393,10.5,4.44075,9.15686,4.44075,7.5C4.44075,7.5,4.44075,7.5,4.44075,7.5Z" fill-rule="evenodd" fill="null" fill-opacity="1"/></g></svg>