<svg width="24" height="24" viewBox="0 0 24 24" fill="none" xmlns="http://www.w3.org/2000/svg">
<path d="M12.7076 2.80423C15.0507 0.461089 18.8498 0.461089 21.1929 2.80423C23.5355 5.14727 23.5355 8.94558 21.1929 11.2886L11.2925 21.189C8.94948 23.5315 5.15117 23.5315 2.80814 21.189C0.464995 18.8459 0.464995 15.0468 2.80814 12.7036L7.40384 8.10697C8.77067 6.74016 10.9872 6.74015 12.354 8.10697C13.7207 9.4738 13.7208 11.6904 12.354 13.0572L7.75736 17.6529C7.36685 18.0434 6.73382 18.0433 6.3433 17.6529C5.95278 17.2623 5.95278 16.6293 6.3433 16.2388L10.939 11.6421C11.5248 11.0563 11.5248 10.1068 10.939 9.52103C10.3532 8.93559 9.40358 8.93538 8.81791 9.52103L4.2222 14.1177C2.66012 15.6798 2.66015 18.2119 4.2222 19.774C5.7843 21.3361 8.31636 21.3361 9.87845 19.774L19.7779 9.87455C21.34 8.31245 21.34 5.78039 19.7779 4.2183C18.2158 2.65624 15.6837 2.65621 14.1216 4.2183L13.0611 5.27884C12.6707 5.66926 12.0376 5.66903 11.647 5.27884C11.2565 4.88832 11.2565 4.25531 11.647 3.86478L12.7076 2.80423Z" fill="black" fill-opacity="0.88"/>
</svg>
