<svg width="24" height="24" viewBox="0 0 24 24" fill="none" xmlns="http://www.w3.org/2000/svg">
<path d="M8 3C9.63575 3 11.0878 3.78565 12 5C12.9122 3.78565 14.3643 3 16 3H20C21.6569 3 23 4.34315 23 6V16C23 17.6569 21.6569 19 20 19H15C13.8954 19 13 19.8954 13 21C13 21.5523 12.5523 22 12 22C11.4477 22 11 21.5523 11 21C11 19.8954 10.1046 19 9 19H4C2.34315 19 1 17.6569 1 16V6C1 4.34315 2.34315 3 4 3H8ZM4 5C3.44772 5 3 5.44772 3 6V16C3 16.5523 3.44772 17 4 17H9C9.72875 17 10.4116 17.1956 11 17.5361V8C11 6.34313 9.65687 5 8 5H4ZM16 5C14.3431 5 13 6.34313 13 8V17.5361C13.5884 17.1956 14.2712 17 15 17H20C20.5523 17 21 16.5523 21 16V6C21 5.44772 20.5523 5 20 5H16ZM8.5 12C9.05229 12 9.5 12.4477 9.5 13C9.5 13.5523 9.05229 14 8.5 14H5.5C4.94772 14 4.5 13.5523 4.5 13C4.5 12.4477 4.94772 12 5.5 12H8.5ZM18.5 12C19.0523 12 19.5 12.4477 19.5 13C19.5 13.5523 19.0523 14 18.5 14H15.5C14.9477 14 14.5 13.5523 14.5 13C14.5 12.4477 14.9477 12 15.5 12H18.5ZM8.5 8C9.05229 8 9.5 8.44772 9.5 9C9.5 9.55228 9.05229 10 8.5 10H5.5C4.94772 10 4.5 9.55228 4.5 9C4.5 8.44772 4.94772 8 5.5 8H8.5ZM18.5 8C19.0523 8 19.5 8.44772 19.5 9C19.5 9.55228 19.0523 10 18.5 10H15.5C14.9477 10 14.5 9.55228 14.5 9C14.5 8.44772 14.9477 8 15.5 8H18.5Z" fill="black" fill-opacity="0.88"/>
</svg>
