<svg width="24" height="24" viewBox="0 0 24 24" fill="none" xmlns="http://www.w3.org/2000/svg">
<path d="M7.85938 10.7314C8.28362 10.3779 8.91498 10.4352 9.26855 10.8594C9.62207 11.2836 9.56481 11.915 9.14062 12.2686L6.98145 14.0674L9.20703 16.293C9.59754 16.6835 9.59755 17.3165 9.20703 17.707C8.81651 18.0975 8.18348 18.0975 7.79297 17.707L4.79297 14.707C4.59441 14.5085 4.48838 14.2356 4.50098 13.9551C4.51371 13.6745 4.64362 13.4113 4.85938 13.2314L7.85938 10.7314Z" fill="black" fill-opacity="0.88"/>
<path d="M14.7314 10.8594C15.085 10.4352 15.7164 10.3779 16.1406 10.7314L19.1406 13.2314C19.3564 13.4113 19.4863 13.6744 19.499 13.9551C19.5116 14.2356 19.4056 14.5085 19.207 14.707L16.207 17.707C15.8165 18.0976 15.1835 18.0976 14.793 17.707C14.4024 17.3165 14.4024 16.6835 14.793 16.293L17.0176 14.0674L14.8594 12.2686C14.4352 11.915 14.3779 11.2836 14.7314 10.8594Z" fill="black" fill-opacity="0.88"/>
<path d="M11.5166 11.3213C11.6154 10.7779 12.1354 10.4179 12.6787 10.5166C13.222 10.6154 13.5821 11.1354 13.4834 11.6787L12.4834 17.1787C12.3846 17.722 11.8646 18.0821 11.3213 17.9834C10.7779 17.8846 10.4179 17.3646 10.5166 16.8213L11.5166 11.3213Z" fill="black" fill-opacity="0.88"/>
<path fill-rule="evenodd" clip-rule="evenodd" d="M20 3C21.6569 3 23 4.34315 23 6V18C23 19.6569 21.6569 21 20 21H4C2.34315 21 1 19.6569 1 18V6C1 4.34315 2.34315 3 4 3H20ZM3 18C3 18.5523 3.44772 19 4 19H20C20.5523 19 21 18.5523 21 18V9H3V18ZM4 5C3.44772 5 3 5.44772 3 6V7H21V6C21 5.44772 20.5523 5 20 5H4Z" fill="black" fill-opacity="0.88"/>
</svg>
