<svg width="24" height="24" viewBox="0 0 24 24" fill="none" xmlns="http://www.w3.org/2000/svg">
<path d="M20.4981 8.65234L20.4072 8.74316C19.0941 10.0469 16.9676 10.0466 15.6543 8.74316C14.3371 7.43537 14.3371 5.31171 15.6543 4.00391L16.0889 3.57129C15.8067 3.52507 15.5168 3.5 15.2207 3.5C12.2984 3.50008 9.94142 5.85036 9.94142 8.73438C9.94144 9.48827 10.1021 10.2025 10.3897 10.8477C10.5588 11.2272 10.4755 11.6721 10.1807 11.9648L3.8965 18.2031C3.36749 18.7284 3.3678 19.5772 3.8965 20.1025C4.42961 20.6318 5.29692 20.6319 5.8301 20.1025L12.1699 13.8086L12.2822 13.7129C12.5578 13.5103 12.9222 13.4602 13.2461 13.5898C13.8547 13.8334 14.5205 13.9687 15.2207 13.9688C18.1431 13.9688 20.4999 11.6184 20.5 8.73438C20.5 8.70701 20.4985 8.6796 20.4981 8.65234ZM22.5 8.73438C22.4999 12.7365 19.2341 15.9688 15.2207 15.9688C14.4976 15.9687 13.7979 15.8631 13.1367 15.667L7.23928 21.5225C5.92624 22.8258 3.80025 22.826 2.48732 21.5225C1.17053 20.215 1.17061 18.0917 2.48732 16.7842L8.30763 11.0039C8.0702 10.2893 7.94144 9.526 7.94142 8.73438C7.94142 4.73229 11.2074 1.50008 15.2207 1.5C16.3563 1.5 17.434 1.75951 18.3945 2.22266C18.6869 2.36365 18.8926 2.63789 18.9463 2.95801C18.9999 3.27801 18.8953 3.6044 18.6651 3.83301L17.0635 5.42285C16.5341 5.94847 16.5341 6.79764 17.0635 7.32324C17.5969 7.85272 18.4647 7.85277 18.9981 7.32324L20.4238 5.90723L20.5195 5.82324C20.7528 5.64423 21.0556 5.57558 21.3467 5.64062C21.6796 5.7151 21.9518 5.9548 22.0684 6.27539C22.3479 7.04423 22.5 7.8728 22.5 8.73438Z" fill="#828894"/>
</svg>
