<svg width="24" height="24" viewBox="0 0 24 24" fill="none" xmlns="http://www.w3.org/2000/svg">
<path d="M14.2139 1C15.6751 1.00009 16.924 2.05297 17.1709 3.49316L17.3428 4.5H21C21.5523 4.5 22 4.94772 22 5.5C22 6.05228 21.5523 6.5 21 6.5H19.4414L18.6123 20.1816C18.5163 21.765 17.2035 23 15.6172 23H8.38281C6.79649 23 5.48373 21.765 5.3877 20.1816L4.55859 6.5H3C2.44772 6.5 2 6.05228 2 5.5C2 4.94772 2.44772 4.5 3 4.5H6.65723L6.8291 3.49316C7.07599 2.05297 8.32494 1.00009 9.78613 1H14.2139ZM7.38477 20.0605C7.41679 20.5883 7.85405 21 8.38281 21H15.6172C16.146 21 16.5832 20.5883 16.6152 20.0605L17.4375 6.5H6.5625L7.38477 20.0605ZM14.5 17C15.0523 17 15.5 17.4477 15.5 18C15.5 18.5523 15.0523 19 14.5 19H9.5C8.94772 19 8.5 18.5523 8.5 18C8.5 17.4477 8.94772 17 9.5 17H14.5ZM9.78613 3C9.29912 3.00009 8.88307 3.35103 8.80078 3.83105L8.68555 4.5H15.3145L15.1992 3.83105C15.1169 3.35103 14.7009 3.00009 14.2139 3H9.78613Z" fill="black" fill-opacity="0.88"/>
</svg>
