<svg width="24" height="24" viewBox="0 0 24 24" fill="none" xmlns="http://www.w3.org/2000/svg">
<path d="M21 11C21.5523 11 22 11.4477 22 12V19C22 20.6569 20.6569 22 19 22H5C3.34315 22 2 20.6569 2 19V12.0039C2.00013 11.4517 2.4478 11.0039 3 11.0039C3.5522 11.0039 3.99987 11.4517 4 12.0039V19C4 19.5523 4.44772 20 5 20H19C19.5523 20 20 19.5523 20 19V12C20 11.4477 20.4477 11 21 11ZM11.9961 2C12.5483 2.00013 12.9961 2.4478 12.9961 3V13.5898L15.793 10.793C16.1835 10.4024 16.8165 10.4025 17.207 10.793C17.5976 11.1835 17.5976 11.8165 17.207 12.207L12.707 16.707C12.5417 16.8724 12.3327 16.9659 12.1172 16.9912C12.0994 16.9934 12.0815 16.9949 12.0635 16.9961C12.0417 16.9975 12.0199 16.9991 11.998 16.999L11.9961 17C11.7001 17 11.4351 16.8704 11.252 16.666L6.79297 12.207C6.40247 11.8165 6.40248 11.1835 6.79297 10.793C7.18349 10.4024 7.81651 10.4025 8.20703 10.793L10.9961 13.582V3C10.9961 2.44772 11.4438 2 11.9961 2Z" fill="black" fill-opacity="0.88"/>
</svg>
