<svg width="24" height="24" viewBox="0 0 24 24" fill="none" xmlns="http://www.w3.org/2000/svg">
<path d="M1 19.9998V5.99976C1.00006 5.20419 1.31635 4.44122 1.87891 3.87866C2.4415 3.31612 3.2044 2.99976 4 2.99976H11C11.5522 2.99976 11.9999 3.44758 12 3.99976C12 4.55204 11.5523 4.99976 11 4.99976H4C3.73484 4.99976 3.48049 5.10526 3.29297 5.29272C3.10549 5.48021 3.00006 5.73462 3 5.99976V19.9998C3 20.2649 3.1055 20.5193 3.29297 20.7068C3.48051 20.8943 3.73478 20.9998 4 20.9998H18C18.2652 20.9998 18.5195 20.8943 18.707 20.7068C18.8945 20.5193 19 20.2649 19 19.9998V12.9998C19.0001 12.4476 19.4478 11.9998 20 11.9998C20.5522 11.9998 20.9999 12.4476 21 12.9998V19.9998C21 20.7954 20.6836 21.5583 20.1211 22.1208C19.5585 22.6835 18.7957 22.9998 18 22.9998H4C3.20435 22.9998 2.44152 22.6835 1.87891 22.1208C1.31637 21.5583 1 20.7954 1 19.9998ZM21.1211 3.99976C21.121 3.70245 21.0032 3.41702 20.793 3.20679C20.5827 2.99657 20.2973 2.87866 20 2.87866C19.7027 2.87866 19.4173 2.99657 19.207 3.20679L9.90234 12.5105L9.37305 14.6257L11.4883 14.0974L20.793 4.79272C21.0032 4.58245 21.1211 4.29709 21.1211 3.99976ZM23.1211 3.99976C23.1211 4.82753 22.7923 5.62144 22.207 6.20679L12.707 15.7068C12.5789 15.8349 12.418 15.9265 12.2422 15.9705L8.24219 16.9705C7.90153 17.0555 7.54125 16.9551 7.29297 16.7068C7.04468 16.4584 6.9451 16.0983 7.03027 15.7576L8.03027 11.7576L8.07129 11.6287C8.12141 11.5033 8.19684 11.3889 8.29297 11.2927L17.793 1.79272C18.3783 1.20743 19.1722 0.878662 20 0.878662C20.8278 0.878662 21.6217 1.20743 22.207 1.79272C22.7923 2.37803 23.121 3.17201 23.1211 3.99976Z" fill="#828894"/>
</svg>
