<svg width="24" height="24" viewBox="0 0 24 24" fill="none" xmlns="http://www.w3.org/2000/svg">
<path d="M10 2C10.5523 2 11 2.44772 11 3C11 3.55228 10.5523 4 10 4H4.5C4.22386 4 4 4.22386 4 4.5V19.5C4 19.7761 4.22386 20 4.5 20H19.5C19.7761 20 20 19.7761 20 19.5V14C20 13.4477 20.4477 13 21 13C21.5523 13 22 13.4477 22 14V19.5C22 20.8807 20.8807 22 19.5 22H4.5C3.11929 22 2 20.8807 2 19.5V4.5C2 3.11929 3.11929 2 4.5 2H10ZM21 2C21.5522 2.00007 22 2.44776 22 3V9C22 9.55224 21.5522 9.99993 21 10C20.4477 10 20 9.55228 20 9V5.41406L12.707 12.707C12.3165 13.0976 11.6835 13.0975 11.293 12.707C10.9025 12.3165 10.9025 11.6835 11.293 11.293L18.5859 4H15C14.4477 4 14 3.55228 14 3C14 2.44772 14.4477 2 15 2H21Z" fill="black" fill-opacity="0.88"/>
</svg>
