<svg width="16" height="16" viewBox="0 0 16 16" fill="none" xmlns="http://www.w3.org/2000/svg">
<path d="M13.3335 7.39966C13.3334 7.10527 13.0947 6.86653 12.8003 6.86645H7.3999C7.10556 6.8666 6.86684 7.10531 6.8667 7.39966V12.8C6.86677 13.0945 7.10551 13.3331 7.3999 13.3333H12.8003C13.0947 13.3332 13.3334 13.0945 13.3335 12.8V7.39966ZM9.13363 3.80005V3.19979C9.13359 3.05842 9.07732 2.92282 8.97738 2.82284C8.87742 2.72288 8.74178 2.66665 8.60042 2.66659H3.20003C3.05863 2.66662 2.92307 2.72285 2.82308 2.82284C2.72309 2.92282 2.66686 3.05839 2.66683 3.19979V8.60018C2.6669 8.74153 2.72312 8.87717 2.82308 8.97713C2.92306 9.07708 3.05866 9.13335 3.20003 9.13338H3.80029C4.16842 9.13345 4.46696 9.4319 4.46696 9.80005C4.46689 10.1681 4.16838 10.4666 3.80029 10.4667H3.20003C2.70504 10.4667 2.2304 10.2698 1.88037 9.91984C1.53036 9.56983 1.33357 9.09516 1.3335 8.60018V3.19979C1.33353 2.70476 1.53033 2.23016 1.88037 1.88013C2.23041 1.53009 2.70501 1.33329 3.20003 1.33325H8.60042C9.0954 1.33332 9.57008 1.53012 9.92008 1.88013C10.2701 2.23016 10.4669 2.7048 10.467 3.19979V3.80005C10.4669 4.16814 10.1684 4.46664 9.80029 4.46672C9.43215 4.46672 9.1337 4.16818 9.13363 3.80005ZM14.6668 12.8C14.6668 13.8309 13.8311 14.6665 12.8003 14.6666H7.3999C6.36913 14.6664 5.53344 13.8308 5.53337 12.8V7.39966C5.53351 6.36893 6.36918 5.53326 7.3999 5.53312H12.8003C13.8311 5.53319 14.6667 6.36889 14.6668 7.39966V12.8Z" fill="black" fill-opacity="0.88"/>
</svg>
