<svg width="24" height="24" viewBox="0 0 24 24" fill="none" xmlns="http://www.w3.org/2000/svg">
<path d="M8.79297 13.793C9.18349 13.4024 9.81651 13.4025 10.207 13.793C10.5976 14.1835 10.5976 14.8165 10.207 15.207L5.41406 20H9C9.55228 20 10 20.4477 10 21C10 21.5523 9.55228 22 9 22H5C3.34315 22 2 20.6569 2 19V15C2 14.4477 2.44772 14 3 14C3.55228 14 4 14.4477 4 15V18.5859L8.79297 13.793Z" fill="black" fill-opacity="0.88"/>
<path d="M21 14C21.5523 14 22 14.4477 22 15V19C22 20.6569 20.6569 22 19 22H15C14.4477 22 14 21.5523 14 21C14 20.4477 14.4477 20 15 20H19C19.5523 20 20 19.5523 20 19V15C20 14.4477 20.4477 14 21 14Z" fill="black" fill-opacity="0.88"/>
<path d="M19 2C20.6569 2 22 3.34315 22 5V9C22 9.55228 21.5523 10 21 10C20.4477 10 20 9.55228 20 9V5.41406L15.207 10.207C14.8165 10.5975 14.1835 10.5975 13.793 10.207C13.4025 9.81652 13.4025 9.18349 13.793 8.79297L18.5859 4H15C14.4477 4 14 3.55228 14 3C14 2.44772 14.4477 2 15 2H19Z" fill="black" fill-opacity="0.88"/>
<path d="M9 2C9.55228 2 10 2.44772 10 3C10 3.55228 9.55228 4 9 4H5C4.44772 4 4 4.44772 4 5V9C4 9.55228 3.55228 10 3 10C2.44772 10 2 9.55228 2 9V5C2 3.34315 3.34315 2 5 2H9Z" fill="black" fill-opacity="0.88"/>
</svg>
