<svg width="1em" height="1em" viewBox="0 0 16 16" fill="none" xmlns="http://www.w3.org/2000/svg">
<path d="M7.33366 1.33341C7.70185 1.33341 8.00033 1.63189 8.00033 2.00008C8.00033 2.36827 7.70185 2.66675 7.33366 2.66675H2.33366C2.14956 2.66675 2.00033 2.81599 2.00033 3.00008V10.3334C2.00033 10.5175 2.14956 10.6667 2.33366 10.6667H13.667C13.8511 10.6667 14.0003 10.5175 14.0003 10.3334V8.33341C14.0003 7.96522 14.2988 7.66675 14.667 7.66675C15.0352 7.66675 15.3337 7.96522 15.3337 8.33341V10.3334C15.3337 11.2539 14.5875 12.0001 13.667 12.0001H8.66699V13.3334H12.0003C12.3685 13.3334 12.667 13.6319 12.667 14.0001C12.667 14.3683 12.3685 14.6667 12.0003 14.6667H4.00033C3.63214 14.6667 3.33366 14.3683 3.33366 14.0001C3.33366 13.6319 3.63214 13.3334 4.00033 13.3334H7.33366V12.0001H2.33366C1.41318 12.0001 0.666992 11.2539 0.666992 10.3334V3.00008C0.666992 2.07961 1.41318 1.33341 2.33366 1.33341H7.33366Z" fill="currentColor"/>
<path fill-rule="evenodd" clip-rule="evenodd" d="M10.667 0.666748C10.9428 0.666748 11.1903 0.836468 11.2894 1.09383L12.0602 3.09774C12.1978 3.45549 12.2292 3.52437 12.2666 3.5769C12.3098 3.63761 12.3628 3.69063 12.4235 3.73381C12.476 3.77116 12.5449 3.80259 12.9027 3.94019L14.9066 4.71102C15.1639 4.81009 15.3337 5.05763 15.3337 5.33341C15.3337 5.6092 15.1639 5.85674 14.9066 5.95581L12.9027 6.72664C12.5449 6.86424 12.476 6.89567 12.4235 6.93302C12.3628 6.9762 12.3098 7.02922 12.2666 7.08993C12.2292 7.14246 12.1978 7.21134 12.0602 7.56909L11.2894 9.573C11.1903 9.83036 10.9428 10.0001 10.667 10.0001C10.3912 10.0001 10.1437 9.83036 10.0446 9.573L9.27376 7.56909C9.13616 7.21134 9.10474 7.14246 9.06738 7.08993C9.02421 7.02922 8.97119 6.9762 8.91048 6.93302C8.85795 6.89567 8.78907 6.86424 8.43132 6.72664L6.42741 5.95581C6.17005 5.85674 6.00033 5.6092 6.00033 5.33341C6.00033 5.05763 6.17005 4.81009 6.42741 4.71102L8.43132 3.94019C8.78907 3.80259 8.85795 3.77116 8.91048 3.73381C8.97119 3.69063 9.02421 3.63761 9.06738 3.5769C9.10474 3.52437 9.13616 3.45549 9.27376 3.09774L10.0446 1.09383L10.0889 1.00203C10.2063 0.797005 10.4256 0.666748 10.667 0.666748ZM10.5186 3.5769C10.4055 3.87083 10.3115 4.12815 10.154 4.34969C10.0245 4.53179 9.86537 4.69089 9.68327 4.82039C9.46173 4.97792 9.20441 5.07193 8.91048 5.18498L8.52441 5.33341L8.91048 5.48185C9.20441 5.5949 9.46173 5.68891 9.68327 5.84644C9.86537 5.97594 10.0245 6.13504 10.154 6.31714C10.3115 6.53868 10.4055 6.79599 10.5186 7.08993L10.667 7.47534L10.8154 7.08993C10.9285 6.79599 11.0225 6.53868 11.18 6.31714C11.3095 6.13504 11.4686 5.97594 11.6507 5.84644C11.8723 5.68891 12.1296 5.5949 12.4235 5.48185L12.8089 5.33341L12.4235 5.18498C12.1296 5.07193 11.8723 4.97792 11.6507 4.82039C11.4686 4.69089 11.3095 4.53179 11.18 4.34969C11.0225 4.12815 10.9285 3.87084 10.8154 3.5769L10.667 3.19084L10.5186 3.5769Z" fill="currentColor"/>
</svg>
