<svg width="24" height="24" viewBox="0 0 24 24" fill="none" xmlns="http://www.w3.org/2000/svg">
<path d="M10 2C10.5523 2 11 2.44772 11 3C11 3.55228 10.5523 4 10 4H4V20H20V14C20 13.4477 20.4477 13 21 13C21.5523 13 22 13.4477 22 14V20C22 21.1046 21.1046 22 20 22H4C2.89543 22 2 21.1046 2 20V4C2 2.89543 2.89543 2 4 2H10ZM20.293 2.29297C20.6835 1.90245 21.3165 1.90246 21.707 2.29297C22.0975 2.68349 22.0975 3.31651 21.707 3.70703L14.4141 11H18C18.5523 11 19 11.4477 19 12C19 12.5523 18.5523 13 18 13H12C11.4477 13 11 12.5523 11 12V6C11 5.44772 11.4477 5 12 5C12.5523 5 13 5.44772 13 6V9.58594L20.293 2.29297Z" fill="black" fill-opacity="0.88"/>
</svg>
