<svg width="22" height="22" viewBox="0 0 22 22" fill="none" xmlns="http://www.w3.org/2000/svg">
<path d="M9.36839 6.94359C10.2265 7.00505 11.0616 7.25081 11.8166 7.66331C12.5717 8.07582 13.229 8.64623 13.7444 9.33519C14.075 9.77735 13.9852 10.4038 13.5432 10.7346C13.1009 11.0654 12.4736 10.9747 12.1428 10.5325C11.7993 10.0733 11.3609 9.69314 10.8576 9.4182C10.3544 9.14327 9.79782 8.97968 9.22581 8.9387C8.65379 8.89774 8.07955 8.98049 7.54222 9.18089C7.0719 9.35633 6.63929 9.61872 6.26683 9.95335L6.11058 10.1008L3.12327 13.0881L2.99046 13.2326C2.3457 13.9691 1.99168 14.9192 2.00022 15.9026C2.00946 16.9512 2.43058 17.954 3.1721 18.6955C3.91363 19.4371 4.91644 19.8582 5.96507 19.8674C7.01385 19.8765 8.02511 19.473 8.77952 18.7444L10.4768 17.0471C10.8673 16.6566 11.5003 16.6566 11.8908 17.0471C12.2812 17.4376 12.2813 18.0707 11.8908 18.4612L10.1809 20.1711L9.95237 20.3821C8.84772 21.3491 7.42335 21.8801 5.94847 21.8674C4.3753 21.8537 2.87048 21.222 1.75804 20.1096C0.645588 18.9972 0.0138946 17.4924 0.000224041 15.9192C-0.0125158 14.4443 0.518492 13.0199 1.48558 11.9153L1.69651 11.6868L4.69651 8.68675L4.92991 8.46507C5.48858 7.96317 6.13757 7.57001 6.843 7.30687C7.64901 7.00622 8.51033 6.88216 9.36839 6.94359ZM15.9397 0.000226624C17.5128 0.0139483 19.0177 0.645637 20.1301 1.75804C21.2424 2.87046 21.8733 4.37542 21.8869 5.94847C21.9005 7.52138 21.296 9.0367 20.2033 10.1682L17.1907 13.1809C16.5824 13.7893 15.8502 14.2601 15.0442 14.5608C14.2382 14.8613 13.3768 14.9845 12.5188 14.9231C11.6607 14.8616 10.8255 14.6168 10.0705 14.2043C9.31561 13.7918 8.65809 13.2213 8.1428 12.5325C7.81226 12.0902 7.9028 11.4638 8.34495 11.133C8.7872 10.8023 9.41358 10.893 9.74436 11.3352C10.0879 11.7944 10.5263 12.1745 11.0295 12.4494C11.5329 12.7245 12.0902 12.888 12.6623 12.9289C13.2343 12.9698 13.8087 12.8872 14.3459 12.6868C14.8832 12.4863 15.3711 12.1724 15.7766 11.7668L18.7766 8.76683C19.4977 8.01377 19.896 7.00812 19.8869 5.96507C19.8777 4.91656 19.4574 3.91361 18.716 3.1721C17.9744 2.43047 16.9709 2.00934 15.9221 2.00023C14.8733 1.99111 13.863 2.39464 13.1086 3.12327L13.1076 3.1223L11.3987 4.82249C11.007 5.21188 10.374 5.21025 9.9846 4.81859C9.59537 4.42694 9.59696 3.79387 9.98851 3.40452L11.7092 1.69456L11.719 1.6848C12.8506 0.591849 14.3665 -0.0134439 15.9397 0.000226624Z" fill="black" fill-opacity="0.88"/>
</svg>
