<svg width="24" height="24" viewBox="0 0 24 24" fill="none" xmlns="http://www.w3.org/2000/svg">
<path d="M20.0146 7.7832C20.5288 7.58173 21.109 7.83553 21.3105 8.34961C22.7157 11.9359 21.9708 16.1736 19.0703 19.0742C15.8086 22.3357 10.8556 22.8713 7.03613 20.6846L7.25879 22.0215C7.34922 22.5659 6.98092 23.081 6.43652 23.1719C5.89193 23.2625 5.37609 22.8941 5.28516 22.3496L4.64941 18.5312C4.60585 18.2697 4.66813 18.0009 4.82227 17.7852C4.97642 17.5697 5.21032 17.4244 5.47168 17.3809L9.29004 16.7441C9.83438 16.6537 10.3493 17.0212 10.4404 17.5654C10.5312 18.1101 10.1628 18.6259 9.61816 18.7168L8.07617 18.9746C11.1252 20.6927 15.0603 20.2559 17.6562 17.6602C19.9747 15.3416 20.574 11.951 19.4482 9.07812C19.2474 8.56415 19.5008 7.98461 20.0146 7.7832ZM17.5625 0.834961C18.1072 0.744225 18.6231 1.11249 18.7139 1.65723L19.3496 5.47461C19.4404 6.01935 19.0721 6.53421 18.5273 6.625L14.709 7.26172C14.1645 7.35222 13.6496 6.98481 13.5586 6.44043C13.4678 5.89571 13.8362 5.37993 14.3809 5.28906L15.9229 5.03125C12.8737 3.31318 8.93871 3.75074 6.34277 6.34668C4.02432 8.66525 3.42499 12.0549 4.55078 14.9277C4.75181 15.4417 4.49827 16.0212 3.98438 16.2227C3.47029 16.4241 2.89012 16.1712 2.68848 15.6572C1.28311 12.0709 2.02814 7.8333 4.92871 4.93262C8.19047 1.67086 13.1433 1.13542 16.9629 3.32227L16.7402 1.98535C16.6496 1.44078 17.018 0.925901 17.5625 0.834961ZM13.583 7.95898C14.249 7.54298 15.1133 8.02228 15.1133 8.80762V15.1992C15.113 15.9844 14.2489 16.4629 13.583 16.0469L8.46973 12.8506C7.84323 12.4589 7.84316 11.5469 8.46973 11.1553L13.583 7.95898Z" fill="black" fill-opacity="0.88"/>
</svg>
