<svg width="24" height="24" viewBox="0 0 24 24" fill="none" xmlns="http://www.w3.org/2000/svg">
<path d="M19 2C20.6569 2 22 3.34315 22 5V19C22 20.6569 20.6569 22 19 22H5C3.34315 22 2 20.6569 2 19V18C2 17.4477 2.44772 17 3 17C3.55228 17 4 17.4477 4 18V19C4 19.5523 4.44772 20 5 20H19C19.5523 20 20 19.5523 20 19V5C20 4.44772 19.5523 4 19 4H5C4.44772 4 4 4.44772 4 5V9C4 9.55228 3.55228 10 3 10C2.44772 10 2 9.55228 2 9V5C2 3.34315 3.34315 2 5 2H19Z" fill="black" fill-opacity="0.88"/>
<path d="M14.4004 6C14.9925 6.00004 15.7603 6.10684 16.2148 6.7168C16.6984 7.36583 16.4948 8.11403 16.3223 8.53418C16.1283 9.00641 15.7985 9.50061 15.4453 9.9668C15.0833 10.4446 14.6514 10.9502 14.2109 11.4482C13.3039 12.4738 12.3876 13.4423 11.7441 14.2656C11.702 14.3195 11.6627 14.3718 11.625 14.4219C11.8237 14.3241 12.0416 14.2062 12.2754 14.0713C12.7075 13.822 13.2508 13.4828 13.6602 13.2734C13.8682 13.167 14.1249 13.0491 14.3838 12.9883C14.5745 12.9435 15.0876 12.8534 15.5264 13.2031L15.6133 13.2793L15.708 13.3799C15.9113 13.6208 15.9934 13.8923 16.0303 14.084C16.074 14.3119 16.0747 14.541 16.0645 14.7334C16.0594 14.8278 16.0511 14.9249 16.04 15.0225C16.1388 14.9328 16.2312 14.8519 16.3066 14.7793C16.7047 14.3966 17.3379 14.4088 17.7207 14.8066C18.1034 15.2047 18.0913 15.8379 17.6934 16.2207C17.416 16.4874 16.9727 16.8875 16.5342 17.2275C16.3165 17.3963 16.0789 17.5664 15.8516 17.6992C15.738 17.7656 15.6086 17.8333 15.4727 17.8867C15.3493 17.9352 15.1517 18 14.9199 18C14.6694 18 14.4023 17.9176 14.1816 17.7246C13.9803 17.5485 13.8855 17.3398 13.8398 17.1982C13.7563 16.9387 13.7667 16.6785 13.7764 16.5342C13.7978 16.2161 13.879 15.8115 13.9375 15.502C13.9439 15.468 13.949 15.4342 13.9551 15.4014C13.7531 15.5213 13.5297 15.6564 13.2744 15.8037C12.7847 16.0862 12.1921 16.4067 11.6221 16.5762C11.0979 16.732 10.219 16.8669 9.54688 16.2207C8.88873 15.5877 9.15245 14.7482 9.30762 14.3857C9.49682 13.9438 9.8236 13.4738 10.168 13.0332C10.8608 12.1468 11.8774 11.0676 12.7129 10.123C13.1437 9.63602 13.5359 9.17544 13.8516 8.75879C14.0802 8.45697 14.2464 8.20346 14.3584 8.00098C10.5182 8.02199 6.75982 10.9418 3.77734 14.6289C3.43 15.0582 2.80046 15.1246 2.37109 14.7773C1.9418 14.43 1.87537 13.8005 2.22266 13.3711C5.29602 9.57161 9.58835 6.00002 14.4004 6Z" fill="black" fill-opacity="0.88"/>
</svg>
