<svg width="24" height="24" viewBox="0 0 24 24" fill="none" xmlns="http://www.w3.org/2000/svg">
<path d="M4 22V20.5H2.5C1.94772 20.5 1.5 20.0523 1.5 19.5C1.5 18.9477 1.94772 18.5 2.5 18.5H4V17C4 16.4477 4.44772 16 5 16C5.55228 16 6 16.4477 6 17V18.5H7.5C8.05228 18.5 8.5 18.9477 8.5 19.5C8.5 20.0523 8.05228 20.5 7.5 20.5H6V22C6 22.5523 5.55228 23 5 23C4.44772 23 4 22.5523 4 22ZM13.5 2C13.9137 2 14.285 2.25458 14.4336 2.64062L16.168 7.14941C16.4684 7.93046 16.5623 8.1563 16.6914 8.33789C16.8209 8.51996 16.98 8.6791 17.1621 8.80859C17.3437 8.93772 17.5695 9.03163 18.3506 9.33203L22.8594 11.0664C23.2454 11.215 23.5 11.5863 23.5 12C23.5 12.4137 23.2454 12.785 22.8594 12.9336L18.3506 14.668C17.5695 14.9684 17.3437 15.0623 17.1621 15.1914C16.98 15.3209 16.8209 15.48 16.6914 15.6621C16.5623 15.8437 16.4684 16.0695 16.168 16.8506L14.4336 21.3594C14.285 21.7454 13.9137 22 13.5 22C13.0863 22 12.715 21.7454 12.5664 21.3594L10.832 16.8506C10.5316 16.0695 10.4377 15.8437 10.3086 15.6621C10.1791 15.48 10.02 15.3209 9.83789 15.1914C9.6563 15.0623 9.43046 14.9684 8.64941 14.668L4.14062 12.9336C3.75458 12.785 3.5 12.4137 3.5 12C3.5 11.5863 3.75458 11.215 4.14062 11.0664L8.64941 9.33203C9.43046 9.03163 9.6563 8.93772 9.83789 8.80859C10.02 8.6791 10.1791 8.51996 10.3086 8.33789C10.4377 8.1563 10.5316 7.93046 10.832 7.14941L12.5664 2.64062C12.715 2.25458 13.0863 2 13.5 2ZM12.6992 7.86816C12.4357 8.55328 12.2477 9.06105 11.9385 9.49609C11.6794 9.86051 11.3605 10.1794 10.9961 10.4385C10.5611 10.7477 10.0533 10.9357 9.36816 11.1992L7.28613 12L9.36816 12.8008C10.0533 13.0643 10.5611 13.2523 10.9961 13.5615C11.3605 13.8206 11.6794 14.1395 11.9385 14.5039C12.2477 14.9389 12.4357 15.4467 12.6992 16.1318L13.5 18.2129L14.3008 16.1318C14.5643 15.4467 14.7523 14.9389 15.0615 14.5039C15.3206 14.1395 15.6395 13.8206 16.0039 13.5615C16.4389 13.2523 16.9467 13.0643 17.6318 12.8008L19.7129 12L17.6318 11.1992C16.9467 10.9357 16.4389 10.7477 16.0039 10.4385C15.6395 10.1794 15.3206 9.86051 15.0615 9.49609C14.7523 9.06105 14.5643 8.55328 14.3008 7.86816L13.5 5.78613L12.6992 7.86816ZM4 7V5.5H2.5C1.94772 5.5 1.5 5.05228 1.5 4.5C1.5 3.94772 1.94772 3.5 2.5 3.5H4V2C4 1.44772 4.44772 1 5 1C5.55228 1 6 1.44772 6 2V3.5H7.5C8.05228 3.5 8.5 3.94772 8.5 4.5C8.5 5.05228 8.05228 5.5 7.5 5.5H6V7C6 7.55228 5.55228 8 5 8C4.44772 8 4 7.55228 4 7Z" fill="#828894"/>
</svg>
