<svg width="24" height="24" viewBox="0 0 24 24" fill="none" xmlns="http://www.w3.org/2000/svg">
<path d="M18.8691 0.724619C19.2619 0.404269 19.8409 0.426863 20.207 0.792978L23.207 3.79298C23.5976 4.1835 23.5976 4.81652 23.207 5.20704L19.4141 9.00001L20.707 10.293C21.0976 10.6835 21.0976 11.3165 20.707 11.707C20.3165 12.0976 19.6835 12.0976 19.293 11.707L18.5 10.9141L6.70703 22.707C6.5195 22.8946 6.26522 23 6 23H2C1.44772 23 1 22.5523 1 22V18L1.00488 17.9014C1.02757 17.6724 1.12883 17.4571 1.29297 17.293L13.0859 5.50001L12.293 4.70704C11.9024 4.31652 11.9024 3.6835 12.293 3.29298C12.6835 2.90245 13.3165 2.90245 13.707 3.29298L15 4.58595L18.793 0.792978L18.8691 0.724619ZM3 18.4141V21H5.58594L17.0859 9.50001L14.5 6.91407L3 18.4141Z" fill="black" fill-opacity="0.88"/>
</svg>
