<svg width="16" height="16" viewBox="0 0 16 16" fill="none" xmlns="http://www.w3.org/2000/svg">
<path d="M9.33301 0.666992C9.50982 0.666992 9.67966 0.73728 9.80469 0.862305L13.8047 4.8623C13.9295 4.98724 13.9999 5.15639 14 5.33301V9.33301C14 9.7012 13.7012 10 13.333 10C12.965 9.99982 12.667 9.70109 12.667 9.33301V6H9.33301C8.96497 5.99982 8.66699 5.70109 8.66699 5.33301V2H4C3.82319 2 3.65334 2.07029 3.52832 2.19531C3.4034 2.32032 3.33301 2.49026 3.33301 2.66699V13.333C3.33301 13.5097 3.4034 13.6797 3.52832 13.8047C3.65334 13.9297 3.82319 14 4 14H8C8.36819 14 8.66699 14.2988 8.66699 14.667C8.66682 15.035 8.36808 15.333 8 15.333H4C3.46957 15.333 2.96101 15.1221 2.58594 14.7471C2.21097 14.372 2 13.8634 2 13.333V2.66699C2 2.13664 2.21097 1.62799 2.58594 1.25293C2.96101 0.877857 3.46957 0.666992 4 0.666992H9.33301ZM10.333 9.33301C11.6217 9.33301 12.667 10.3783 12.667 11.667C12.6669 12.0687 12.5645 12.4464 12.3857 12.7764L13.8047 14.1953C14.0649 14.4556 14.0648 14.8773 13.8047 15.1377C13.5443 15.398 13.1227 15.398 12.8623 15.1377L11.4434 13.7188C11.1132 13.8977 10.735 14 10.333 14C9.0446 13.9998 8.00018 12.9554 8 11.667C8 10.3784 9.04449 9.33318 10.333 9.33301ZM10.333 10.667C9.78087 10.6672 9.33301 11.1148 9.33301 11.667C9.33318 12.219 9.78098 12.6668 10.333 12.667C10.8852 12.667 11.3328 12.2191 11.333 11.667C11.333 11.1147 10.8853 10.667 10.333 10.667ZM6 10.667C6.36808 10.667 6.66682 10.965 6.66699 11.333C6.66699 11.7012 6.36819 12 6 12H5.33301C4.96497 11.9998 4.66699 11.7011 4.66699 11.333C4.66717 10.9651 4.96508 10.6672 5.33301 10.667H6ZM8 8C8.36819 8 8.66699 8.2988 8.66699 8.66699C8.66682 9.03503 8.36808 9.33301 8 9.33301H5.33301C4.96508 9.33283 4.66717 9.03492 4.66699 8.66699C4.66699 8.29891 4.96497 8.00018 5.33301 8H8ZM6.66699 5.33301C7.03503 5.33318 7.33301 5.63192 7.33301 6C7.33301 6.36808 7.03503 6.66682 6.66699 6.66699H5.33301C4.96497 6.66682 4.66699 6.36808 4.66699 6C4.66699 5.63192 4.96497 5.33318 5.33301 5.33301H6.66699ZM10 4.66699H11.7236L10 2.94238V4.66699Z" fill="currentColor" fill-opacity="0.88"/>
</svg>
