<svg width="24" height="24" viewBox="0 0 24 24" fill="none" xmlns="http://www.w3.org/2000/svg">
<path d="M21 11C21.5523 11 22 11.4477 22 12V19C22 20.6569 20.6569 22 19 22H5C3.34315 22 2 20.6569 2 19V12.0039C2.00013 11.4517 2.4478 11.0039 3 11.0039C3.5522 11.0039 3.99987 11.4517 4 12.0039V19C4 19.5523 4.44772 20 5 20H19C19.5523 20 20 19.5523 20 19V12C20 11.4477 20.4477 11 21 11ZM12.0166 2.00098C12.0371 2.00131 12.0576 2.00232 12.0781 2.00391C12.0899 2.00486 12.1016 2.00547 12.1133 2.00684C12.1368 2.0095 12.1602 2.01324 12.1836 2.01758C12.1882 2.01845 12.1927 2.01957 12.1973 2.02051L12.2266 2.02637C12.4026 2.06709 12.5698 2.15574 12.707 2.29297L17.207 6.79297C17.5976 7.18349 17.5976 7.81651 17.207 8.20703C16.8165 8.59754 16.1835 8.59755 15.793 8.20703L12.9961 5.41016V16C12.9961 16.5522 12.5483 16.9999 11.9961 17C11.4438 17 10.9961 16.5523 10.9961 16V5.41797L8.20703 8.20703C7.81651 8.59754 7.18349 8.59755 6.79297 8.20703C6.40248 7.81651 6.40247 7.18349 6.79297 6.79297L11.252 2.33301C11.4227 2.1427 11.6647 2.01786 11.9365 2.00195C11.9495 2.00112 11.9626 2.0013 11.9756 2.00098C11.9823 2.00084 11.9893 2 11.9961 2C12.003 2 12.0098 2.00084 12.0166 2.00098Z" fill="black" fill-opacity="0.88"/>
</svg>
